<?xml version="1.0" encoding="utf-8" standalone="no"?>
<!DOCTYPE svg PUBLIC "-//W3C//DTD SVG 1.1//EN"
  "http://www.w3.org/Graphics/SVG/1.1/DTD/svg11.dtd">
<svg xmlns:xlink="http://www.w3.org/1999/xlink" width="573.610281pt" height="381.868437pt" viewBox="0 0 573.610281 381.868437" xmlns="http://www.w3.org/2000/svg" version="1.1">
 <metadata>
  <rdf:RDF xmlns:dc="http://purl.org/dc/elements/1.1/" xmlns:cc="http://creativecommons.org/ns#" xmlns:rdf="http://www.w3.org/1999/02/22-rdf-syntax-ns#">
   <cc:Work>
    <dc:type rdf:resource="http://purl.org/dc/dcmitype/StillImage"/>
    <dc:date>2026-04-27T15:29:37.165660</dc:date>
    <dc:format>image/svg+xml</dc:format>
    <dc:creator>
     <cc:Agent>
      <dc:title>Matplotlib v3.10.8, https://matplotlib.org/</dc:title>
     </cc:Agent>
    </dc:creator>
   </cc:Work>
  </rdf:RDF>
 </metadata>
 <defs>
  <style type="text/css">*{stroke-linejoin: round; stroke-linecap: butt}</style>
 </defs>
 <g id="figure_1">
  <g id="patch_1">
   <path d="M -0 381.868437 
L 573.610281 381.868437 
L 573.610281 0 
L -0 0 
z
" style="fill: #ffffff"/>
  </g>
  <g id="axes_1">
   <g id="patch_2">
    <path d="M 53.608281 358.958125 
L 566.410281 358.958125 
L 566.410281 26.318125 
L 53.608281 26.318125 
z
" style="fill: #ffffff"/>
   </g>
   <g id="FillBetweenPolyCollection_1">
    <defs>
     <path id="m541322af5c" d="M 99.760461 -22.910312 
L 58.736301 -22.910312 
L 58.914389 -24.467737 
L 59.490324 -26.025162 
L 60.430326 -27.582587 
L 61.680699 -29.140012 
L 63.172906 -30.697437 
L 64.829776 -32.254862 
L 66.572053 -33.812287 
L 68.324533 -35.369712 
L 70.021141 -36.927137 
L 71.608511 -38.484561 
L 73.047892 -40.041986 
L 74.315423 -41.599411 
L 75.401022 -43.156836 
L 76.306279 -44.714261 
L 77.041759 -46.271686 
L 77.624136 -47.829111 
L 78.073494 -49.386536 
L 78.411019 -50.943961 
L 78.657233 -52.501385 
L 78.830788 -54.05881 
L 78.947788 -55.616235 
L 79.02155 -57.17366 
L 79.062693 -58.731085 
L 79.079448 -60.28851 
L 79.07808 -61.845935 
L 79.063348 -63.40336 
L 79.038947 -64.960785 
L 79.007872 -66.518209 
L 78.972707 -68.075634 
L 78.935819 -69.633059 
L 78.899444 -71.190484 
L 78.865715 -72.747909 
L 78.836605 -74.305334 
L 78.813841 -75.862759 
L 78.798801 -77.420184 
L 78.792412 -78.977609 
L 78.795078 -80.535034 
L 78.806656 -82.092458 
L 78.826471 -83.649883 
L 78.853389 -85.207308 
L 78.885925 -86.764733 
L 78.922378 -88.322158 
L 78.960981 -89.879583 
L 79.00004 -91.437008 
L 79.038047 -92.994433 
L 79.073772 -94.551858 
L 79.106304 -96.109282 
L 79.135069 -97.666707 
L 79.159802 -99.224132 
L 79.180511 -100.781557 
L 79.19741 -102.338982 
L 79.21086 -103.896407 
L 79.22131 -105.453832 
L 79.229236 -107.011257 
L 79.23511 -108.568682 
L 79.239365 -110.126106 
L 79.242377 -111.683531 
L 79.244462 -113.240956 
L 79.245874 -114.798381 
L 79.246809 -116.355806 
L 79.247415 -117.913231 
L 79.247798 -119.470656 
L 79.248036 -121.028081 
L 79.24818 -122.585506 
L 79.248264 -124.142931 
L 79.24831 -125.700355 
L 79.248331 -127.25778 
L 79.248333 -128.815205 
L 79.248316 -130.37263 
L 79.248276 -131.930055 
L 79.248202 -133.48748 
L 79.248073 -135.044905 
L 79.247859 -136.60233 
L 79.247511 -138.159755 
L 79.246959 -139.717179 
L 79.246104 -141.274604 
L 79.244807 -142.832029 
L 79.242883 -144.389454 
L 79.240089 -145.946879 
L 79.236125 -147.504304 
L 79.230626 -149.061729 
L 79.223169 -150.619154 
L 79.21329 -152.176579 
L 79.200509 -153.734003 
L 79.184368 -155.291428 
L 79.164484 -156.848853 
L 79.140605 -158.406278 
L 79.112675 -159.963703 
L 79.080898 -161.521128 
L 79.04578 -163.078553 
L 79.00816 -164.635978 
L 78.969206 -166.193403 
L 78.930371 -167.750828 
L 78.89332 -169.308252 
L 78.859817 -170.865677 
L 78.831588 -172.423102 
L 78.810178 -173.980527 
L 78.796807 -175.537952 
L 78.79226 -177.095377 
L 79.704502 -177.095377 
L 79.704502 -177.095377 
L 79.699955 -175.537952 
L 79.686585 -173.980527 
L 79.665174 -172.423102 
L 79.636945 -170.865677 
L 79.603442 -169.308252 
L 79.566392 -167.750828 
L 79.527557 -166.193403 
L 79.488602 -164.635978 
L 79.450983 -163.078553 
L 79.415865 -161.521128 
L 79.384087 -159.963703 
L 79.356158 -158.406278 
L 79.332279 -156.848853 
L 79.312394 -155.291428 
L 79.296254 -153.734003 
L 79.283473 -152.176579 
L 79.273594 -150.619154 
L 79.266137 -149.061729 
L 79.260637 -147.504304 
L 79.256673 -145.946879 
L 79.25388 -144.389454 
L 79.251955 -142.832029 
L 79.250658 -141.274604 
L 79.249803 -139.717179 
L 79.249252 -138.159755 
L 79.248904 -136.60233 
L 79.248689 -135.044905 
L 79.248561 -133.48748 
L 79.248486 -131.930055 
L 79.248446 -130.37263 
L 79.24843 -128.815205 
L 79.248431 -127.25778 
L 79.248452 -125.700355 
L 79.248498 -124.142931 
L 79.248582 -122.585506 
L 79.248726 -121.028081 
L 79.248964 -119.470656 
L 79.249348 -117.913231 
L 79.249954 -116.355806 
L 79.250889 -114.798381 
L 79.2523 -113.240956 
L 79.254386 -111.683531 
L 79.257398 -110.126106 
L 79.261652 -108.568682 
L 79.267526 -107.011257 
L 79.275453 -105.453832 
L 79.285902 -103.896407 
L 79.299353 -102.338982 
L 79.316252 -100.781557 
L 79.33696 -99.224132 
L 79.361694 -97.666707 
L 79.390458 -96.109282 
L 79.422991 -94.551858 
L 79.458715 -92.994433 
L 79.496723 -91.437008 
L 79.535781 -89.879583 
L 79.574385 -88.322158 
L 79.610838 -86.764733 
L 79.643373 -85.207308 
L 79.670291 -83.649883 
L 79.690107 -82.092458 
L 79.701684 -80.535034 
L 79.704351 -78.977609 
L 79.697961 -77.420184 
L 79.682921 -75.862759 
L 79.660158 -74.305334 
L 79.631047 -72.747909 
L 79.597318 -71.190484 
L 79.560944 -69.633059 
L 79.524055 -68.075634 
L 79.488891 -66.518209 
L 79.457815 -64.960785 
L 79.433414 -63.40336 
L 79.418683 -61.845935 
L 79.417315 -60.28851 
L 79.434069 -58.731085 
L 79.475213 -57.17366 
L 79.548975 -55.616235 
L 79.665975 -54.05881 
L 79.83953 -52.501385 
L 80.085743 -50.943961 
L 80.423268 -49.386536 
L 80.872626 -47.829111 
L 81.455004 -46.271686 
L 82.190483 -44.714261 
L 83.09574 -43.156836 
L 84.181339 -41.599411 
L 85.44887 -40.041986 
L 86.888252 -38.484561 
L 88.475622 -36.927137 
L 90.172229 -35.369712 
L 91.924709 -33.812287 
L 93.666986 -32.254862 
L 95.323856 -30.697437 
L 96.816063 -29.140012 
L 98.066436 -27.582587 
L 99.006438 -26.025162 
L 99.582373 -24.467737 
L 99.760461 -22.910312 
z
" style="stroke: #6e6e6e; stroke-width: 0.8"/>
    </defs>
    <g clip-path="url(#p494daf9221)">
     <use xlink:href="#m541322af5c" x="0" y="381.868437" style="fill: #b8b8b8; stroke: #6e6e6e; stroke-width: 0.8"/>
    </g>
   </g>
   <g id="FillBetweenPolyCollection_2">
    <defs>
     <path id="m8bd2019fc1" d="M 145.632867 -22.910312 
L 115.424296 -22.910312 
L 115.504373 -25.065784 
L 115.891717 -27.221256 
L 116.562401 -29.376728 
L 117.47619 -31.532199 
L 118.580521 -33.687671 
L 119.815467 -35.843143 
L 121.119048 -37.998614 
L 122.432231 -40.154086 
L 123.703077 -42.309558 
L 124.88966 -44.465029 
L 125.961615 -46.620501 
L 126.900348 -48.775973 
L 127.698136 -50.931445 
L 128.356425 -53.086916 
L 128.883689 -55.242388 
L 129.293181 -57.39786 
L 129.600841 -59.553331 
L 129.82355 -61.708803 
L 129.977804 -63.864275 
L 130.078826 -66.019746 
L 130.140057 -68.175218 
L 130.172952 -70.33069 
L 130.18698 -72.486162 
L 130.189754 -74.641633 
L 130.187205 -76.797105 
L 130.183786 -78.952577 
L 130.182652 -81.108048 
L 130.185839 -83.26352 
L 130.194418 -85.418992 
L 130.208657 -87.574463 
L 130.228179 -89.729935 
L 130.252129 -91.885407 
L 130.279338 -94.040879 
L 130.308486 -96.19635 
L 130.338242 -98.351822 
L 130.367391 -100.507294 
L 130.394913 -102.662765 
L 130.420043 -104.818237 
L 130.442284 -106.973709 
L 130.461397 -109.12918 
L 130.477367 -111.284652 
L 130.490354 -113.440124 
L 130.500643 -115.595596 
L 130.508588 -117.751067 
L 130.514572 -119.906539 
L 130.51897 -122.062011 
L 130.522124 -124.217482 
L 130.524334 -126.372954 
L 130.525846 -128.528426 
L 130.526856 -130.683897 
L 130.527516 -132.839369 
L 130.527937 -134.994841 
L 130.5282 -137.150313 
L 130.52836 -139.305784 
L 130.528456 -141.461256 
L 130.528512 -143.616728 
L 130.528543 -145.772199 
L 130.528561 -147.927671 
L 130.528571 -150.083143 
L 130.528576 -152.238614 
L 130.528578 -154.394086 
L 130.52858 -156.549558 
L 130.52858 -158.705029 
L 130.52858 -160.860501 
L 130.528579 -163.015973 
L 130.528578 -165.171445 
L 130.528574 -167.326916 
L 130.528568 -169.482388 
L 130.528555 -171.63786 
L 130.528533 -173.793331 
L 130.528494 -175.948803 
L 130.528425 -178.104275 
L 130.528308 -180.259746 
L 130.528114 -182.415218 
L 130.527798 -184.57069 
L 130.527296 -186.726162 
L 130.526517 -188.881633 
L 130.525334 -191.037105 
L 130.52358 -193.192577 
L 130.521039 -195.348048 
L 130.517445 -197.50352 
L 130.512481 -199.658992 
L 130.505789 -201.814463 
L 130.496988 -203.969935 
L 130.485702 -206.125407 
L 130.471597 -208.280879 
L 130.454431 -210.43635 
L 130.434105 -212.591822 
L 130.410718 -214.747294 
L 130.384605 -216.902765 
L 130.356373 -219.058237 
L 130.326899 -221.213709 
L 130.297304 -223.36918 
L 130.268894 -225.524652 
L 130.243073 -227.680124 
L 130.221227 -229.835596 
L 130.204607 -231.991067 
L 130.194207 -234.146539 
L 130.190666 -236.302011 
L 130.866496 -236.302011 
L 130.866496 -236.302011 
L 130.862956 -234.146539 
L 130.852555 -231.991067 
L 130.835935 -229.835596 
L 130.81409 -227.680124 
L 130.788268 -225.524652 
L 130.759859 -223.36918 
L 130.730264 -221.213709 
L 130.700789 -219.058237 
L 130.672558 -216.902765 
L 130.646445 -214.747294 
L 130.623057 -212.591822 
L 130.602731 -210.43635 
L 130.585566 -208.280879 
L 130.571461 -206.125407 
L 130.560175 -203.969935 
L 130.551374 -201.814463 
L 130.544682 -199.658992 
L 130.539718 -197.50352 
L 130.536123 -195.348048 
L 130.533583 -193.192577 
L 130.531829 -191.037105 
L 130.530646 -188.881633 
L 130.529867 -186.726162 
L 130.529365 -184.57069 
L 130.529049 -182.415218 
L 130.528855 -180.259746 
L 130.528738 -178.104275 
L 130.528669 -175.948803 
L 130.528629 -173.793331 
L 130.528607 -171.63786 
L 130.528595 -169.482388 
L 130.528588 -167.326916 
L 130.528585 -165.171445 
L 130.528583 -163.015973 
L 130.528582 -160.860501 
L 130.528582 -158.705029 
L 130.528583 -156.549558 
L 130.528584 -154.394086 
L 130.528587 -152.238614 
L 130.528592 -150.083143 
L 130.528601 -147.927671 
L 130.528619 -145.772199 
L 130.528651 -143.616728 
L 130.528707 -141.461256 
L 130.528802 -139.305784 
L 130.528963 -137.150313 
L 130.529225 -134.994841 
L 130.529647 -132.839369 
L 130.530307 -130.683897 
L 130.531317 -128.528426 
L 130.532829 -126.372954 
L 130.535038 -124.217482 
L 130.538193 -122.062011 
L 130.54259 -119.906539 
L 130.548574 -117.751067 
L 130.556519 -115.595596 
L 130.566808 -113.440124 
L 130.579795 -111.284652 
L 130.595765 -109.12918 
L 130.614878 -106.973709 
L 130.637119 -104.818237 
L 130.662249 -102.662765 
L 130.689772 -100.507294 
L 130.71892 -98.351822 
L 130.748677 -96.19635 
L 130.777824 -94.040879 
L 130.805033 -91.885407 
L 130.828983 -89.729935 
L 130.848506 -87.574463 
L 130.862744 -85.418992 
L 130.871323 -83.26352 
L 130.87451 -81.108048 
L 130.873377 -78.952577 
L 130.869958 -76.797105 
L 130.867409 -74.641633 
L 130.870182 -72.486162 
L 130.884211 -70.33069 
L 130.917106 -68.175218 
L 130.978336 -66.019746 
L 131.079358 -63.864275 
L 131.233613 -61.708803 
L 131.456322 -59.553331 
L 131.763982 -57.39786 
L 132.173473 -55.242388 
L 132.700737 -53.086916 
L 133.359026 -50.931445 
L 134.156814 -48.775973 
L 135.095548 -46.620501 
L 136.167502 -44.465029 
L 137.354086 -42.309558 
L 138.624932 -40.154086 
L 139.938115 -37.998614 
L 141.241696 -35.843143 
L 142.476641 -33.687671 
L 143.580972 -31.532199 
L 144.494762 -29.376728 
L 145.165445 -27.221256 
L 145.552789 -25.065784 
L 145.632867 -22.910312 
z
" style="stroke: #6e6e6e; stroke-width: 0.8"/>
    </defs>
    <g clip-path="url(#p494daf9221)">
     <use xlink:href="#m8bd2019fc1" x="0" y="381.868437" style="fill: #b8b8b8; stroke: #6e6e6e; stroke-width: 0.8"/>
    </g>
   </g>
   <g id="FillBetweenPolyCollection_3">
    <defs>
     <path id="m1831134dab" d="M 194.802225 -22.910312 
L 168.815338 -22.910312 
L 168.804521 -25.363646 
L 169.054786 -27.816979 
L 169.549443 -30.270312 
L 170.257745 -32.723646 
L 171.138007 -35.176979 
L 172.141618 -37.630313 
L 173.217416 -40.083646 
L 174.315871 -42.536979 
L 175.392627 -44.990313 
L 176.411067 -47.443646 
L 177.343766 -49.896979 
L 178.172849 -52.350313 
L 178.889422 -54.803646 
L 179.492323 -57.256979 
L 179.986488 -59.710313 
L 180.381183 -62.163646 
L 180.688337 -64.616979 
L 180.921115 -67.070313 
L 181.092794 -69.523646 
L 181.215965 -71.976979 
L 181.302025 -74.430313 
L 181.360902 -76.883646 
L 181.400944 -79.336979 
L 181.428929 -81.790312 
L 181.450144 -84.243646 
L 181.468503 -86.696979 
L 181.486699 -89.150313 
L 181.506367 -91.603646 
L 181.528263 -94.056979 
L 181.552453 -96.510313 
L 181.578506 -98.963646 
L 181.605669 -101.416979 
L 181.633044 -103.870313 
L 181.659718 -106.323646 
L 181.684882 -108.776979 
L 181.707894 -111.230313 
L 181.728318 -113.683646 
L 181.745935 -116.136979 
L 181.760713 -118.590313 
L 181.772782 -121.043646 
L 181.782383 -123.496979 
L 181.789828 -125.950313 
L 181.795458 -128.403646 
L 181.799612 -130.856979 
L 181.802603 -133.310313 
L 181.804705 -135.763646 
L 181.806149 -138.216979 
L 181.807117 -140.670312 
L 181.807751 -143.123646 
L 181.808157 -145.576979 
L 181.808411 -148.030313 
L 181.808566 -150.483646 
L 181.808659 -152.936979 
L 181.808713 -155.390313 
L 181.808744 -157.843646 
L 181.808761 -160.296979 
L 181.808771 -162.750313 
L 181.808776 -165.203646 
L 181.808779 -167.656979 
L 181.80878 -170.110313 
L 181.808781 -172.563646 
L 181.808781 -175.016979 
L 181.808781 -177.470313 
L 181.808781 -179.923646 
L 181.80878 -182.376979 
L 181.808778 -184.830313 
L 181.808775 -187.283646 
L 181.80877 -189.736979 
L 181.80876 -192.190313 
L 181.808741 -194.643646 
L 181.808708 -197.096979 
L 181.80865 -199.550313 
L 181.808551 -202.003646 
L 181.808386 -204.456979 
L 181.808116 -206.910313 
L 181.807687 -209.363646 
L 181.807018 -211.816979 
L 181.806 -214.270313 
L 181.804486 -216.723646 
L 181.802288 -219.176979 
L 181.799171 -221.630313 
L 181.794856 -224.083646 
L 181.789025 -226.536979 
L 181.781342 -228.990313 
L 181.77147 -231.443646 
L 181.759109 -233.896979 
L 181.744041 -236.350313 
L 181.726172 -238.803646 
L 181.705581 -241.256979 
L 181.682561 -243.710313 
L 181.657645 -246.163646 
L 181.631605 -248.616979 
L 181.605434 -251.070313 
L 181.580292 -253.523646 
L 181.557426 -255.976979 
L 181.538071 -258.430313 
L 181.52334 -260.883646 
L 181.514119 -263.336979 
L 181.51098 -265.790313 
L 182.106583 -265.790313 
L 182.106583 -265.790313 
L 182.103444 -263.336979 
L 182.094223 -260.883646 
L 182.079492 -258.430313 
L 182.060136 -255.976979 
L 182.03727 -253.523646 
L 182.012129 -251.070313 
L 181.985958 -248.616979 
L 181.959918 -246.163646 
L 181.935001 -243.710313 
L 181.911982 -241.256979 
L 181.891391 -238.803646 
L 181.873521 -236.350313 
L 181.858453 -233.896979 
L 181.846093 -231.443646 
L 181.836221 -228.990313 
L 181.828537 -226.536979 
L 181.822707 -224.083646 
L 181.818391 -221.630313 
L 181.815274 -219.176979 
L 181.813076 -216.723646 
L 181.811563 -214.270313 
L 181.810545 -211.816979 
L 181.809876 -209.363646 
L 181.809446 -206.910313 
L 181.809177 -204.456979 
L 181.809012 -202.003646 
L 181.808913 -199.550313 
L 181.808855 -197.096979 
L 181.808821 -194.643646 
L 181.808803 -192.190313 
L 181.808792 -189.736979 
L 181.808787 -187.283646 
L 181.808784 -184.830313 
L 181.808783 -182.376979 
L 181.808782 -179.923646 
L 181.808782 -177.470313 
L 181.808782 -175.016979 
L 181.808782 -172.563646 
L 181.808783 -170.110313 
L 181.808784 -167.656979 
L 181.808787 -165.203646 
L 181.808792 -162.750313 
L 181.808801 -160.296979 
L 181.808818 -157.843646 
L 181.808849 -155.390313 
L 181.808904 -152.936979 
L 181.808997 -150.483646 
L 181.809152 -148.030313 
L 181.809406 -145.576979 
L 181.809812 -143.123646 
L 181.810446 -140.670312 
L 181.811414 -138.216979 
L 181.812857 -135.763646 
L 181.81496 -133.310313 
L 181.817951 -130.856979 
L 181.822104 -128.403646 
L 181.827734 -125.950313 
L 181.835179 -123.496979 
L 181.844781 -121.043646 
L 181.856849 -118.590313 
L 181.871628 -116.136979 
L 181.889244 -113.683646 
L 181.909669 -111.230313 
L 181.93268 -108.776979 
L 181.957844 -106.323646 
L 181.984519 -103.870313 
L 182.011893 -101.416979 
L 182.039057 -98.963646 
L 182.065109 -96.510313 
L 182.0893 -94.056979 
L 182.111196 -91.603646 
L 182.130863 -89.150313 
L 182.149059 -86.696979 
L 182.167419 -84.243646 
L 182.188633 -81.790312 
L 182.216619 -79.336979 
L 182.256661 -76.883646 
L 182.315537 -74.430313 
L 182.401598 -71.976979 
L 182.524769 -69.523646 
L 182.696447 -67.070313 
L 182.929225 -64.616979 
L 183.23638 -62.163646 
L 183.631074 -59.710313 
L 184.125239 -57.256979 
L 184.728141 -54.803646 
L 185.444713 -52.350313 
L 186.273796 -49.896979 
L 187.206495 -47.443646 
L 188.224935 -44.990313 
L 189.301691 -42.536979 
L 190.400147 -40.083646 
L 191.475944 -37.630313 
L 192.479555 -35.176979 
L 193.359817 -32.723646 
L 194.068119 -30.270312 
L 194.562776 -27.816979 
L 194.813041 -25.363646 
L 194.802225 -22.910312 
z
" style="stroke: #6e6e6e; stroke-width: 0.8"/>
    </defs>
    <g clip-path="url(#p494daf9221)">
     <use xlink:href="#m1831134dab" x="0" y="381.868437" style="fill: #b8b8b8; stroke: #6e6e6e; stroke-width: 0.8"/>
    </g>
   </g>
   <g id="FillBetweenPolyCollection_4">
    <defs>
     <path id="m67ea189b8a" d="M 244.823646 -22.910312 
L 221.354316 -22.910312 
L 221.317795 -25.546272 
L 221.511622 -28.182232 
L 221.922204 -30.818191 
L 222.523545 -33.454151 
L 223.279865 -36.09011 
L 224.149035 -38.72607 
L 225.086366 -41.36203 
L 226.048298 -43.997989 
L 226.995567 -46.633949 
L 227.89555 -49.269908 
L 228.723649 -51.905868 
L 229.463692 -54.541828 
L 230.107495 -57.177787 
L 230.653785 -59.813747 
L 231.106735 -62.449706 
L 231.474367 -65.085666 
L 231.767013 -67.721626 
L 231.996001 -70.357585 
L 232.172627 -72.993545 
L 232.307452 -75.629504 
L 232.409872 -78.265464 
L 232.487934 -80.901424 
L 232.548309 -83.537383 
L 232.596372 -86.173343 
L 232.636325 -88.809302 
L 232.671346 -91.445262 
L 232.703727 -94.081222 
L 232.735003 -96.717181 
L 232.766071 -99.353141 
L 232.797308 -101.9891 
L 232.828685 -104.62506 
L 232.85988 -107.26102 
L 232.89039 -109.896979 
L 232.919636 -112.532939 
L 232.947052 -115.168898 
L 232.972153 -117.804858 
L 232.994587 -120.440818 
L 233.014151 -123.076777 
L 233.030801 -125.712737 
L 233.044629 -128.348696 
L 233.055837 -130.984656 
L 233.064707 -133.620616 
L 233.071559 -136.256575 
L 233.076729 -138.892535 
L 233.08054 -141.528494 
L 233.083284 -144.164454 
L 233.085214 -146.800414 
L 233.086541 -149.436373 
L 233.087433 -152.072333 
L 233.088019 -154.708292 
L 233.088396 -157.344252 
L 233.088632 -159.980211 
L 233.088777 -162.616171 
L 233.088865 -165.252131 
L 233.088916 -167.88809 
L 233.088945 -170.52405 
L 233.088962 -173.160009 
L 233.088971 -175.795969 
L 233.088976 -178.431929 
L 233.088979 -181.067888 
L 233.08898 -183.703848 
L 233.08898 -186.339807 
L 233.088981 -188.975767 
L 233.08898 -191.611727 
L 233.08898 -194.247686 
L 233.088978 -196.883646 
L 233.088975 -199.519605 
L 233.088969 -202.155565 
L 233.088958 -204.791525 
L 233.088938 -207.427484 
L 233.088904 -210.063444 
L 233.088844 -212.699403 
L 233.088742 -215.335363 
L 233.088574 -217.971323 
L 233.088303 -220.607282 
L 233.087874 -223.243242 
L 233.087211 -225.879201 
L 233.08621 -228.515161 
L 233.084732 -231.151121 
L 233.082601 -233.78708 
L 233.079598 -236.42304 
L 233.075467 -239.058999 
L 233.069918 -241.694959 
L 233.062646 -244.330919 
L 233.05335 -246.966878 
L 233.041768 -249.602838 
L 233.027711 -252.238797 
L 233.011111 -254.874757 
L 232.992054 -257.510717 
L 232.970824 -260.146676 
L 232.947915 -262.782636 
L 232.924039 -265.418595 
L 232.900101 -268.054555 
L 232.877153 -270.690515 
L 232.856317 -273.326474 
L 232.838705 -275.962434 
L 232.825314 -278.598393 
L 232.816938 -281.234353 
L 232.814087 -283.870313 
L 233.363875 -283.870313 
L 233.363875 -283.870313 
L 233.361024 -281.234353 
L 233.352648 -278.598393 
L 233.339258 -275.962434 
L 233.321646 -273.326474 
L 233.30081 -270.690515 
L 233.277861 -268.054555 
L 233.253924 -265.418595 
L 233.230048 -262.782636 
L 233.207139 -260.146676 
L 233.185908 -257.510717 
L 233.166852 -254.874757 
L 233.150251 -252.238797 
L 233.136195 -249.602838 
L 233.124613 -246.966878 
L 233.115317 -244.330919 
L 233.108045 -241.694959 
L 233.102496 -239.058999 
L 233.098364 -236.42304 
L 233.095362 -233.78708 
L 233.09323 -231.151121 
L 233.091752 -228.515161 
L 233.090751 -225.879201 
L 233.090089 -223.243242 
L 233.08966 -220.607282 
L 233.089388 -217.971323 
L 233.08922 -215.335363 
L 233.089119 -212.699403 
L 233.089059 -210.063444 
L 233.089024 -207.427484 
L 233.089004 -204.791525 
L 233.088994 -202.155565 
L 233.088988 -199.519605 
L 233.088985 -196.883646 
L 233.088983 -194.247686 
L 233.088982 -191.611727 
L 233.088982 -188.975767 
L 233.088982 -186.339807 
L 233.088983 -183.703848 
L 233.088984 -181.067888 
L 233.088986 -178.431929 
L 233.088991 -175.795969 
L 233.089 -173.160009 
L 233.089017 -170.52405 
L 233.089047 -167.88809 
L 233.089098 -165.252131 
L 233.089185 -162.616171 
L 233.08933 -159.980211 
L 233.089567 -157.344252 
L 233.089943 -154.708292 
L 233.090529 -152.072333 
L 233.091421 -149.436373 
L 233.092749 -146.800414 
L 233.094679 -144.164454 
L 233.097423 -141.528494 
L 233.101233 -138.892535 
L 233.106404 -136.256575 
L 233.113256 -133.620616 
L 233.122125 -130.984656 
L 233.133334 -128.348696 
L 233.147161 -125.712737 
L 233.163811 -123.076777 
L 233.183376 -120.440818 
L 233.205809 -117.804858 
L 233.23091 -115.168898 
L 233.258326 -112.532939 
L 233.287573 -109.896979 
L 233.318083 -107.26102 
L 233.349278 -104.62506 
L 233.380655 -101.9891 
L 233.411892 -99.353141 
L 233.44296 -96.717181 
L 233.474235 -94.081222 
L 233.506616 -91.445262 
L 233.541638 -88.809302 
L 233.581591 -86.173343 
L 233.629653 -83.537383 
L 233.690029 -80.901424 
L 233.768091 -78.265464 
L 233.870511 -75.629504 
L 234.005335 -72.993545 
L 234.181962 -70.357585 
L 234.41095 -67.721626 
L 234.703595 -65.085666 
L 235.071227 -62.449706 
L 235.524178 -59.813747 
L 236.070467 -57.177787 
L 236.71427 -54.541828 
L 237.454313 -51.905868 
L 238.282412 -49.269908 
L 239.182396 -46.633949 
L 240.129665 -43.997989 
L 241.091597 -41.36203 
L 242.028927 -38.72607 
L 242.898097 -36.09011 
L 243.654418 -33.454151 
L 244.255759 -30.818191 
L 244.66634 -28.182232 
L 244.860167 -25.546272 
L 244.823646 -22.910312 
z
" style="stroke: #6e6e6e; stroke-width: 0.8"/>
    </defs>
    <g clip-path="url(#p494daf9221)">
     <use xlink:href="#m67ea189b8a" x="0" y="381.868437" style="fill: #b8b8b8; stroke: #6e6e6e; stroke-width: 0.8"/>
    </g>
   </g>
   <g id="FillBetweenPolyCollection_5">
    <defs>
     <path id="mc0715c4ec5" d="M 295.19202 -22.910312 
L 273.546342 -22.910312 
L 273.458578 -25.640313 
L 273.575431 -28.370313 
L 273.888797 -31.100313 
L 274.37965 -33.830312 
L 275.019846 -36.560313 
L 275.774684 -39.290312 
L 276.605912 -42.020313 
L 277.474797 -44.750312 
L 278.344949 -47.480312 
L 279.184614 -50.210313 
L 279.96826 -52.940312 
L 280.6774 -55.670313 
L 281.300686 -58.400312 
L 281.833383 -61.130313 
L 282.276409 -63.860313 
L 282.635102 -66.590312 
L 282.91792 -69.320312 
L 283.135187 -72.050313 
L 283.29801 -74.780313 
L 283.417417 -77.510312 
L 283.50372 -80.240313 
L 283.56611 -82.970312 
L 283.612428 -85.700312 
L 283.649089 -88.430313 
L 283.681103 -91.160313 
L 283.71216 -93.890313 
L 283.744768 -96.620312 
L 283.780396 -99.350313 
L 283.819646 -102.080313 
L 283.86242 -104.810313 
L 283.908087 -107.540312 
L 283.955657 -110.270313 
L 284.003933 -113.000313 
L 284.051659 -115.730313 
L 284.09764 -118.460313 
L 284.140835 -121.190313 
L 284.180428 -123.920313 
L 284.215856 -126.650313 
L 284.246822 -129.380313 
L 284.273268 -132.110312 
L 284.295349 -134.840313 
L 284.313376 -137.570312 
L 284.327771 -140.300313 
L 284.339018 -143.030312 
L 284.347617 -145.760312 
L 284.354051 -148.490312 
L 284.358764 -151.220313 
L 284.362144 -153.950313 
L 284.364516 -156.680313 
L 284.366148 -159.410313 
L 284.367246 -162.140313 
L 284.36797 -164.870313 
L 284.368438 -167.600313 
L 284.368734 -170.330312 
L 284.368917 -173.060313 
L 284.369028 -175.790312 
L 284.369094 -178.520313 
L 284.369133 -181.250313 
L 284.369155 -183.980312 
L 284.369167 -186.710313 
L 284.369174 -189.440313 
L 284.369177 -192.170312 
L 284.369179 -194.900313 
L 284.369179 -197.630313 
L 284.369178 -200.360313 
L 284.369176 -203.090313 
L 284.369172 -205.820313 
L 284.369164 -208.550313 
L 284.369149 -211.280312 
L 284.369123 -214.010312 
L 284.369079 -216.740312 
L 284.369004 -219.470313 
L 284.36888 -222.200312 
L 284.368679 -224.930313 
L 284.368362 -227.660313 
L 284.36787 -230.390313 
L 284.367125 -233.120313 
L 284.366021 -235.850313 
L 284.364419 -238.580312 
L 284.362148 -241.310313 
L 284.358999 -244.040312 
L 284.354732 -246.770313 
L 284.349083 -249.500313 
L 284.341779 -252.230313 
L 284.332561 -254.960313 
L 284.32121 -257.690313 
L 284.307586 -260.420312 
L 284.291658 -263.150312 
L 284.273543 -265.880313 
L 284.253532 -268.610312 
L 284.232102 -271.340312 
L 284.209919 -274.070312 
L 284.187809 -276.800313 
L 284.16672 -279.530312 
L 284.147654 -282.260312 
L 284.131592 -284.990313 
L 284.119411 -287.720312 
L 284.111805 -290.450312 
L 284.109218 -293.180312 
L 284.629144 -293.180312 
L 284.629144 -293.180312 
L 284.626557 -290.450312 
L 284.618951 -287.720312 
L 284.60677 -284.990313 
L 284.590708 -282.260312 
L 284.571642 -279.530312 
L 284.550553 -276.800313 
L 284.528444 -274.070312 
L 284.50626 -271.340312 
L 284.484831 -268.610312 
L 284.464819 -265.880313 
L 284.446704 -263.150312 
L 284.430776 -260.420312 
L 284.417152 -257.690313 
L 284.405801 -254.960313 
L 284.396583 -252.230313 
L 284.389279 -249.500313 
L 284.38363 -246.770313 
L 284.379363 -244.040312 
L 284.376215 -241.310313 
L 284.373943 -238.580312 
L 284.372342 -235.850313 
L 284.371237 -233.120313 
L 284.370492 -230.390313 
L 284.370001 -227.660313 
L 284.369683 -224.930313 
L 284.369483 -222.200312 
L 284.369359 -219.470313 
L 284.369284 -216.740312 
L 284.369239 -214.010312 
L 284.369213 -211.280312 
L 284.369199 -208.550313 
L 284.369191 -205.820313 
L 284.369186 -203.090313 
L 284.369184 -200.360313 
L 284.369183 -197.630313 
L 284.369184 -194.900313 
L 284.369185 -192.170312 
L 284.369189 -189.440313 
L 284.369195 -186.710313 
L 284.369208 -183.980312 
L 284.36923 -181.250313 
L 284.369268 -178.520313 
L 284.369334 -175.790312 
L 284.369446 -173.060313 
L 284.369629 -170.330312 
L 284.369925 -167.600313 
L 284.370392 -164.870313 
L 284.371116 -162.140313 
L 284.372215 -159.410313 
L 284.373846 -156.680313 
L 284.376219 -153.950313 
L 284.379598 -151.220313 
L 284.384311 -148.490312 
L 284.390745 -145.760312 
L 284.399344 -143.030312 
L 284.410591 -140.300313 
L 284.424987 -137.570312 
L 284.443014 -134.840313 
L 284.465094 -132.110312 
L 284.491541 -129.380313 
L 284.522506 -126.650313 
L 284.557935 -123.920313 
L 284.597527 -121.190313 
L 284.640723 -118.460313 
L 284.686703 -115.730313 
L 284.73443 -113.000313 
L 284.782706 -110.270313 
L 284.830276 -107.540312 
L 284.875943 -104.810313 
L 284.918716 -102.080313 
L 284.957967 -99.350313 
L 284.993595 -96.620312 
L 285.026202 -93.890313 
L 285.05726 -91.160313 
L 285.089273 -88.430313 
L 285.125935 -85.700312 
L 285.172253 -82.970312 
L 285.234642 -80.240313 
L 285.320945 -77.510312 
L 285.440352 -74.780313 
L 285.603176 -72.050313 
L 285.820442 -69.320312 
L 286.10326 -66.590312 
L 286.461954 -63.860313 
L 286.904979 -61.130313 
L 287.437677 -58.400312 
L 288.060962 -55.670313 
L 288.770103 -52.940312 
L 289.553748 -50.210313 
L 290.393413 -47.480312 
L 291.263566 -44.750312 
L 292.13245 -42.020313 
L 292.963678 -39.290312 
L 293.718517 -36.560313 
L 294.358712 -33.830312 
L 294.849565 -31.100313 
L 295.162932 -28.370313 
L 295.279785 -25.640313 
L 295.19202 -22.910312 
z
" style="stroke: #6e6e6e; stroke-width: 0.8"/>
    </defs>
    <g clip-path="url(#p494daf9221)">
     <use xlink:href="#mc0715c4ec5" x="0" y="381.868437" style="fill: #b8b8b8; stroke: #6e6e6e; stroke-width: 0.8"/>
    </g>
   </g>
   <g id="FillBetweenPolyCollection_6">
    <defs>
     <path id="m2da7909494" d="M 345.446202 -22.910312 
L 325.85256 -22.910312 
L 325.757971 -25.73638 
L 325.833818 -28.562447 
L 326.074018 -31.388515 
L 326.463985 -34.214582 
L 326.981992 -37.04065 
L 327.601083 -39.866717 
L 328.291318 -42.692784 
L 329.022068 -45.518852 
L 329.764142 -48.344919 
L 330.491538 -51.170987 
L 331.182686 -53.997054 
L 331.82115 -56.823121 
L 332.39579 -59.649189 
L 332.900486 -62.475256 
L 333.33352 -65.301324 
L 333.696768 -68.127391 
L 333.994801 -70.953459 
L 334.234014 -73.779526 
L 334.421852 -76.605593 
L 334.566169 -79.431661 
L 334.674734 -82.257728 
L 334.754887 -85.083796 
L 334.813308 -87.909863 
L 334.855894 -90.73593 
L 334.8877 -93.561998 
L 334.912935 -96.388065 
L 334.934993 -99.214133 
L 334.956498 -102.0402 
L 334.979374 -104.866268 
L 335.004911 -107.692335 
L 335.033848 -110.518402 
L 335.06645 -113.34447 
L 335.102589 -116.170537 
L 335.141828 -118.996605 
L 335.183495 -121.822672 
L 335.226766 -124.648739 
L 335.27073 -127.474807 
L 335.314456 -130.300874 
L 335.357053 -133.126942 
L 335.397718 -135.953009 
L 335.435774 -138.779077 
L 335.470695 -141.605144 
L 335.502121 -144.431211 
L 335.52986 -147.257279 
L 335.553876 -150.083346 
L 335.57427 -152.909414 
L 335.591259 -155.735481 
L 335.605139 -158.561548 
L 335.616262 -161.387616 
L 335.625004 -164.213683 
L 335.631744 -167.039751 
L 335.636839 -169.865818 
L 335.640616 -172.691886 
L 335.643363 -175.517953 
L 335.645322 -178.34402 
L 335.646691 -181.170088 
L 335.647631 -183.996155 
L 335.648262 -186.822223 
L 335.648679 -189.64829 
L 335.648948 -192.474357 
L 335.649119 -195.300425 
L 335.649225 -198.126492 
L 335.649289 -200.95256 
L 335.649327 -203.778627 
L 335.649347 -206.604695 
L 335.649356 -209.430762 
L 335.649356 -212.256829 
L 335.649347 -215.082897 
L 335.649327 -217.908964 
L 335.649289 -220.735032 
L 335.649226 -223.561099 
L 335.649122 -226.387166 
L 335.648955 -229.213234 
L 335.648693 -232.039301 
L 335.648291 -234.865369 
L 335.647686 -237.691436 
L 335.646795 -240.517504 
L 335.645509 -243.343571 
L 335.64369 -246.169638 
L 335.641174 -248.995706 
L 335.637765 -251.821773 
L 335.633246 -254.647841 
L 335.627385 -257.473908 
L 335.619954 -260.299975 
L 335.610745 -263.126043 
L 335.599597 -265.95211 
L 335.586426 -268.778178 
L 335.571251 -271.604245 
L 335.554222 -274.430312 
L 335.535639 -277.25638 
L 335.515955 -280.082447 
L 335.495776 -282.908515 
L 335.475835 -285.734582 
L 335.456953 -288.56065 
L 335.439986 -291.386717 
L 335.425762 -294.212784 
L 335.415014 -297.038852 
L 335.408318 -299.864919 
L 335.406044 -302.690987 
L 335.892718 -302.690987 
L 335.892718 -302.690987 
L 335.890444 -299.864919 
L 335.883749 -297.038852 
L 335.873001 -294.212784 
L 335.858776 -291.386717 
L 335.841809 -288.56065 
L 335.822927 -285.734582 
L 335.802986 -282.908515 
L 335.782808 -280.082447 
L 335.763124 -277.25638 
L 335.74454 -274.430312 
L 335.727512 -271.604245 
L 335.712337 -268.778178 
L 335.699166 -265.95211 
L 335.688018 -263.126043 
L 335.678809 -260.299975 
L 335.671377 -257.473908 
L 335.665517 -254.647841 
L 335.660998 -251.821773 
L 335.657588 -248.995706 
L 335.655072 -246.169638 
L 335.653254 -243.343571 
L 335.651967 -240.517504 
L 335.651076 -237.691436 
L 335.650472 -234.865369 
L 335.65007 -232.039301 
L 335.649808 -229.213234 
L 335.649641 -226.387166 
L 335.649537 -223.561099 
L 335.649473 -220.735032 
L 335.649436 -217.908964 
L 335.649415 -215.082897 
L 335.649406 -212.256829 
L 335.649406 -209.430762 
L 335.649415 -206.604695 
L 335.649436 -203.778627 
L 335.649473 -200.95256 
L 335.649538 -198.126492 
L 335.649644 -195.300425 
L 335.649814 -192.474357 
L 335.650084 -189.64829 
L 335.6505 -186.822223 
L 335.651132 -183.996155 
L 335.652071 -181.170088 
L 335.653441 -178.34402 
L 335.655399 -175.517953 
L 335.658146 -172.691886 
L 335.661924 -169.865818 
L 335.667019 -167.039751 
L 335.673758 -164.213683 
L 335.682501 -161.387616 
L 335.693624 -158.561548 
L 335.707504 -155.735481 
L 335.724492 -152.909414 
L 335.744887 -150.083346 
L 335.768902 -147.257279 
L 335.796641 -144.431211 
L 335.828068 -141.605144 
L 335.862989 -138.779077 
L 335.901045 -135.953009 
L 335.94171 -133.126942 
L 335.984307 -130.300874 
L 336.028033 -127.474807 
L 336.071996 -124.648739 
L 336.115267 -121.822672 
L 336.156935 -118.996605 
L 336.196173 -116.170537 
L 336.232313 -113.34447 
L 336.264914 -110.518402 
L 336.293851 -107.692335 
L 336.319388 -104.866268 
L 336.342264 -102.0402 
L 336.36377 -99.214133 
L 336.385827 -96.388065 
L 336.411063 -93.561998 
L 336.442869 -90.73593 
L 336.485454 -87.909863 
L 336.543875 -85.083796 
L 336.624028 -82.257728 
L 336.732593 -79.431661 
L 336.87691 -76.605593 
L 337.064749 -73.779526 
L 337.303962 -70.953459 
L 337.601994 -68.127391 
L 337.965242 -65.301324 
L 338.398277 -62.475256 
L 338.902972 -59.649189 
L 339.477612 -56.823121 
L 340.116076 -53.997054 
L 340.807225 -51.170987 
L 341.534621 -48.344919 
L 342.276695 -45.518852 
L 343.007444 -42.692784 
L 343.697679 -39.866717 
L 344.316771 -37.04065 
L 344.834777 -34.214582 
L 345.224745 -31.388515 
L 345.464944 -28.562447 
L 345.540791 -25.73638 
L 345.446202 -22.910312 
z
" style="stroke: #6e6e6e; stroke-width: 0.8"/>
    </defs>
    <g clip-path="url(#p494daf9221)">
     <use xlink:href="#m2da7909494" x="0" y="381.868437" style="fill: #b8b8b8; stroke: #6e6e6e; stroke-width: 0.8"/>
    </g>
   </g>
   <g id="FillBetweenPolyCollection_7">
    <defs>
     <path id="m733620784d" d="M 396.280655 -22.910312 
L 377.578507 -22.910312 
L 377.461488 -25.781199 
L 377.500815 -28.652085 
L 377.69192 -31.522971 
L 378.022597 -34.393857 
L 378.474163 -37.264743 
L 379.023111 -40.135629 
L 379.643063 -43.006515 
L 380.306786 -45.877401 
L 380.988071 -48.748287 
L 381.663292 -51.619173 
L 382.312539 -54.490059 
L 382.920275 -57.360945 
L 383.475533 -60.231831 
L 383.971716 -63.102718 
L 384.406111 -65.973604 
L 384.77921 -68.84449 
L 385.09396 -71.715376 
L 385.35503 -74.586262 
L 385.568142 -77.457148 
L 385.739521 -80.328034 
L 385.875465 -83.19892 
L 385.98204 -86.069806 
L 386.064867 -88.940692 
L 386.129002 -91.811578 
L 386.178871 -94.682464 
L 386.218257 -97.55335 
L 386.250313 -100.424237 
L 386.2776 -103.295123 
L 386.302143 -106.166009 
L 386.325489 -109.036895 
L 386.348782 -111.907781 
L 386.372818 -114.778667 
L 386.398118 -117.649553 
L 386.424974 -120.520439 
L 386.453492 -123.391325 
L 386.483628 -126.262211 
L 386.515212 -129.133097 
L 386.547964 -132.003983 
L 386.581516 -134.874869 
L 386.615425 -137.745756 
L 386.6492 -140.616642 
L 386.682321 -143.487528 
L 386.714276 -146.358414 
L 386.744582 -149.2293 
L 386.772822 -152.100186 
L 386.798662 -154.971072 
L 386.821868 -157.841958 
L 386.842318 -160.712844 
L 386.859996 -163.58373 
L 386.874984 -166.454616 
L 386.887444 -169.325502 
L 386.897601 -172.196388 
L 386.905719 -175.067275 
L 386.912079 -177.938161 
L 386.916965 -180.809047 
L 386.920645 -183.679933 
L 386.923362 -186.550819 
L 386.92533 -189.421705 
L 386.926726 -192.292591 
L 386.927698 -195.163477 
L 386.928361 -198.034363 
L 386.928804 -200.905249 
L 386.929094 -203.776135 
L 386.92928 -206.647021 
L 386.929396 -209.517907 
L 386.929464 -212.388794 
L 386.9295 -215.25968 
L 386.929512 -218.130566 
L 386.929501 -221.001452 
L 386.929467 -223.872338 
L 386.9294 -226.743224 
L 386.929288 -229.61411 
L 386.929107 -232.484996 
L 386.928825 -235.355882 
L 386.928395 -238.226768 
L 386.927753 -241.097654 
L 386.926816 -243.96854 
L 386.925475 -246.839426 
L 386.923595 -249.710313 
L 386.921012 -252.581199 
L 386.917538 -255.452085 
L 386.912965 -258.322971 
L 386.907072 -261.193857 
L 386.899646 -264.064743 
L 386.890496 -266.935629 
L 386.879479 -269.806515 
L 386.866527 -272.677401 
L 386.851673 -275.548287 
L 386.835074 -278.419173 
L 386.817029 -281.290059 
L 386.797981 -284.160945 
L 386.778513 -287.031831 
L 386.759327 -289.902718 
L 386.741201 -292.773604 
L 386.724944 -295.64449 
L 386.711336 -298.515376 
L 386.701066 -301.386262 
L 386.694673 -304.257148 
L 386.692502 -307.128034 
L 387.16666 -307.128034 
L 387.16666 -307.128034 
L 387.16449 -304.257148 
L 387.158097 -301.386262 
L 387.147826 -298.515376 
L 387.134218 -295.64449 
L 387.117962 -292.773604 
L 387.099836 -289.902718 
L 387.080649 -287.031831 
L 387.061182 -284.160945 
L 387.042134 -281.290059 
L 387.024088 -278.419173 
L 387.007489 -275.548287 
L 386.992635 -272.677401 
L 386.979683 -269.806515 
L 386.968666 -266.935629 
L 386.959516 -264.064743 
L 386.95209 -261.193857 
L 386.946198 -258.322971 
L 386.941624 -255.452085 
L 386.938151 -252.581199 
L 386.935568 -249.710313 
L 386.933687 -246.839426 
L 386.932346 -243.96854 
L 386.931409 -241.097654 
L 386.930768 -238.226768 
L 386.930338 -235.355882 
L 386.930056 -232.484996 
L 386.929875 -229.61411 
L 386.929762 -226.743224 
L 386.929696 -223.872338 
L 386.929661 -221.001452 
L 386.929651 -218.130566 
L 386.929662 -215.25968 
L 386.929698 -212.388794 
L 386.929766 -209.517907 
L 386.929882 -206.647021 
L 386.930068 -203.776135 
L 386.930359 -200.905249 
L 386.930802 -198.034363 
L 386.931465 -195.163477 
L 386.932437 -192.292591 
L 386.933833 -189.421705 
L 386.9358 -186.550819 
L 386.938517 -183.679933 
L 386.942197 -180.809047 
L 386.947083 -177.938161 
L 386.953444 -175.067275 
L 386.961562 -172.196388 
L 386.971719 -169.325502 
L 386.984179 -166.454616 
L 386.999166 -163.58373 
L 387.016844 -160.712844 
L 387.037295 -157.841958 
L 387.060501 -154.971072 
L 387.08634 -152.100186 
L 387.11458 -149.2293 
L 387.144887 -146.358414 
L 387.176841 -143.487528 
L 387.209963 -140.616642 
L 387.243737 -137.745756 
L 387.277647 -134.874869 
L 387.311199 -132.003983 
L 387.343951 -129.133097 
L 387.375535 -126.262211 
L 387.405671 -123.391325 
L 387.434189 -120.520439 
L 387.461044 -117.649553 
L 387.486344 -114.778667 
L 387.510381 -111.907781 
L 387.533673 -109.036895 
L 387.55702 -106.166009 
L 387.581562 -103.295123 
L 387.608849 -100.424237 
L 387.640905 -97.55335 
L 387.680291 -94.682464 
L 387.730161 -91.811578 
L 387.794295 -88.940692 
L 387.877122 -86.069806 
L 387.983697 -83.19892 
L 388.119642 -80.328034 
L 388.29102 -77.457148 
L 388.504132 -74.586262 
L 388.765202 -71.715376 
L 389.079953 -68.84449 
L 389.453051 -65.973604 
L 389.887446 -63.102718 
L 390.38363 -60.231831 
L 390.938887 -57.360945 
L 391.546623 -54.490059 
L 392.19587 -51.619173 
L 392.871091 -48.748287 
L 393.552376 -45.877401 
L 394.2161 -43.006515 
L 394.836052 -40.135629 
L 395.385 -37.264743 
L 395.836565 -34.393857 
L 396.167243 -31.522971 
L 396.358348 -28.652085 
L 396.397675 -25.781199 
L 396.280655 -22.910312 
z
" style="stroke: #6e6e6e; stroke-width: 0.8"/>
    </defs>
    <g clip-path="url(#p494daf9221)">
     <use xlink:href="#m733620784d" x="0" y="381.868437" style="fill: #b8b8b8; stroke: #6e6e6e; stroke-width: 0.8"/>
    </g>
   </g>
   <g id="FillBetweenPolyCollection_8">
    <defs>
     <path id="mfe5d877898" d="M 447.183157 -22.910312 
L 429.236406 -22.910312 
L 429.075164 -25.805407 
L 429.057959 -28.700501 
L 429.182911 -31.595596 
L 429.44115 -34.49069 
L 429.817682 -37.385784 
L 430.292729 -40.280879 
L 430.843385 -43.175973 
L 431.445384 -46.071067 
L 432.07481 -48.966162 
L 432.70957 -51.861256 
L 433.330523 -54.75635 
L 433.922201 -57.651445 
L 434.473116 -60.546539 
L 434.975692 -63.441633 
L 435.425911 -66.336728 
L 435.822751 -69.231822 
L 436.167531 -72.126916 
L 436.463237 -75.022011 
L 436.713908 -77.917105 
L 436.924108 -80.812199 
L 437.098533 -83.707294 
L 437.241725 -86.602388 
L 437.357912 -89.497482 
L 437.45092 -92.392577 
L 437.524174 -95.287671 
L 437.580721 -98.182765 
L 437.623294 -101.07786 
L 437.654371 -103.972954 
L 437.676229 -106.868048 
L 437.690993 -109.763143 
L 437.700649 -112.658237 
L 437.707054 -115.553331 
L 437.711919 -118.448426 
L 437.716778 -121.34352 
L 437.722955 -124.238614 
L 437.731528 -127.133709 
L 437.743295 -130.028803 
L 437.758751 -132.923897 
L 437.77809 -135.818992 
L 437.801209 -138.714086 
L 437.827744 -141.60918 
L 437.85711 -144.504275 
L 437.888559 -147.399369 
L 437.921248 -150.294463 
L 437.954297 -153.189558 
L 437.986858 -156.084652 
L 438.018163 -158.979746 
L 438.047564 -161.874841 
L 438.074564 -164.769935 
L 438.098826 -167.665029 
L 438.12017 -170.560124 
L 438.138561 -173.455218 
L 438.154089 -176.350313 
L 438.166938 -179.245407 
L 438.177362 -182.140501 
L 438.185654 -185.035596 
L 438.192123 -187.93069 
L 438.197074 -190.825784 
L 438.20079 -193.720879 
L 438.203527 -196.615973 
L 438.205504 -199.511067 
L 438.206906 -202.406162 
L 438.20788 -205.301256 
L 438.208544 -208.19635 
L 438.208987 -211.091445 
L 438.209274 -213.986539 
L 438.209453 -216.881633 
L 438.209555 -219.776728 
L 438.209599 -222.671822 
L 438.209594 -225.566916 
L 438.209538 -228.462011 
L 438.209423 -231.357105 
L 438.209227 -234.252199 
L 438.208918 -237.147294 
L 438.208449 -240.042388 
L 438.207754 -242.937482 
L 438.206749 -245.832577 
L 438.205324 -248.727671 
L 438.203344 -251.622765 
L 438.200651 -254.51786 
L 438.197061 -257.412954 
L 438.192374 -260.308048 
L 438.186384 -263.203143 
L 438.17889 -266.098237 
L 438.169721 -268.993331 
L 438.158753 -271.888426 
L 438.145937 -274.78352 
L 438.131321 -277.678614 
L 438.115072 -280.573709 
L 438.097489 -283.468803 
L 438.079007 -286.363897 
L 438.06019 -289.258992 
L 438.041704 -292.154086 
L 438.024289 -295.04918 
L 438.008706 -297.944275 
L 437.995687 -300.839369 
L 437.985874 -303.734463 
L 437.979772 -306.629558 
L 437.977701 -309.524652 
L 438.441861 -309.524652 
L 438.441861 -309.524652 
L 438.43979 -306.629558 
L 438.433688 -303.734463 
L 438.423876 -300.839369 
L 438.410856 -297.944275 
L 438.395274 -295.04918 
L 438.377859 -292.154086 
L 438.359373 -289.258992 
L 438.340555 -286.363897 
L 438.322073 -283.468803 
L 438.304491 -280.573709 
L 438.288242 -277.678614 
L 438.273626 -274.78352 
L 438.26081 -271.888426 
L 438.249842 -268.993331 
L 438.240673 -266.098237 
L 438.233179 -263.203143 
L 438.227188 -260.308048 
L 438.222501 -257.412954 
L 438.218911 -254.51786 
L 438.216218 -251.622765 
L 438.214239 -248.727671 
L 438.212814 -245.832577 
L 438.211809 -242.937482 
L 438.211114 -240.042388 
L 438.210644 -237.147294 
L 438.210335 -234.252199 
L 438.210139 -231.357105 
L 438.210024 -228.462011 
L 438.209969 -225.566916 
L 438.209964 -222.671822 
L 438.210008 -219.776728 
L 438.210109 -216.881633 
L 438.210288 -213.986539 
L 438.210575 -211.091445 
L 438.211018 -208.19635 
L 438.211682 -205.301256 
L 438.212657 -202.406162 
L 438.214058 -199.511067 
L 438.216036 -196.615973 
L 438.218772 -193.720879 
L 438.222489 -190.825784 
L 438.227439 -187.93069 
L 438.233908 -185.035596 
L 438.242201 -182.140501 
L 438.252625 -179.245407 
L 438.265474 -176.350313 
L 438.281001 -173.455218 
L 438.299392 -170.560124 
L 438.320736 -167.665029 
L 438.344998 -164.769935 
L 438.371999 -161.874841 
L 438.4014 -158.979746 
L 438.432704 -156.084652 
L 438.465265 -153.189558 
L 438.498315 -150.294463 
L 438.531003 -147.399369 
L 438.562453 -144.504275 
L 438.591818 -141.60918 
L 438.618353 -138.714086 
L 438.641473 -135.818992 
L 438.660812 -132.923897 
L 438.676268 -130.028803 
L 438.688034 -127.133709 
L 438.696607 -124.238614 
L 438.702785 -121.34352 
L 438.707644 -118.448426 
L 438.712508 -115.553331 
L 438.718914 -112.658237 
L 438.72857 -109.763143 
L 438.743333 -106.868048 
L 438.765192 -103.972954 
L 438.796268 -101.07786 
L 438.838841 -98.182765 
L 438.895388 -95.287671 
L 438.968642 -92.392577 
L 439.061651 -89.497482 
L 439.177837 -86.602388 
L 439.32103 -83.707294 
L 439.495454 -80.812199 
L 439.705655 -77.917105 
L 439.956325 -75.022011 
L 440.252032 -72.126916 
L 440.596811 -69.231822 
L 440.993651 -66.336728 
L 441.44387 -63.441633 
L 441.946447 -60.546539 
L 442.497362 -57.651445 
L 443.08904 -54.75635 
L 443.709993 -51.861256 
L 444.344753 -48.966162 
L 444.974179 -46.071067 
L 445.576178 -43.175973 
L 446.126833 -40.280879 
L 446.601881 -37.385784 
L 446.978412 -34.49069 
L 447.236652 -31.595596 
L 447.361604 -28.700501 
L 447.344398 -25.805407 
L 447.183157 -22.910312 
z
" style="stroke: #6e6e6e; stroke-width: 0.8"/>
    </defs>
    <g clip-path="url(#p494daf9221)">
     <use xlink:href="#mfe5d877898" x="0" y="381.868437" style="fill: #b8b8b8; stroke: #6e6e6e; stroke-width: 0.8"/>
    </g>
   </g>
   <g id="FillBetweenPolyCollection_9">
    <defs>
     <path id="mbc03d27176" d="M 497.93705 -22.910312 
L 481.042912 -22.910312 
L 480.874663 -25.864616 
L 480.835458 -28.818919 
L 480.924592 -31.773223 
L 481.135231 -34.727526 
L 481.455054 -37.68183 
L 481.867321 -40.636133 
L 482.352226 -43.590436 
L 482.888414 -46.54474 
L 483.454474 -49.499043 
L 484.030296 -52.453347 
L 484.598159 -55.40765 
L 485.143485 -58.361953 
L 485.655231 -61.316257 
L 486.12594 -64.27056 
L 486.551502 -67.224864 
L 486.930685 -70.179167 
L 487.264546 -73.13347 
L 487.555779 -76.087774 
L 487.808099 -79.042077 
L 488.025688 -81.996381 
L 488.21276 -84.950684 
L 488.373252 -87.904987 
L 488.510641 -90.859291 
L 488.627864 -93.813594 
L 488.727333 -96.767898 
L 488.811002 -99.722201 
L 488.880479 -102.676504 
L 488.937138 -105.630808 
L 488.982228 -108.585111 
L 489.016966 -111.539415 
L 489.042595 -114.493718 
L 489.060417 -117.448021 
L 489.071798 -120.402325 
L 489.07815 -123.356628 
L 489.080895 -126.310932 
L 489.081425 -129.265235 
L 489.081048 -132.219539 
L 489.080952 -135.173842 
L 489.08216 -138.128145 
L 489.085503 -141.082449 
L 489.0916 -144.036752 
L 489.100854 -146.991056 
L 489.113446 -149.945359 
L 489.129352 -152.899662 
L 489.148358 -155.853966 
L 489.17009 -158.808269 
L 489.194043 -161.762573 
L 489.219621 -164.716876 
L 489.246172 -167.671179 
L 489.273033 -170.625483 
L 489.299562 -173.579786 
L 489.325175 -176.53409 
L 489.349372 -179.488393 
L 489.371757 -182.442696 
L 489.392045 -185.397 
L 489.410068 -188.351303 
L 489.425766 -191.305607 
L 489.439175 -194.25991 
L 489.450411 -197.214213 
L 489.459646 -200.168517 
L 489.467096 -203.12282 
L 489.472992 -206.077124 
L 489.477571 -209.031427 
L 489.481061 -211.98573 
L 489.48367 -214.940034 
L 489.485582 -217.894337 
L 489.486953 -220.848641 
L 489.487909 -223.802944 
L 489.488551 -226.757247 
L 489.488951 -229.711551 
L 489.489159 -232.665854 
L 489.489203 -235.620158 
L 489.489088 -238.574461 
L 489.488801 -241.528765 
L 489.488305 -244.483068 
L 489.487545 -247.437371 
L 489.48644 -250.391675 
L 489.484885 -253.345978 
L 489.482753 -256.300282 
L 489.479892 -259.254585 
L 489.476132 -262.208888 
L 489.47129 -265.163192 
L 489.465183 -268.117495 
L 489.457639 -271.071799 
L 489.448515 -274.026102 
L 489.437721 -276.980405 
L 489.425236 -279.934709 
L 489.411132 -282.889012 
L 489.395587 -285.843316 
L 489.378897 -288.797619 
L 489.361477 -291.751922 
L 489.343852 -294.706226 
L 489.326632 -297.660529 
L 489.310486 -300.614833 
L 489.296096 -303.569136 
L 489.284111 -306.523439 
L 489.275098 -309.477743 
L 489.269503 -312.432046 
L 489.267606 -315.38635 
L 489.712357 -315.38635 
L 489.712357 -315.38635 
L 489.71046 -312.432046 
L 489.704864 -309.477743 
L 489.695852 -306.523439 
L 489.683866 -303.569136 
L 489.669476 -300.614833 
L 489.65333 -297.660529 
L 489.636111 -294.706226 
L 489.618485 -291.751922 
L 489.601066 -288.797619 
L 489.584376 -285.843316 
L 489.56883 -282.889012 
L 489.554726 -279.934709 
L 489.542241 -276.980405 
L 489.531447 -274.026102 
L 489.522324 -271.071799 
L 489.514779 -268.117495 
L 489.508672 -265.163192 
L 489.503831 -262.208888 
L 489.50007 -259.254585 
L 489.497209 -256.300282 
L 489.495077 -253.345978 
L 489.493523 -250.391675 
L 489.492417 -247.437371 
L 489.491657 -244.483068 
L 489.491162 -241.528765 
L 489.490875 -238.574461 
L 489.49076 -235.620158 
L 489.490803 -232.665854 
L 489.491012 -229.711551 
L 489.491412 -226.757247 
L 489.492054 -223.802944 
L 489.49301 -220.848641 
L 489.494381 -217.894337 
L 489.496292 -214.940034 
L 489.498902 -211.98573 
L 489.502392 -209.031427 
L 489.506971 -206.077124 
L 489.512867 -203.12282 
L 489.520316 -200.168517 
L 489.529552 -197.214213 
L 489.540787 -194.25991 
L 489.554197 -191.305607 
L 489.569894 -188.351303 
L 489.587917 -185.397 
L 489.608205 -182.442696 
L 489.63059 -179.488393 
L 489.654787 -176.53409 
L 489.680401 -173.579786 
L 489.70693 -170.625483 
L 489.73379 -167.671179 
L 489.760342 -164.716876 
L 489.785919 -161.762573 
L 489.809873 -158.808269 
L 489.831604 -155.853966 
L 489.850611 -152.899662 
L 489.866516 -149.945359 
L 489.879108 -146.991056 
L 489.888362 -144.036752 
L 489.89446 -141.082449 
L 489.897803 -138.128145 
L 489.89901 -135.173842 
L 489.898914 -132.219539 
L 489.898538 -129.265235 
L 489.899067 -126.310932 
L 489.901813 -123.356628 
L 489.908165 -120.402325 
L 489.919545 -117.448021 
L 489.937367 -114.493718 
L 489.962996 -111.539415 
L 489.997734 -108.585111 
L 490.042825 -105.630808 
L 490.099483 -102.676504 
L 490.168961 -99.722201 
L 490.25263 -96.767898 
L 490.352098 -93.813594 
L 490.469321 -90.859291 
L 490.60671 -87.904987 
L 490.767203 -84.950684 
L 490.954274 -81.996381 
L 491.171863 -79.042077 
L 491.424183 -76.087774 
L 491.715417 -73.13347 
L 492.049277 -70.179167 
L 492.42846 -67.224864 
L 492.854022 -64.27056 
L 493.324732 -61.316257 
L 493.836478 -58.361953 
L 494.381803 -55.40765 
L 494.949666 -52.453347 
L 495.525489 -49.499043 
L 496.091549 -46.54474 
L 496.627736 -43.590436 
L 497.112642 -40.636133 
L 497.524909 -37.68183 
L 497.844732 -34.727526 
L 498.05537 -31.773223 
L 498.144504 -28.818919 
L 498.1053 -25.864616 
L 497.93705 -22.910312 
z
" style="stroke: #6e6e6e; stroke-width: 0.8"/>
    </defs>
    <g clip-path="url(#p494daf9221)">
     <use xlink:href="#mbc03d27176" x="0" y="381.868437" style="fill: #b8b8b8; stroke: #6e6e6e; stroke-width: 0.8"/>
    </g>
   </g>
   <g id="FillBetweenPolyCollection_10">
    <defs>
     <path id="m156cedfc68" d="M 548.650924 -22.910312 
L 532.889439 -22.910312 
L 532.685596 -25.882023 
L 532.594668 -28.853733 
L 532.618224 -31.825443 
L 532.752551 -34.797154 
L 532.989 -37.768864 
L 533.314709 -40.740574 
L 533.713621 -43.712285 
L 534.16769 -46.683995 
L 534.65816 -49.655705 
L 535.166787 -52.627416 
L 535.676906 -55.599126 
L 536.174266 -58.570836 
L 536.647566 -61.542547 
L 537.088695 -64.514257 
L 537.492688 -67.485967 
L 537.857435 -70.457678 
L 538.183211 -73.429388 
L 538.472106 -76.401098 
L 538.727406 -79.372809 
L 538.953013 -82.344519 
L 539.15294 -85.316229 
L 539.330911 -88.28794 
L 539.490102 -91.25965 
L 539.633002 -94.23136 
L 539.761387 -97.203071 
L 539.876395 -100.174781 
L 539.978655 -103.146491 
L 540.068461 -106.118202 
L 540.145941 -109.089912 
L 540.211228 -112.061622 
L 540.264585 -115.033333 
L 540.306499 -118.005043 
L 540.337734 -120.976753 
L 540.359334 -123.948464 
L 540.372601 -126.920174 
L 540.379036 -129.891884 
L 540.380271 -132.863594 
L 540.377985 -135.835305 
L 540.373824 -138.807015 
L 540.369326 -141.778725 
L 540.365853 -144.750436 
L 540.364543 -147.722146 
L 540.366273 -150.693856 
L 540.371643 -153.665567 
L 540.38097 -156.637277 
L 540.394306 -159.608987 
L 540.411459 -162.580698 
L 540.43203 -165.552408 
L 540.455455 -168.524118 
L 540.481056 -171.495829 
L 540.508089 -174.467539 
L 540.535793 -177.439249 
L 540.563433 -180.41096 
L 540.590342 -183.38267 
L 540.615945 -186.35438 
L 540.639783 -189.326091 
L 540.661521 -192.297801 
L 540.680952 -195.269511 
L 540.697983 -198.241222 
L 540.712629 -201.212932 
L 540.72499 -204.184642 
L 540.73523 -207.156353 
L 540.743559 -210.128063 
L 540.750211 -213.099773 
L 540.755426 -216.071484 
L 540.759439 -219.043194 
L 540.762468 -222.014904 
L 540.764703 -224.986615 
L 540.766309 -227.958325 
L 540.767419 -230.930035 
L 540.768134 -233.901745 
L 540.768525 -236.873456 
L 540.768635 -239.845166 
L 540.768475 -242.816876 
L 540.768033 -245.788587 
L 540.767267 -248.760297 
L 540.766107 -251.732007 
L 540.764459 -254.703718 
L 540.762203 -257.675428 
L 540.759197 -260.647138 
L 540.755281 -263.618849 
L 540.750287 -266.590559 
L 540.744048 -269.562269 
L 540.736411 -272.53398 
L 540.727256 -275.50569 
L 540.716514 -278.4774 
L 540.704183 -281.449111 
L 540.690351 -284.420821 
L 540.675205 -287.392531 
L 540.659039 -290.364242 
L 540.642255 -293.335952 
L 540.625353 -296.307662 
L 540.608909 -299.279373 
L 540.593544 -302.251083 
L 540.579891 -305.222793 
L 540.568546 -308.194504 
L 540.56003 -311.166214 
L 540.554749 -314.137924 
L 540.55296 -317.109635 
L 540.987403 -317.109635 
L 540.987403 -317.109635 
L 540.985613 -314.137924 
L 540.980332 -311.166214 
L 540.971817 -308.194504 
L 540.960472 -305.222793 
L 540.946818 -302.251083 
L 540.931454 -299.279373 
L 540.915009 -296.307662 
L 540.898107 -293.335952 
L 540.881324 -290.364242 
L 540.865158 -287.392531 
L 540.850011 -284.420821 
L 540.836179 -281.449111 
L 540.823849 -278.4774 
L 540.813106 -275.50569 
L 540.803952 -272.53398 
L 540.796315 -269.562269 
L 540.790075 -266.590559 
L 540.785082 -263.618849 
L 540.781166 -260.647138 
L 540.77816 -257.675428 
L 540.775904 -254.703718 
L 540.774256 -251.732007 
L 540.773096 -248.760297 
L 540.772329 -245.788587 
L 540.771887 -242.816876 
L 540.771728 -239.845166 
L 540.771837 -236.873456 
L 540.772228 -233.901745 
L 540.772943 -230.930035 
L 540.774053 -227.958325 
L 540.775659 -224.986615 
L 540.777895 -222.014904 
L 540.780923 -219.043194 
L 540.784937 -216.071484 
L 540.790152 -213.099773 
L 540.796804 -210.128063 
L 540.805133 -207.156353 
L 540.815373 -204.184642 
L 540.827733 -201.212932 
L 540.842379 -198.241222 
L 540.859411 -195.269511 
L 540.878841 -192.297801 
L 540.90058 -189.326091 
L 540.924418 -186.35438 
L 540.95002 -183.38267 
L 540.976929 -180.41096 
L 541.00457 -177.439249 
L 541.032273 -174.467539 
L 541.059306 -171.495829 
L 541.084908 -168.524118 
L 541.108333 -165.552408 
L 541.128903 -162.580698 
L 541.146056 -159.608987 
L 541.159392 -156.637277 
L 541.16872 -153.665567 
L 541.174089 -150.693856 
L 541.175819 -147.722146 
L 541.174509 -144.750436 
L 541.171036 -141.778725 
L 541.166538 -138.807015 
L 541.162378 -135.835305 
L 541.160092 -132.863594 
L 541.161326 -129.891884 
L 541.167761 -126.920174 
L 541.181028 -123.948464 
L 541.202629 -120.976753 
L 541.233864 -118.005043 
L 541.275778 -115.033333 
L 541.329134 -112.061622 
L 541.394421 -109.089912 
L 541.471902 -106.118202 
L 541.561707 -103.146491 
L 541.663968 -100.174781 
L 541.778976 -97.203071 
L 541.907361 -94.23136 
L 542.05026 -91.25965 
L 542.209452 -88.28794 
L 542.387423 -85.316229 
L 542.587349 -82.344519 
L 542.812957 -79.372809 
L 543.068256 -76.401098 
L 543.357151 -73.429388 
L 543.682928 -70.457678 
L 544.047674 -67.485967 
L 544.451668 -64.514257 
L 544.892797 -61.542547 
L 545.366096 -58.570836 
L 545.863456 -55.599126 
L 546.373576 -52.627416 
L 546.882202 -49.655705 
L 547.372672 -46.683995 
L 547.826742 -43.712285 
L 548.225654 -40.740574 
L 548.551362 -37.768864 
L 548.787811 -34.797154 
L 548.922139 -31.825443 
L 548.945695 -28.853733 
L 548.854766 -25.882023 
L 548.650924 -22.910312 
z
" style="stroke: #6e6e6e; stroke-width: 0.8"/>
    </defs>
    <g clip-path="url(#p494daf9221)">
     <use xlink:href="#m156cedfc68" x="0" y="381.868437" style="fill: #b8b8b8; stroke: #6e6e6e; stroke-width: 0.8"/>
    </g>
   </g>
   <g id="matplotlib.axis_1">
    <g id="xtick_1">
     <g id="line2d_1">
      <defs>
       <path id="m8348addc5a" d="M 0 0 
L 0 3.5 
" style="stroke: #333333; stroke-width: 0.8"/>
      </defs>
      <g>
       <use xlink:href="#m8348addc5a" x="79.248381" y="358.958125" style="fill: #333333; stroke: #333333; stroke-width: 0.8"/>
      </g>
     </g>
     <g id="text_1">
      <!-- F1 0.99 -->
      <g style="fill: #333333" transform="translate(62.347366 372.796719) scale(0.09 -0.09)">
       <defs>
        <path id="DejaVuSans-46" d="M 628 4666 
L 3309 4666 
L 3309 4134 
L 1259 4134 
L 1259 2759 
L 3109 2759 
L 3109 2228 
L 1259 2228 
L 1259 0 
L 628 0 
L 628 4666 
z
" transform="scale(0.015625)"/>
        <path id="DejaVuSans-31" d="M 794 531 
L 1825 531 
L 1825 4091 
L 703 3866 
L 703 4441 
L 1819 4666 
L 2450 4666 
L 2450 531 
L 3481 531 
L 3481 0 
L 794 0 
L 794 531 
z
" transform="scale(0.015625)"/>
        <path id="DejaVuSans-20" transform="scale(0.015625)"/>
        <path id="DejaVuSans-30" d="M 2034 4250 
Q 1547 4250 1301 3770 
Q 1056 3291 1056 2328 
Q 1056 1369 1301 889 
Q 1547 409 2034 409 
Q 2525 409 2770 889 
Q 3016 1369 3016 2328 
Q 3016 3291 2770 3770 
Q 2525 4250 2034 4250 
z
M 2034 4750 
Q 2819 4750 3233 4129 
Q 3647 3509 3647 2328 
Q 3647 1150 3233 529 
Q 2819 -91 2034 -91 
Q 1250 -91 836 529 
Q 422 1150 422 2328 
Q 422 3509 836 4129 
Q 1250 4750 2034 4750 
z
" transform="scale(0.015625)"/>
        <path id="DejaVuSans-2e" d="M 684 794 
L 1344 794 
L 1344 0 
L 684 0 
L 684 794 
z
" transform="scale(0.015625)"/>
        <path id="DejaVuSans-39" d="M 703 97 
L 703 672 
Q 941 559 1184 500 
Q 1428 441 1663 441 
Q 2288 441 2617 861 
Q 2947 1281 2994 2138 
Q 2813 1869 2534 1725 
Q 2256 1581 1919 1581 
Q 1219 1581 811 2004 
Q 403 2428 403 3163 
Q 403 3881 828 4315 
Q 1253 4750 1959 4750 
Q 2769 4750 3195 4129 
Q 3622 3509 3622 2328 
Q 3622 1225 3098 567 
Q 2575 -91 1691 -91 
Q 1453 -91 1209 -44 
Q 966 3 703 97 
z
M 1959 2075 
Q 2384 2075 2632 2365 
Q 2881 2656 2881 3163 
Q 2881 3666 2632 3958 
Q 2384 4250 1959 4250 
Q 1534 4250 1286 3958 
Q 1038 3666 1038 3163 
Q 1038 2656 1286 2365 
Q 1534 2075 1959 2075 
z
" transform="scale(0.015625)"/>
       </defs>
       <use xlink:href="#DejaVuSans-46"/>
       <use xlink:href="#DejaVuSans-31" transform="translate(57.519531 0)"/>
       <use xlink:href="#DejaVuSans-20" transform="translate(121.142578 0)"/>
       <use xlink:href="#DejaVuSans-30" transform="translate(152.929688 0)"/>
       <use xlink:href="#DejaVuSans-2e" transform="translate(216.552734 0)"/>
       <use xlink:href="#DejaVuSans-39" transform="translate(248.339844 0)"/>
       <use xlink:href="#DejaVuSans-39" transform="translate(311.962891 0)"/>
      </g>
     </g>
    </g>
    <g id="xtick_2">
     <g id="line2d_2">
      <g>
       <use xlink:href="#m8348addc5a" x="130.528581" y="358.958125" style="fill: #333333; stroke: #333333; stroke-width: 0.8"/>
      </g>
     </g>
     <g id="text_2">
      <!-- F1 0.98 -->
      <g style="fill: #333333" transform="translate(113.627566 372.796719) scale(0.09 -0.09)">
       <defs>
        <path id="DejaVuSans-38" d="M 2034 2216 
Q 1584 2216 1326 1975 
Q 1069 1734 1069 1313 
Q 1069 891 1326 650 
Q 1584 409 2034 409 
Q 2484 409 2743 651 
Q 3003 894 3003 1313 
Q 3003 1734 2745 1975 
Q 2488 2216 2034 2216 
z
M 1403 2484 
Q 997 2584 770 2862 
Q 544 3141 544 3541 
Q 544 4100 942 4425 
Q 1341 4750 2034 4750 
Q 2731 4750 3128 4425 
Q 3525 4100 3525 3541 
Q 3525 3141 3298 2862 
Q 3072 2584 2669 2484 
Q 3125 2378 3379 2068 
Q 3634 1759 3634 1313 
Q 3634 634 3220 271 
Q 2806 -91 2034 -91 
Q 1263 -91 848 271 
Q 434 634 434 1313 
Q 434 1759 690 2068 
Q 947 2378 1403 2484 
z
M 1172 3481 
Q 1172 3119 1398 2916 
Q 1625 2713 2034 2713 
Q 2441 2713 2670 2916 
Q 2900 3119 2900 3481 
Q 2900 3844 2670 4047 
Q 2441 4250 2034 4250 
Q 1625 4250 1398 4047 
Q 1172 3844 1172 3481 
z
" transform="scale(0.015625)"/>
       </defs>
       <use xlink:href="#DejaVuSans-46"/>
       <use xlink:href="#DejaVuSans-31" transform="translate(57.519531 0)"/>
       <use xlink:href="#DejaVuSans-20" transform="translate(121.142578 0)"/>
       <use xlink:href="#DejaVuSans-30" transform="translate(152.929688 0)"/>
       <use xlink:href="#DejaVuSans-2e" transform="translate(216.552734 0)"/>
       <use xlink:href="#DejaVuSans-39" transform="translate(248.339844 0)"/>
       <use xlink:href="#DejaVuSans-38" transform="translate(311.962891 0)"/>
      </g>
     </g>
    </g>
    <g id="xtick_3">
     <g id="line2d_3">
      <g>
       <use xlink:href="#m8348addc5a" x="181.808781" y="358.958125" style="fill: #333333; stroke: #333333; stroke-width: 0.8"/>
      </g>
     </g>
     <g id="text_3">
      <!-- F1 0.97 -->
      <g style="fill: #333333" transform="translate(164.907766 372.796719) scale(0.09 -0.09)">
       <defs>
        <path id="DejaVuSans-37" d="M 525 4666 
L 3525 4666 
L 3525 4397 
L 1831 0 
L 1172 0 
L 2766 4134 
L 525 4134 
L 525 4666 
z
" transform="scale(0.015625)"/>
       </defs>
       <use xlink:href="#DejaVuSans-46"/>
       <use xlink:href="#DejaVuSans-31" transform="translate(57.519531 0)"/>
       <use xlink:href="#DejaVuSans-20" transform="translate(121.142578 0)"/>
       <use xlink:href="#DejaVuSans-30" transform="translate(152.929688 0)"/>
       <use xlink:href="#DejaVuSans-2e" transform="translate(216.552734 0)"/>
       <use xlink:href="#DejaVuSans-39" transform="translate(248.339844 0)"/>
       <use xlink:href="#DejaVuSans-37" transform="translate(311.962891 0)"/>
      </g>
     </g>
    </g>
    <g id="xtick_4">
     <g id="line2d_4">
      <g>
       <use xlink:href="#m8348addc5a" x="233.088981" y="358.958125" style="fill: #333333; stroke: #333333; stroke-width: 0.8"/>
      </g>
     </g>
     <g id="text_4">
      <!-- F1 0.96 -->
      <g style="fill: #333333" transform="translate(216.187966 372.796719) scale(0.09 -0.09)">
       <defs>
        <path id="DejaVuSans-36" d="M 2113 2584 
Q 1688 2584 1439 2293 
Q 1191 2003 1191 1497 
Q 1191 994 1439 701 
Q 1688 409 2113 409 
Q 2538 409 2786 701 
Q 3034 994 3034 1497 
Q 3034 2003 2786 2293 
Q 2538 2584 2113 2584 
z
M 3366 4563 
L 3366 3988 
Q 3128 4100 2886 4159 
Q 2644 4219 2406 4219 
Q 1781 4219 1451 3797 
Q 1122 3375 1075 2522 
Q 1259 2794 1537 2939 
Q 1816 3084 2150 3084 
Q 2853 3084 3261 2657 
Q 3669 2231 3669 1497 
Q 3669 778 3244 343 
Q 2819 -91 2113 -91 
Q 1303 -91 875 529 
Q 447 1150 447 2328 
Q 447 3434 972 4092 
Q 1497 4750 2381 4750 
Q 2619 4750 2861 4703 
Q 3103 4656 3366 4563 
z
" transform="scale(0.015625)"/>
       </defs>
       <use xlink:href="#DejaVuSans-46"/>
       <use xlink:href="#DejaVuSans-31" transform="translate(57.519531 0)"/>
       <use xlink:href="#DejaVuSans-20" transform="translate(121.142578 0)"/>
       <use xlink:href="#DejaVuSans-30" transform="translate(152.929688 0)"/>
       <use xlink:href="#DejaVuSans-2e" transform="translate(216.552734 0)"/>
       <use xlink:href="#DejaVuSans-39" transform="translate(248.339844 0)"/>
       <use xlink:href="#DejaVuSans-36" transform="translate(311.962891 0)"/>
      </g>
     </g>
    </g>
    <g id="xtick_5">
     <g id="line2d_5">
      <g>
       <use xlink:href="#m8348addc5a" x="284.369181" y="358.958125" style="fill: #333333; stroke: #333333; stroke-width: 0.8"/>
      </g>
     </g>
     <g id="text_5">
      <!-- F1 0.95 -->
      <g style="fill: #333333" transform="translate(267.468166 372.796719) scale(0.09 -0.09)">
       <defs>
        <path id="DejaVuSans-35" d="M 691 4666 
L 3169 4666 
L 3169 4134 
L 1269 4134 
L 1269 2991 
Q 1406 3038 1543 3061 
Q 1681 3084 1819 3084 
Q 2600 3084 3056 2656 
Q 3513 2228 3513 1497 
Q 3513 744 3044 326 
Q 2575 -91 1722 -91 
Q 1428 -91 1123 -41 
Q 819 9 494 109 
L 494 744 
Q 775 591 1075 516 
Q 1375 441 1709 441 
Q 2250 441 2565 725 
Q 2881 1009 2881 1497 
Q 2881 1984 2565 2268 
Q 2250 2553 1709 2553 
Q 1456 2553 1204 2497 
Q 953 2441 691 2322 
L 691 4666 
z
" transform="scale(0.015625)"/>
       </defs>
       <use xlink:href="#DejaVuSans-46"/>
       <use xlink:href="#DejaVuSans-31" transform="translate(57.519531 0)"/>
       <use xlink:href="#DejaVuSans-20" transform="translate(121.142578 0)"/>
       <use xlink:href="#DejaVuSans-30" transform="translate(152.929688 0)"/>
       <use xlink:href="#DejaVuSans-2e" transform="translate(216.552734 0)"/>
       <use xlink:href="#DejaVuSans-39" transform="translate(248.339844 0)"/>
       <use xlink:href="#DejaVuSans-35" transform="translate(311.962891 0)"/>
      </g>
     </g>
    </g>
    <g id="xtick_6">
     <g id="line2d_6">
      <g>
       <use xlink:href="#m8348addc5a" x="335.649381" y="358.958125" style="fill: #333333; stroke: #333333; stroke-width: 0.8"/>
      </g>
     </g>
     <g id="text_6">
      <!-- F1 0.94 -->
      <g style="fill: #333333" transform="translate(318.748366 372.796719) scale(0.09 -0.09)">
       <defs>
        <path id="DejaVuSans-34" d="M 2419 4116 
L 825 1625 
L 2419 1625 
L 2419 4116 
z
M 2253 4666 
L 3047 4666 
L 3047 1625 
L 3713 1625 
L 3713 1100 
L 3047 1100 
L 3047 0 
L 2419 0 
L 2419 1100 
L 313 1100 
L 313 1709 
L 2253 4666 
z
" transform="scale(0.015625)"/>
       </defs>
       <use xlink:href="#DejaVuSans-46"/>
       <use xlink:href="#DejaVuSans-31" transform="translate(57.519531 0)"/>
       <use xlink:href="#DejaVuSans-20" transform="translate(121.142578 0)"/>
       <use xlink:href="#DejaVuSans-30" transform="translate(152.929688 0)"/>
       <use xlink:href="#DejaVuSans-2e" transform="translate(216.552734 0)"/>
       <use xlink:href="#DejaVuSans-39" transform="translate(248.339844 0)"/>
       <use xlink:href="#DejaVuSans-34" transform="translate(311.962891 0)"/>
      </g>
     </g>
    </g>
    <g id="xtick_7">
     <g id="line2d_7">
      <g>
       <use xlink:href="#m8348addc5a" x="386.929581" y="358.958125" style="fill: #333333; stroke: #333333; stroke-width: 0.8"/>
      </g>
     </g>
     <g id="text_7">
      <!-- F1 0.93 -->
      <g style="fill: #333333" transform="translate(370.028566 372.796719) scale(0.09 -0.09)">
       <defs>
        <path id="DejaVuSans-33" d="M 2597 2516 
Q 3050 2419 3304 2112 
Q 3559 1806 3559 1356 
Q 3559 666 3084 287 
Q 2609 -91 1734 -91 
Q 1441 -91 1130 -33 
Q 819 25 488 141 
L 488 750 
Q 750 597 1062 519 
Q 1375 441 1716 441 
Q 2309 441 2620 675 
Q 2931 909 2931 1356 
Q 2931 1769 2642 2001 
Q 2353 2234 1838 2234 
L 1294 2234 
L 1294 2753 
L 1863 2753 
Q 2328 2753 2575 2939 
Q 2822 3125 2822 3475 
Q 2822 3834 2567 4026 
Q 2313 4219 1838 4219 
Q 1578 4219 1281 4162 
Q 984 4106 628 3988 
L 628 4550 
Q 988 4650 1302 4700 
Q 1616 4750 1894 4750 
Q 2613 4750 3031 4423 
Q 3450 4097 3450 3541 
Q 3450 3153 3228 2886 
Q 3006 2619 2597 2516 
z
" transform="scale(0.015625)"/>
       </defs>
       <use xlink:href="#DejaVuSans-46"/>
       <use xlink:href="#DejaVuSans-31" transform="translate(57.519531 0)"/>
       <use xlink:href="#DejaVuSans-20" transform="translate(121.142578 0)"/>
       <use xlink:href="#DejaVuSans-30" transform="translate(152.929688 0)"/>
       <use xlink:href="#DejaVuSans-2e" transform="translate(216.552734 0)"/>
       <use xlink:href="#DejaVuSans-39" transform="translate(248.339844 0)"/>
       <use xlink:href="#DejaVuSans-33" transform="translate(311.962891 0)"/>
      </g>
     </g>
    </g>
    <g id="xtick_8">
     <g id="line2d_8">
      <g>
       <use xlink:href="#m8348addc5a" x="438.209781" y="358.958125" style="fill: #333333; stroke: #333333; stroke-width: 0.8"/>
      </g>
     </g>
     <g id="text_8">
      <!-- F1 0.92 -->
      <g style="fill: #333333" transform="translate(421.308766 372.796719) scale(0.09 -0.09)">
       <defs>
        <path id="DejaVuSans-32" d="M 1228 531 
L 3431 531 
L 3431 0 
L 469 0 
L 469 531 
Q 828 903 1448 1529 
Q 2069 2156 2228 2338 
Q 2531 2678 2651 2914 
Q 2772 3150 2772 3378 
Q 2772 3750 2511 3984 
Q 2250 4219 1831 4219 
Q 1534 4219 1204 4116 
Q 875 4013 500 3803 
L 500 4441 
Q 881 4594 1212 4672 
Q 1544 4750 1819 4750 
Q 2544 4750 2975 4387 
Q 3406 4025 3406 3419 
Q 3406 3131 3298 2873 
Q 3191 2616 2906 2266 
Q 2828 2175 2409 1742 
Q 1991 1309 1228 531 
z
" transform="scale(0.015625)"/>
       </defs>
       <use xlink:href="#DejaVuSans-46"/>
       <use xlink:href="#DejaVuSans-31" transform="translate(57.519531 0)"/>
       <use xlink:href="#DejaVuSans-20" transform="translate(121.142578 0)"/>
       <use xlink:href="#DejaVuSans-30" transform="translate(152.929688 0)"/>
       <use xlink:href="#DejaVuSans-2e" transform="translate(216.552734 0)"/>
       <use xlink:href="#DejaVuSans-39" transform="translate(248.339844 0)"/>
       <use xlink:href="#DejaVuSans-32" transform="translate(311.962891 0)"/>
      </g>
     </g>
    </g>
    <g id="xtick_9">
     <g id="line2d_9">
      <g>
       <use xlink:href="#m8348addc5a" x="489.489981" y="358.958125" style="fill: #333333; stroke: #333333; stroke-width: 0.8"/>
      </g>
     </g>
     <g id="text_9">
      <!-- F1 0.91 -->
      <g style="fill: #333333" transform="translate(472.588966 372.796719) scale(0.09 -0.09)">
       <use xlink:href="#DejaVuSans-46"/>
       <use xlink:href="#DejaVuSans-31" transform="translate(57.519531 0)"/>
       <use xlink:href="#DejaVuSans-20" transform="translate(121.142578 0)"/>
       <use xlink:href="#DejaVuSans-30" transform="translate(152.929688 0)"/>
       <use xlink:href="#DejaVuSans-2e" transform="translate(216.552734 0)"/>
       <use xlink:href="#DejaVuSans-39" transform="translate(248.339844 0)"/>
       <use xlink:href="#DejaVuSans-31" transform="translate(311.962891 0)"/>
      </g>
     </g>
    </g>
    <g id="xtick_10">
     <g id="line2d_10">
      <g>
       <use xlink:href="#m8348addc5a" x="540.770181" y="358.958125" style="fill: #333333; stroke: #333333; stroke-width: 0.8"/>
      </g>
     </g>
     <g id="text_10">
      <!-- F1 0.90 -->
      <g style="fill: #333333" transform="translate(523.869166 372.796719) scale(0.09 -0.09)">
       <use xlink:href="#DejaVuSans-46"/>
       <use xlink:href="#DejaVuSans-31" transform="translate(57.519531 0)"/>
       <use xlink:href="#DejaVuSans-20" transform="translate(121.142578 0)"/>
       <use xlink:href="#DejaVuSans-30" transform="translate(152.929688 0)"/>
       <use xlink:href="#DejaVuSans-2e" transform="translate(216.552734 0)"/>
       <use xlink:href="#DejaVuSans-39" transform="translate(248.339844 0)"/>
       <use xlink:href="#DejaVuSans-30" transform="translate(311.962891 0)"/>
      </g>
     </g>
    </g>
   </g>
   <g id="matplotlib.axis_2">
    <g id="ytick_1">
     <g id="line2d_11">
      <defs>
       <path id="mb9b6da9f72" d="M 0 0 
L -3.5 0 
" style="stroke: #333333; stroke-width: 0.8"/>
      </defs>
      <g>
       <use xlink:href="#mb9b6da9f72" x="53.608281" y="358.958125" style="fill: #333333; stroke: #333333; stroke-width: 0.8"/>
      </g>
     </g>
     <g id="text_11">
      <!-- 0% -->
      <g style="fill: #333333" transform="translate(32.330625 362.377422) scale(0.09 -0.09)">
       <defs>
        <path id="DejaVuSans-25" d="M 4653 2053 
Q 4381 2053 4226 1822 
Q 4072 1591 4072 1178 
Q 4072 772 4226 539 
Q 4381 306 4653 306 
Q 4919 306 5073 539 
Q 5228 772 5228 1178 
Q 5228 1588 5073 1820 
Q 4919 2053 4653 2053 
z
M 4653 2450 
Q 5147 2450 5437 2106 
Q 5728 1763 5728 1178 
Q 5728 594 5436 251 
Q 5144 -91 4653 -91 
Q 4153 -91 3862 251 
Q 3572 594 3572 1178 
Q 3572 1766 3864 2108 
Q 4156 2450 4653 2450 
z
M 1428 4353 
Q 1159 4353 1004 4120 
Q 850 3888 850 3481 
Q 850 3069 1003 2837 
Q 1156 2606 1428 2606 
Q 1700 2606 1854 2837 
Q 2009 3069 2009 3481 
Q 2009 3884 1853 4118 
Q 1697 4353 1428 4353 
z
M 4250 4750 
L 4750 4750 
L 1831 -91 
L 1331 -91 
L 4250 4750 
z
M 1428 4750 
Q 1922 4750 2215 4408 
Q 2509 4066 2509 3481 
Q 2509 2891 2217 2550 
Q 1925 2209 1428 2209 
Q 931 2209 642 2551 
Q 353 2894 353 3481 
Q 353 4063 643 4406 
Q 934 4750 1428 4750 
z
" transform="scale(0.015625)"/>
       </defs>
       <use xlink:href="#DejaVuSans-30"/>
       <use xlink:href="#DejaVuSans-25" transform="translate(63.623047 0)"/>
      </g>
     </g>
    </g>
    <g id="ytick_2">
     <g id="line2d_12">
      <g>
       <use xlink:href="#mb9b6da9f72" x="53.608281" y="292.430125" style="fill: #333333; stroke: #333333; stroke-width: 0.8"/>
      </g>
     </g>
     <g id="text_12">
      <!-- 20% -->
      <g style="fill: #333333" transform="translate(26.604375 295.849422) scale(0.09 -0.09)">
       <use xlink:href="#DejaVuSans-32"/>
       <use xlink:href="#DejaVuSans-30" transform="translate(63.623047 0)"/>
       <use xlink:href="#DejaVuSans-25" transform="translate(127.246094 0)"/>
      </g>
     </g>
    </g>
    <g id="ytick_3">
     <g id="line2d_13">
      <g>
       <use xlink:href="#mb9b6da9f72" x="53.608281" y="225.902125" style="fill: #333333; stroke: #333333; stroke-width: 0.8"/>
      </g>
     </g>
     <g id="text_13">
      <!-- 40% -->
      <g style="fill: #333333" transform="translate(26.604375 229.321422) scale(0.09 -0.09)">
       <use xlink:href="#DejaVuSans-34"/>
       <use xlink:href="#DejaVuSans-30" transform="translate(63.623047 0)"/>
       <use xlink:href="#DejaVuSans-25" transform="translate(127.246094 0)"/>
      </g>
     </g>
    </g>
    <g id="ytick_4">
     <g id="line2d_14">
      <g>
       <use xlink:href="#mb9b6da9f72" x="53.608281" y="159.374125" style="fill: #333333; stroke: #333333; stroke-width: 0.8"/>
      </g>
     </g>
     <g id="text_14">
      <!-- 60% -->
      <g style="fill: #333333" transform="translate(26.604375 162.793422) scale(0.09 -0.09)">
       <use xlink:href="#DejaVuSans-36"/>
       <use xlink:href="#DejaVuSans-30" transform="translate(63.623047 0)"/>
       <use xlink:href="#DejaVuSans-25" transform="translate(127.246094 0)"/>
      </g>
     </g>
    </g>
    <g id="ytick_5">
     <g id="line2d_15">
      <g>
       <use xlink:href="#mb9b6da9f72" x="53.608281" y="92.846125" style="fill: #333333; stroke: #333333; stroke-width: 0.8"/>
      </g>
     </g>
     <g id="text_15">
      <!-- 80% -->
      <g style="fill: #333333" transform="translate(26.604375 96.265422) scale(0.09 -0.09)">
       <use xlink:href="#DejaVuSans-38"/>
       <use xlink:href="#DejaVuSans-30" transform="translate(63.623047 0)"/>
       <use xlink:href="#DejaVuSans-25" transform="translate(127.246094 0)"/>
      </g>
     </g>
    </g>
    <g id="ytick_6">
     <g id="line2d_16">
      <g>
       <use xlink:href="#mb9b6da9f72" x="53.608281" y="26.318125" style="fill: #333333; stroke: #333333; stroke-width: 0.8"/>
      </g>
     </g>
     <g id="text_16">
      <!-- 100% -->
      <g style="fill: #333333" transform="translate(20.878125 29.737422) scale(0.09 -0.09)">
       <use xlink:href="#DejaVuSans-31"/>
       <use xlink:href="#DejaVuSans-30" transform="translate(63.623047 0)"/>
       <use xlink:href="#DejaVuSans-30" transform="translate(127.246094 0)"/>
       <use xlink:href="#DejaVuSans-25" transform="translate(190.869141 0)"/>
      </g>
     </g>
    </g>
    <g id="text_17">
     <!-- F1 score -->
     <g transform="translate(14.798438 213.717031) rotate(-90) scale(0.1 -0.1)">
      <defs>
       <path id="DejaVuSans-73" d="M 2834 3397 
L 2834 2853 
Q 2591 2978 2328 3040 
Q 2066 3103 1784 3103 
Q 1356 3103 1142 2972 
Q 928 2841 928 2578 
Q 928 2378 1081 2264 
Q 1234 2150 1697 2047 
L 1894 2003 
Q 2506 1872 2764 1633 
Q 3022 1394 3022 966 
Q 3022 478 2636 193 
Q 2250 -91 1575 -91 
Q 1294 -91 989 -36 
Q 684 19 347 128 
L 347 722 
Q 666 556 975 473 
Q 1284 391 1588 391 
Q 1994 391 2212 530 
Q 2431 669 2431 922 
Q 2431 1156 2273 1281 
Q 2116 1406 1581 1522 
L 1381 1569 
Q 847 1681 609 1914 
Q 372 2147 372 2553 
Q 372 3047 722 3315 
Q 1072 3584 1716 3584 
Q 2034 3584 2315 3537 
Q 2597 3491 2834 3397 
z
" transform="scale(0.015625)"/>
       <path id="DejaVuSans-63" d="M 3122 3366 
L 3122 2828 
Q 2878 2963 2633 3030 
Q 2388 3097 2138 3097 
Q 1578 3097 1268 2742 
Q 959 2388 959 1747 
Q 959 1106 1268 751 
Q 1578 397 2138 397 
Q 2388 397 2633 464 
Q 2878 531 3122 666 
L 3122 134 
Q 2881 22 2623 -34 
Q 2366 -91 2075 -91 
Q 1284 -91 818 406 
Q 353 903 353 1747 
Q 353 2603 823 3093 
Q 1294 3584 2113 3584 
Q 2378 3584 2631 3529 
Q 2884 3475 3122 3366 
z
" transform="scale(0.015625)"/>
       <path id="DejaVuSans-6f" d="M 1959 3097 
Q 1497 3097 1228 2736 
Q 959 2375 959 1747 
Q 959 1119 1226 758 
Q 1494 397 1959 397 
Q 2419 397 2687 759 
Q 2956 1122 2956 1747 
Q 2956 2369 2687 2733 
Q 2419 3097 1959 3097 
z
M 1959 3584 
Q 2709 3584 3137 3096 
Q 3566 2609 3566 1747 
Q 3566 888 3137 398 
Q 2709 -91 1959 -91 
Q 1206 -91 779 398 
Q 353 888 353 1747 
Q 353 2609 779 3096 
Q 1206 3584 1959 3584 
z
" transform="scale(0.015625)"/>
       <path id="DejaVuSans-72" d="M 2631 2963 
Q 2534 3019 2420 3045 
Q 2306 3072 2169 3072 
Q 1681 3072 1420 2755 
Q 1159 2438 1159 1844 
L 1159 0 
L 581 0 
L 581 3500 
L 1159 3500 
L 1159 2956 
Q 1341 3275 1631 3429 
Q 1922 3584 2338 3584 
Q 2397 3584 2469 3576 
Q 2541 3569 2628 3553 
L 2631 2963 
z
" transform="scale(0.015625)"/>
       <path id="DejaVuSans-65" d="M 3597 1894 
L 3597 1613 
L 953 1613 
Q 991 1019 1311 708 
Q 1631 397 2203 397 
Q 2534 397 2845 478 
Q 3156 559 3463 722 
L 3463 178 
Q 3153 47 2828 -22 
Q 2503 -91 2169 -91 
Q 1331 -91 842 396 
Q 353 884 353 1716 
Q 353 2575 817 3079 
Q 1281 3584 2069 3584 
Q 2775 3584 3186 3129 
Q 3597 2675 3597 1894 
z
M 3022 2063 
Q 3016 2534 2758 2815 
Q 2500 3097 2075 3097 
Q 1594 3097 1305 2825 
Q 1016 2553 972 2059 
L 3022 2063 
z
" transform="scale(0.015625)"/>
      </defs>
      <use xlink:href="#DejaVuSans-46"/>
      <use xlink:href="#DejaVuSans-31" transform="translate(57.519531 0)"/>
      <use xlink:href="#DejaVuSans-20" transform="translate(121.142578 0)"/>
      <use xlink:href="#DejaVuSans-73" transform="translate(152.929688 0)"/>
      <use xlink:href="#DejaVuSans-63" transform="translate(205.029297 0)"/>
      <use xlink:href="#DejaVuSans-6f" transform="translate(260.009766 0)"/>
      <use xlink:href="#DejaVuSans-72" transform="translate(321.191406 0)"/>
      <use xlink:href="#DejaVuSans-65" transform="translate(360.054688 0)"/>
     </g>
    </g>
   </g>
   <g id="line2d_17">
    <path d="M 58.736301 358.958125 
L 99.760461 358.958125 
" clip-path="url(#p494daf9221)" style="fill: none; stroke-dasharray: 1,0.6; stroke-dashoffset: 0; stroke: #6e6e6e; stroke-width: 0.8"/>
   </g>
   <g id="line2d_18">
    <path d="M 58.736301 358.958125 
L 99.760461 358.958125 
" clip-path="url(#p494daf9221)" style="fill: none; stroke-dasharray: 2,0.8; stroke-dashoffset: 0; stroke: #6e6e6e; stroke-width: 0.8"/>
   </g>
   <g id="line2d_19">
    <path d="M 58.736301 358.958125 
L 99.760461 358.958125 
" clip-path="url(#p494daf9221)" style="fill: none; stroke-dasharray: 1,0.6; stroke-dashoffset: 0; stroke: #6e6e6e; stroke-width: 0.8"/>
   </g>
   <g id="line2d_20">
    <path d="M 115.424296 358.958125 
L 145.632867 358.958125 
" clip-path="url(#p494daf9221)" style="fill: none; stroke-dasharray: 1,0.6; stroke-dashoffset: 0; stroke: #6e6e6e; stroke-width: 0.8"/>
   </g>
   <g id="line2d_21">
    <path d="M 115.424296 358.958125 
L 145.632867 358.958125 
" clip-path="url(#p494daf9221)" style="fill: none; stroke-dasharray: 2,0.8; stroke-dashoffset: 0; stroke: #6e6e6e; stroke-width: 0.8"/>
   </g>
   <g id="line2d_22">
    <path d="M 115.424296 358.958125 
L 145.632867 358.958125 
" clip-path="url(#p494daf9221)" style="fill: none; stroke-dasharray: 1,0.6; stroke-dashoffset: 0; stroke: #6e6e6e; stroke-width: 0.8"/>
   </g>
   <g id="line2d_23">
    <path d="M 168.815338 358.958125 
L 194.802225 358.958125 
" clip-path="url(#p494daf9221)" style="fill: none; stroke-dasharray: 1,0.6; stroke-dashoffset: 0; stroke: #6e6e6e; stroke-width: 0.8"/>
   </g>
   <g id="line2d_24">
    <path d="M 168.815338 358.958125 
L 194.802225 358.958125 
" clip-path="url(#p494daf9221)" style="fill: none; stroke-dasharray: 2,0.8; stroke-dashoffset: 0; stroke: #6e6e6e; stroke-width: 0.8"/>
   </g>
   <g id="line2d_25">
    <path d="M 168.80713 357.096395 
L 194.810433 357.096395 
" clip-path="url(#p494daf9221)" style="fill: none; stroke-dasharray: 1,0.6; stroke-dashoffset: 0; stroke: #6e6e6e; stroke-width: 0.8"/>
   </g>
   <g id="line2d_26">
    <path d="M 221.354316 358.958125 
L 244.823646 358.958125 
" clip-path="url(#p494daf9221)" style="fill: none; stroke-dasharray: 1,0.6; stroke-dashoffset: 0; stroke: #6e6e6e; stroke-width: 0.8"/>
   </g>
   <g id="line2d_27">
    <path d="M 221.354316 358.958125 
L 244.823646 358.958125 
" clip-path="url(#p494daf9221)" style="fill: none; stroke-dasharray: 2,0.8; stroke-dashoffset: 0; stroke: #6e6e6e; stroke-width: 0.8"/>
   </g>
   <g id="line2d_28">
    <path d="M 221.323945 356.766059 
L 244.854017 356.766059 
" clip-path="url(#p494daf9221)" style="fill: none; stroke-dasharray: 1,0.6; stroke-dashoffset: 0; stroke: #6e6e6e; stroke-width: 0.8"/>
   </g>
   <g id="line2d_29">
    <path d="M 273.546342 358.958125 
L 295.19202 358.958125 
" clip-path="url(#p494daf9221)" style="fill: none; stroke-dasharray: 1,0.6; stroke-dashoffset: 0; stroke: #6e6e6e; stroke-width: 0.8"/>
   </g>
   <g id="line2d_30">
    <path d="M 273.520481 358.153675 
L 295.217882 358.153675 
" clip-path="url(#p494daf9221)" style="fill: none; stroke-dasharray: 2,0.8; stroke-dashoffset: 0; stroke: #6e6e6e; stroke-width: 0.8"/>
   </g>
   <g id="line2d_31">
    <path d="M 273.535347 354.434594 
L 295.203016 354.434594 
" clip-path="url(#p494daf9221)" style="fill: none; stroke-dasharray: 1,0.6; stroke-dashoffset: 0; stroke: #6e6e6e; stroke-width: 0.8"/>
   </g>
   <g id="line2d_32">
    <path d="M 325.85256 358.958125 
L 345.446202 358.958125 
" clip-path="url(#p494daf9221)" style="fill: none; stroke-dasharray: 1,0.6; stroke-dashoffset: 0; stroke: #6e6e6e; stroke-width: 0.8"/>
   </g>
   <g id="line2d_33">
    <path d="M 325.80995 357.685036 
L 345.488813 357.685036 
" clip-path="url(#p494daf9221)" style="fill: none; stroke-dasharray: 2,0.8; stroke-dashoffset: 0; stroke: #6e6e6e; stroke-width: 0.8"/>
   </g>
   <g id="line2d_34">
    <path d="M 325.839894 353.234506 
L 345.458869 353.234506 
" clip-path="url(#p494daf9221)" style="fill: none; stroke-dasharray: 1,0.6; stroke-dashoffset: 0; stroke: #6e6e6e; stroke-width: 0.8"/>
   </g>
   <g id="line2d_35">
    <path d="M 377.578507 358.958125 
L 396.280655 358.958125 
" clip-path="url(#p494daf9221)" style="fill: none; stroke-dasharray: 1,0.6; stroke-dashoffset: 0; stroke: #6e6e6e; stroke-width: 0.8"/>
   </g>
   <g id="line2d_36">
    <path d="M 377.497074 356.960287 
L 396.362089 356.960287 
" clip-path="url(#p494daf9221)" style="fill: none; stroke-dasharray: 2,0.8; stroke-dashoffset: 0; stroke: #6e6e6e; stroke-width: 0.8"/>
   </g>
   <g id="line2d_37">
    <path d="M 377.622111 351.394168 
L 396.237051 351.394168 
" clip-path="url(#p494daf9221)" style="fill: none; stroke-dasharray: 1,0.6; stroke-dashoffset: 0; stroke: #6e6e6e; stroke-width: 0.8"/>
   </g>
   <g id="line2d_38">
    <path d="M 429.236406 358.958125 
L 447.183157 358.958125 
" clip-path="url(#p494daf9221)" style="fill: none; stroke-dasharray: 1,0.6; stroke-dashoffset: 0; stroke: #6e6e6e; stroke-width: 0.8"/>
   </g>
   <g id="line2d_39">
    <path d="M 429.07145 355.438125 
L 447.348112 355.438125 
" clip-path="url(#p494daf9221)" style="fill: none; stroke-dasharray: 2,0.8; stroke-dashoffset: 0; stroke: #6e6e6e; stroke-width: 0.8"/>
   </g>
   <g id="line2d_40">
    <path d="M 429.340287 348.508516 
L 447.079276 348.508516 
" clip-path="url(#p494daf9221)" style="fill: none; stroke-dasharray: 1,0.6; stroke-dashoffset: 0; stroke: #6e6e6e; stroke-width: 0.8"/>
   </g>
   <g id="line2d_41">
    <path d="M 481.042912 358.958125 
L 497.93705 358.958125 
" clip-path="url(#p494daf9221)" style="fill: none; stroke-dasharray: 1,0.6; stroke-dashoffset: 0; stroke: #6e6e6e; stroke-width: 0.8"/>
   </g>
   <g id="line2d_42">
    <path d="M 480.851695 354.273055 
L 498.128268 354.273055 
" clip-path="url(#p494daf9221)" style="fill: none; stroke-dasharray: 2,0.8; stroke-dashoffset: 0; stroke: #6e6e6e; stroke-width: 0.8"/>
   </g>
   <g id="line2d_43">
    <path d="M 481.159767 346.914263 
L 497.820196 346.914263 
" clip-path="url(#p494daf9221)" style="fill: none; stroke-dasharray: 1,0.6; stroke-dashoffset: 0; stroke: #6e6e6e; stroke-width: 0.8"/>
   </g>
   <g id="line2d_44">
    <path d="M 532.856418 358.476736 
L 548.683944 358.476736 
" clip-path="url(#p494daf9221)" style="fill: none; stroke-dasharray: 1,0.6; stroke-dashoffset: 0; stroke: #6e6e6e; stroke-width: 0.8"/>
   </g>
   <g id="line2d_45">
    <path d="M 532.595065 352.964611 
L 548.945298 352.964611 
" clip-path="url(#p494daf9221)" style="fill: none; stroke-dasharray: 2,0.8; stroke-dashoffset: 0; stroke: #6e6e6e; stroke-width: 0.8"/>
   </g>
   <g id="line2d_46">
    <path d="M 533.650012 338.630005 
L 547.89035 338.630005 
" clip-path="url(#p494daf9221)" style="fill: none; stroke-dasharray: 1,0.6; stroke-dashoffset: 0; stroke: #6e6e6e; stroke-width: 0.8"/>
   </g>
   <g id="patch_3">
    <path d="M 53.608281 358.958125 
L 53.608281 26.318125 
" style="fill: none; stroke: #333333; stroke-width: 0.8; stroke-linejoin: miter; stroke-linecap: square"/>
   </g>
   <g id="patch_4">
    <path d="M 53.608281 358.958125 
L 566.410281 358.958125 
" style="fill: none; stroke: #333333; stroke-width: 0.8; stroke-linejoin: miter; stroke-linecap: square"/>
   </g>
   <g id="text_18">
    <!-- Distribution of F1 scores by threshold -->
    <g transform="translate(53.608281 16.318125) scale(0.12 -0.12)">
     <defs>
      <path id="DejaVuSans-Bold-44" d="M 1791 3756 
L 1791 909 
L 2222 909 
Q 2959 909 3348 1275 
Q 3738 1641 3738 2338 
Q 3738 3031 3350 3393 
Q 2963 3756 2222 3756 
L 1791 3756 
z
M 588 4666 
L 1856 4666 
Q 2919 4666 3439 4514 
Q 3959 4363 4331 4000 
Q 4659 3684 4818 3271 
Q 4978 2859 4978 2338 
Q 4978 1809 4818 1395 
Q 4659 981 4331 666 
Q 3956 303 3431 151 
Q 2906 0 1856 0 
L 588 0 
L 588 4666 
z
" transform="scale(0.015625)"/>
      <path id="DejaVuSans-Bold-69" d="M 538 3500 
L 1656 3500 
L 1656 0 
L 538 0 
L 538 3500 
z
M 538 4863 
L 1656 4863 
L 1656 3950 
L 538 3950 
L 538 4863 
z
" transform="scale(0.015625)"/>
      <path id="DejaVuSans-Bold-73" d="M 3272 3391 
L 3272 2541 
Q 2913 2691 2578 2766 
Q 2244 2841 1947 2841 
Q 1628 2841 1473 2761 
Q 1319 2681 1319 2516 
Q 1319 2381 1436 2309 
Q 1553 2238 1856 2203 
L 2053 2175 
Q 2913 2066 3209 1816 
Q 3506 1566 3506 1031 
Q 3506 472 3093 190 
Q 2681 -91 1863 -91 
Q 1516 -91 1145 -36 
Q 775 19 384 128 
L 384 978 
Q 719 816 1070 734 
Q 1422 653 1784 653 
Q 2113 653 2278 743 
Q 2444 834 2444 1013 
Q 2444 1163 2330 1236 
Q 2216 1309 1875 1350 
L 1678 1375 
Q 931 1469 631 1722 
Q 331 1975 331 2491 
Q 331 3047 712 3315 
Q 1094 3584 1881 3584 
Q 2191 3584 2531 3537 
Q 2872 3491 3272 3391 
z
" transform="scale(0.015625)"/>
      <path id="DejaVuSans-Bold-74" d="M 1759 4494 
L 1759 3500 
L 2913 3500 
L 2913 2700 
L 1759 2700 
L 1759 1216 
Q 1759 972 1856 886 
Q 1953 800 2241 800 
L 2816 800 
L 2816 0 
L 1856 0 
Q 1194 0 917 276 
Q 641 553 641 1216 
L 641 2700 
L 84 2700 
L 84 3500 
L 641 3500 
L 641 4494 
L 1759 4494 
z
" transform="scale(0.015625)"/>
      <path id="DejaVuSans-Bold-72" d="M 3138 2547 
Q 2991 2616 2845 2648 
Q 2700 2681 2553 2681 
Q 2122 2681 1889 2404 
Q 1656 2128 1656 1613 
L 1656 0 
L 538 0 
L 538 3500 
L 1656 3500 
L 1656 2925 
Q 1872 3269 2151 3426 
Q 2431 3584 2822 3584 
Q 2878 3584 2943 3579 
Q 3009 3575 3134 3559 
L 3138 2547 
z
" transform="scale(0.015625)"/>
      <path id="DejaVuSans-Bold-62" d="M 2400 722 
Q 2759 722 2948 984 
Q 3138 1247 3138 1747 
Q 3138 2247 2948 2509 
Q 2759 2772 2400 2772 
Q 2041 2772 1848 2508 
Q 1656 2244 1656 1747 
Q 1656 1250 1848 986 
Q 2041 722 2400 722 
z
M 1656 2988 
Q 1888 3294 2169 3439 
Q 2450 3584 2816 3584 
Q 3463 3584 3878 3070 
Q 4294 2556 4294 1747 
Q 4294 938 3878 423 
Q 3463 -91 2816 -91 
Q 2450 -91 2169 54 
Q 1888 200 1656 506 
L 1656 0 
L 538 0 
L 538 4863 
L 1656 4863 
L 1656 2988 
z
" transform="scale(0.015625)"/>
      <path id="DejaVuSans-Bold-75" d="M 500 1363 
L 500 3500 
L 1625 3500 
L 1625 3150 
Q 1625 2866 1622 2436 
Q 1619 2006 1619 1863 
Q 1619 1441 1641 1255 
Q 1663 1069 1716 984 
Q 1784 875 1895 815 
Q 2006 756 2150 756 
Q 2500 756 2700 1025 
Q 2900 1294 2900 1772 
L 2900 3500 
L 4019 3500 
L 4019 0 
L 2900 0 
L 2900 506 
Q 2647 200 2364 54 
Q 2081 -91 1741 -91 
Q 1134 -91 817 281 
Q 500 653 500 1363 
z
" transform="scale(0.015625)"/>
      <path id="DejaVuSans-Bold-6f" d="M 2203 2784 
Q 1831 2784 1636 2517 
Q 1441 2250 1441 1747 
Q 1441 1244 1636 976 
Q 1831 709 2203 709 
Q 2569 709 2762 976 
Q 2956 1244 2956 1747 
Q 2956 2250 2762 2517 
Q 2569 2784 2203 2784 
z
M 2203 3584 
Q 3106 3584 3614 3096 
Q 4122 2609 4122 1747 
Q 4122 884 3614 396 
Q 3106 -91 2203 -91 
Q 1297 -91 786 396 
Q 275 884 275 1747 
Q 275 2609 786 3096 
Q 1297 3584 2203 3584 
z
" transform="scale(0.015625)"/>
      <path id="DejaVuSans-Bold-6e" d="M 4056 2131 
L 4056 0 
L 2931 0 
L 2931 347 
L 2931 1631 
Q 2931 2084 2911 2256 
Q 2891 2428 2841 2509 
Q 2775 2619 2662 2680 
Q 2550 2741 2406 2741 
Q 2056 2741 1856 2470 
Q 1656 2200 1656 1722 
L 1656 0 
L 538 0 
L 538 3500 
L 1656 3500 
L 1656 2988 
Q 1909 3294 2193 3439 
Q 2478 3584 2822 3584 
Q 3428 3584 3742 3212 
Q 4056 2841 4056 2131 
z
" transform="scale(0.015625)"/>
      <path id="DejaVuSans-Bold-20" transform="scale(0.015625)"/>
      <path id="DejaVuSans-Bold-66" d="M 2841 4863 
L 2841 4128 
L 2222 4128 
Q 1984 4128 1890 4042 
Q 1797 3956 1797 3744 
L 1797 3500 
L 2753 3500 
L 2753 2700 
L 1797 2700 
L 1797 0 
L 678 0 
L 678 2700 
L 122 2700 
L 122 3500 
L 678 3500 
L 678 3744 
Q 678 4316 997 4589 
Q 1316 4863 1984 4863 
L 2841 4863 
z
" transform="scale(0.015625)"/>
      <path id="DejaVuSans-Bold-46" d="M 588 4666 
L 3834 4666 
L 3834 3756 
L 1791 3756 
L 1791 2888 
L 3713 2888 
L 3713 1978 
L 1791 1978 
L 1791 0 
L 588 0 
L 588 4666 
z
" transform="scale(0.015625)"/>
      <path id="DejaVuSans-Bold-31" d="M 750 831 
L 1813 831 
L 1813 3847 
L 722 3622 
L 722 4441 
L 1806 4666 
L 2950 4666 
L 2950 831 
L 4013 831 
L 4013 0 
L 750 0 
L 750 831 
z
" transform="scale(0.015625)"/>
      <path id="DejaVuSans-Bold-63" d="M 3366 3391 
L 3366 2478 
Q 3138 2634 2908 2709 
Q 2678 2784 2431 2784 
Q 1963 2784 1702 2511 
Q 1441 2238 1441 1747 
Q 1441 1256 1702 982 
Q 1963 709 2431 709 
Q 2694 709 2930 787 
Q 3166 866 3366 1019 
L 3366 103 
Q 3103 6 2833 -42 
Q 2563 -91 2291 -91 
Q 1344 -91 809 395 
Q 275 881 275 1747 
Q 275 2613 809 3098 
Q 1344 3584 2291 3584 
Q 2566 3584 2833 3536 
Q 3100 3488 3366 3391 
z
" transform="scale(0.015625)"/>
      <path id="DejaVuSans-Bold-65" d="M 4031 1759 
L 4031 1441 
L 1416 1441 
Q 1456 1047 1700 850 
Q 1944 653 2381 653 
Q 2734 653 3104 758 
Q 3475 863 3866 1075 
L 3866 213 
Q 3469 63 3072 -14 
Q 2675 -91 2278 -91 
Q 1328 -91 801 392 
Q 275 875 275 1747 
Q 275 2603 792 3093 
Q 1309 3584 2216 3584 
Q 3041 3584 3536 3087 
Q 4031 2591 4031 1759 
z
M 2881 2131 
Q 2881 2450 2695 2645 
Q 2509 2841 2209 2841 
Q 1884 2841 1681 2658 
Q 1478 2475 1428 2131 
L 2881 2131 
z
" transform="scale(0.015625)"/>
      <path id="DejaVuSans-Bold-79" d="M 78 3500 
L 1197 3500 
L 2138 1125 
L 2938 3500 
L 4056 3500 
L 2584 -331 
Q 2363 -916 2067 -1148 
Q 1772 -1381 1288 -1381 
L 641 -1381 
L 641 -647 
L 991 -647 
Q 1275 -647 1404 -556 
Q 1534 -466 1606 -231 
L 1638 -134 
L 78 3500 
z
" transform="scale(0.015625)"/>
      <path id="DejaVuSans-Bold-68" d="M 4056 2131 
L 4056 0 
L 2931 0 
L 2931 347 
L 2931 1625 
Q 2931 2084 2911 2256 
Q 2891 2428 2841 2509 
Q 2775 2619 2662 2680 
Q 2550 2741 2406 2741 
Q 2056 2741 1856 2470 
Q 1656 2200 1656 1722 
L 1656 0 
L 538 0 
L 538 4863 
L 1656 4863 
L 1656 2988 
Q 1909 3294 2193 3439 
Q 2478 3584 2822 3584 
Q 3428 3584 3742 3212 
Q 4056 2841 4056 2131 
z
" transform="scale(0.015625)"/>
      <path id="DejaVuSans-Bold-6c" d="M 538 4863 
L 1656 4863 
L 1656 0 
L 538 0 
L 538 4863 
z
" transform="scale(0.015625)"/>
      <path id="DejaVuSans-Bold-64" d="M 2919 2988 
L 2919 4863 
L 4044 4863 
L 4044 0 
L 2919 0 
L 2919 506 
Q 2688 197 2409 53 
Q 2131 -91 1766 -91 
Q 1119 -91 703 423 
Q 288 938 288 1747 
Q 288 2556 703 3070 
Q 1119 3584 1766 3584 
Q 2128 3584 2408 3439 
Q 2688 3294 2919 2988 
z
M 2181 722 
Q 2541 722 2730 984 
Q 2919 1247 2919 1747 
Q 2919 2247 2730 2509 
Q 2541 2772 2181 2772 
Q 1825 2772 1636 2509 
Q 1447 2247 1447 1747 
Q 1447 1247 1636 984 
Q 1825 722 2181 722 
z
" transform="scale(0.015625)"/>
     </defs>
     <use xlink:href="#DejaVuSans-Bold-44"/>
     <use xlink:href="#DejaVuSans-Bold-69" transform="translate(83.007812 0)"/>
     <use xlink:href="#DejaVuSans-Bold-73" transform="translate(117.285156 0)"/>
     <use xlink:href="#DejaVuSans-Bold-74" transform="translate(176.806641 0)"/>
     <use xlink:href="#DejaVuSans-Bold-72" transform="translate(224.609375 0)"/>
     <use xlink:href="#DejaVuSans-Bold-69" transform="translate(273.925781 0)"/>
     <use xlink:href="#DejaVuSans-Bold-62" transform="translate(308.203125 0)"/>
     <use xlink:href="#DejaVuSans-Bold-75" transform="translate(379.785156 0)"/>
     <use xlink:href="#DejaVuSans-Bold-74" transform="translate(450.976562 0)"/>
     <use xlink:href="#DejaVuSans-Bold-69" transform="translate(498.779297 0)"/>
     <use xlink:href="#DejaVuSans-Bold-6f" transform="translate(533.056641 0)"/>
     <use xlink:href="#DejaVuSans-Bold-6e" transform="translate(601.757812 0)"/>
     <use xlink:href="#DejaVuSans-Bold-20" transform="translate(672.949219 0)"/>
     <use xlink:href="#DejaVuSans-Bold-6f" transform="translate(707.763672 0)"/>
     <use xlink:href="#DejaVuSans-Bold-66" transform="translate(776.464844 0)"/>
     <use xlink:href="#DejaVuSans-Bold-20" transform="translate(819.970703 0)"/>
     <use xlink:href="#DejaVuSans-Bold-46" transform="translate(854.785156 0)"/>
     <use xlink:href="#DejaVuSans-Bold-31" transform="translate(923.095703 0)"/>
     <use xlink:href="#DejaVuSans-Bold-20" transform="translate(992.675781 0)"/>
     <use xlink:href="#DejaVuSans-Bold-73" transform="translate(1027.490234 0)"/>
     <use xlink:href="#DejaVuSans-Bold-63" transform="translate(1087.011719 0)"/>
     <use xlink:href="#DejaVuSans-Bold-6f" transform="translate(1146.289062 0)"/>
     <use xlink:href="#DejaVuSans-Bold-72" transform="translate(1214.990234 0)"/>
     <use xlink:href="#DejaVuSans-Bold-65" transform="translate(1264.306641 0)"/>
     <use xlink:href="#DejaVuSans-Bold-73" transform="translate(1332.128906 0)"/>
     <use xlink:href="#DejaVuSans-Bold-20" transform="translate(1391.650391 0)"/>
     <use xlink:href="#DejaVuSans-Bold-62" transform="translate(1426.464844 0)"/>
     <use xlink:href="#DejaVuSans-Bold-79" transform="translate(1498.046875 0)"/>
     <use xlink:href="#DejaVuSans-Bold-20" transform="translate(1563.232422 0)"/>
     <use xlink:href="#DejaVuSans-Bold-74" transform="translate(1598.046875 0)"/>
     <use xlink:href="#DejaVuSans-Bold-68" transform="translate(1645.849609 0)"/>
     <use xlink:href="#DejaVuSans-Bold-72" transform="translate(1717.041016 0)"/>
     <use xlink:href="#DejaVuSans-Bold-65" transform="translate(1766.357422 0)"/>
     <use xlink:href="#DejaVuSans-Bold-73" transform="translate(1834.179688 0)"/>
     <use xlink:href="#DejaVuSans-Bold-68" transform="translate(1893.701172 0)"/>
     <use xlink:href="#DejaVuSans-Bold-6f" transform="translate(1964.892578 0)"/>
     <use xlink:href="#DejaVuSans-Bold-6c" transform="translate(2033.59375 0)"/>
     <use xlink:href="#DejaVuSans-Bold-64" transform="translate(2067.871094 0)"/>
    </g>
   </g>
  </g>
 </g>
 <defs>
  <clipPath id="p494daf9221">
   <rect x="53.608281" y="26.318125" width="512.802" height="332.64"/>
  </clipPath>
 </defs>
</svg>
