<?xml version="1.0" encoding="utf-8" standalone="no"?>
<!DOCTYPE svg PUBLIC "-//W3C//DTD SVG 1.1//EN"
  "http://www.w3.org/Graphics/SVG/1.1/DTD/svg11.dtd">
<svg xmlns:xlink="http://www.w3.org/1999/xlink" width="549.274844pt" height="351.194562pt" viewBox="0 0 549.274844 351.194562" xmlns="http://www.w3.org/2000/svg" version="1.1">
 <metadata>
  <rdf:RDF xmlns:dc="http://purl.org/dc/elements/1.1/" xmlns:cc="http://creativecommons.org/ns#" xmlns:rdf="http://www.w3.org/1999/02/22-rdf-syntax-ns#">
   <cc:Work>
    <dc:type rdf:resource="http://purl.org/dc/dcmitype/StillImage"/>
    <dc:date>2026-04-27T15:29:37.022976</dc:date>
    <dc:format>image/svg+xml</dc:format>
    <dc:creator>
     <cc:Agent>
      <dc:title>Matplotlib v3.10.8, https://matplotlib.org/</dc:title>
     </cc:Agent>
    </dc:creator>
   </cc:Work>
  </rdf:RDF>
 </metadata>
 <defs>
  <style type="text/css">*{stroke-linejoin: round; stroke-linecap: butt}</style>
 </defs>
 <g id="figure_1">
  <g id="patch_1">
   <path d="M 0 351.194562 
L 549.274844 351.194562 
L 549.274844 0 
L 0 0 
z
" style="fill: #ffffff"/>
  </g>
  <g id="axes_1">
   <g id="patch_2">
    <path d="M 62.194844 314.606125 
L 542.074844 314.606125 
L 542.074844 26.318125 
L 62.194844 26.318125 
z
" style="fill: #ffffff"/>
   </g>
   <g id="matplotlib.axis_1">
    <g id="xtick_1">
     <g id="line2d_1">
      <defs>
       <path id="me1ee32efc5" d="M 0 0 
L 0 3.5 
" style="stroke: #333333; stroke-width: 0.8"/>
      </defs>
      <g>
       <use xlink:href="#me1ee32efc5" x="70.081705" y="314.606125" style="fill: #333333; stroke: #333333; stroke-width: 0.8"/>
      </g>
     </g>
     <g id="text_1">
      <!-- 0 -->
      <g style="fill: #333333" transform="translate(67.21858 328.444719) scale(0.09 -0.09)">
       <defs>
        <path id="DejaVuSans-30" d="M 2034 4250 
Q 1547 4250 1301 3770 
Q 1056 3291 1056 2328 
Q 1056 1369 1301 889 
Q 1547 409 2034 409 
Q 2525 409 2770 889 
Q 3016 1369 3016 2328 
Q 3016 3291 2770 3770 
Q 2525 4250 2034 4250 
z
M 2034 4750 
Q 2819 4750 3233 4129 
Q 3647 3509 3647 2328 
Q 3647 1150 3233 529 
Q 2819 -91 2034 -91 
Q 1250 -91 836 529 
Q 422 1150 422 2328 
Q 422 3509 836 4129 
Q 1250 4750 2034 4750 
z
" transform="scale(0.015625)"/>
       </defs>
       <use xlink:href="#DejaVuSans-30"/>
      </g>
     </g>
    </g>
    <g id="xtick_2">
     <g id="line2d_2">
      <g>
       <use xlink:href="#me1ee32efc5" x="159.350079" y="314.606125" style="fill: #333333; stroke: #333333; stroke-width: 0.8"/>
      </g>
     </g>
     <g id="text_2">
      <!-- 2,000 -->
      <g style="fill: #333333" transform="translate(146.467423 328.444719) scale(0.09 -0.09)">
       <defs>
        <path id="DejaVuSans-32" d="M 1228 531 
L 3431 531 
L 3431 0 
L 469 0 
L 469 531 
Q 828 903 1448 1529 
Q 2069 2156 2228 2338 
Q 2531 2678 2651 2914 
Q 2772 3150 2772 3378 
Q 2772 3750 2511 3984 
Q 2250 4219 1831 4219 
Q 1534 4219 1204 4116 
Q 875 4013 500 3803 
L 500 4441 
Q 881 4594 1212 4672 
Q 1544 4750 1819 4750 
Q 2544 4750 2975 4387 
Q 3406 4025 3406 3419 
Q 3406 3131 3298 2873 
Q 3191 2616 2906 2266 
Q 2828 2175 2409 1742 
Q 1991 1309 1228 531 
z
" transform="scale(0.015625)"/>
        <path id="DejaVuSans-2c" d="M 750 794 
L 1409 794 
L 1409 256 
L 897 -744 
L 494 -744 
L 750 256 
L 750 794 
z
" transform="scale(0.015625)"/>
       </defs>
       <use xlink:href="#DejaVuSans-32"/>
       <use xlink:href="#DejaVuSans-2c" transform="translate(63.623047 0)"/>
       <use xlink:href="#DejaVuSans-30" transform="translate(95.410156 0)"/>
       <use xlink:href="#DejaVuSans-30" transform="translate(159.033203 0)"/>
       <use xlink:href="#DejaVuSans-30" transform="translate(222.65625 0)"/>
      </g>
     </g>
    </g>
    <g id="xtick_3">
     <g id="line2d_3">
      <g>
       <use xlink:href="#me1ee32efc5" x="248.618453" y="314.606125" style="fill: #333333; stroke: #333333; stroke-width: 0.8"/>
      </g>
     </g>
     <g id="text_3">
      <!-- 4,000 -->
      <g style="fill: #333333" transform="translate(235.735797 328.444719) scale(0.09 -0.09)">
       <defs>
        <path id="DejaVuSans-34" d="M 2419 4116 
L 825 1625 
L 2419 1625 
L 2419 4116 
z
M 2253 4666 
L 3047 4666 
L 3047 1625 
L 3713 1625 
L 3713 1100 
L 3047 1100 
L 3047 0 
L 2419 0 
L 2419 1100 
L 313 1100 
L 313 1709 
L 2253 4666 
z
" transform="scale(0.015625)"/>
       </defs>
       <use xlink:href="#DejaVuSans-34"/>
       <use xlink:href="#DejaVuSans-2c" transform="translate(63.623047 0)"/>
       <use xlink:href="#DejaVuSans-30" transform="translate(95.410156 0)"/>
       <use xlink:href="#DejaVuSans-30" transform="translate(159.033203 0)"/>
       <use xlink:href="#DejaVuSans-30" transform="translate(222.65625 0)"/>
      </g>
     </g>
    </g>
    <g id="xtick_4">
     <g id="line2d_4">
      <g>
       <use xlink:href="#me1ee32efc5" x="337.886828" y="314.606125" style="fill: #333333; stroke: #333333; stroke-width: 0.8"/>
      </g>
     </g>
     <g id="text_4">
      <!-- 6,000 -->
      <g style="fill: #333333" transform="translate(325.004171 328.444719) scale(0.09 -0.09)">
       <defs>
        <path id="DejaVuSans-36" d="M 2113 2584 
Q 1688 2584 1439 2293 
Q 1191 2003 1191 1497 
Q 1191 994 1439 701 
Q 1688 409 2113 409 
Q 2538 409 2786 701 
Q 3034 994 3034 1497 
Q 3034 2003 2786 2293 
Q 2538 2584 2113 2584 
z
M 3366 4563 
L 3366 3988 
Q 3128 4100 2886 4159 
Q 2644 4219 2406 4219 
Q 1781 4219 1451 3797 
Q 1122 3375 1075 2522 
Q 1259 2794 1537 2939 
Q 1816 3084 2150 3084 
Q 2853 3084 3261 2657 
Q 3669 2231 3669 1497 
Q 3669 778 3244 343 
Q 2819 -91 2113 -91 
Q 1303 -91 875 529 
Q 447 1150 447 2328 
Q 447 3434 972 4092 
Q 1497 4750 2381 4750 
Q 2619 4750 2861 4703 
Q 3103 4656 3366 4563 
z
" transform="scale(0.015625)"/>
       </defs>
       <use xlink:href="#DejaVuSans-36"/>
       <use xlink:href="#DejaVuSans-2c" transform="translate(63.623047 0)"/>
       <use xlink:href="#DejaVuSans-30" transform="translate(95.410156 0)"/>
       <use xlink:href="#DejaVuSans-30" transform="translate(159.033203 0)"/>
       <use xlink:href="#DejaVuSans-30" transform="translate(222.65625 0)"/>
      </g>
     </g>
    </g>
    <g id="xtick_5">
     <g id="line2d_5">
      <g>
       <use xlink:href="#me1ee32efc5" x="427.155202" y="314.606125" style="fill: #333333; stroke: #333333; stroke-width: 0.8"/>
      </g>
     </g>
     <g id="text_5">
      <!-- 8,000 -->
      <g style="fill: #333333" transform="translate(414.272546 328.444719) scale(0.09 -0.09)">
       <defs>
        <path id="DejaVuSans-38" d="M 2034 2216 
Q 1584 2216 1326 1975 
Q 1069 1734 1069 1313 
Q 1069 891 1326 650 
Q 1584 409 2034 409 
Q 2484 409 2743 651 
Q 3003 894 3003 1313 
Q 3003 1734 2745 1975 
Q 2488 2216 2034 2216 
z
M 1403 2484 
Q 997 2584 770 2862 
Q 544 3141 544 3541 
Q 544 4100 942 4425 
Q 1341 4750 2034 4750 
Q 2731 4750 3128 4425 
Q 3525 4100 3525 3541 
Q 3525 3141 3298 2862 
Q 3072 2584 2669 2484 
Q 3125 2378 3379 2068 
Q 3634 1759 3634 1313 
Q 3634 634 3220 271 
Q 2806 -91 2034 -91 
Q 1263 -91 848 271 
Q 434 634 434 1313 
Q 434 1759 690 2068 
Q 947 2378 1403 2484 
z
M 1172 3481 
Q 1172 3119 1398 2916 
Q 1625 2713 2034 2713 
Q 2441 2713 2670 2916 
Q 2900 3119 2900 3481 
Q 2900 3844 2670 4047 
Q 2441 4250 2034 4250 
Q 1625 4250 1398 4047 
Q 1172 3844 1172 3481 
z
" transform="scale(0.015625)"/>
       </defs>
       <use xlink:href="#DejaVuSans-38"/>
       <use xlink:href="#DejaVuSans-2c" transform="translate(63.623047 0)"/>
       <use xlink:href="#DejaVuSans-30" transform="translate(95.410156 0)"/>
       <use xlink:href="#DejaVuSans-30" transform="translate(159.033203 0)"/>
       <use xlink:href="#DejaVuSans-30" transform="translate(222.65625 0)"/>
      </g>
     </g>
    </g>
    <g id="xtick_6">
     <g id="line2d_6">
      <g>
       <use xlink:href="#me1ee32efc5" x="516.423576" y="314.606125" style="fill: #333333; stroke: #333333; stroke-width: 0.8"/>
      </g>
     </g>
     <g id="text_6">
      <!-- 10,000 -->
      <g style="fill: #333333" transform="translate(500.677795 328.444719) scale(0.09 -0.09)">
       <defs>
        <path id="DejaVuSans-31" d="M 794 531 
L 1825 531 
L 1825 4091 
L 703 3866 
L 703 4441 
L 1819 4666 
L 2450 4666 
L 2450 531 
L 3481 531 
L 3481 0 
L 794 0 
L 794 531 
z
" transform="scale(0.015625)"/>
       </defs>
       <use xlink:href="#DejaVuSans-31"/>
       <use xlink:href="#DejaVuSans-30" transform="translate(63.623047 0)"/>
       <use xlink:href="#DejaVuSans-2c" transform="translate(127.246094 0)"/>
       <use xlink:href="#DejaVuSans-30" transform="translate(159.033203 0)"/>
       <use xlink:href="#DejaVuSans-30" transform="translate(222.65625 0)"/>
       <use xlink:href="#DejaVuSans-30" transform="translate(286.279297 0)"/>
      </g>
     </g>
    </g>
    <g id="text_7">
     <!-- Observations -->
     <g transform="translate(269.0825 341.914875) scale(0.1 -0.1)">
      <defs>
       <path id="DejaVuSans-4f" d="M 2522 4238 
Q 1834 4238 1429 3725 
Q 1025 3213 1025 2328 
Q 1025 1447 1429 934 
Q 1834 422 2522 422 
Q 3209 422 3611 934 
Q 4013 1447 4013 2328 
Q 4013 3213 3611 3725 
Q 3209 4238 2522 4238 
z
M 2522 4750 
Q 3503 4750 4090 4092 
Q 4678 3434 4678 2328 
Q 4678 1225 4090 567 
Q 3503 -91 2522 -91 
Q 1538 -91 948 565 
Q 359 1222 359 2328 
Q 359 3434 948 4092 
Q 1538 4750 2522 4750 
z
" transform="scale(0.015625)"/>
       <path id="DejaVuSans-62" d="M 3116 1747 
Q 3116 2381 2855 2742 
Q 2594 3103 2138 3103 
Q 1681 3103 1420 2742 
Q 1159 2381 1159 1747 
Q 1159 1113 1420 752 
Q 1681 391 2138 391 
Q 2594 391 2855 752 
Q 3116 1113 3116 1747 
z
M 1159 2969 
Q 1341 3281 1617 3432 
Q 1894 3584 2278 3584 
Q 2916 3584 3314 3078 
Q 3713 2572 3713 1747 
Q 3713 922 3314 415 
Q 2916 -91 2278 -91 
Q 1894 -91 1617 61 
Q 1341 213 1159 525 
L 1159 0 
L 581 0 
L 581 4863 
L 1159 4863 
L 1159 2969 
z
" transform="scale(0.015625)"/>
       <path id="DejaVuSans-73" d="M 2834 3397 
L 2834 2853 
Q 2591 2978 2328 3040 
Q 2066 3103 1784 3103 
Q 1356 3103 1142 2972 
Q 928 2841 928 2578 
Q 928 2378 1081 2264 
Q 1234 2150 1697 2047 
L 1894 2003 
Q 2506 1872 2764 1633 
Q 3022 1394 3022 966 
Q 3022 478 2636 193 
Q 2250 -91 1575 -91 
Q 1294 -91 989 -36 
Q 684 19 347 128 
L 347 722 
Q 666 556 975 473 
Q 1284 391 1588 391 
Q 1994 391 2212 530 
Q 2431 669 2431 922 
Q 2431 1156 2273 1281 
Q 2116 1406 1581 1522 
L 1381 1569 
Q 847 1681 609 1914 
Q 372 2147 372 2553 
Q 372 3047 722 3315 
Q 1072 3584 1716 3584 
Q 2034 3584 2315 3537 
Q 2597 3491 2834 3397 
z
" transform="scale(0.015625)"/>
       <path id="DejaVuSans-65" d="M 3597 1894 
L 3597 1613 
L 953 1613 
Q 991 1019 1311 708 
Q 1631 397 2203 397 
Q 2534 397 2845 478 
Q 3156 559 3463 722 
L 3463 178 
Q 3153 47 2828 -22 
Q 2503 -91 2169 -91 
Q 1331 -91 842 396 
Q 353 884 353 1716 
Q 353 2575 817 3079 
Q 1281 3584 2069 3584 
Q 2775 3584 3186 3129 
Q 3597 2675 3597 1894 
z
M 3022 2063 
Q 3016 2534 2758 2815 
Q 2500 3097 2075 3097 
Q 1594 3097 1305 2825 
Q 1016 2553 972 2059 
L 3022 2063 
z
" transform="scale(0.015625)"/>
       <path id="DejaVuSans-72" d="M 2631 2963 
Q 2534 3019 2420 3045 
Q 2306 3072 2169 3072 
Q 1681 3072 1420 2755 
Q 1159 2438 1159 1844 
L 1159 0 
L 581 0 
L 581 3500 
L 1159 3500 
L 1159 2956 
Q 1341 3275 1631 3429 
Q 1922 3584 2338 3584 
Q 2397 3584 2469 3576 
Q 2541 3569 2628 3553 
L 2631 2963 
z
" transform="scale(0.015625)"/>
       <path id="DejaVuSans-76" d="M 191 3500 
L 800 3500 
L 1894 563 
L 2988 3500 
L 3597 3500 
L 2284 0 
L 1503 0 
L 191 3500 
z
" transform="scale(0.015625)"/>
       <path id="DejaVuSans-61" d="M 2194 1759 
Q 1497 1759 1228 1600 
Q 959 1441 959 1056 
Q 959 750 1161 570 
Q 1363 391 1709 391 
Q 2188 391 2477 730 
Q 2766 1069 2766 1631 
L 2766 1759 
L 2194 1759 
z
M 3341 1997 
L 3341 0 
L 2766 0 
L 2766 531 
Q 2569 213 2275 61 
Q 1981 -91 1556 -91 
Q 1019 -91 701 211 
Q 384 513 384 1019 
Q 384 1609 779 1909 
Q 1175 2209 1959 2209 
L 2766 2209 
L 2766 2266 
Q 2766 2663 2505 2880 
Q 2244 3097 1772 3097 
Q 1472 3097 1187 3025 
Q 903 2953 641 2809 
L 641 3341 
Q 956 3463 1253 3523 
Q 1550 3584 1831 3584 
Q 2591 3584 2966 3190 
Q 3341 2797 3341 1997 
z
" transform="scale(0.015625)"/>
       <path id="DejaVuSans-74" d="M 1172 4494 
L 1172 3500 
L 2356 3500 
L 2356 3053 
L 1172 3053 
L 1172 1153 
Q 1172 725 1289 603 
Q 1406 481 1766 481 
L 2356 481 
L 2356 0 
L 1766 0 
Q 1100 0 847 248 
Q 594 497 594 1153 
L 594 3053 
L 172 3053 
L 172 3500 
L 594 3500 
L 594 4494 
L 1172 4494 
z
" transform="scale(0.015625)"/>
       <path id="DejaVuSans-69" d="M 603 3500 
L 1178 3500 
L 1178 0 
L 603 0 
L 603 3500 
z
M 603 4863 
L 1178 4863 
L 1178 4134 
L 603 4134 
L 603 4863 
z
" transform="scale(0.015625)"/>
       <path id="DejaVuSans-6f" d="M 1959 3097 
Q 1497 3097 1228 2736 
Q 959 2375 959 1747 
Q 959 1119 1226 758 
Q 1494 397 1959 397 
Q 2419 397 2687 759 
Q 2956 1122 2956 1747 
Q 2956 2369 2687 2733 
Q 2419 3097 1959 3097 
z
M 1959 3584 
Q 2709 3584 3137 3096 
Q 3566 2609 3566 1747 
Q 3566 888 3137 398 
Q 2709 -91 1959 -91 
Q 1206 -91 779 398 
Q 353 888 353 1747 
Q 353 2609 779 3096 
Q 1206 3584 1959 3584 
z
" transform="scale(0.015625)"/>
       <path id="DejaVuSans-6e" d="M 3513 2113 
L 3513 0 
L 2938 0 
L 2938 2094 
Q 2938 2591 2744 2837 
Q 2550 3084 2163 3084 
Q 1697 3084 1428 2787 
Q 1159 2491 1159 1978 
L 1159 0 
L 581 0 
L 581 3500 
L 1159 3500 
L 1159 2956 
Q 1366 3272 1645 3428 
Q 1925 3584 2291 3584 
Q 2894 3584 3203 3211 
Q 3513 2838 3513 2113 
z
" transform="scale(0.015625)"/>
      </defs>
      <use xlink:href="#DejaVuSans-4f"/>
      <use xlink:href="#DejaVuSans-62" transform="translate(78.710938 0)"/>
      <use xlink:href="#DejaVuSans-73" transform="translate(142.1875 0)"/>
      <use xlink:href="#DejaVuSans-65" transform="translate(194.287109 0)"/>
      <use xlink:href="#DejaVuSans-72" transform="translate(255.810547 0)"/>
      <use xlink:href="#DejaVuSans-76" transform="translate(296.923828 0)"/>
      <use xlink:href="#DejaVuSans-61" transform="translate(356.103516 0)"/>
      <use xlink:href="#DejaVuSans-74" transform="translate(417.382812 0)"/>
      <use xlink:href="#DejaVuSans-69" transform="translate(456.591797 0)"/>
      <use xlink:href="#DejaVuSans-6f" transform="translate(484.375 0)"/>
      <use xlink:href="#DejaVuSans-6e" transform="translate(545.556641 0)"/>
      <use xlink:href="#DejaVuSans-73" transform="translate(608.935547 0)"/>
     </g>
    </g>
   </g>
   <g id="matplotlib.axis_2">
    <g id="ytick_1">
     <g id="line2d_7">
      <defs>
       <path id="m5916bb4068" d="M 0 0 
L -3.5 0 
" style="stroke: #333333; stroke-width: 0.8"/>
      </defs>
      <g>
       <use xlink:href="#m5916bb4068" x="62.194844" y="303.56313" style="fill: #333333; stroke: #333333; stroke-width: 0.8"/>
      </g>
     </g>
     <g id="text_8">
      <!-- 20.0% -->
      <g style="fill: #333333" transform="translate(26.604375 306.982426) scale(0.09 -0.09)">
       <defs>
        <path id="DejaVuSans-2e" d="M 684 794 
L 1344 794 
L 1344 0 
L 684 0 
L 684 794 
z
" transform="scale(0.015625)"/>
        <path id="DejaVuSans-25" d="M 4653 2053 
Q 4381 2053 4226 1822 
Q 4072 1591 4072 1178 
Q 4072 772 4226 539 
Q 4381 306 4653 306 
Q 4919 306 5073 539 
Q 5228 772 5228 1178 
Q 5228 1588 5073 1820 
Q 4919 2053 4653 2053 
z
M 4653 2450 
Q 5147 2450 5437 2106 
Q 5728 1763 5728 1178 
Q 5728 594 5436 251 
Q 5144 -91 4653 -91 
Q 4153 -91 3862 251 
Q 3572 594 3572 1178 
Q 3572 1766 3864 2108 
Q 4156 2450 4653 2450 
z
M 1428 4353 
Q 1159 4353 1004 4120 
Q 850 3888 850 3481 
Q 850 3069 1003 2837 
Q 1156 2606 1428 2606 
Q 1700 2606 1854 2837 
Q 2009 3069 2009 3481 
Q 2009 3884 1853 4118 
Q 1697 4353 1428 4353 
z
M 4250 4750 
L 4750 4750 
L 1831 -91 
L 1331 -91 
L 4250 4750 
z
M 1428 4750 
Q 1922 4750 2215 4408 
Q 2509 4066 2509 3481 
Q 2509 2891 2217 2550 
Q 1925 2209 1428 2209 
Q 931 2209 642 2551 
Q 353 2894 353 3481 
Q 353 4063 643 4406 
Q 934 4750 1428 4750 
z
" transform="scale(0.015625)"/>
       </defs>
       <use xlink:href="#DejaVuSans-32"/>
       <use xlink:href="#DejaVuSans-30" transform="translate(63.623047 0)"/>
       <use xlink:href="#DejaVuSans-2e" transform="translate(127.246094 0)"/>
       <use xlink:href="#DejaVuSans-30" transform="translate(159.033203 0)"/>
       <use xlink:href="#DejaVuSans-25" transform="translate(222.65625 0)"/>
      </g>
     </g>
    </g>
    <g id="ytick_2">
     <g id="line2d_8">
      <g>
       <use xlink:href="#m5916bb4068" x="62.194844" y="270.32112" style="fill: #333333; stroke: #333333; stroke-width: 0.8"/>
      </g>
     </g>
     <g id="text_9">
      <!-- 30.0% -->
      <g style="fill: #333333" transform="translate(26.604375 273.740417) scale(0.09 -0.09)">
       <defs>
        <path id="DejaVuSans-33" d="M 2597 2516 
Q 3050 2419 3304 2112 
Q 3559 1806 3559 1356 
Q 3559 666 3084 287 
Q 2609 -91 1734 -91 
Q 1441 -91 1130 -33 
Q 819 25 488 141 
L 488 750 
Q 750 597 1062 519 
Q 1375 441 1716 441 
Q 2309 441 2620 675 
Q 2931 909 2931 1356 
Q 2931 1769 2642 2001 
Q 2353 2234 1838 2234 
L 1294 2234 
L 1294 2753 
L 1863 2753 
Q 2328 2753 2575 2939 
Q 2822 3125 2822 3475 
Q 2822 3834 2567 4026 
Q 2313 4219 1838 4219 
Q 1578 4219 1281 4162 
Q 984 4106 628 3988 
L 628 4550 
Q 988 4650 1302 4700 
Q 1616 4750 1894 4750 
Q 2613 4750 3031 4423 
Q 3450 4097 3450 3541 
Q 3450 3153 3228 2886 
Q 3006 2619 2597 2516 
z
" transform="scale(0.015625)"/>
       </defs>
       <use xlink:href="#DejaVuSans-33"/>
       <use xlink:href="#DejaVuSans-30" transform="translate(63.623047 0)"/>
       <use xlink:href="#DejaVuSans-2e" transform="translate(127.246094 0)"/>
       <use xlink:href="#DejaVuSans-30" transform="translate(159.033203 0)"/>
       <use xlink:href="#DejaVuSans-25" transform="translate(222.65625 0)"/>
      </g>
     </g>
    </g>
    <g id="ytick_3">
     <g id="line2d_9">
      <g>
       <use xlink:href="#m5916bb4068" x="62.194844" y="237.079111" style="fill: #333333; stroke: #333333; stroke-width: 0.8"/>
      </g>
     </g>
     <g id="text_10">
      <!-- 40.0% -->
      <g style="fill: #333333" transform="translate(26.604375 240.498408) scale(0.09 -0.09)">
       <use xlink:href="#DejaVuSans-34"/>
       <use xlink:href="#DejaVuSans-30" transform="translate(63.623047 0)"/>
       <use xlink:href="#DejaVuSans-2e" transform="translate(127.246094 0)"/>
       <use xlink:href="#DejaVuSans-30" transform="translate(159.033203 0)"/>
       <use xlink:href="#DejaVuSans-25" transform="translate(222.65625 0)"/>
      </g>
     </g>
    </g>
    <g id="ytick_4">
     <g id="line2d_10">
      <g>
       <use xlink:href="#m5916bb4068" x="62.194844" y="203.837102" style="fill: #333333; stroke: #333333; stroke-width: 0.8"/>
      </g>
     </g>
     <g id="text_11">
      <!-- 50.0% -->
      <g style="fill: #333333" transform="translate(26.604375 207.256399) scale(0.09 -0.09)">
       <defs>
        <path id="DejaVuSans-35" d="M 691 4666 
L 3169 4666 
L 3169 4134 
L 1269 4134 
L 1269 2991 
Q 1406 3038 1543 3061 
Q 1681 3084 1819 3084 
Q 2600 3084 3056 2656 
Q 3513 2228 3513 1497 
Q 3513 744 3044 326 
Q 2575 -91 1722 -91 
Q 1428 -91 1123 -41 
Q 819 9 494 109 
L 494 744 
Q 775 591 1075 516 
Q 1375 441 1709 441 
Q 2250 441 2565 725 
Q 2881 1009 2881 1497 
Q 2881 1984 2565 2268 
Q 2250 2553 1709 2553 
Q 1456 2553 1204 2497 
Q 953 2441 691 2322 
L 691 4666 
z
" transform="scale(0.015625)"/>
       </defs>
       <use xlink:href="#DejaVuSans-35"/>
       <use xlink:href="#DejaVuSans-30" transform="translate(63.623047 0)"/>
       <use xlink:href="#DejaVuSans-2e" transform="translate(127.246094 0)"/>
       <use xlink:href="#DejaVuSans-30" transform="translate(159.033203 0)"/>
       <use xlink:href="#DejaVuSans-25" transform="translate(222.65625 0)"/>
      </g>
     </g>
    </g>
    <g id="ytick_5">
     <g id="line2d_11">
      <g>
       <use xlink:href="#m5916bb4068" x="62.194844" y="170.595093" style="fill: #333333; stroke: #333333; stroke-width: 0.8"/>
      </g>
     </g>
     <g id="text_12">
      <!-- 60.0% -->
      <g style="fill: #333333" transform="translate(26.604375 174.01439) scale(0.09 -0.09)">
       <use xlink:href="#DejaVuSans-36"/>
       <use xlink:href="#DejaVuSans-30" transform="translate(63.623047 0)"/>
       <use xlink:href="#DejaVuSans-2e" transform="translate(127.246094 0)"/>
       <use xlink:href="#DejaVuSans-30" transform="translate(159.033203 0)"/>
       <use xlink:href="#DejaVuSans-25" transform="translate(222.65625 0)"/>
      </g>
     </g>
    </g>
    <g id="ytick_6">
     <g id="line2d_12">
      <g>
       <use xlink:href="#m5916bb4068" x="62.194844" y="137.353084" style="fill: #333333; stroke: #333333; stroke-width: 0.8"/>
      </g>
     </g>
     <g id="text_13">
      <!-- 70.0% -->
      <g style="fill: #333333" transform="translate(26.604375 140.772381) scale(0.09 -0.09)">
       <defs>
        <path id="DejaVuSans-37" d="M 525 4666 
L 3525 4666 
L 3525 4397 
L 1831 0 
L 1172 0 
L 2766 4134 
L 525 4134 
L 525 4666 
z
" transform="scale(0.015625)"/>
       </defs>
       <use xlink:href="#DejaVuSans-37"/>
       <use xlink:href="#DejaVuSans-30" transform="translate(63.623047 0)"/>
       <use xlink:href="#DejaVuSans-2e" transform="translate(127.246094 0)"/>
       <use xlink:href="#DejaVuSans-30" transform="translate(159.033203 0)"/>
       <use xlink:href="#DejaVuSans-25" transform="translate(222.65625 0)"/>
      </g>
     </g>
    </g>
    <g id="ytick_7">
     <g id="line2d_13">
      <g>
       <use xlink:href="#m5916bb4068" x="62.194844" y="104.111075" style="fill: #333333; stroke: #333333; stroke-width: 0.8"/>
      </g>
     </g>
     <g id="text_14">
      <!-- 80.0% -->
      <g style="fill: #333333" transform="translate(26.604375 107.530372) scale(0.09 -0.09)">
       <use xlink:href="#DejaVuSans-38"/>
       <use xlink:href="#DejaVuSans-30" transform="translate(63.623047 0)"/>
       <use xlink:href="#DejaVuSans-2e" transform="translate(127.246094 0)"/>
       <use xlink:href="#DejaVuSans-30" transform="translate(159.033203 0)"/>
       <use xlink:href="#DejaVuSans-25" transform="translate(222.65625 0)"/>
      </g>
     </g>
    </g>
    <g id="ytick_8">
     <g id="line2d_14">
      <g>
       <use xlink:href="#m5916bb4068" x="62.194844" y="70.869066" style="fill: #333333; stroke: #333333; stroke-width: 0.8"/>
      </g>
     </g>
     <g id="text_15">
      <!-- 90.0% -->
      <g style="fill: #333333" transform="translate(26.604375 74.288363) scale(0.09 -0.09)">
       <defs>
        <path id="DejaVuSans-39" d="M 703 97 
L 703 672 
Q 941 559 1184 500 
Q 1428 441 1663 441 
Q 2288 441 2617 861 
Q 2947 1281 2994 2138 
Q 2813 1869 2534 1725 
Q 2256 1581 1919 1581 
Q 1219 1581 811 2004 
Q 403 2428 403 3163 
Q 403 3881 828 4315 
Q 1253 4750 1959 4750 
Q 2769 4750 3195 4129 
Q 3622 3509 3622 2328 
Q 3622 1225 3098 567 
Q 2575 -91 1691 -91 
Q 1453 -91 1209 -44 
Q 966 3 703 97 
z
M 1959 2075 
Q 2384 2075 2632 2365 
Q 2881 2656 2881 3163 
Q 2881 3666 2632 3958 
Q 2384 4250 1959 4250 
Q 1534 4250 1286 3958 
Q 1038 3666 1038 3163 
Q 1038 2656 1286 2365 
Q 1534 2075 1959 2075 
z
" transform="scale(0.015625)"/>
       </defs>
       <use xlink:href="#DejaVuSans-39"/>
       <use xlink:href="#DejaVuSans-30" transform="translate(63.623047 0)"/>
       <use xlink:href="#DejaVuSans-2e" transform="translate(127.246094 0)"/>
       <use xlink:href="#DejaVuSans-30" transform="translate(159.033203 0)"/>
       <use xlink:href="#DejaVuSans-25" transform="translate(222.65625 0)"/>
      </g>
     </g>
    </g>
    <g id="ytick_9">
     <g id="line2d_15">
      <g>
       <use xlink:href="#m5916bb4068" x="62.194844" y="37.627057" style="fill: #333333; stroke: #333333; stroke-width: 0.8"/>
      </g>
     </g>
     <g id="text_16">
      <!-- 100.0% -->
      <g style="fill: #333333" transform="translate(20.878125 41.046353) scale(0.09 -0.09)">
       <use xlink:href="#DejaVuSans-31"/>
       <use xlink:href="#DejaVuSans-30" transform="translate(63.623047 0)"/>
       <use xlink:href="#DejaVuSans-30" transform="translate(127.246094 0)"/>
       <use xlink:href="#DejaVuSans-2e" transform="translate(190.869141 0)"/>
       <use xlink:href="#DejaVuSans-30" transform="translate(222.65625 0)"/>
       <use xlink:href="#DejaVuSans-25" transform="translate(286.279297 0)"/>
      </g>
     </g>
    </g>
    <g id="text_17">
     <!-- Hit rate -->
     <g transform="translate(14.798438 189.316812) rotate(-90) scale(0.1 -0.1)">
      <defs>
       <path id="DejaVuSans-48" d="M 628 4666 
L 1259 4666 
L 1259 2753 
L 3553 2753 
L 3553 4666 
L 4184 4666 
L 4184 0 
L 3553 0 
L 3553 2222 
L 1259 2222 
L 1259 0 
L 628 0 
L 628 4666 
z
" transform="scale(0.015625)"/>
       <path id="DejaVuSans-20" transform="scale(0.015625)"/>
      </defs>
      <use xlink:href="#DejaVuSans-48"/>
      <use xlink:href="#DejaVuSans-69" transform="translate(75.195312 0)"/>
      <use xlink:href="#DejaVuSans-74" transform="translate(102.978516 0)"/>
      <use xlink:href="#DejaVuSans-20" transform="translate(142.1875 0)"/>
      <use xlink:href="#DejaVuSans-72" transform="translate(173.974609 0)"/>
      <use xlink:href="#DejaVuSans-61" transform="translate(215.087891 0)"/>
      <use xlink:href="#DejaVuSans-74" transform="translate(276.367188 0)"/>
      <use xlink:href="#DejaVuSans-65" transform="translate(315.576172 0)"/>
     </g>
    </g>
   </g>
   <g id="PathCollection_1">
    <defs>
     <path id="mfea2c719f0" d="M 0 -2.828427 
L -2.828427 2.828427 
L 2.828427 2.828427 
z
" style="stroke: #ffffff; stroke-width: 0.3"/>
    </defs>
    <g clip-path="url(#pcb62c6bb76)">
     <use xlink:href="#mfea2c719f0" x="84.007571" y="71.733358" style="fill: #8c8c8c; stroke: #ffffff; stroke-width: 0.3"/>
     <use xlink:href="#mfea2c719f0" x="86.685622" y="39.422125" style="fill: #8c8c8c; stroke: #ffffff; stroke-width: 0.3"/>
     <use xlink:href="#mfea2c719f0" x="101.727343" y="50.292262" style="fill: #8c8c8c; stroke: #ffffff; stroke-width: 0.3"/>
     <use xlink:href="#mfea2c719f0" x="101.995148" y="63.190162" style="fill: #8c8c8c; stroke: #ffffff; stroke-width: 0.3"/>
     <use xlink:href="#mfea2c719f0" x="103.914419" y="119.635093" style="fill: #8c8c8c; stroke: #ffffff; stroke-width: 0.3"/>
     <use xlink:href="#mfea2c719f0" x="118.063456" y="74.425961" style="fill: #8c8c8c; stroke: #ffffff; stroke-width: 0.3"/>
     <use xlink:href="#mfea2c719f0" x="119.447116" y="107.66797" style="fill: #8c8c8c; stroke: #ffffff; stroke-width: 0.3"/>
     <use xlink:href="#mfea2c719f0" x="119.848823" y="77.583951" style="fill: #8c8c8c; stroke: #ffffff; stroke-width: 0.3"/>
     <use xlink:href="#mfea2c719f0" x="121.768093" y="123.457924" style="fill: #8c8c8c; stroke: #ffffff; stroke-width: 0.3"/>
     <use xlink:href="#mfea2c719f0" x="123.508827" y="62.359111" style="fill: #8c8c8c; stroke: #ffffff; stroke-width: 0.3"/>
     <use xlink:href="#mfea2c719f0" x="124.847852" y="127.313997" style="fill: #8c8c8c; stroke: #ffffff; stroke-width: 0.3"/>
     <use xlink:href="#mfea2c719f0" x="128.061514" y="96.000025" style="fill: #8c8c8c; stroke: #ffffff; stroke-width: 0.3"/>
     <use xlink:href="#mfea2c719f0" x="129.93615" y="81.739203" style="fill: #8c8c8c; stroke: #ffffff; stroke-width: 0.3"/>
     <use xlink:href="#mfea2c719f0" x="131.453712" y="111.856463" style="fill: #8c8c8c; stroke: #ffffff; stroke-width: 0.3"/>
     <use xlink:href="#mfea2c719f0" x="133.596153" y="77.816646" style="fill: #8c8c8c; stroke: #ffffff; stroke-width: 0.3"/>
     <use xlink:href="#mfea2c719f0" x="134.712008" y="118.671075" style="fill: #8c8c8c; stroke: #ffffff; stroke-width: 0.3"/>
     <use xlink:href="#mfea2c719f0" x="139.175426" y="97.329705" style="fill: #8c8c8c; stroke: #ffffff; stroke-width: 0.3"/>
     <use xlink:href="#mfea2c719f0" x="140.514452" y="88.819751" style="fill: #8c8c8c; stroke: #ffffff; stroke-width: 0.3"/>
     <use xlink:href="#mfea2c719f0" x="141.942746" y="116.078198" style="fill: #8c8c8c; stroke: #ffffff; stroke-width: 0.3"/>
     <use xlink:href="#mfea2c719f0" x="144.085187" y="62.890983" style="fill: #8c8c8c; stroke: #ffffff; stroke-width: 0.3"/>
     <use xlink:href="#mfea2c719f0" x="147.74519" y="90.548335" style="fill: #8c8c8c; stroke: #ffffff; stroke-width: 0.3"/>
     <use xlink:href="#mfea2c719f0" x="148.191532" y="106.205321" style="fill: #8c8c8c; stroke: #ffffff; stroke-width: 0.3"/>
     <use xlink:href="#mfea2c719f0" x="153.636903" y="64.785778" style="fill: #8c8c8c; stroke: #ffffff; stroke-width: 0.3"/>
     <use xlink:href="#mfea2c719f0" x="157.029101" y="91.545595" style="fill: #8c8c8c; stroke: #ffffff; stroke-width: 0.3"/>
     <use xlink:href="#mfea2c719f0" x="162.251301" y="60.962947" style="fill: #8c8c8c; stroke: #ffffff; stroke-width: 0.3"/>
     <use xlink:href="#mfea2c719f0" x="164.25984" y="59.998929" style="fill: #8c8c8c; stroke: #ffffff; stroke-width: 0.3"/>
     <use xlink:href="#mfea2c719f0" x="168.09838" y="113.784499" style="fill: #8c8c8c; stroke: #ffffff; stroke-width: 0.3"/>
     <use xlink:href="#mfea2c719f0" x="169.928381" y="77.450983" style="fill: #8c8c8c; stroke: #ffffff; stroke-width: 0.3"/>
     <use xlink:href="#mfea2c719f0" x="171.40131" y="79.079842" style="fill: #8c8c8c; stroke: #ffffff; stroke-width: 0.3"/>
     <use xlink:href="#mfea2c719f0" x="172.829604" y="68.109979" style="fill: #8c8c8c; stroke: #ffffff; stroke-width: 0.3"/>
     <use xlink:href="#mfea2c719f0" x="176.266436" y="109.463038" style="fill: #8c8c8c; stroke: #ffffff; stroke-width: 0.3"/>
     <use xlink:href="#mfea2c719f0" x="185.594981" y="64.586326" style="fill: #8c8c8c; stroke: #ffffff; stroke-width: 0.3"/>
     <use xlink:href="#mfea2c719f0" x="186.041323" y="116.078198" style="fill: #8c8c8c; stroke: #ffffff; stroke-width: 0.3"/>
     <use xlink:href="#mfea2c719f0" x="187.558885" y="103.412993" style="fill: #8c8c8c; stroke: #ffffff; stroke-width: 0.3"/>
     <use xlink:href="#mfea2c719f0" x="191.754499" y="69.339933" style="fill: #8c8c8c; stroke: #ffffff; stroke-width: 0.3"/>
     <use xlink:href="#mfea2c719f0" x="196.708894" y="96.432171" style="fill: #8c8c8c; stroke: #ffffff; stroke-width: 0.3"/>
     <use xlink:href="#mfea2c719f0" x="214.026958" y="86.293358" style="fill: #8c8c8c; stroke: #ffffff; stroke-width: 0.3"/>
     <use xlink:href="#mfea2c719f0" x="214.205495" y="114.848244" style="fill: #8c8c8c; stroke: #ffffff; stroke-width: 0.3"/>
     <use xlink:href="#mfea2c719f0" x="216.794278" y="85.66176" style="fill: #8c8c8c; stroke: #ffffff; stroke-width: 0.3"/>
     <use xlink:href="#mfea2c719f0" x="218.31184" y="62.458837" style="fill: #8c8c8c; stroke: #ffffff; stroke-width: 0.3"/>
     <use xlink:href="#mfea2c719f0" x="226.122823" y="82.138107" style="fill: #8c8c8c; stroke: #ffffff; stroke-width: 0.3"/>
     <use xlink:href="#mfea2c719f0" x="282.183362" y="123.657376" style="fill: #8c8c8c; stroke: #ffffff; stroke-width: 0.3"/>
     <use xlink:href="#mfea2c719f0" x="287.762635" y="85.960938" style="fill: #8c8c8c; stroke: #ffffff; stroke-width: 0.3"/>
     <use xlink:href="#mfea2c719f0" x="290.038979" y="71.168244" style="fill: #8c8c8c; stroke: #ffffff; stroke-width: 0.3"/>
     <use xlink:href="#mfea2c719f0" x="295.305813" y="94.670344" style="fill: #8c8c8c; stroke: #ffffff; stroke-width: 0.3"/>
     <use xlink:href="#mfea2c719f0" x="299.590695" y="85.262856" style="fill: #8c8c8c; stroke: #ffffff; stroke-width: 0.3"/>
     <use xlink:href="#mfea2c719f0" x="306.241189" y="115.646052" style="fill: #8c8c8c; stroke: #ffffff; stroke-width: 0.3"/>
     <use xlink:href="#mfea2c719f0" x="318.560225" y="86.82523" style="fill: #8c8c8c; stroke: #ffffff; stroke-width: 0.3"/>
     <use xlink:href="#mfea2c719f0" x="338.511706" y="130.039842" style="fill: #8c8c8c; stroke: #ffffff; stroke-width: 0.3"/>
     <use xlink:href="#mfea2c719f0" x="520.262116" y="57.838198" style="fill: #8c8c8c; stroke: #ffffff; stroke-width: 0.3"/>
    </g>
   </g>
   <g id="patch_3">
    <path d="M 62.194844 314.606125 
L 62.194844 26.318125 
" style="fill: none; stroke: #333333; stroke-width: 0.8; stroke-linejoin: miter; stroke-linecap: square"/>
   </g>
   <g id="patch_4">
    <path d="M 62.194844 314.606125 
L 542.074844 314.606125 
" style="fill: none; stroke: #333333; stroke-width: 0.8; stroke-linejoin: miter; stroke-linecap: square"/>
   </g>
   <g id="PathCollection_2">
    <defs>
     <path id="mbf3c9b5521" d="M -3.162278 3.162278 
L 3.162278 -3.162278 
M -3.162278 -3.162278 
L 3.162278 3.162278 
" style="stroke: #595959; stroke-width: 0.8"/>
    </defs>
    <g clip-path="url(#pcb62c6bb76)">
     <use xlink:href="#mbf3c9b5521" x="84.007571" y="151.613906" style="fill: #595959; stroke: #595959; stroke-width: 0.8"/>
     <use xlink:href="#mbf3c9b5521" x="86.685622" y="42.97902" style="fill: #595959; stroke: #595959; stroke-width: 0.8"/>
     <use xlink:href="#mbf3c9b5521" x="101.727343" y="75.589431" style="fill: #595959; stroke: #595959; stroke-width: 0.8"/>
     <use xlink:href="#mbf3c9b5521" x="101.995148" y="158.495002" style="fill: #595959; stroke: #595959; stroke-width: 0.8"/>
     <use xlink:href="#mbf3c9b5521" x="103.914419" y="222.685321" style="fill: #595959; stroke: #595959; stroke-width: 0.8"/>
     <use xlink:href="#mbf3c9b5521" x="118.063456" y="177.077285" style="fill: #595959; stroke: #595959; stroke-width: 0.8"/>
     <use xlink:href="#mbf3c9b5521" x="119.447116" y="213.444043" style="fill: #595959; stroke: #595959; stroke-width: 0.8"/>
     <use xlink:href="#mbf3c9b5521" x="119.848823" y="180.733906" style="fill: #595959; stroke: #595959; stroke-width: 0.8"/>
     <use xlink:href="#mbf3c9b5521" x="121.768093" y="223.084225" style="fill: #595959; stroke: #595959; stroke-width: 0.8"/>
     <use xlink:href="#mbf3c9b5521" x="123.508827" y="147.059751" style="fill: #595959; stroke: #595959; stroke-width: 0.8"/>
     <use xlink:href="#mbf3c9b5521" x="124.847852" y="220.757285" style="fill: #595959; stroke: #595959; stroke-width: 0.8"/>
     <use xlink:href="#mbf3c9b5521" x="128.061514" y="205.266509" style="fill: #595959; stroke: #595959; stroke-width: 0.8"/>
     <use xlink:href="#mbf3c9b5521" x="129.93615" y="188.08039" style="fill: #595959; stroke: #595959; stroke-width: 0.8"/>
     <use xlink:href="#mbf3c9b5521" x="131.453712" y="216.302856" style="fill: #595959; stroke: #595959; stroke-width: 0.8"/>
     <use xlink:href="#mbf3c9b5521" x="133.596153" y="163.780481" style="fill: #595959; stroke: #595959; stroke-width: 0.8"/>
     <use xlink:href="#mbf3c9b5521" x="134.712008" y="232.990344" style="fill: #595959; stroke: #595959; stroke-width: 0.8"/>
     <use xlink:href="#mbf3c9b5521" x="139.175426" y="199.748335" style="fill: #595959; stroke: #595959; stroke-width: 0.8"/>
     <use xlink:href="#mbf3c9b5521" x="140.514452" y="174.983038" style="fill: #595959; stroke: #595959; stroke-width: 0.8"/>
     <use xlink:href="#mbf3c9b5521" x="141.942746" y="223.449888" style="fill: #595959; stroke: #595959; stroke-width: 0.8"/>
     <use xlink:href="#mbf3c9b5521" x="144.085187" y="168.966235" style="fill: #595959; stroke: #595959; stroke-width: 0.8"/>
     <use xlink:href="#mbf3c9b5521" x="147.74519" y="195.825778" style="fill: #595959; stroke: #595959; stroke-width: 0.8"/>
     <use xlink:href="#mbf3c9b5521" x="148.191532" y="222.652079" style="fill: #595959; stroke: #595959; stroke-width: 0.8"/>
     <use xlink:href="#mbf3c9b5521" x="153.636903" y="157.298289" style="fill: #595959; stroke: #595959; stroke-width: 0.8"/>
     <use xlink:href="#mbf3c9b5521" x="157.029101" y="194.795276" style="fill: #595959; stroke: #595959; stroke-width: 0.8"/>
     <use xlink:href="#mbf3c9b5521" x="162.251301" y="148.688609" style="fill: #595959; stroke: #595959; stroke-width: 0.8"/>
     <use xlink:href="#mbf3c9b5521" x="164.25984" y="136.887696" style="fill: #595959; stroke: #595959; stroke-width: 0.8"/>
     <use xlink:href="#mbf3c9b5521" x="168.09838" y="217.599294" style="fill: #595959; stroke: #595959; stroke-width: 0.8"/>
     <use xlink:href="#mbf3c9b5521" x="169.928381" y="175.51491" style="fill: #595959; stroke: #595959; stroke-width: 0.8"/>
     <use xlink:href="#mbf3c9b5521" x="171.40131" y="172.922034" style="fill: #595959; stroke: #595959; stroke-width: 0.8"/>
     <use xlink:href="#mbf3c9b5521" x="172.829604" y="174.68386" style="fill: #595959; stroke: #595959; stroke-width: 0.8"/>
     <use xlink:href="#mbf3c9b5521" x="176.266436" y="212.712719" style="fill: #595959; stroke: #595959; stroke-width: 0.8"/>
     <use xlink:href="#mbf3c9b5521" x="185.594981" y="160.29007" style="fill: #595959; stroke: #595959; stroke-width: 0.8"/>
     <use xlink:href="#mbf3c9b5521" x="186.041323" y="218.430344" style="fill: #595959; stroke: #595959; stroke-width: 0.8"/>
     <use xlink:href="#mbf3c9b5521" x="187.558885" y="210.020116" style="fill: #595959; stroke: #595959; stroke-width: 0.8"/>
     <use xlink:href="#mbf3c9b5521" x="191.754499" y="162.118381" style="fill: #595959; stroke: #595959; stroke-width: 0.8"/>
     <use xlink:href="#mbf3c9b5521" x="196.708894" y="195.925504" style="fill: #595959; stroke: #595959; stroke-width: 0.8"/>
     <use xlink:href="#mbf3c9b5521" x="214.026958" y="191.105413" style="fill: #595959; stroke: #595959; stroke-width: 0.8"/>
     <use xlink:href="#mbf3c9b5521" x="214.205495" y="223.449888" style="fill: #595959; stroke: #595959; stroke-width: 0.8"/>
     <use xlink:href="#mbf3c9b5521" x="216.794278" y="185.288061" style="fill: #595959; stroke: #595959; stroke-width: 0.8"/>
     <use xlink:href="#mbf3c9b5521" x="218.31184" y="160.157102" style="fill: #595959; stroke: #595959; stroke-width: 0.8"/>
     <use xlink:href="#mbf3c9b5521" x="226.122823" y="184.722947" style="fill: #595959; stroke: #595959; stroke-width: 0.8"/>
     <use xlink:href="#mbf3c9b5521" x="282.183362" y="234.353267" style="fill: #595959; stroke: #595959; stroke-width: 0.8"/>
     <use xlink:href="#mbf3c9b5521" x="287.762635" y="181.731166" style="fill: #595959; stroke: #595959; stroke-width: 0.8"/>
     <use xlink:href="#mbf3c9b5521" x="290.038979" y="160.589248" style="fill: #595959; stroke: #595959; stroke-width: 0.8"/>
     <use xlink:href="#mbf3c9b5521" x="295.305813" y="196.058472" style="fill: #595959; stroke: #595959; stroke-width: 0.8"/>
     <use xlink:href="#mbf3c9b5521" x="299.590695" y="190.374088" style="fill: #595959; stroke: #595959; stroke-width: 0.8"/>
     <use xlink:href="#mbf3c9b5521" x="306.241189" y="214.474545" style="fill: #595959; stroke: #595959; stroke-width: 0.8"/>
     <use xlink:href="#mbf3c9b5521" x="318.560225" y="185.720207" style="fill: #595959; stroke: #595959; stroke-width: 0.8"/>
     <use xlink:href="#mbf3c9b5521" x="338.511706" y="234.619203" style="fill: #595959; stroke: #595959; stroke-width: 0.8"/>
     <use xlink:href="#mbf3c9b5521" x="520.262116" y="146.162216" style="fill: #595959; stroke: #595959; stroke-width: 0.8"/>
    </g>
   </g>
   <g id="text_18">
    <!-- Hit rate by sample size -->
    <g transform="translate(62.194844 16.318125) scale(0.12 -0.12)">
     <defs>
      <path id="DejaVuSans-Bold-48" d="M 588 4666 
L 1791 4666 
L 1791 2888 
L 3566 2888 
L 3566 4666 
L 4769 4666 
L 4769 0 
L 3566 0 
L 3566 1978 
L 1791 1978 
L 1791 0 
L 588 0 
L 588 4666 
z
" transform="scale(0.015625)"/>
      <path id="DejaVuSans-Bold-69" d="M 538 3500 
L 1656 3500 
L 1656 0 
L 538 0 
L 538 3500 
z
M 538 4863 
L 1656 4863 
L 1656 3950 
L 538 3950 
L 538 4863 
z
" transform="scale(0.015625)"/>
      <path id="DejaVuSans-Bold-74" d="M 1759 4494 
L 1759 3500 
L 2913 3500 
L 2913 2700 
L 1759 2700 
L 1759 1216 
Q 1759 972 1856 886 
Q 1953 800 2241 800 
L 2816 800 
L 2816 0 
L 1856 0 
Q 1194 0 917 276 
Q 641 553 641 1216 
L 641 2700 
L 84 2700 
L 84 3500 
L 641 3500 
L 641 4494 
L 1759 4494 
z
" transform="scale(0.015625)"/>
      <path id="DejaVuSans-Bold-20" transform="scale(0.015625)"/>
      <path id="DejaVuSans-Bold-72" d="M 3138 2547 
Q 2991 2616 2845 2648 
Q 2700 2681 2553 2681 
Q 2122 2681 1889 2404 
Q 1656 2128 1656 1613 
L 1656 0 
L 538 0 
L 538 3500 
L 1656 3500 
L 1656 2925 
Q 1872 3269 2151 3426 
Q 2431 3584 2822 3584 
Q 2878 3584 2943 3579 
Q 3009 3575 3134 3559 
L 3138 2547 
z
" transform="scale(0.015625)"/>
      <path id="DejaVuSans-Bold-61" d="M 2106 1575 
Q 1756 1575 1579 1456 
Q 1403 1338 1403 1106 
Q 1403 894 1545 773 
Q 1688 653 1941 653 
Q 2256 653 2472 879 
Q 2688 1106 2688 1447 
L 2688 1575 
L 2106 1575 
z
M 3816 1997 
L 3816 0 
L 2688 0 
L 2688 519 
Q 2463 200 2181 54 
Q 1900 -91 1497 -91 
Q 953 -91 614 226 
Q 275 544 275 1050 
Q 275 1666 698 1953 
Q 1122 2241 2028 2241 
L 2688 2241 
L 2688 2328 
Q 2688 2594 2478 2717 
Q 2269 2841 1825 2841 
Q 1466 2841 1156 2769 
Q 847 2697 581 2553 
L 581 3406 
Q 941 3494 1303 3539 
Q 1666 3584 2028 3584 
Q 2975 3584 3395 3211 
Q 3816 2838 3816 1997 
z
" transform="scale(0.015625)"/>
      <path id="DejaVuSans-Bold-65" d="M 4031 1759 
L 4031 1441 
L 1416 1441 
Q 1456 1047 1700 850 
Q 1944 653 2381 653 
Q 2734 653 3104 758 
Q 3475 863 3866 1075 
L 3866 213 
Q 3469 63 3072 -14 
Q 2675 -91 2278 -91 
Q 1328 -91 801 392 
Q 275 875 275 1747 
Q 275 2603 792 3093 
Q 1309 3584 2216 3584 
Q 3041 3584 3536 3087 
Q 4031 2591 4031 1759 
z
M 2881 2131 
Q 2881 2450 2695 2645 
Q 2509 2841 2209 2841 
Q 1884 2841 1681 2658 
Q 1478 2475 1428 2131 
L 2881 2131 
z
" transform="scale(0.015625)"/>
      <path id="DejaVuSans-Bold-62" d="M 2400 722 
Q 2759 722 2948 984 
Q 3138 1247 3138 1747 
Q 3138 2247 2948 2509 
Q 2759 2772 2400 2772 
Q 2041 2772 1848 2508 
Q 1656 2244 1656 1747 
Q 1656 1250 1848 986 
Q 2041 722 2400 722 
z
M 1656 2988 
Q 1888 3294 2169 3439 
Q 2450 3584 2816 3584 
Q 3463 3584 3878 3070 
Q 4294 2556 4294 1747 
Q 4294 938 3878 423 
Q 3463 -91 2816 -91 
Q 2450 -91 2169 54 
Q 1888 200 1656 506 
L 1656 0 
L 538 0 
L 538 4863 
L 1656 4863 
L 1656 2988 
z
" transform="scale(0.015625)"/>
      <path id="DejaVuSans-Bold-79" d="M 78 3500 
L 1197 3500 
L 2138 1125 
L 2938 3500 
L 4056 3500 
L 2584 -331 
Q 2363 -916 2067 -1148 
Q 1772 -1381 1288 -1381 
L 641 -1381 
L 641 -647 
L 991 -647 
Q 1275 -647 1404 -556 
Q 1534 -466 1606 -231 
L 1638 -134 
L 78 3500 
z
" transform="scale(0.015625)"/>
      <path id="DejaVuSans-Bold-73" d="M 3272 3391 
L 3272 2541 
Q 2913 2691 2578 2766 
Q 2244 2841 1947 2841 
Q 1628 2841 1473 2761 
Q 1319 2681 1319 2516 
Q 1319 2381 1436 2309 
Q 1553 2238 1856 2203 
L 2053 2175 
Q 2913 2066 3209 1816 
Q 3506 1566 3506 1031 
Q 3506 472 3093 190 
Q 2681 -91 1863 -91 
Q 1516 -91 1145 -36 
Q 775 19 384 128 
L 384 978 
Q 719 816 1070 734 
Q 1422 653 1784 653 
Q 2113 653 2278 743 
Q 2444 834 2444 1013 
Q 2444 1163 2330 1236 
Q 2216 1309 1875 1350 
L 1678 1375 
Q 931 1469 631 1722 
Q 331 1975 331 2491 
Q 331 3047 712 3315 
Q 1094 3584 1881 3584 
Q 2191 3584 2531 3537 
Q 2872 3491 3272 3391 
z
" transform="scale(0.015625)"/>
      <path id="DejaVuSans-Bold-6d" d="M 3781 2919 
Q 3994 3244 4286 3414 
Q 4578 3584 4928 3584 
Q 5531 3584 5847 3212 
Q 6163 2841 6163 2131 
L 6163 0 
L 5038 0 
L 5038 1825 
Q 5041 1866 5042 1909 
Q 5044 1953 5044 2034 
Q 5044 2406 4934 2573 
Q 4825 2741 4581 2741 
Q 4263 2741 4089 2478 
Q 3916 2216 3909 1719 
L 3909 0 
L 2784 0 
L 2784 1825 
Q 2784 2406 2684 2573 
Q 2584 2741 2328 2741 
Q 2006 2741 1831 2477 
Q 1656 2213 1656 1722 
L 1656 0 
L 531 0 
L 531 3500 
L 1656 3500 
L 1656 2988 
Q 1863 3284 2130 3434 
Q 2397 3584 2719 3584 
Q 3081 3584 3359 3409 
Q 3638 3234 3781 2919 
z
" transform="scale(0.015625)"/>
      <path id="DejaVuSans-Bold-70" d="M 1656 506 
L 1656 -1331 
L 538 -1331 
L 538 3500 
L 1656 3500 
L 1656 2988 
Q 1888 3294 2169 3439 
Q 2450 3584 2816 3584 
Q 3463 3584 3878 3070 
Q 4294 2556 4294 1747 
Q 4294 938 3878 423 
Q 3463 -91 2816 -91 
Q 2450 -91 2169 54 
Q 1888 200 1656 506 
z
M 2400 2772 
Q 2041 2772 1848 2508 
Q 1656 2244 1656 1747 
Q 1656 1250 1848 986 
Q 2041 722 2400 722 
Q 2759 722 2948 984 
Q 3138 1247 3138 1747 
Q 3138 2247 2948 2509 
Q 2759 2772 2400 2772 
z
" transform="scale(0.015625)"/>
      <path id="DejaVuSans-Bold-6c" d="M 538 4863 
L 1656 4863 
L 1656 0 
L 538 0 
L 538 4863 
z
" transform="scale(0.015625)"/>
      <path id="DejaVuSans-Bold-7a" d="M 366 3500 
L 3419 3500 
L 3419 2719 
L 1575 800 
L 3419 800 
L 3419 0 
L 288 0 
L 288 781 
L 2131 2700 
L 366 2700 
L 366 3500 
z
" transform="scale(0.015625)"/>
     </defs>
     <use xlink:href="#DejaVuSans-Bold-48"/>
     <use xlink:href="#DejaVuSans-Bold-69" transform="translate(83.691406 0)"/>
     <use xlink:href="#DejaVuSans-Bold-74" transform="translate(117.96875 0)"/>
     <use xlink:href="#DejaVuSans-Bold-20" transform="translate(165.771484 0)"/>
     <use xlink:href="#DejaVuSans-Bold-72" transform="translate(200.585938 0)"/>
     <use xlink:href="#DejaVuSans-Bold-61" transform="translate(249.902344 0)"/>
     <use xlink:href="#DejaVuSans-Bold-74" transform="translate(317.382812 0)"/>
     <use xlink:href="#DejaVuSans-Bold-65" transform="translate(365.185547 0)"/>
     <use xlink:href="#DejaVuSans-Bold-20" transform="translate(433.007812 0)"/>
     <use xlink:href="#DejaVuSans-Bold-62" transform="translate(467.822266 0)"/>
     <use xlink:href="#DejaVuSans-Bold-79" transform="translate(539.404297 0)"/>
     <use xlink:href="#DejaVuSans-Bold-20" transform="translate(604.589844 0)"/>
     <use xlink:href="#DejaVuSans-Bold-73" transform="translate(639.404297 0)"/>
     <use xlink:href="#DejaVuSans-Bold-61" transform="translate(698.925781 0)"/>
     <use xlink:href="#DejaVuSans-Bold-6d" transform="translate(766.40625 0)"/>
     <use xlink:href="#DejaVuSans-Bold-70" transform="translate(870.605469 0)"/>
     <use xlink:href="#DejaVuSans-Bold-6c" transform="translate(942.1875 0)"/>
     <use xlink:href="#DejaVuSans-Bold-65" transform="translate(976.464844 0)"/>
     <use xlink:href="#DejaVuSans-Bold-20" transform="translate(1044.287109 0)"/>
     <use xlink:href="#DejaVuSans-Bold-73" transform="translate(1079.101562 0)"/>
     <use xlink:href="#DejaVuSans-Bold-69" transform="translate(1138.623047 0)"/>
     <use xlink:href="#DejaVuSans-Bold-7a" transform="translate(1172.900391 0)"/>
     <use xlink:href="#DejaVuSans-Bold-65" transform="translate(1231.103516 0)"/>
    </g>
   </g>
   <g id="PathCollection_3">
    <defs>
     <path id="mba4ad83655" d="M 0 2.645751 
C 0.701661 2.645751 1.374679 2.366978 1.870829 1.870829 
C 2.366978 1.374679 2.645751 0.701661 2.645751 0 
C 2.645751 -0.701661 2.366978 -1.374679 1.870829 -1.870829 
C 1.374679 -2.366978 0.701661 -2.645751 0 -2.645751 
C -0.701661 -2.645751 -1.374679 -2.366978 -1.870829 -1.870829 
C -2.366978 -1.374679 -2.645751 -0.701661 -2.645751 0 
C -2.645751 0.701661 -2.366978 1.374679 -1.870829 1.870829 
C -1.374679 2.366978 -0.701661 2.645751 0 2.645751 
z
" style="stroke: #ffffff; stroke-width: 0.3"/>
    </defs>
    <g clip-path="url(#pcb62c6bb76)">
     <use xlink:href="#mba4ad83655" x="84.007571" y="258.187787" style="fill: #1a1a1a; stroke: #ffffff; stroke-width: 0.3"/>
     <use xlink:href="#mba4ad83655" x="86.685622" y="154.705413" style="fill: #1a1a1a; stroke: #ffffff; stroke-width: 0.3"/>
     <use xlink:href="#mba4ad83655" x="101.727343" y="156.234545" style="fill: #1a1a1a; stroke: #ffffff; stroke-width: 0.3"/>
     <use xlink:href="#mba4ad83655" x="101.995148" y="254.730618" style="fill: #1a1a1a; stroke: #ffffff; stroke-width: 0.3"/>
     <use xlink:href="#mba4ad83655" x="103.914419" y="294.621029" style="fill: #1a1a1a; stroke: #ffffff; stroke-width: 0.3"/>
     <use xlink:href="#mba4ad83655" x="118.063456" y="257.489705" style="fill: #1a1a1a; stroke: #ffffff; stroke-width: 0.3"/>
     <use xlink:href="#mba4ad83655" x="119.447116" y="284.681668" style="fill: #1a1a1a; stroke: #ffffff; stroke-width: 0.3"/>
     <use xlink:href="#mba4ad83655" x="119.848823" y="267.196372" style="fill: #1a1a1a; stroke: #ffffff; stroke-width: 0.3"/>
     <use xlink:href="#mba4ad83655" x="121.768093" y="294.255367" style="fill: #1a1a1a; stroke: #ffffff; stroke-width: 0.3"/>
     <use xlink:href="#mba4ad83655" x="123.508827" y="239.239842" style="fill: #1a1a1a; stroke: #ffffff; stroke-width: 0.3"/>
     <use xlink:href="#mba4ad83655" x="124.847852" y="295.551805" style="fill: #1a1a1a; stroke: #ffffff; stroke-width: 0.3"/>
     <use xlink:href="#mba4ad83655" x="128.061514" y="278.465413" style="fill: #1a1a1a; stroke: #ffffff; stroke-width: 0.3"/>
     <use xlink:href="#mba4ad83655" x="129.93615" y="277.567878" style="fill: #1a1a1a; stroke: #ffffff; stroke-width: 0.3"/>
     <use xlink:href="#mba4ad83655" x="131.453712" y="283.252262" style="fill: #1a1a1a; stroke: #ffffff; stroke-width: 0.3"/>
     <use xlink:href="#mba4ad83655" x="133.596153" y="250.442399" style="fill: #1a1a1a; stroke: #ffffff; stroke-width: 0.3"/>
     <use xlink:href="#mba4ad83655" x="134.712008" y="299.574088" style="fill: #1a1a1a; stroke: #ffffff; stroke-width: 0.3"/>
     <use xlink:href="#mba4ad83655" x="139.175426" y="278.365687" style="fill: #1a1a1a; stroke: #ffffff; stroke-width: 0.3"/>
     <use xlink:href="#mba4ad83655" x="140.514452" y="260.514728" style="fill: #1a1a1a; stroke: #ffffff; stroke-width: 0.3"/>
     <use xlink:href="#mba4ad83655" x="141.942746" y="299.840025" style="fill: #1a1a1a; stroke: #ffffff; stroke-width: 0.3"/>
     <use xlink:href="#mba4ad83655" x="144.085187" y="251.339933" style="fill: #1a1a1a; stroke: #ffffff; stroke-width: 0.3"/>
     <use xlink:href="#mba4ad83655" x="147.74519" y="273.745047" style="fill: #1a1a1a; stroke: #ffffff; stroke-width: 0.3"/>
     <use xlink:href="#mba4ad83655" x="148.191532" y="290.631988" style="fill: #1a1a1a; stroke: #ffffff; stroke-width: 0.3"/>
     <use xlink:href="#mba4ad83655" x="153.636903" y="252.835824" style="fill: #1a1a1a; stroke: #ffffff; stroke-width: 0.3"/>
     <use xlink:href="#mba4ad83655" x="157.029101" y="271.916737" style="fill: #1a1a1a; stroke: #ffffff; stroke-width: 0.3"/>
     <use xlink:href="#mba4ad83655" x="162.251301" y="245.788518" style="fill: #1a1a1a; stroke: #ffffff; stroke-width: 0.3"/>
     <use xlink:href="#mba4ad83655" x="164.25984" y="230.630162" style="fill: #1a1a1a; stroke: #ffffff; stroke-width: 0.3"/>
     <use xlink:href="#mba4ad83655" x="168.09838" y="287.108335" style="fill: #1a1a1a; stroke: #ffffff; stroke-width: 0.3"/>
     <use xlink:href="#mba4ad83655" x="169.928381" y="265.135367" style="fill: #1a1a1a; stroke: #ffffff; stroke-width: 0.3"/>
     <use xlink:href="#mba4ad83655" x="171.40131" y="263.307057" style="fill: #1a1a1a; stroke: #ffffff; stroke-width: 0.3"/>
     <use xlink:href="#mba4ad83655" x="172.829604" y="265.201851" style="fill: #1a1a1a; stroke: #ffffff; stroke-width: 0.3"/>
     <use xlink:href="#mba4ad83655" x="176.266436" y="286.642947" style="fill: #1a1a1a; stroke: #ffffff; stroke-width: 0.3"/>
     <use xlink:href="#mba4ad83655" x="185.594981" y="248.780299" style="fill: #1a1a1a; stroke: #ffffff; stroke-width: 0.3"/>
     <use xlink:href="#mba4ad83655" x="186.041323" y="289.933906" style="fill: #1a1a1a; stroke: #ffffff; stroke-width: 0.3"/>
     <use xlink:href="#mba4ad83655" x="187.558885" y="286.177559" style="fill: #1a1a1a; stroke: #ffffff; stroke-width: 0.3"/>
     <use xlink:href="#mba4ad83655" x="191.754499" y="253.833084" style="fill: #1a1a1a; stroke: #ffffff; stroke-width: 0.3"/>
     <use xlink:href="#mba4ad83655" x="196.708894" y="275.972262" style="fill: #1a1a1a; stroke: #ffffff; stroke-width: 0.3"/>
     <use xlink:href="#mba4ad83655" x="214.026958" y="271.717285" style="fill: #1a1a1a; stroke: #ffffff; stroke-width: 0.3"/>
     <use xlink:href="#mba4ad83655" x="214.205495" y="295.917467" style="fill: #1a1a1a; stroke: #ffffff; stroke-width: 0.3"/>
     <use xlink:href="#mba4ad83655" x="216.794278" y="270.221394" style="fill: #1a1a1a; stroke: #ffffff; stroke-width: 0.3"/>
     <use xlink:href="#mba4ad83655" x="218.31184" y="250.741577" style="fill: #1a1a1a; stroke: #ffffff; stroke-width: 0.3"/>
     <use xlink:href="#mba4ad83655" x="226.122823" y="266.598015" style="fill: #1a1a1a; stroke: #ffffff; stroke-width: 0.3"/>
     <use xlink:href="#mba4ad83655" x="282.183362" y="300.504865" style="fill: #1a1a1a; stroke: #ffffff; stroke-width: 0.3"/>
     <use xlink:href="#mba4ad83655" x="287.762635" y="263.905413" style="fill: #1a1a1a; stroke: #ffffff; stroke-width: 0.3"/>
     <use xlink:href="#mba4ad83655" x="290.038979" y="248.1487" style="fill: #1a1a1a; stroke: #ffffff; stroke-width: 0.3"/>
     <use xlink:href="#mba4ad83655" x="295.305813" y="273.146691" style="fill: #1a1a1a; stroke: #ffffff; stroke-width: 0.3"/>
     <use xlink:href="#mba4ad83655" x="299.590695" y="267.395824" style="fill: #1a1a1a; stroke: #ffffff; stroke-width: 0.3"/>
     <use xlink:href="#mba4ad83655" x="306.241189" y="287.540481" style="fill: #1a1a1a; stroke: #ffffff; stroke-width: 0.3"/>
     <use xlink:href="#mba4ad83655" x="318.560225" y="268.958198" style="fill: #1a1a1a; stroke: #ffffff; stroke-width: 0.3"/>
     <use xlink:href="#mba4ad83655" x="338.511706" y="301.502125" style="fill: #1a1a1a; stroke: #ffffff; stroke-width: 0.3"/>
     <use xlink:href="#mba4ad83655" x="520.262116" y="244.425595" style="fill: #1a1a1a; stroke: #ffffff; stroke-width: 0.3"/>
    </g>
   </g>
   <g id="legend_1">
    <g id="PathCollection_4">
     <g>
      <use xlink:href="#mba4ad83655" x="449.904531" y="40.291562" style="fill: #1a1a1a; stroke: #ffffff; stroke-width: 0.3"/>
     </g>
    </g>
    <g id="text_19">
     <!-- Hit rate -->
     <g transform="translate(467.904531 42.916562) scale(0.1 -0.1)">
      <use xlink:href="#DejaVuSans-48"/>
      <use xlink:href="#DejaVuSans-69" transform="translate(75.195312 0)"/>
      <use xlink:href="#DejaVuSans-74" transform="translate(102.978516 0)"/>
      <use xlink:href="#DejaVuSans-20" transform="translate(142.1875 0)"/>
      <use xlink:href="#DejaVuSans-72" transform="translate(173.974609 0)"/>
      <use xlink:href="#DejaVuSans-61" transform="translate(215.087891 0)"/>
      <use xlink:href="#DejaVuSans-74" transform="translate(276.367188 0)"/>
      <use xlink:href="#DejaVuSans-65" transform="translate(315.576172 0)"/>
     </g>
    </g>
    <g id="PathCollection_5">
     <g>
      <use xlink:href="#mbf3c9b5521" x="449.904531" y="54.969687" style="fill: #595959; stroke: #595959; stroke-width: 0.8"/>
     </g>
    </g>
    <g id="text_20">
     <!-- Hit rate ±0.5 -->
     <g transform="translate(467.904531 57.594687) scale(0.1 -0.1)">
      <defs>
       <path id="DejaVuSans-b1" d="M 2944 4013 
L 2944 2803 
L 4684 2803 
L 4684 2272 
L 2944 2272 
L 2944 1063 
L 2419 1063 
L 2419 2272 
L 678 2272 
L 678 2803 
L 2419 2803 
L 2419 4013 
L 2944 4013 
z
M 678 531 
L 4684 531 
L 4684 0 
L 678 0 
L 678 531 
z
" transform="scale(0.015625)"/>
      </defs>
      <use xlink:href="#DejaVuSans-48"/>
      <use xlink:href="#DejaVuSans-69" transform="translate(75.195312 0)"/>
      <use xlink:href="#DejaVuSans-74" transform="translate(102.978516 0)"/>
      <use xlink:href="#DejaVuSans-20" transform="translate(142.1875 0)"/>
      <use xlink:href="#DejaVuSans-72" transform="translate(173.974609 0)"/>
      <use xlink:href="#DejaVuSans-61" transform="translate(215.087891 0)"/>
      <use xlink:href="#DejaVuSans-74" transform="translate(276.367188 0)"/>
      <use xlink:href="#DejaVuSans-65" transform="translate(315.576172 0)"/>
      <use xlink:href="#DejaVuSans-20" transform="translate(377.099609 0)"/>
      <use xlink:href="#DejaVuSans-b1" transform="translate(408.886719 0)"/>
      <use xlink:href="#DejaVuSans-30" transform="translate(492.675781 0)"/>
      <use xlink:href="#DejaVuSans-2e" transform="translate(556.298828 0)"/>
      <use xlink:href="#DejaVuSans-35" transform="translate(588.085938 0)"/>
     </g>
    </g>
    <g id="PathCollection_6">
     <g>
      <use xlink:href="#mfea2c719f0" x="449.904531" y="69.647812" style="fill: #8c8c8c; stroke: #ffffff; stroke-width: 0.3"/>
     </g>
    </g>
    <g id="text_21">
     <!-- Hit rate ±1.0 -->
     <g transform="translate(467.904531 72.272812) scale(0.1 -0.1)">
      <use xlink:href="#DejaVuSans-48"/>
      <use xlink:href="#DejaVuSans-69" transform="translate(75.195312 0)"/>
      <use xlink:href="#DejaVuSans-74" transform="translate(102.978516 0)"/>
      <use xlink:href="#DejaVuSans-20" transform="translate(142.1875 0)"/>
      <use xlink:href="#DejaVuSans-72" transform="translate(173.974609 0)"/>
      <use xlink:href="#DejaVuSans-61" transform="translate(215.087891 0)"/>
      <use xlink:href="#DejaVuSans-74" transform="translate(276.367188 0)"/>
      <use xlink:href="#DejaVuSans-65" transform="translate(315.576172 0)"/>
      <use xlink:href="#DejaVuSans-20" transform="translate(377.099609 0)"/>
      <use xlink:href="#DejaVuSans-b1" transform="translate(408.886719 0)"/>
      <use xlink:href="#DejaVuSans-31" transform="translate(492.675781 0)"/>
      <use xlink:href="#DejaVuSans-2e" transform="translate(556.298828 0)"/>
      <use xlink:href="#DejaVuSans-30" transform="translate(588.085938 0)"/>
     </g>
    </g>
   </g>
  </g>
 </g>
 <defs>
  <clipPath id="pcb62c6bb76">
   <rect x="62.194844" y="26.318125" width="479.88" height="288.288"/>
  </clipPath>
 </defs>
</svg>
