<?xml version="1.0" encoding="utf-8" standalone="no"?>
<!DOCTYPE svg PUBLIC "-//W3C//DTD SVG 1.1//EN"
  "http://www.w3.org/Graphics/SVG/1.1/DTD/svg11.dtd">
<svg xmlns:xlink="http://www.w3.org/1999/xlink" width="565.439969pt" height="395.546562pt" viewBox="0 0 565.439969 395.546562" xmlns="http://www.w3.org/2000/svg" version="1.1">
 <metadata>
  <rdf:RDF xmlns:dc="http://purl.org/dc/elements/1.1/" xmlns:cc="http://creativecommons.org/ns#" xmlns:rdf="http://www.w3.org/1999/02/22-rdf-syntax-ns#">
   <cc:Work>
    <dc:type rdf:resource="http://purl.org/dc/dcmitype/StillImage"/>
    <dc:date>2026-04-27T15:29:37.957866</dc:date>
    <dc:format>image/svg+xml</dc:format>
    <dc:creator>
     <cc:Agent>
      <dc:title>Matplotlib v3.10.8, https://matplotlib.org/</dc:title>
     </cc:Agent>
    </dc:creator>
   </cc:Work>
  </rdf:RDF>
 </metadata>
 <defs>
  <style type="text/css">*{stroke-linejoin: round; stroke-linecap: butt}</style>
 </defs>
 <g id="figure_1">
  <g id="patch_1">
   <path d="M 0 395.546562 
L 565.439969 395.546562 
L 565.439969 0 
L 0 0 
z
" style="fill: #ffffff"/>
  </g>
  <g id="axes_1">
   <g id="patch_2">
    <path d="M 45.437969 358.958125 
L 558.239969 358.958125 
L 558.239969 26.318125 
L 45.437969 26.318125 
z
" style="fill: #ffffff"/>
   </g>
   <g id="FillBetweenPolyCollection_1">
    <defs>
     <path id="mf4bf7b8340" d="M 76.570542 -201.380922 
L 65.585595 -201.380922 
L 64.9296 -202.923624 
L 64.390916 -204.466326 
L 63.969372 -206.009028 
L 63.645824 -207.55173 
L 63.389691 -209.094433 
L 63.167788 -210.637135 
L 62.951765 -212.179837 
L 62.722624 -213.722539 
L 62.472155 -215.265241 
L 62.202022 -216.807944 
L 61.921446 -218.350646 
L 61.644297 -219.893348 
L 61.386128 -221.43605 
L 61.16154 -222.978752 
L 60.982205 -224.521454 
L 60.855736 -226.064157 
L 60.78542 -227.606859 
L 60.770634 -229.149561 
L 60.80767 -230.692263 
L 60.890777 -232.234965 
L 61.013287 -233.777667 
L 61.168752 -235.32037 
L 61.351918 -236.863072 
L 61.559233 -238.405774 
L 61.78865 -239.948476 
L 62.038679 -241.491178 
L 62.307024 -243.033881 
L 62.589407 -244.576583 
L 62.87917 -246.119285 
L 63.167908 -247.661987 
L 63.446921 -249.204689 
L 63.708888 -250.747391 
L 63.9491 -252.290094 
L 64.165825 -253.832796 
L 64.359752 -255.375498 
L 64.532885 -256.9182 
L 64.687381 -258.460902 
L 64.824823 -260.003605 
L 64.946208 -261.546307 
L 65.052609 -263.089009 
L 65.146242 -264.631711 
L 65.231445 -266.174413 
L 65.315117 -267.717115 
L 65.406305 -269.259818 
L 65.514949 -270.80252 
L 65.650105 -272.345222 
L 65.818134 -273.887924 
L 66.021388 -275.430626 
L 66.257695 -276.973329 
L 66.520725 -278.516031 
L 66.801086 -280.058733 
L 67.087869 -281.601435 
L 67.370325 -283.144137 
L 67.639355 -284.686839 
L 67.888581 -286.229542 
L 68.114808 -287.772244 
L 68.317844 -289.314946 
L 68.499812 -290.857648 
L 68.664198 -292.40035 
L 68.81494 -293.943052 
L 68.955789 -295.485755 
L 69.089988 -297.028457 
L 69.220185 -298.571159 
L 69.348392 -300.113861 
L 69.475908 -301.656563 
L 69.603182 -303.199266 
L 69.729765 -304.741968 
L 69.854423 -306.28467 
L 69.97545 -307.827372 
L 70.091068 -309.370074 
L 70.199742 -310.912776 
L 70.300303 -312.455479 
L 70.391865 -313.998181 
L 70.473675 -315.540883 
L 70.545018 -317.083585 
L 70.605294 -318.626287 
L 70.654243 -320.16899 
L 70.692188 -321.711692 
L 70.720159 -323.254394 
L 70.739813 -324.797096 
L 70.753167 -326.339798 
L 70.762237 -327.8825 
L 70.768751 -329.425203 
L 70.773997 -330.967905 
L 70.778843 -332.510607 
L 70.783833 -334.053309 
L 70.789296 -335.596011 
L 70.795372 -337.138714 
L 70.801989 -338.681416 
L 70.808852 -340.224118 
L 70.815507 -341.76682 
L 70.821531 -343.309522 
L 70.826791 -344.852224 
L 70.831665 -346.394927 
L 70.83712 -347.937629 
L 70.84455 -349.480331 
L 70.855422 -351.023033 
L 70.870811 -352.565735 
L 70.891007 -354.108438 
L 71.265131 -354.108438 
L 71.265131 -354.108438 
L 71.285327 -352.565735 
L 71.300716 -351.023033 
L 71.311588 -349.480331 
L 71.319018 -347.937629 
L 71.324472 -346.394927 
L 71.329347 -344.852224 
L 71.334607 -343.309522 
L 71.340631 -341.76682 
L 71.347286 -340.224118 
L 71.354149 -338.681416 
L 71.360766 -337.138714 
L 71.366841 -335.596011 
L 71.372304 -334.053309 
L 71.377295 -332.510607 
L 71.38214 -330.967905 
L 71.387387 -329.425203 
L 71.393901 -327.8825 
L 71.402971 -326.339798 
L 71.416324 -324.797096 
L 71.435979 -323.254394 
L 71.463949 -321.711692 
L 71.501894 -320.16899 
L 71.550844 -318.626287 
L 71.61112 -317.083585 
L 71.682462 -315.540883 
L 71.764272 -313.998181 
L 71.855835 -312.455479 
L 71.956395 -310.912776 
L 72.06507 -309.370074 
L 72.180688 -307.827372 
L 72.301715 -306.28467 
L 72.426372 -304.741968 
L 72.552955 -303.199266 
L 72.68023 -301.656563 
L 72.807745 -300.113861 
L 72.935953 -298.571159 
L 73.066149 -297.028457 
L 73.200349 -295.485755 
L 73.341198 -293.943052 
L 73.49194 -292.40035 
L 73.656325 -290.857648 
L 73.838294 -289.314946 
L 74.04133 -287.772244 
L 74.267556 -286.229542 
L 74.516783 -284.686839 
L 74.785813 -283.144137 
L 75.068268 -281.601435 
L 75.355052 -280.058733 
L 75.635412 -278.516031 
L 75.898442 -276.973329 
L 76.13475 -275.430626 
L 76.338004 -273.887924 
L 76.506033 -272.345222 
L 76.641188 -270.80252 
L 76.749833 -269.259818 
L 76.84102 -267.717115 
L 76.924692 -266.174413 
L 77.009896 -264.631711 
L 77.103528 -263.089009 
L 77.20993 -261.546307 
L 77.331314 -260.003605 
L 77.468757 -258.460902 
L 77.623252 -256.9182 
L 77.796386 -255.375498 
L 77.990313 -253.832796 
L 78.207037 -252.290094 
L 78.44725 -250.747391 
L 78.709217 -249.204689 
L 78.988229 -247.661987 
L 79.276968 -246.119285 
L 79.56673 -244.576583 
L 79.849113 -243.033881 
L 80.117458 -241.491178 
L 80.367487 -239.948476 
L 80.596905 -238.405774 
L 80.80422 -236.863072 
L 80.987386 -235.32037 
L 81.142851 -233.777667 
L 81.26536 -232.234965 
L 81.348467 -230.692263 
L 81.385503 -229.149561 
L 81.370717 -227.606859 
L 81.300402 -226.064157 
L 81.173933 -224.521454 
L 80.994598 -222.978752 
L 80.77001 -221.43605 
L 80.511841 -219.893348 
L 80.234692 -218.350646 
L 79.954116 -216.807944 
L 79.683982 -215.265241 
L 79.433514 -213.722539 
L 79.204373 -212.179837 
L 78.98835 -210.637135 
L 78.766447 -209.094433 
L 78.510313 -207.55173 
L 78.186765 -206.009028 
L 77.765221 -204.466326 
L 77.226538 -202.923624 
L 76.570542 -201.380922 
z
" style="stroke: #6e6e6e; stroke-width: 0.8"/>
    </defs>
    <g clip-path="url(#p07d4682795)">
     <use xlink:href="#mf4bf7b8340" x="0" y="395.546562" style="fill: #b8b8b8; stroke: #6e6e6e; stroke-width: 0.8"/>
    </g>
   </g>
   <g id="FillBetweenPolyCollection_2">
    <defs>
     <path id="m59a02bce9d" d="M 122.995541 -184.411198 
L 121.720996 -184.411198 
L 121.550085 -185.951977 
L 121.373225 -187.492755 
L 121.188034 -189.033534 
L 120.989286 -190.574313 
L 120.773297 -192.115092 
L 120.540587 -193.655871 
L 120.29466 -195.19665 
L 120.037439 -196.737429 
L 119.764373 -198.278208 
L 119.462851 -199.818987 
L 119.115531 -201.359765 
L 118.706984 -202.900544 
L 118.22991 -204.441323 
L 117.687673 -205.982102 
L 117.09233 -207.522881 
L 116.459882 -209.06366 
L 115.805619 -210.604439 
L 115.141813 -212.145218 
L 114.478087 -213.685996 
L 113.822918 -215.226775 
L 113.184406 -216.767554 
L 112.570034 -218.308333 
L 111.986804 -219.849112 
L 111.442562 -221.389891 
L 110.946967 -222.93067 
L 110.510082 -224.471449 
L 110.139489 -226.012228 
L 109.839665 -227.553006 
L 109.615804 -229.093785 
L 109.479237 -230.634564 
L 109.448769 -232.175343 
L 109.544712 -233.716122 
L 109.777556 -235.256901 
L 110.136922 -236.79768 
L 110.587245 -238.338459 
L 111.074266 -239.879237 
L 111.541191 -241.420016 
L 111.947205 -242.960795 
L 112.278807 -244.501574 
L 112.548652 -246.042353 
L 112.784256 -247.583132 
L 113.014014 -249.123911 
L 113.257445 -250.66469 
L 113.522541 -252.205469 
L 113.808777 -253.746247 
L 114.112136 -255.287026 
L 114.428712 -256.827805 
L 114.755696 -258.368584 
L 115.090996 -259.909363 
L 115.433208 -261.450142 
L 115.782152 -262.990921 
L 116.138719 -264.5317 
L 116.503183 -266.072478 
L 116.87282 -267.613257 
L 117.24077 -269.154036 
L 117.597535 -270.694815 
L 117.934668 -272.235594 
L 118.248493 -273.776373 
L 118.541251 -275.317152 
L 118.818468 -276.857931 
L 119.083897 -278.398709 
L 119.335474 -279.939488 
L 119.565678 -281.480267 
L 119.766788 -283.021046 
L 119.937649 -284.561825 
L 120.086959 -286.102604 
L 120.230371 -287.643383 
L 120.383187 -289.184162 
L 120.55341 -290.724941 
L 120.739376 -292.265719 
L 120.932755 -293.806498 
L 121.123983 -295.347277 
L 121.306056 -296.888056 
L 121.474718 -298.428835 
L 121.626498 -299.969614 
L 121.757514 -301.510393 
L 121.864476 -303.051172 
L 121.946733 -304.59195 
L 122.007285 -306.132729 
L 122.051844 -307.673508 
L 122.086707 -309.214287 
L 122.116771 -310.755066 
L 122.14463 -312.295845 
L 122.170899 -313.836624 
L 122.195312 -315.377403 
L 122.217804 -316.918182 
L 122.238911 -318.45896 
L 122.259341 -319.999739 
L 122.279223 -321.540518 
L 122.297704 -323.081297 
L 122.313284 -324.622076 
L 122.324642 -326.162855 
L 122.331394 -327.703634 
L 122.334279 -329.244413 
L 122.334759 -330.785191 
L 122.334389 -332.32597 
L 122.334359 -333.866749 
L 122.335355 -335.407528 
L 122.337611 -336.948307 
L 122.378927 -336.948307 
L 122.378927 -336.948307 
L 122.381182 -335.407528 
L 122.382179 -333.866749 
L 122.382148 -332.32597 
L 122.381778 -330.785191 
L 122.382259 -329.244413 
L 122.385144 -327.703634 
L 122.391896 -326.162855 
L 122.403254 -324.622076 
L 122.418833 -323.081297 
L 122.437315 -321.540518 
L 122.457196 -319.999739 
L 122.477627 -318.45896 
L 122.498733 -316.918182 
L 122.521226 -315.377403 
L 122.545639 -313.836624 
L 122.571908 -312.295845 
L 122.599767 -310.755066 
L 122.62983 -309.214287 
L 122.664693 -307.673508 
L 122.709253 -306.132729 
L 122.769804 -304.59195 
L 122.852061 -303.051172 
L 122.959023 -301.510393 
L 123.09004 -299.969614 
L 123.24182 -298.428835 
L 123.410482 -296.888056 
L 123.592554 -295.347277 
L 123.783782 -293.806498 
L 123.977161 -292.265719 
L 124.163128 -290.724941 
L 124.33335 -289.184162 
L 124.486167 -287.643383 
L 124.629579 -286.102604 
L 124.778888 -284.561825 
L 124.94975 -283.021046 
L 125.150859 -281.480267 
L 125.381064 -279.939488 
L 125.632641 -278.398709 
L 125.89807 -276.857931 
L 126.175287 -275.317152 
L 126.468044 -273.776373 
L 126.78187 -272.235594 
L 127.119003 -270.694815 
L 127.475767 -269.154036 
L 127.843718 -267.613257 
L 128.213355 -266.072478 
L 128.577819 -264.5317 
L 128.934386 -262.990921 
L 129.283329 -261.450142 
L 129.625541 -259.909363 
L 129.960841 -258.368584 
L 130.287825 -256.827805 
L 130.604401 -255.287026 
L 130.907761 -253.746247 
L 131.193997 -252.205469 
L 131.459092 -250.66469 
L 131.702524 -249.123911 
L 131.932281 -247.583132 
L 132.167886 -246.042353 
L 132.43773 -244.501574 
L 132.769332 -242.960795 
L 133.175346 -241.420016 
L 133.642271 -239.879237 
L 134.129293 -238.338459 
L 134.579615 -236.79768 
L 134.938982 -235.256901 
L 135.171825 -233.716122 
L 135.267769 -232.175343 
L 135.237301 -230.634564 
L 135.100734 -229.093785 
L 134.876872 -227.553006 
L 134.577048 -226.012228 
L 134.206455 -224.471449 
L 133.769571 -222.93067 
L 133.273975 -221.389891 
L 132.729734 -219.849112 
L 132.146504 -218.308333 
L 131.532131 -216.767554 
L 130.89362 -215.226775 
L 130.238451 -213.685996 
L 129.574725 -212.145218 
L 128.910919 -210.604439 
L 128.256656 -209.06366 
L 127.624207 -207.522881 
L 127.028865 -205.982102 
L 126.486628 -204.441323 
L 126.009554 -202.900544 
L 125.601006 -201.359765 
L 125.253686 -199.818987 
L 124.952164 -198.278208 
L 124.679098 -196.737429 
L 124.421877 -195.19665 
L 124.175951 -193.655871 
L 123.94324 -192.115092 
L 123.727251 -190.574313 
L 123.528503 -189.033534 
L 123.343313 -187.492755 
L 123.166453 -185.951977 
L 122.995541 -184.411198 
z
" style="stroke: #6e6e6e; stroke-width: 0.8"/>
    </defs>
    <g clip-path="url(#p07d4682795)">
     <use xlink:href="#m59a02bce9d" x="0" y="395.546562" style="fill: #b8b8b8; stroke: #6e6e6e; stroke-width: 0.8"/>
    </g>
   </g>
   <g id="FillBetweenPolyCollection_3">
    <defs>
     <path id="m408c9f755b" d="M 173.764693 -167.441474 
L 173.512244 -167.441474 
L 173.473055 -168.944233 
L 173.433147 -170.446991 
L 173.393799 -171.94975 
L 173.353687 -173.452509 
L 173.308499 -174.955268 
L 173.252256 -176.458027 
L 173.17967 -177.960786 
L 173.087775 -179.463544 
L 172.975396 -180.966303 
L 172.841009 -182.469062 
L 172.681071 -183.971821 
L 172.490505 -185.47458 
L 172.264875 -186.977339 
L 172.002106 -188.480097 
L 171.701951 -189.982856 
L 171.36319 -191.485615 
L 170.980126 -192.988374 
L 170.540561 -194.491133 
L 170.027089 -195.993892 
L 169.422379 -197.49665 
L 168.717222 -198.999409 
L 167.918277 -200.502168 
L 167.051985 -202.004927 
L 166.162428 -203.507686 
L 165.302968 -205.010445 
L 164.523725 -206.513203 
L 163.859279 -208.015962 
L 163.322412 -209.518721 
L 162.907123 -211.02148 
L 162.597323 -212.524239 
L 162.372995 -214.026998 
L 162.210126 -215.529756 
L 162.080443 -217.032515 
L 161.958737 -218.535274 
L 161.83513 -220.038033 
L 161.719903 -221.540792 
L 161.63355 -223.043551 
L 161.590273 -224.546309 
L 161.590381 -226.049068 
L 161.626921 -227.551827 
L 161.696356 -229.054586 
L 161.800074 -230.557345 
L 161.935302 -232.060104 
L 162.086062 -233.562862 
L 162.224804 -235.065621 
L 162.325648 -236.56838 
L 162.381564 -238.071139 
L 162.415503 -239.573898 
L 162.478128 -241.076657 
L 162.630638 -242.579415 
L 162.919382 -244.082174 
L 163.355402 -245.584933 
L 163.910795 -247.087692 
L 164.53336 -248.590451 
L 165.169265 -250.09321 
L 165.779801 -251.595968 
L 166.345091 -253.098727 
L 166.858106 -254.601486 
L 167.317807 -256.104245 
L 167.727407 -257.607004 
L 168.096405 -259.109763 
L 168.440558 -260.612521 
L 168.77666 -262.11528 
L 169.115396 -263.618039 
L 169.458135 -265.120798 
L 169.799671 -266.623557 
L 170.133398 -268.126315 
L 170.454322 -269.629074 
L 170.758914 -271.131833 
L 171.044289 -272.634592 
L 171.30891 -274.137351 
L 171.554162 -275.64011 
L 171.784474 -277.142868 
L 172.004873 -278.645627 
L 172.217526 -280.148386 
L 172.419952 -281.651145 
L 172.606119 -283.153904 
L 172.769307 -284.656663 
L 172.904823 -286.159421 
L 173.011693 -287.66218 
L 173.093385 -289.164939 
L 173.157348 -290.667698 
L 173.212876 -292.170457 
L 173.267803 -293.673216 
L 173.325809 -295.175974 
L 173.385919 -296.678733 
L 173.444129 -298.181492 
L 173.495677 -299.684251 
L 173.536673 -301.18701 
L 173.564887 -302.689769 
L 173.58013 -304.192527 
L 173.584441 -305.695286 
L 173.581784 -307.198045 
L 173.577 -308.700804 
L 173.574279 -310.203563 
L 173.575919 -311.706322 
L 173.582032 -313.20908 
L 173.591221 -314.711839 
L 173.601629 -316.214598 
L 173.675308 -316.214598 
L 173.675308 -316.214598 
L 173.685717 -314.711839 
L 173.694905 -313.20908 
L 173.701018 -311.706322 
L 173.702658 -310.203563 
L 173.699938 -308.700804 
L 173.695153 -307.198045 
L 173.692496 -305.695286 
L 173.696808 -304.192527 
L 173.712051 -302.689769 
L 173.740264 -301.18701 
L 173.78126 -299.684251 
L 173.832809 -298.181492 
L 173.891019 -296.678733 
L 173.951129 -295.175974 
L 174.009134 -293.673216 
L 174.064062 -292.170457 
L 174.119589 -290.667698 
L 174.183552 -289.164939 
L 174.265245 -287.66218 
L 174.372114 -286.159421 
L 174.50763 -284.656663 
L 174.670819 -283.153904 
L 174.856986 -281.651145 
L 175.059411 -280.148386 
L 175.272064 -278.645627 
L 175.492463 -277.142868 
L 175.722776 -275.64011 
L 175.968028 -274.137351 
L 176.232648 -272.634592 
L 176.518024 -271.131833 
L 176.822616 -269.629074 
L 177.143539 -268.126315 
L 177.477266 -266.623557 
L 177.818802 -265.120798 
L 178.161541 -263.618039 
L 178.500277 -262.11528 
L 178.836379 -260.612521 
L 179.180532 -259.109763 
L 179.549531 -257.607004 
L 179.95913 -256.104245 
L 180.418831 -254.601486 
L 180.931847 -253.098727 
L 181.497137 -251.595968 
L 182.107672 -250.09321 
L 182.743577 -248.590451 
L 183.366142 -247.087692 
L 183.921535 -245.584933 
L 184.357556 -244.082174 
L 184.646299 -242.579415 
L 184.79881 -241.076657 
L 184.861434 -239.573898 
L 184.895374 -238.071139 
L 184.95129 -236.56838 
L 185.052133 -235.065621 
L 185.190875 -233.562862 
L 185.341636 -232.060104 
L 185.476863 -230.557345 
L 185.580582 -229.054586 
L 185.650016 -227.551827 
L 185.686556 -226.049068 
L 185.686664 -224.546309 
L 185.643388 -223.043551 
L 185.557034 -221.540792 
L 185.441807 -220.038033 
L 185.318201 -218.535274 
L 185.196494 -217.032515 
L 185.066812 -215.529756 
L 184.903943 -214.026998 
L 184.679614 -212.524239 
L 184.369815 -211.02148 
L 183.954525 -209.518721 
L 183.417658 -208.015962 
L 182.753213 -206.513203 
L 181.97397 -205.010445 
L 181.114509 -203.507686 
L 180.224952 -202.004927 
L 179.35866 -200.502168 
L 178.559715 -198.999409 
L 177.854559 -197.49665 
L 177.249848 -195.993892 
L 176.736376 -194.491133 
L 176.296812 -192.988374 
L 175.913747 -191.485615 
L 175.574986 -189.982856 
L 175.274832 -188.480097 
L 175.012063 -186.977339 
L 174.786433 -185.47458 
L 174.595866 -183.971821 
L 174.435928 -182.469062 
L 174.301542 -180.966303 
L 174.189163 -179.463544 
L 174.097267 -177.960786 
L 174.024682 -176.458027 
L 173.968438 -174.955268 
L 173.923251 -173.452509 
L 173.883138 -171.94975 
L 173.843791 -170.446991 
L 173.803883 -168.944233 
L 173.764693 -167.441474 
z
" style="stroke: #6e6e6e; stroke-width: 0.8"/>
    </defs>
    <g clip-path="url(#p07d4682795)">
     <use xlink:href="#m408c9f755b" x="0" y="395.546562" style="fill: #b8b8b8; stroke: #6e6e6e; stroke-width: 0.8"/>
    </g>
   </g>
   <g id="FillBetweenPolyCollection_4">
    <defs>
     <path id="mf25f4fc0ea" d="M 224.968929 -150.47175 
L 224.868408 -150.47175 
L 224.861297 -152.014452 
L 224.858903 -153.557154 
L 224.858314 -155.099856 
L 224.856727 -156.642559 
L 224.85283 -158.185261 
L 224.84604 -159.727963 
L 224.835434 -161.270665 
L 224.819363 -162.813367 
L 224.795556 -164.356069 
L 224.762043 -165.898772 
L 224.718831 -167.441474 
L 224.668008 -168.984176 
L 224.61095 -170.526878 
L 224.545749 -172.06958 
L 224.46725 -173.612282 
L 224.366862 -175.154985 
L 224.231402 -176.697687 
L 224.047074 -178.240389 
L 223.810152 -179.783091 
L 223.53243 -181.325793 
L 223.229261 -182.868496 
L 222.898172 -184.411198 
L 222.512512 -185.9539 
L 222.040544 -187.496602 
L 221.469607 -189.039304 
L 220.811297 -190.582006 
L 220.091197 -192.124709 
L 219.339994 -193.667411 
L 218.588058 -195.210113 
L 217.856103 -196.752815 
L 217.144542 -198.295517 
L 216.434909 -199.83822 
L 215.708711 -201.380922 
L 214.967999 -202.923624 
L 214.239651 -204.466326 
L 213.567262 -206.009028 
L 213.001211 -207.55173 
L 212.582959 -209.094433 
L 212.322387 -210.637135 
L 212.186881 -212.179837 
L 212.116639 -213.722539 
L 212.051608 -215.265241 
L 211.948976 -216.807944 
L 211.794572 -218.350646 
L 211.615784 -219.893348 
L 211.479096 -221.43605 
L 211.456184 -222.978752 
L 211.57837 -224.521454 
L 211.819494 -226.064157 
L 212.126329 -227.606859 
L 212.472377 -229.149561 
L 212.880382 -230.692263 
L 213.382984 -232.234965 
L 213.962422 -233.777667 
L 214.540018 -235.32037 
L 215.027533 -236.863072 
L 215.38692 -238.405774 
L 215.649881 -239.948476 
L 215.894192 -241.491178 
L 216.202183 -243.033881 
L 216.624235 -244.576583 
L 217.157546 -246.119285 
L 217.748598 -247.661987 
L 218.324506 -249.204689 
L 218.836746 -250.747391 
L 219.28482 -252.290094 
L 219.70431 -253.832796 
L 220.133729 -255.375498 
L 220.586786 -256.9182 
L 221.049305 -258.460902 
L 221.500295 -260.003605 
L 221.933785 -261.546307 
L 222.356485 -263.089009 
L 222.766287 -264.631711 
L 223.141655 -266.174413 
L 223.455875 -267.717115 
L 223.697565 -269.259818 
L 223.875794 -270.80252 
L 224.010521 -272.345222 
L 224.121794 -273.887924 
L 224.22481 -275.430626 
L 224.328689 -276.973329 
L 224.435622 -278.516031 
L 224.541037 -280.058733 
L 224.636732 -281.601435 
L 224.715473 -283.144137 
L 224.773589 -284.686839 
L 224.811015 -286.229542 
L 224.830998 -287.772244 
L 224.839803 -289.314946 
L 224.844767 -290.857648 
L 224.851153 -292.40035 
L 224.860419 -293.943052 
L 224.870995 -295.485755 
L 224.880357 -297.028457 
L 224.88686 -298.571159 
L 224.890617 -300.113861 
L 224.893299 -301.656563 
L 224.896907 -303.199266 
L 224.940431 -303.199266 
L 224.940431 -303.199266 
L 224.944039 -301.656563 
L 224.94672 -300.113861 
L 224.950477 -298.571159 
L 224.95698 -297.028457 
L 224.966343 -295.485755 
L 224.976918 -293.943052 
L 224.986184 -292.40035 
L 224.99257 -290.857648 
L 224.997534 -289.314946 
L 225.006339 -287.772244 
L 225.026323 -286.229542 
L 225.063749 -284.686839 
L 225.121865 -283.144137 
L 225.200606 -281.601435 
L 225.2963 -280.058733 
L 225.401716 -278.516031 
L 225.508648 -276.973329 
L 225.612528 -275.430626 
L 225.715543 -273.887924 
L 225.826817 -272.345222 
L 225.961544 -270.80252 
L 226.139773 -269.259818 
L 226.381463 -267.717115 
L 226.695682 -266.174413 
L 227.07105 -264.631711 
L 227.480852 -263.089009 
L 227.903552 -261.546307 
L 228.337043 -260.003605 
L 228.788033 -258.460902 
L 229.250552 -256.9182 
L 229.703609 -255.375498 
L 230.133027 -253.832796 
L 230.552518 -252.290094 
L 231.000591 -250.747391 
L 231.512831 -249.204689 
L 232.08874 -247.661987 
L 232.679791 -246.119285 
L 233.213102 -244.576583 
L 233.635155 -243.033881 
L 233.943145 -241.491178 
L 234.187456 -239.948476 
L 234.450418 -238.405774 
L 234.809805 -236.863072 
L 235.297319 -235.32037 
L 235.874916 -233.777667 
L 236.454354 -232.234965 
L 236.956955 -230.692263 
L 237.364961 -229.149561 
L 237.711009 -227.606859 
L 238.017843 -226.064157 
L 238.258967 -224.521454 
L 238.381153 -222.978752 
L 238.358241 -221.43605 
L 238.221553 -219.893348 
L 238.042765 -218.350646 
L 237.888362 -216.807944 
L 237.78573 -215.265241 
L 237.720698 -213.722539 
L 237.650457 -212.179837 
L 237.514951 -210.637135 
L 237.254379 -209.094433 
L 236.836126 -207.55173 
L 236.270076 -206.009028 
L 235.597686 -204.466326 
L 234.869339 -202.923624 
L 234.128627 -201.380922 
L 233.402429 -199.83822 
L 232.692795 -198.295517 
L 231.981234 -196.752815 
L 231.249279 -195.210113 
L 230.497344 -193.667411 
L 229.74614 -192.124709 
L 229.026041 -190.582006 
L 228.36773 -189.039304 
L 227.796793 -187.496602 
L 227.324826 -185.9539 
L 226.939165 -184.411198 
L 226.608076 -182.868496 
L 226.304907 -181.325793 
L 226.027186 -179.783091 
L 225.790263 -178.240389 
L 225.605935 -176.697687 
L 225.470475 -175.154985 
L 225.370088 -173.612282 
L 225.291589 -172.06958 
L 225.226387 -170.526878 
L 225.169329 -168.984176 
L 225.118507 -167.441474 
L 225.075294 -165.898772 
L 225.041782 -164.356069 
L 225.017975 -162.813367 
L 225.001903 -161.270665 
L 224.991297 -159.727963 
L 224.984508 -158.185261 
L 224.98061 -156.642559 
L 224.979024 -155.099856 
L 224.978434 -153.557154 
L 224.976041 -152.014452 
L 224.968929 -150.47175 
z
" style="stroke: #6e6e6e; stroke-width: 0.8"/>
    </defs>
    <g clip-path="url(#p07d4682795)">
     <use xlink:href="#mf25f4fc0ea" x="0" y="395.546562" style="fill: #b8b8b8; stroke: #6e6e6e; stroke-width: 0.8"/>
    </g>
   </g>
   <g id="FillBetweenPolyCollection_5">
    <defs>
     <path id="m3d6fadf2d3" d="M 276.210055 -135.568729 
L 276.187682 -135.568729 
L 276.185999 -137.090555 
L 276.184647 -138.612381 
L 276.183128 -140.134208 
L 276.181502 -141.656034 
L 276.179603 -143.17786 
L 276.176265 -144.699687 
L 276.170128 -146.221513 
L 276.161501 -147.74334 
L 276.152319 -149.265166 
L 276.142637 -150.786992 
L 276.127493 -152.308819 
L 276.099343 -153.830645 
L 276.054716 -155.352472 
L 275.997672 -156.874298 
L 275.935436 -158.396124 
L 275.870501 -159.917951 
L 275.798943 -161.439777 
L 275.716907 -162.961604 
L 275.624019 -164.48343 
L 275.517112 -166.005256 
L 275.384316 -167.527083 
L 275.208697 -169.048909 
L 274.976968 -170.570736 
L 274.687485 -172.092562 
L 274.35542 -173.614388 
L 274.008462 -175.136215 
L 273.667818 -176.658041 
L 273.328776 -178.179868 
L 272.96703 -179.701694 
L 272.570355 -181.22352 
L 272.156026 -182.745347 
L 271.748188 -184.267173 
L 271.346989 -185.789 
L 270.929424 -187.310826 
L 270.468082 -188.832652 
L 269.938753 -190.354479 
L 269.32661 -191.876305 
L 268.642106 -193.398132 
L 267.925354 -194.919958 
L 267.228259 -196.441784 
L 266.59078 -197.963611 
L 266.01979 -199.485437 
L 265.476822 -201.007263 
L 264.895557 -202.52909 
L 264.227744 -204.050916 
L 263.480693 -205.572743 
L 262.7192 -207.094569 
L 262.035904 -208.616395 
L 261.511712 -210.138222 
L 261.190009 -211.660048 
L 261.068562 -213.181875 
L 261.101845 -214.703701 
L 261.22097 -216.225527 
L 261.367807 -217.747354 
L 261.521259 -219.26918 
L 261.708247 -220.791007 
L 261.989967 -222.312833 
L 262.412013 -223.834659 
L 262.959176 -225.356486 
L 263.571222 -226.878312 
L 264.19818 -228.400139 
L 264.828846 -229.921965 
L 265.478769 -231.443791 
L 266.166419 -232.965618 
L 266.890373 -234.487444 
L 267.619579 -236.009271 
L 268.316816 -237.531097 
L 268.97443 -239.052923 
L 269.614762 -240.57475 
L 270.258044 -242.096576 
L 270.904299 -243.618403 
L 271.54492 -245.140229 
L 272.175802 -246.662055 
L 272.790184 -248.183882 
L 273.362855 -249.705708 
L 273.852419 -251.227535 
L 274.229278 -252.749361 
L 274.50302 -254.271187 
L 274.717354 -255.793014 
L 274.91697 -257.31484 
L 275.121206 -258.836666 
L 275.324916 -260.358493 
L 275.513516 -261.880319 
L 275.673644 -263.402146 
L 275.798279 -264.923972 
L 275.889125 -266.445798 
L 275.953805 -267.967625 
L 276.000349 -269.489451 
L 276.034632 -271.011278 
L 276.060763 -272.533104 
L 276.081777 -274.05493 
L 276.099839 -275.576757 
L 276.116137 -277.098583 
L 276.130522 -278.62041 
L 276.141315 -280.142236 
L 276.146532 -281.664062 
L 276.146664 -283.185889 
L 276.146084 -284.707715 
L 276.150302 -286.229542 
L 276.247436 -286.229542 
L 276.247436 -286.229542 
L 276.251654 -284.707715 
L 276.251073 -283.185889 
L 276.251206 -281.664062 
L 276.256423 -280.142236 
L 276.267215 -278.62041 
L 276.281601 -277.098583 
L 276.297899 -275.576757 
L 276.31596 -274.05493 
L 276.336974 -272.533104 
L 276.363105 -271.011278 
L 276.397389 -269.489451 
L 276.443933 -267.967625 
L 276.508613 -266.445798 
L 276.599458 -264.923972 
L 276.724093 -263.402146 
L 276.884222 -261.880319 
L 277.072821 -260.358493 
L 277.276532 -258.836666 
L 277.480768 -257.31484 
L 277.680383 -255.793014 
L 277.894717 -254.271187 
L 278.16846 -252.749361 
L 278.545319 -251.227535 
L 279.034882 -249.705708 
L 279.607554 -248.183882 
L 280.221936 -246.662055 
L 280.852818 -245.140229 
L 281.493438 -243.618403 
L 282.139694 -242.096576 
L 282.782975 -240.57475 
L 283.423308 -239.052923 
L 284.080921 -237.531097 
L 284.778159 -236.009271 
L 285.507365 -234.487444 
L 286.231319 -232.965618 
L 286.918968 -231.443791 
L 287.568892 -229.921965 
L 288.199558 -228.400139 
L 288.826516 -226.878312 
L 289.438562 -225.356486 
L 289.985725 -223.834659 
L 290.40777 -222.312833 
L 290.689491 -220.791007 
L 290.876478 -219.26918 
L 291.029931 -217.747354 
L 291.176767 -216.225527 
L 291.295893 -214.703701 
L 291.329175 -213.181875 
L 291.207729 -211.660048 
L 290.886025 -210.138222 
L 290.361833 -208.616395 
L 289.678538 -207.094569 
L 288.917045 -205.572743 
L 288.169994 -204.050916 
L 287.50218 -202.52909 
L 286.920916 -201.007263 
L 286.377947 -199.485437 
L 285.806958 -197.963611 
L 285.169479 -196.441784 
L 284.472383 -194.919958 
L 283.755631 -193.398132 
L 283.071127 -191.876305 
L 282.458985 -190.354479 
L 281.929655 -188.832652 
L 281.468313 -187.310826 
L 281.050748 -185.789 
L 280.649549 -184.267173 
L 280.241711 -182.745347 
L 279.827382 -181.22352 
L 279.430708 -179.701694 
L 279.068962 -178.179868 
L 278.729919 -176.658041 
L 278.389276 -175.136215 
L 278.042317 -173.614388 
L 277.710253 -172.092562 
L 277.420769 -170.570736 
L 277.189041 -169.048909 
L 277.013421 -167.527083 
L 276.880626 -166.005256 
L 276.773718 -164.48343 
L 276.680831 -162.961604 
L 276.598794 -161.439777 
L 276.527237 -159.917951 
L 276.462301 -158.396124 
L 276.400066 -156.874298 
L 276.343022 -155.352472 
L 276.298394 -153.830645 
L 276.270245 -152.308819 
L 276.2551 -150.786992 
L 276.245419 -149.265166 
L 276.236237 -147.74334 
L 276.22761 -146.221513 
L 276.221472 -144.699687 
L 276.218134 -143.17786 
L 276.216236 -141.656034 
L 276.214609 -140.134208 
L 276.213091 -138.612381 
L 276.211738 -137.090555 
L 276.210055 -135.568729 
z
" style="stroke: #6e6e6e; stroke-width: 0.8"/>
    </defs>
    <g clip-path="url(#p07d4682795)">
     <use xlink:href="#m3d6fadf2d3" x="0" y="395.546562" style="fill: #b8b8b8; stroke: #6e6e6e; stroke-width: 0.8"/>
    </g>
   </g>
   <g id="FillBetweenPolyCollection_6">
    <defs>
     <path id="m55f8217f54" d="M 327.484348 -116.532302 
L 327.47379 -116.532302 
L 327.474735 -118.075004 
L 327.476391 -119.617706 
L 327.476758 -121.160408 
L 327.475392 -122.703111 
L 327.473751 -124.245813 
L 327.473224 -125.788515 
L 327.472702 -127.331217 
L 327.470024 -128.873919 
L 327.465497 -130.416621 
L 327.460587 -131.959324 
L 327.454084 -133.502026 
L 327.444017 -135.044728 
L 327.432639 -136.58743 
L 327.424872 -138.130132 
L 327.420352 -139.672835 
L 327.412862 -141.215537 
L 327.402082 -142.758239 
L 327.394651 -144.300941 
L 327.385995 -145.843643 
L 327.358312 -147.386345 
L 327.306376 -148.929048 
L 327.244123 -150.47175 
L 327.17754 -152.014452 
L 327.0978 -153.557154 
L 327.004979 -155.099856 
L 326.913347 -156.642559 
L 326.833373 -158.185261 
L 326.755857 -159.727963 
L 326.648576 -161.270665 
L 326.483419 -162.813367 
L 326.266437 -164.356069 
L 326.0089 -165.898772 
L 325.699411 -167.441474 
L 325.344962 -168.984176 
L 324.97637 -170.526878 
L 324.600822 -172.06958 
L 324.224899 -173.612282 
L 323.883825 -175.154985 
L 323.588264 -176.697687 
L 323.289095 -178.240389 
L 322.908599 -179.783091 
L 322.38321 -181.325793 
L 321.690208 -182.868496 
L 320.867995 -184.411198 
L 320.012053 -185.9539 
L 319.212914 -187.496602 
L 318.476576 -189.039304 
L 317.721038 -190.582006 
L 316.889683 -192.124709 
L 316.041121 -193.667411 
L 315.253601 -195.210113 
L 314.498367 -196.752815 
L 313.718464 -198.295517 
L 312.952238 -199.83822 
L 312.261198 -201.380922 
L 311.665169 -202.923624 
L 311.203456 -204.466326 
L 310.901883 -206.009028 
L 310.713295 -207.55173 
L 310.606023 -209.094433 
L 310.630637 -210.637135 
L 310.852415 -212.179837 
L 311.262725 -213.722539 
L 311.755689 -215.265241 
L 312.247846 -216.807944 
L 312.817226 -218.350646 
L 313.59944 -219.893348 
L 314.604363 -221.43605 
L 315.738445 -222.978752 
L 316.89799 -224.521454 
L 317.997391 -226.064157 
L 319.01252 -227.606859 
L 319.994088 -229.149561 
L 320.973868 -230.692263 
L 321.899408 -232.234965 
L 322.716751 -233.777667 
L 323.433946 -235.32037 
L 324.071324 -236.863072 
L 324.641865 -238.405774 
L 325.155522 -239.948476 
L 325.598205 -241.491178 
L 325.953947 -243.033881 
L 326.237573 -244.576583 
L 326.47024 -246.119285 
L 326.660756 -247.661987 
L 326.82146 -249.204689 
L 326.965824 -250.747391 
L 327.096262 -252.290094 
L 327.205249 -253.832796 
L 327.28263 -255.375498 
L 327.327424 -256.9182 
L 327.353931 -258.460902 
L 327.3798 -260.003605 
L 327.408709 -261.546307 
L 327.430933 -263.089009 
L 327.439313 -264.631711 
L 327.436998 -266.174413 
L 327.433295 -267.717115 
L 327.437515 -269.259818 
L 327.520622 -269.259818 
L 327.520622 -269.259818 
L 327.524842 -267.717115 
L 327.52114 -266.174413 
L 327.518824 -264.631711 
L 327.527204 -263.089009 
L 327.549429 -261.546307 
L 327.578337 -260.003605 
L 327.604206 -258.460902 
L 327.630713 -256.9182 
L 327.675507 -255.375498 
L 327.752888 -253.832796 
L 327.861875 -252.290094 
L 327.992313 -250.747391 
L 328.136678 -249.204689 
L 328.297381 -247.661987 
L 328.487898 -246.119285 
L 328.720564 -244.576583 
L 329.004191 -243.033881 
L 329.359933 -241.491178 
L 329.802615 -239.948476 
L 330.316272 -238.405774 
L 330.886814 -236.863072 
L 331.524191 -235.32037 
L 332.241387 -233.777667 
L 333.058729 -232.234965 
L 333.984269 -230.692263 
L 334.964049 -229.149561 
L 335.945617 -227.606859 
L 336.960747 -226.064157 
L 338.060147 -224.521454 
L 339.219693 -222.978752 
L 340.353775 -221.43605 
L 341.358697 -219.893348 
L 342.140911 -218.350646 
L 342.710292 -216.807944 
L 343.202449 -215.265241 
L 343.695412 -213.722539 
L 344.105723 -212.179837 
L 344.327501 -210.637135 
L 344.352114 -209.094433 
L 344.244843 -207.55173 
L 344.056254 -206.009028 
L 343.754682 -204.466326 
L 343.292968 -202.923624 
L 342.696939 -201.380922 
L 342.0059 -199.83822 
L 341.239673 -198.295517 
L 340.459771 -196.752815 
L 339.704536 -195.210113 
L 338.917016 -193.667411 
L 338.068454 -192.124709 
L 337.2371 -190.582006 
L 336.481561 -189.039304 
L 335.745223 -187.496602 
L 334.946085 -185.9539 
L 334.090143 -184.411198 
L 333.267929 -182.868496 
L 332.574927 -181.325793 
L 332.049538 -179.783091 
L 331.669042 -178.240389 
L 331.369873 -176.697687 
L 331.074313 -175.154985 
L 330.733239 -173.612282 
L 330.357315 -172.06958 
L 329.981767 -170.526878 
L 329.613175 -168.984176 
L 329.258726 -167.441474 
L 328.949237 -165.898772 
L 328.691701 -164.356069 
L 328.474718 -162.813367 
L 328.309562 -161.270665 
L 328.202281 -159.727963 
L 328.124765 -158.185261 
L 328.044791 -156.642559 
L 327.953159 -155.099856 
L 327.860337 -153.557154 
L 327.780597 -152.014452 
L 327.714015 -150.47175 
L 327.651762 -148.929048 
L 327.599825 -147.386345 
L 327.572143 -145.843643 
L 327.563487 -144.300941 
L 327.556056 -142.758239 
L 327.545276 -141.215537 
L 327.537786 -139.672835 
L 327.533266 -138.130132 
L 327.525499 -136.58743 
L 327.51412 -135.044728 
L 327.504053 -133.502026 
L 327.49755 -131.959324 
L 327.49264 -130.416621 
L 327.488114 -128.873919 
L 327.485435 -127.331217 
L 327.484914 -125.788515 
L 327.484386 -124.245813 
L 327.482746 -122.703111 
L 327.48138 -121.160408 
L 327.481747 -119.617706 
L 327.483403 -118.075004 
L 327.484348 -116.532302 
z
" style="stroke: #6e6e6e; stroke-width: 0.8"/>
    </defs>
    <g clip-path="url(#p07d4682795)">
     <use xlink:href="#m55f8217f54" x="0" y="395.546562" style="fill: #b8b8b8; stroke: #6e6e6e; stroke-width: 0.8"/>
    </g>
   </g>
   <g id="FillBetweenPolyCollection_7">
    <defs>
     <path id="m4eb6389008" d="M 378.773436 -124.509797 
L 378.745101 -124.509797 
L 378.736164 -125.800507 
L 378.724536 -127.091217 
L 378.711275 -128.381927 
L 378.698407 -129.672637 
L 378.688264 -130.963347 
L 378.682113 -132.254057 
L 378.678785 -133.544767 
L 378.67596 -134.835477 
L 378.670292 -136.126187 
L 378.655715 -137.416897 
L 378.627625 -138.707607 
L 378.588651 -139.998317 
L 378.546261 -141.289028 
L 378.507134 -142.579738 
L 378.473866 -143.870448 
L 378.44257 -145.161158 
L 378.403928 -146.451868 
L 378.349083 -147.742578 
L 378.275134 -149.033288 
L 378.187224 -150.323998 
L 378.09605 -151.614708 
L 378.012382 -152.905418 
L 377.944229 -154.196128 
L 377.887068 -155.486838 
L 377.81088 -156.777548 
L 377.683575 -158.068258 
L 377.512823 -159.358969 
L 377.333389 -160.649679 
L 377.159539 -161.940389 
L 376.974512 -163.231099 
L 376.753119 -164.521809 
L 376.481974 -165.812519 
L 376.165783 -167.103229 
L 375.820097 -168.393939 
L 375.455887 -169.684649 
L 375.074523 -170.975359 
L 374.686637 -172.266069 
L 374.306359 -173.556779 
L 373.901274 -174.847489 
L 373.401617 -176.138199 
L 372.791579 -177.42891 
L 372.131939 -178.71962 
L 371.469284 -180.01033 
L 370.776609 -181.30104 
L 369.991916 -182.59175 
L 369.083332 -183.88246 
L 368.071578 -185.17317 
L 367.000109 -186.46388 
L 365.912027 -187.75459 
L 364.858314 -189.0453 
L 363.878241 -190.33601 
L 362.959911 -191.62672 
L 362.065185 -192.91743 
L 361.199255 -194.20814 
L 360.413425 -195.498851 
L 359.754801 -196.789561 
L 359.277039 -198.080271 
L 359.061695 -199.370981 
L 359.13181 -200.661691 
L 359.347143 -201.952401 
L 359.496932 -203.243111 
L 359.550258 -204.533821 
L 359.715392 -205.824531 
L 360.216938 -207.115241 
L 361.110407 -208.405951 
L 362.298479 -209.696661 
L 363.609482 -210.987371 
L 364.8826 -212.278081 
L 366.065229 -213.568792 
L 367.206444 -214.859502 
L 368.361179 -216.150212 
L 369.539624 -217.440922 
L 370.700114 -218.731632 
L 371.769464 -220.022342 
L 372.696851 -221.313052 
L 373.481023 -222.603762 
L 374.15468 -223.894472 
L 374.757198 -225.185182 
L 375.31455 -226.475892 
L 375.841524 -227.766602 
L 376.345241 -229.057312 
L 376.810562 -230.348022 
L 377.20702 -231.638733 
L 377.526082 -232.929443 
L 377.78635 -234.220153 
L 377.999933 -235.510863 
L 378.162464 -236.801573 
L 378.276896 -238.092283 
L 378.361511 -239.382993 
L 378.430927 -240.673703 
L 378.487486 -241.964413 
L 378.532161 -243.255123 
L 378.571265 -244.545833 
L 378.61052 -245.836543 
L 378.648041 -247.127253 
L 378.675781 -248.417963 
L 378.688098 -249.708674 
L 378.690452 -250.999384 
L 378.696968 -252.290094 
L 378.82157 -252.290094 
L 378.82157 -252.290094 
L 378.828085 -250.999384 
L 378.83044 -249.708674 
L 378.842757 -248.417963 
L 378.870496 -247.127253 
L 378.908018 -245.836543 
L 378.947273 -244.545833 
L 378.986376 -243.255123 
L 379.031051 -241.964413 
L 379.087611 -240.673703 
L 379.157027 -239.382993 
L 379.241642 -238.092283 
L 379.356074 -236.801573 
L 379.518605 -235.510863 
L 379.732188 -234.220153 
L 379.992455 -232.929443 
L 380.311517 -231.638733 
L 380.707976 -230.348022 
L 381.173297 -229.057312 
L 381.677014 -227.766602 
L 382.203987 -226.475892 
L 382.76134 -225.185182 
L 383.363858 -223.894472 
L 384.037515 -222.603762 
L 384.821687 -221.313052 
L 385.749074 -220.022342 
L 386.818424 -218.731632 
L 387.978913 -217.440922 
L 389.157358 -216.150212 
L 390.312094 -214.859502 
L 391.453309 -213.568792 
L 392.635938 -212.278081 
L 393.909055 -210.987371 
L 395.220058 -209.696661 
L 396.408131 -208.405951 
L 397.301599 -207.115241 
L 397.803146 -205.824531 
L 397.96828 -204.533821 
L 398.021605 -203.243111 
L 398.171394 -201.952401 
L 398.386728 -200.661691 
L 398.456842 -199.370981 
L 398.241499 -198.080271 
L 397.763737 -196.789561 
L 397.105112 -195.498851 
L 396.319283 -194.20814 
L 395.453353 -192.91743 
L 394.558626 -191.62672 
L 393.640296 -190.33601 
L 392.660223 -189.0453 
L 391.606511 -187.75459 
L 390.518429 -186.46388 
L 389.446959 -185.17317 
L 388.435206 -183.88246 
L 387.526622 -182.59175 
L 386.741929 -181.30104 
L 386.049253 -180.01033 
L 385.386599 -178.71962 
L 384.726959 -177.42891 
L 384.11692 -176.138199 
L 383.617264 -174.847489 
L 383.212179 -173.556779 
L 382.8319 -172.266069 
L 382.444015 -170.975359 
L 382.062651 -169.684649 
L 381.698441 -168.393939 
L 381.352754 -167.103229 
L 381.036563 -165.812519 
L 380.765419 -164.521809 
L 380.544026 -163.231099 
L 380.358999 -161.940389 
L 380.185148 -160.649679 
L 380.005714 -159.358969 
L 379.834963 -158.068258 
L 379.707657 -156.777548 
L 379.631469 -155.486838 
L 379.574308 -154.196128 
L 379.506155 -152.905418 
L 379.422488 -151.614708 
L 379.331314 -150.323998 
L 379.243404 -149.033288 
L 379.169455 -147.742578 
L 379.11461 -146.451868 
L 379.075967 -145.161158 
L 379.044671 -143.870448 
L 379.011403 -142.579738 
L 378.972276 -141.289028 
L 378.929887 -139.998317 
L 378.890912 -138.707607 
L 378.862823 -137.416897 
L 378.848246 -136.126187 
L 378.842578 -134.835477 
L 378.839752 -133.544767 
L 378.836425 -132.254057 
L 378.830273 -130.963347 
L 378.82013 -129.672637 
L 378.807263 -128.381927 
L 378.794001 -127.091217 
L 378.782374 -125.800507 
L 378.773436 -124.509797 
z
" style="stroke: #6e6e6e; stroke-width: 0.8"/>
    </defs>
    <g clip-path="url(#p07d4682795)">
     <use xlink:href="#m4eb6389008" x="0" y="395.546562" style="fill: #b8b8b8; stroke: #6e6e6e; stroke-width: 0.8"/>
    </g>
   </g>
   <g id="FillBetweenPolyCollection_8">
    <defs>
     <path id="m43f82b3f74" d="M 430.04822 -107.383846 
L 430.030717 -107.383846 
L 430.026122 -108.676134 
L 430.019761 -109.968422 
L 430.013664 -111.260711 
L 430.011856 -112.552999 
L 430.015696 -113.845287 
L 430.02131 -115.137575 
L 430.022794 -116.429863 
L 430.017867 -117.722151 
L 430.008114 -119.014439 
L 429.993885 -120.306727 
L 429.974849 -121.599015 
L 429.956215 -122.891304 
L 429.945852 -124.183592 
L 429.943598 -125.47588 
L 429.940184 -126.768168 
L 429.927718 -128.060456 
L 429.906246 -129.352744 
L 429.87827 -130.645032 
L 429.845501 -131.93732 
L 429.812838 -133.229609 
L 429.781269 -134.521897 
L 429.740535 -135.814185 
L 429.68183 -137.106473 
L 429.609824 -138.398761 
L 429.538717 -139.691049 
L 429.483749 -140.983337 
L 429.448867 -142.275625 
L 429.41446 -143.567913 
L 429.351153 -144.860202 
L 429.252059 -146.15249 
L 429.130673 -147.444778 
L 428.994819 -148.737066 
L 428.852823 -150.029354 
L 428.722007 -151.321642 
L 428.603253 -152.61393 
L 428.473323 -153.906218 
L 428.3163 -155.198506 
L 428.134387 -156.490795 
L 427.923636 -157.783083 
L 427.669297 -159.075371 
L 427.359773 -160.367659 
L 426.9911 -161.659947 
L 426.585481 -162.952235 
L 426.195822 -164.244523 
L 425.840242 -165.536811 
L 425.449628 -166.8291 
L 424.921545 -168.121388 
L 424.215868 -169.413676 
L 423.398481 -170.705964 
L 422.59242 -171.998252 
L 421.848419 -173.29054 
L 421.086198 -174.582828 
L 420.21117 -175.875116 
L 419.222482 -177.167404 
L 418.176668 -178.459693 
L 417.137307 -179.751981 
L 416.14931 -181.044269 
L 415.208222 -182.336557 
L 414.307469 -183.628845 
L 413.478954 -184.921133 
L 412.716602 -186.213421 
L 411.956939 -187.505709 
L 411.185977 -188.797998 
L 410.478605 -190.090286 
L 409.926215 -191.382574 
L 409.595708 -192.674862 
L 409.527389 -193.96715 
L 409.712458 -195.259438 
L 410.116043 -196.551726 
L 410.712119 -197.844014 
L 411.448618 -199.136302 
L 412.266756 -200.428591 
L 413.178882 -201.720879 
L 414.231054 -203.013167 
L 415.433698 -204.305455 
L 416.782238 -205.597743 
L 418.242652 -206.890031 
L 419.708841 -208.182319 
L 421.061593 -209.474607 
L 422.257499 -210.766895 
L 423.319769 -212.059184 
L 424.273263 -213.351472 
L 425.121798 -214.64376 
L 425.872128 -215.936048 
L 426.554779 -217.228336 
L 427.19245 -218.520624 
L 427.759137 -219.812912 
L 428.217253 -221.1052 
L 428.571301 -222.397489 
L 428.852118 -223.689777 
L 429.080888 -224.982065 
L 429.269291 -226.274353 
L 429.430165 -227.566641 
L 429.566878 -228.858929 
L 429.667163 -230.151217 
L 429.716861 -231.443505 
L 429.717134 -232.735793 
L 429.703323 -234.028082 
L 429.733759 -235.32037 
L 430.345179 -235.32037 
L 430.345179 -235.32037 
L 430.375615 -234.028082 
L 430.361803 -232.735793 
L 430.362077 -231.443505 
L 430.411775 -230.151217 
L 430.512059 -228.858929 
L 430.648772 -227.566641 
L 430.809646 -226.274353 
L 430.99805 -224.982065 
L 431.22682 -223.689777 
L 431.507637 -222.397489 
L 431.861684 -221.1052 
L 432.319801 -219.812912 
L 432.886487 -218.520624 
L 433.524158 -217.228336 
L 434.20681 -215.936048 
L 434.957139 -214.64376 
L 435.805675 -213.351472 
L 436.759168 -212.059184 
L 437.821438 -210.766895 
L 439.017344 -209.474607 
L 440.370096 -208.182319 
L 441.836285 -206.890031 
L 443.2967 -205.597743 
L 444.64524 -204.305455 
L 445.847884 -203.013167 
L 446.900056 -201.720879 
L 447.812181 -200.428591 
L 448.630319 -199.136302 
L 449.366818 -197.844014 
L 449.962895 -196.551726 
L 450.36648 -195.259438 
L 450.551549 -193.96715 
L 450.483229 -192.674862 
L 450.152723 -191.382574 
L 449.600332 -190.090286 
L 448.89296 -188.797998 
L 448.121998 -187.505709 
L 447.362335 -186.213421 
L 446.599983 -184.921133 
L 445.771469 -183.628845 
L 444.870715 -182.336557 
L 443.929627 -181.044269 
L 442.941631 -179.751981 
L 441.902269 -178.459693 
L 440.856455 -177.167404 
L 439.867768 -175.875116 
L 438.992739 -174.582828 
L 438.230518 -173.29054 
L 437.486517 -171.998252 
L 436.680457 -170.705964 
L 435.86307 -169.413676 
L 435.157392 -168.121388 
L 434.62931 -166.8291 
L 434.238695 -165.536811 
L 433.883116 -164.244523 
L 433.493456 -162.952235 
L 433.087838 -161.659947 
L 432.719165 -160.367659 
L 432.40964 -159.075371 
L 432.155301 -157.783083 
L 431.944551 -156.490795 
L 431.762637 -155.198506 
L 431.605614 -153.906218 
L 431.475685 -152.61393 
L 431.356931 -151.321642 
L 431.226114 -150.029354 
L 431.084119 -148.737066 
L 430.948264 -147.444778 
L 430.826878 -146.15249 
L 430.727785 -144.860202 
L 430.664478 -143.567913 
L 430.630071 -142.275625 
L 430.595188 -140.983337 
L 430.54022 -139.691049 
L 430.469114 -138.398761 
L 430.397107 -137.106473 
L 430.338402 -135.814185 
L 430.297668 -134.521897 
L 430.2661 -133.229609 
L 430.233437 -131.93732 
L 430.200668 -130.645032 
L 430.172692 -129.352744 
L 430.15122 -128.060456 
L 430.138753 -126.768168 
L 430.135339 -125.47588 
L 430.133086 -124.183592 
L 430.122723 -122.891304 
L 430.104089 -121.599015 
L 430.085053 -120.306727 
L 430.070823 -119.014439 
L 430.061071 -117.722151 
L 430.056143 -116.429863 
L 430.057627 -115.137575 
L 430.063242 -113.845287 
L 430.067081 -112.552999 
L 430.065274 -111.260711 
L 430.059176 -109.968422 
L 430.052816 -108.676134 
L 430.04822 -107.383846 
z
" style="stroke: #6e6e6e; stroke-width: 0.8"/>
    </defs>
    <g clip-path="url(#p07d4682795)">
     <use xlink:href="#m43f82b3f74" x="0" y="395.546562" style="fill: #b8b8b8; stroke: #6e6e6e; stroke-width: 0.8"/>
    </g>
   </g>
   <g id="FillBetweenPolyCollection_9">
    <defs>
     <path id="m3462fe6453" d="M 481.337673 -96.28237 
L 481.301664 -96.28237 
L 481.297487 -97.515383 
L 481.295978 -98.748396 
L 481.297708 -99.981409 
L 481.30176 -101.214421 
L 481.305453 -102.447434 
L 481.305836 -103.680447 
L 481.302001 -104.91346 
L 481.295414 -106.146473 
L 481.287594 -107.379486 
L 481.278672 -108.612499 
L 481.269487 -109.845512 
L 481.263171 -111.078525 
L 481.261582 -112.311537 
L 481.261459 -113.54455 
L 481.257565 -114.777563 
L 481.248779 -116.010576 
L 481.237902 -117.243589 
L 481.226404 -118.476602 
L 481.213226 -119.709615 
L 481.199078 -120.942628 
L 481.187919 -122.175641 
L 481.182489 -123.408653 
L 481.181248 -124.641666 
L 481.18079 -125.874679 
L 481.177786 -127.107692 
L 481.167106 -128.340705 
L 481.141265 -129.573718 
L 481.093231 -130.806731 
L 481.019609 -132.039744 
L 480.924157 -133.272757 
L 480.81966 -134.505769 
L 480.722753 -135.738782 
L 480.643597 -136.971795 
L 480.578222 -138.204808 
L 480.508611 -139.437821 
L 480.412685 -140.670834 
L 480.279468 -141.903847 
L 480.117063 -143.13686 
L 479.946786 -144.369873 
L 479.788049 -145.602885 
L 479.644035 -146.835898 
L 479.497198 -148.068911 
L 479.315613 -149.301924 
L 479.066614 -150.534937 
L 478.735465 -151.76795 
L 478.337204 -153.000963 
L 477.902721 -154.233976 
L 477.446719 -155.466988 
L 476.959577 -156.700001 
L 476.436463 -157.933014 
L 475.89167 -159.166027 
L 475.32657 -160.39904 
L 474.702114 -161.632053 
L 473.965762 -162.865066 
L 473.106382 -164.098079 
L 472.173151 -165.331092 
L 471.23436 -166.564104 
L 470.322728 -167.797117 
L 469.426593 -169.03013 
L 468.521336 -170.263143 
L 467.588151 -171.496156 
L 466.606905 -172.729169 
L 465.567183 -173.962182 
L 464.509582 -175.195195 
L 463.535708 -176.428208 
L 462.754244 -177.66122 
L 462.226667 -178.894233 
L 461.958825 -180.127246 
L 461.902741 -181.360259 
L 461.962446 -182.593272 
L 462.034512 -183.826285 
L 462.060919 -185.059298 
L 462.066758 -186.292311 
L 462.171229 -187.525324 
L 462.523459 -188.758336 
L 463.183363 -189.991349 
L 464.083148 -191.224362 
L 465.107918 -192.457375 
L 466.180657 -193.690388 
L 467.284979 -194.923401 
L 468.443011 -196.156414 
L 469.66293 -197.389427 
L 470.895898 -198.62244 
L 472.0487 -199.855452 
L 473.027547 -201.088465 
L 473.771866 -202.321478 
L 474.287299 -203.554491 
L 474.676706 -204.787504 
L 475.117624 -206.020517 
L 475.761962 -207.25353 
L 476.627275 -208.486543 
L 477.585723 -209.719555 
L 478.464912 -210.952568 
L 479.152812 -212.185581 
L 479.616516 -213.418594 
L 479.870232 -214.651607 
L 479.971054 -215.88462 
L 480.034442 -217.117633 
L 480.190108 -218.350646 
L 482.44923 -218.350646 
L 482.44923 -218.350646 
L 482.604895 -217.117633 
L 482.668284 -215.88462 
L 482.769105 -214.651607 
L 483.022822 -213.418594 
L 483.486525 -212.185581 
L 484.174426 -210.952568 
L 485.053614 -209.719555 
L 486.012062 -208.486543 
L 486.877375 -207.25353 
L 487.521714 -206.020517 
L 487.962632 -204.787504 
L 488.352039 -203.554491 
L 488.867471 -202.321478 
L 489.61179 -201.088465 
L 490.590638 -199.855452 
L 491.74344 -198.62244 
L 492.976408 -197.389427 
L 494.196326 -196.156414 
L 495.354359 -194.923401 
L 496.45868 -193.690388 
L 497.53142 -192.457375 
L 498.55619 -191.224362 
L 499.455975 -189.991349 
L 500.115878 -188.758336 
L 500.468109 -187.525324 
L 500.57258 -186.292311 
L 500.578419 -185.059298 
L 500.604826 -183.826285 
L 500.676892 -182.593272 
L 500.736596 -181.360259 
L 500.680513 -180.127246 
L 500.41267 -178.894233 
L 499.885094 -177.66122 
L 499.10363 -176.428208 
L 498.129755 -175.195195 
L 497.072155 -173.962182 
L 496.032432 -172.729169 
L 495.051186 -171.496156 
L 494.118001 -170.263143 
L 493.212745 -169.03013 
L 492.316609 -167.797117 
L 491.404978 -166.564104 
L 490.466186 -165.331092 
L 489.532955 -164.098079 
L 488.673575 -162.865066 
L 487.937224 -161.632053 
L 487.312768 -160.39904 
L 486.747668 -159.166027 
L 486.202875 -157.933014 
L 485.679761 -156.700001 
L 485.192618 -155.466988 
L 484.736616 -154.233976 
L 484.302133 -153.000963 
L 483.903873 -151.76795 
L 483.572724 -150.534937 
L 483.323725 -149.301924 
L 483.14214 -148.068911 
L 482.995303 -146.835898 
L 482.851288 -145.602885 
L 482.692552 -144.369873 
L 482.522274 -143.13686 
L 482.35987 -141.903847 
L 482.226652 -140.670834 
L 482.130727 -139.437821 
L 482.061116 -138.204808 
L 481.99574 -136.971795 
L 481.916584 -135.738782 
L 481.819677 -134.505769 
L 481.71518 -133.272757 
L 481.619729 -132.039744 
L 481.546107 -130.806731 
L 481.498072 -129.573718 
L 481.472232 -128.340705 
L 481.461551 -127.107692 
L 481.458547 -125.874679 
L 481.458089 -124.641666 
L 481.456848 -123.408653 
L 481.451419 -122.175641 
L 481.440259 -120.942628 
L 481.426112 -119.709615 
L 481.412934 -118.476602 
L 481.401435 -117.243589 
L 481.390559 -116.010576 
L 481.381772 -114.777563 
L 481.377879 -113.54455 
L 481.377756 -112.311537 
L 481.376167 -111.078525 
L 481.369851 -109.845512 
L 481.360665 -108.612499 
L 481.351744 -107.379486 
L 481.343924 -106.146473 
L 481.337336 -104.91346 
L 481.333501 -103.680447 
L 481.333884 -102.447434 
L 481.337578 -101.214421 
L 481.34163 -99.981409 
L 481.343359 -98.748396 
L 481.341851 -97.515383 
L 481.337673 -96.28237 
z
" style="stroke: #6e6e6e; stroke-width: 0.8"/>
    </defs>
    <g clip-path="url(#p07d4682795)">
     <use xlink:href="#m3462fe6453" x="0" y="395.546562" style="fill: #b8b8b8; stroke: #6e6e6e; stroke-width: 0.8"/>
    </g>
   </g>
   <g id="FillBetweenPolyCollection_10">
    <defs>
     <path id="me53ed3a3d8" d="M 532.623689 -51.708437 
L 532.576049 -51.708437 
L 532.572097 -53.220281 
L 532.574356 -54.732124 
L 532.581378 -56.243967 
L 532.58857 -57.755811 
L 532.591416 -59.267654 
L 532.587592 -60.779497 
L 532.577536 -62.29134 
L 532.564765 -63.803184 
L 532.554655 -65.315027 
L 532.551092 -66.82687 
L 532.554085 -68.338714 
L 532.560205 -69.850557 
L 532.564783 -71.3624 
L 532.56522 -72.874243 
L 532.56321 -74.386087 
L 532.562304 -75.89793 
L 532.563533 -77.409773 
L 532.564987 -78.921616 
L 532.563922 -80.43346 
L 532.557227 -81.945303 
L 532.542317 -83.457146 
L 532.51996 -84.96899 
L 532.494813 -86.480833 
L 532.472498 -87.992676 
L 532.457236 -89.504519 
L 532.450578 -91.016363 
L 532.449291 -92.528206 
L 532.446415 -94.040049 
L 532.438119 -95.551892 
L 532.427042 -97.063736 
L 532.416253 -98.575579 
L 532.404588 -100.087422 
L 532.390707 -101.599266 
L 532.377562 -103.111109 
L 532.370377 -104.622952 
L 532.37129 -106.134795 
L 532.376897 -107.646639 
L 532.38177 -109.158482 
L 532.382866 -110.670325 
L 532.377761 -112.182168 
L 532.361607 -113.694012 
L 532.331338 -115.205855 
L 532.290267 -116.717698 
L 532.242442 -118.229542 
L 532.183758 -119.741385 
L 532.104884 -121.253228 
L 532.005634 -122.765071 
L 531.9018 -124.276915 
L 531.812749 -125.788758 
L 531.745136 -127.300601 
L 531.689654 -128.812445 
L 531.624565 -130.324288 
L 531.519681 -131.836131 
L 531.34996 -133.347974 
L 531.118526 -134.859818 
L 530.86307 -136.371661 
L 530.621725 -137.883504 
L 530.386715 -139.395347 
L 530.107983 -140.907191 
L 529.747255 -142.419034 
L 529.313087 -143.930877 
L 528.842587 -145.442721 
L 528.361737 -146.954564 
L 527.860938 -148.466407 
L 527.299105 -149.97825 
L 526.629542 -151.490094 
L 525.827066 -153.001937 
L 524.904873 -154.51378 
L 523.913447 -156.025623 
L 522.905478 -157.537467 
L 521.889716 -159.04931 
L 520.837951 -160.561153 
L 519.740056 -162.072997 
L 518.625841 -163.58484 
L 517.546002 -165.096683 
L 516.565435 -166.608526 
L 515.7448 -168.12037 
L 515.093057 -169.632213 
L 514.58343 -171.144056 
L 514.245346 -172.655899 
L 514.179133 -174.167743 
L 514.449792 -175.679586 
L 515.017285 -177.191429 
L 515.787042 -178.703273 
L 516.686022 -180.215116 
L 517.670364 -181.726959 
L 518.680563 -183.238802 
L 519.616878 -184.750646 
L 520.382349 -186.262489 
L 520.966051 -187.774332 
L 521.470795 -189.286176 
L 522.025745 -190.798019 
L 522.668838 -192.309862 
L 523.329063 -193.821705 
L 523.884512 -195.333549 
L 524.220024 -196.845392 
L 524.370034 -198.357235 
L 524.708121 -199.869078 
L 525.766511 -201.380922 
L 539.433227 -201.380922 
L 539.433227 -201.380922 
L 540.491616 -199.869078 
L 540.829704 -198.357235 
L 540.979714 -196.845392 
L 541.315226 -195.333549 
L 541.870675 -193.821705 
L 542.5309 -192.309862 
L 543.173992 -190.798019 
L 543.728943 -189.286176 
L 544.233687 -187.774332 
L 544.817389 -186.262489 
L 545.58286 -184.750646 
L 546.519175 -183.238802 
L 547.529373 -181.726959 
L 548.513716 -180.215116 
L 549.412696 -178.703273 
L 550.182452 -177.191429 
L 550.749945 -175.679586 
L 551.020605 -174.167743 
L 550.954391 -172.655899 
L 550.616307 -171.144056 
L 550.10668 -169.632213 
L 549.454938 -168.12037 
L 548.634303 -166.608526 
L 547.653736 -165.096683 
L 546.573896 -163.58484 
L 545.459681 -162.072997 
L 544.361787 -160.561153 
L 543.310021 -159.04931 
L 542.294259 -157.537467 
L 541.286291 -156.025623 
L 540.294865 -154.51378 
L 539.372672 -153.001937 
L 538.570196 -151.490094 
L 537.900633 -149.97825 
L 537.3388 -148.466407 
L 536.838001 -146.954564 
L 536.357151 -145.442721 
L 535.886651 -143.930877 
L 535.452483 -142.419034 
L 535.091754 -140.907191 
L 534.813023 -139.395347 
L 534.578012 -137.883504 
L 534.336667 -136.371661 
L 534.081211 -134.859818 
L 533.849777 -133.347974 
L 533.680057 -131.836131 
L 533.575172 -130.324288 
L 533.510084 -128.812445 
L 533.454602 -127.300601 
L 533.386988 -125.788758 
L 533.297938 -124.276915 
L 533.194104 -122.765071 
L 533.094854 -121.253228 
L 533.01598 -119.741385 
L 532.957295 -118.229542 
L 532.90947 -116.717698 
L 532.868399 -115.205855 
L 532.83813 -113.694012 
L 532.821976 -112.182168 
L 532.816871 -110.670325 
L 532.817968 -109.158482 
L 532.822841 -107.646639 
L 532.828448 -106.134795 
L 532.829361 -104.622952 
L 532.822175 -103.111109 
L 532.80903 -101.599266 
L 532.795149 -100.087422 
L 532.783485 -98.575579 
L 532.772696 -97.063736 
L 532.761618 -95.551892 
L 532.753322 -94.040049 
L 532.750447 -92.528206 
L 532.74916 -91.016363 
L 532.742501 -89.504519 
L 532.727239 -87.992676 
L 532.704925 -86.480833 
L 532.679778 -84.96899 
L 532.65742 -83.457146 
L 532.64251 -81.945303 
L 532.635815 -80.43346 
L 532.634751 -78.921616 
L 532.636204 -77.409773 
L 532.637433 -75.89793 
L 532.636528 -74.386087 
L 532.634517 -72.874243 
L 532.634955 -71.3624 
L 532.639532 -69.850557 
L 532.645653 -68.338714 
L 532.648645 -66.82687 
L 532.645083 -65.315027 
L 532.634973 -63.803184 
L 532.622202 -62.29134 
L 532.612146 -60.779497 
L 532.608321 -59.267654 
L 532.611167 -57.755811 
L 532.61836 -56.243967 
L 532.625382 -54.732124 
L 532.62764 -53.220281 
L 532.623689 -51.708437 
z
" style="stroke: #6e6e6e; stroke-width: 0.8"/>
    </defs>
    <g clip-path="url(#p07d4682795)">
     <use xlink:href="#me53ed3a3d8" x="0" y="395.546562" style="fill: #b8b8b8; stroke: #6e6e6e; stroke-width: 0.8"/>
    </g>
   </g>
   <g id="matplotlib.axis_1">
    <g id="xtick_1">
     <g id="line2d_1">
      <defs>
       <path id="m56379e3475" d="M 0 0 
L 0 3.5 
" style="stroke: #000000; stroke-width: 0.8"/>
      </defs>
      <g>
       <use xlink:href="#m56379e3475" x="71.078069" y="358.958125" style="stroke: #000000; stroke-width: 0.8"/>
      </g>
     </g>
     <g id="text_1">
      <!-- 0.5 -->
      <g transform="translate(63.921663 372.796719) scale(0.09 -0.09)">
       <defs>
        <path id="DejaVuSans-30" d="M 2034 4250 
Q 1547 4250 1301 3770 
Q 1056 3291 1056 2328 
Q 1056 1369 1301 889 
Q 1547 409 2034 409 
Q 2525 409 2770 889 
Q 3016 1369 3016 2328 
Q 3016 3291 2770 3770 
Q 2525 4250 2034 4250 
z
M 2034 4750 
Q 2819 4750 3233 4129 
Q 3647 3509 3647 2328 
Q 3647 1150 3233 529 
Q 2819 -91 2034 -91 
Q 1250 -91 836 529 
Q 422 1150 422 2328 
Q 422 3509 836 4129 
Q 1250 4750 2034 4750 
z
" transform="scale(0.015625)"/>
        <path id="DejaVuSans-2e" d="M 684 794 
L 1344 794 
L 1344 0 
L 684 0 
L 684 794 
z
" transform="scale(0.015625)"/>
        <path id="DejaVuSans-35" d="M 691 4666 
L 3169 4666 
L 3169 4134 
L 1269 4134 
L 1269 2991 
Q 1406 3038 1543 3061 
Q 1681 3084 1819 3084 
Q 2600 3084 3056 2656 
Q 3513 2228 3513 1497 
Q 3513 744 3044 326 
Q 2575 -91 1722 -91 
Q 1428 -91 1123 -41 
Q 819 9 494 109 
L 494 744 
Q 775 591 1075 516 
Q 1375 441 1709 441 
Q 2250 441 2565 725 
Q 2881 1009 2881 1497 
Q 2881 1984 2565 2268 
Q 2250 2553 1709 2553 
Q 1456 2553 1204 2497 
Q 953 2441 691 2322 
L 691 4666 
z
" transform="scale(0.015625)"/>
       </defs>
       <use xlink:href="#DejaVuSans-30"/>
       <use xlink:href="#DejaVuSans-2e" transform="translate(63.623047 0)"/>
       <use xlink:href="#DejaVuSans-35" transform="translate(95.410156 0)"/>
      </g>
     </g>
    </g>
    <g id="xtick_2">
     <g id="line2d_2">
      <g>
       <use xlink:href="#m56379e3475" x="122.358269" y="358.958125" style="stroke: #000000; stroke-width: 0.8"/>
      </g>
     </g>
     <g id="text_2">
      <!-- 1.0 -->
      <g transform="translate(115.201863 372.796719) scale(0.09 -0.09)">
       <defs>
        <path id="DejaVuSans-31" d="M 794 531 
L 1825 531 
L 1825 4091 
L 703 3866 
L 703 4441 
L 1819 4666 
L 2450 4666 
L 2450 531 
L 3481 531 
L 3481 0 
L 794 0 
L 794 531 
z
" transform="scale(0.015625)"/>
       </defs>
       <use xlink:href="#DejaVuSans-31"/>
       <use xlink:href="#DejaVuSans-2e" transform="translate(63.623047 0)"/>
       <use xlink:href="#DejaVuSans-30" transform="translate(95.410156 0)"/>
      </g>
     </g>
    </g>
    <g id="xtick_3">
     <g id="line2d_3">
      <g>
       <use xlink:href="#m56379e3475" x="173.638469" y="358.958125" style="stroke: #000000; stroke-width: 0.8"/>
      </g>
     </g>
     <g id="text_3">
      <!-- 1.5 -->
      <g transform="translate(166.482063 372.796719) scale(0.09 -0.09)">
       <use xlink:href="#DejaVuSans-31"/>
       <use xlink:href="#DejaVuSans-2e" transform="translate(63.623047 0)"/>
       <use xlink:href="#DejaVuSans-35" transform="translate(95.410156 0)"/>
      </g>
     </g>
    </g>
    <g id="xtick_4">
     <g id="line2d_4">
      <g>
       <use xlink:href="#m56379e3475" x="224.918669" y="358.958125" style="stroke: #000000; stroke-width: 0.8"/>
      </g>
     </g>
     <g id="text_4">
      <!-- 2.0 -->
      <g transform="translate(217.762263 372.796719) scale(0.09 -0.09)">
       <defs>
        <path id="DejaVuSans-32" d="M 1228 531 
L 3431 531 
L 3431 0 
L 469 0 
L 469 531 
Q 828 903 1448 1529 
Q 2069 2156 2228 2338 
Q 2531 2678 2651 2914 
Q 2772 3150 2772 3378 
Q 2772 3750 2511 3984 
Q 2250 4219 1831 4219 
Q 1534 4219 1204 4116 
Q 875 4013 500 3803 
L 500 4441 
Q 881 4594 1212 4672 
Q 1544 4750 1819 4750 
Q 2544 4750 2975 4387 
Q 3406 4025 3406 3419 
Q 3406 3131 3298 2873 
Q 3191 2616 2906 2266 
Q 2828 2175 2409 1742 
Q 1991 1309 1228 531 
z
" transform="scale(0.015625)"/>
       </defs>
       <use xlink:href="#DejaVuSans-32"/>
       <use xlink:href="#DejaVuSans-2e" transform="translate(63.623047 0)"/>
       <use xlink:href="#DejaVuSans-30" transform="translate(95.410156 0)"/>
      </g>
     </g>
    </g>
    <g id="xtick_5">
     <g id="line2d_5">
      <g>
       <use xlink:href="#m56379e3475" x="276.198869" y="358.958125" style="stroke: #000000; stroke-width: 0.8"/>
      </g>
     </g>
     <g id="text_5">
      <!-- 2.5 -->
      <g transform="translate(269.042463 372.796719) scale(0.09 -0.09)">
       <use xlink:href="#DejaVuSans-32"/>
       <use xlink:href="#DejaVuSans-2e" transform="translate(63.623047 0)"/>
       <use xlink:href="#DejaVuSans-35" transform="translate(95.410156 0)"/>
      </g>
     </g>
    </g>
    <g id="xtick_6">
     <g id="line2d_6">
      <g>
       <use xlink:href="#m56379e3475" x="327.479069" y="358.958125" style="stroke: #000000; stroke-width: 0.8"/>
      </g>
     </g>
     <g id="text_6">
      <!-- 3.0 -->
      <g transform="translate(320.322663 372.796719) scale(0.09 -0.09)">
       <defs>
        <path id="DejaVuSans-33" d="M 2597 2516 
Q 3050 2419 3304 2112 
Q 3559 1806 3559 1356 
Q 3559 666 3084 287 
Q 2609 -91 1734 -91 
Q 1441 -91 1130 -33 
Q 819 25 488 141 
L 488 750 
Q 750 597 1062 519 
Q 1375 441 1716 441 
Q 2309 441 2620 675 
Q 2931 909 2931 1356 
Q 2931 1769 2642 2001 
Q 2353 2234 1838 2234 
L 1294 2234 
L 1294 2753 
L 1863 2753 
Q 2328 2753 2575 2939 
Q 2822 3125 2822 3475 
Q 2822 3834 2567 4026 
Q 2313 4219 1838 4219 
Q 1578 4219 1281 4162 
Q 984 4106 628 3988 
L 628 4550 
Q 988 4650 1302 4700 
Q 1616 4750 1894 4750 
Q 2613 4750 3031 4423 
Q 3450 4097 3450 3541 
Q 3450 3153 3228 2886 
Q 3006 2619 2597 2516 
z
" transform="scale(0.015625)"/>
       </defs>
       <use xlink:href="#DejaVuSans-33"/>
       <use xlink:href="#DejaVuSans-2e" transform="translate(63.623047 0)"/>
       <use xlink:href="#DejaVuSans-30" transform="translate(95.410156 0)"/>
      </g>
     </g>
    </g>
    <g id="xtick_7">
     <g id="line2d_7">
      <g>
       <use xlink:href="#m56379e3475" x="378.759269" y="358.958125" style="stroke: #000000; stroke-width: 0.8"/>
      </g>
     </g>
     <g id="text_7">
      <!-- 3.5 -->
      <g transform="translate(371.602863 372.796719) scale(0.09 -0.09)">
       <use xlink:href="#DejaVuSans-33"/>
       <use xlink:href="#DejaVuSans-2e" transform="translate(63.623047 0)"/>
       <use xlink:href="#DejaVuSans-35" transform="translate(95.410156 0)"/>
      </g>
     </g>
    </g>
    <g id="xtick_8">
     <g id="line2d_8">
      <g>
       <use xlink:href="#m56379e3475" x="430.039469" y="358.958125" style="stroke: #000000; stroke-width: 0.8"/>
      </g>
     </g>
     <g id="text_8">
      <!-- 4.0 -->
      <g transform="translate(422.883063 372.796719) scale(0.09 -0.09)">
       <defs>
        <path id="DejaVuSans-34" d="M 2419 4116 
L 825 1625 
L 2419 1625 
L 2419 4116 
z
M 2253 4666 
L 3047 4666 
L 3047 1625 
L 3713 1625 
L 3713 1100 
L 3047 1100 
L 3047 0 
L 2419 0 
L 2419 1100 
L 313 1100 
L 313 1709 
L 2253 4666 
z
" transform="scale(0.015625)"/>
       </defs>
       <use xlink:href="#DejaVuSans-34"/>
       <use xlink:href="#DejaVuSans-2e" transform="translate(63.623047 0)"/>
       <use xlink:href="#DejaVuSans-30" transform="translate(95.410156 0)"/>
      </g>
     </g>
    </g>
    <g id="xtick_9">
     <g id="line2d_9">
      <g>
       <use xlink:href="#m56379e3475" x="481.319669" y="358.958125" style="stroke: #000000; stroke-width: 0.8"/>
      </g>
     </g>
     <g id="text_9">
      <!-- 4.5 -->
      <g transform="translate(474.163263 372.796719) scale(0.09 -0.09)">
       <use xlink:href="#DejaVuSans-34"/>
       <use xlink:href="#DejaVuSans-2e" transform="translate(63.623047 0)"/>
       <use xlink:href="#DejaVuSans-35" transform="translate(95.410156 0)"/>
      </g>
     </g>
    </g>
    <g id="xtick_10">
     <g id="line2d_10">
      <g>
       <use xlink:href="#m56379e3475" x="532.599869" y="358.958125" style="stroke: #000000; stroke-width: 0.8"/>
      </g>
     </g>
     <g id="text_10">
      <!-- 5.0 -->
      <g transform="translate(525.443463 372.796719) scale(0.09 -0.09)">
       <use xlink:href="#DejaVuSans-35"/>
       <use xlink:href="#DejaVuSans-2e" transform="translate(63.623047 0)"/>
       <use xlink:href="#DejaVuSans-30" transform="translate(95.410156 0)"/>
      </g>
     </g>
    </g>
    <g id="text_11">
     <!-- Observed rating -->
     <g transform="translate(261.381156 386.266875) scale(0.1 -0.1)">
      <defs>
       <path id="DejaVuSans-4f" d="M 2522 4238 
Q 1834 4238 1429 3725 
Q 1025 3213 1025 2328 
Q 1025 1447 1429 934 
Q 1834 422 2522 422 
Q 3209 422 3611 934 
Q 4013 1447 4013 2328 
Q 4013 3213 3611 3725 
Q 3209 4238 2522 4238 
z
M 2522 4750 
Q 3503 4750 4090 4092 
Q 4678 3434 4678 2328 
Q 4678 1225 4090 567 
Q 3503 -91 2522 -91 
Q 1538 -91 948 565 
Q 359 1222 359 2328 
Q 359 3434 948 4092 
Q 1538 4750 2522 4750 
z
" transform="scale(0.015625)"/>
       <path id="DejaVuSans-62" d="M 3116 1747 
Q 3116 2381 2855 2742 
Q 2594 3103 2138 3103 
Q 1681 3103 1420 2742 
Q 1159 2381 1159 1747 
Q 1159 1113 1420 752 
Q 1681 391 2138 391 
Q 2594 391 2855 752 
Q 3116 1113 3116 1747 
z
M 1159 2969 
Q 1341 3281 1617 3432 
Q 1894 3584 2278 3584 
Q 2916 3584 3314 3078 
Q 3713 2572 3713 1747 
Q 3713 922 3314 415 
Q 2916 -91 2278 -91 
Q 1894 -91 1617 61 
Q 1341 213 1159 525 
L 1159 0 
L 581 0 
L 581 4863 
L 1159 4863 
L 1159 2969 
z
" transform="scale(0.015625)"/>
       <path id="DejaVuSans-73" d="M 2834 3397 
L 2834 2853 
Q 2591 2978 2328 3040 
Q 2066 3103 1784 3103 
Q 1356 3103 1142 2972 
Q 928 2841 928 2578 
Q 928 2378 1081 2264 
Q 1234 2150 1697 2047 
L 1894 2003 
Q 2506 1872 2764 1633 
Q 3022 1394 3022 966 
Q 3022 478 2636 193 
Q 2250 -91 1575 -91 
Q 1294 -91 989 -36 
Q 684 19 347 128 
L 347 722 
Q 666 556 975 473 
Q 1284 391 1588 391 
Q 1994 391 2212 530 
Q 2431 669 2431 922 
Q 2431 1156 2273 1281 
Q 2116 1406 1581 1522 
L 1381 1569 
Q 847 1681 609 1914 
Q 372 2147 372 2553 
Q 372 3047 722 3315 
Q 1072 3584 1716 3584 
Q 2034 3584 2315 3537 
Q 2597 3491 2834 3397 
z
" transform="scale(0.015625)"/>
       <path id="DejaVuSans-65" d="M 3597 1894 
L 3597 1613 
L 953 1613 
Q 991 1019 1311 708 
Q 1631 397 2203 397 
Q 2534 397 2845 478 
Q 3156 559 3463 722 
L 3463 178 
Q 3153 47 2828 -22 
Q 2503 -91 2169 -91 
Q 1331 -91 842 396 
Q 353 884 353 1716 
Q 353 2575 817 3079 
Q 1281 3584 2069 3584 
Q 2775 3584 3186 3129 
Q 3597 2675 3597 1894 
z
M 3022 2063 
Q 3016 2534 2758 2815 
Q 2500 3097 2075 3097 
Q 1594 3097 1305 2825 
Q 1016 2553 972 2059 
L 3022 2063 
z
" transform="scale(0.015625)"/>
       <path id="DejaVuSans-72" d="M 2631 2963 
Q 2534 3019 2420 3045 
Q 2306 3072 2169 3072 
Q 1681 3072 1420 2755 
Q 1159 2438 1159 1844 
L 1159 0 
L 581 0 
L 581 3500 
L 1159 3500 
L 1159 2956 
Q 1341 3275 1631 3429 
Q 1922 3584 2338 3584 
Q 2397 3584 2469 3576 
Q 2541 3569 2628 3553 
L 2631 2963 
z
" transform="scale(0.015625)"/>
       <path id="DejaVuSans-76" d="M 191 3500 
L 800 3500 
L 1894 563 
L 2988 3500 
L 3597 3500 
L 2284 0 
L 1503 0 
L 191 3500 
z
" transform="scale(0.015625)"/>
       <path id="DejaVuSans-64" d="M 2906 2969 
L 2906 4863 
L 3481 4863 
L 3481 0 
L 2906 0 
L 2906 525 
Q 2725 213 2448 61 
Q 2172 -91 1784 -91 
Q 1150 -91 751 415 
Q 353 922 353 1747 
Q 353 2572 751 3078 
Q 1150 3584 1784 3584 
Q 2172 3584 2448 3432 
Q 2725 3281 2906 2969 
z
M 947 1747 
Q 947 1113 1208 752 
Q 1469 391 1925 391 
Q 2381 391 2643 752 
Q 2906 1113 2906 1747 
Q 2906 2381 2643 2742 
Q 2381 3103 1925 3103 
Q 1469 3103 1208 2742 
Q 947 2381 947 1747 
z
" transform="scale(0.015625)"/>
       <path id="DejaVuSans-20" transform="scale(0.015625)"/>
       <path id="DejaVuSans-61" d="M 2194 1759 
Q 1497 1759 1228 1600 
Q 959 1441 959 1056 
Q 959 750 1161 570 
Q 1363 391 1709 391 
Q 2188 391 2477 730 
Q 2766 1069 2766 1631 
L 2766 1759 
L 2194 1759 
z
M 3341 1997 
L 3341 0 
L 2766 0 
L 2766 531 
Q 2569 213 2275 61 
Q 1981 -91 1556 -91 
Q 1019 -91 701 211 
Q 384 513 384 1019 
Q 384 1609 779 1909 
Q 1175 2209 1959 2209 
L 2766 2209 
L 2766 2266 
Q 2766 2663 2505 2880 
Q 2244 3097 1772 3097 
Q 1472 3097 1187 3025 
Q 903 2953 641 2809 
L 641 3341 
Q 956 3463 1253 3523 
Q 1550 3584 1831 3584 
Q 2591 3584 2966 3190 
Q 3341 2797 3341 1997 
z
" transform="scale(0.015625)"/>
       <path id="DejaVuSans-74" d="M 1172 4494 
L 1172 3500 
L 2356 3500 
L 2356 3053 
L 1172 3053 
L 1172 1153 
Q 1172 725 1289 603 
Q 1406 481 1766 481 
L 2356 481 
L 2356 0 
L 1766 0 
Q 1100 0 847 248 
Q 594 497 594 1153 
L 594 3053 
L 172 3053 
L 172 3500 
L 594 3500 
L 594 4494 
L 1172 4494 
z
" transform="scale(0.015625)"/>
       <path id="DejaVuSans-69" d="M 603 3500 
L 1178 3500 
L 1178 0 
L 603 0 
L 603 3500 
z
M 603 4863 
L 1178 4863 
L 1178 4134 
L 603 4134 
L 603 4863 
z
" transform="scale(0.015625)"/>
       <path id="DejaVuSans-6e" d="M 3513 2113 
L 3513 0 
L 2938 0 
L 2938 2094 
Q 2938 2591 2744 2837 
Q 2550 3084 2163 3084 
Q 1697 3084 1428 2787 
Q 1159 2491 1159 1978 
L 1159 0 
L 581 0 
L 581 3500 
L 1159 3500 
L 1159 2956 
Q 1366 3272 1645 3428 
Q 1925 3584 2291 3584 
Q 2894 3584 3203 3211 
Q 3513 2838 3513 2113 
z
" transform="scale(0.015625)"/>
       <path id="DejaVuSans-67" d="M 2906 1791 
Q 2906 2416 2648 2759 
Q 2391 3103 1925 3103 
Q 1463 3103 1205 2759 
Q 947 2416 947 1791 
Q 947 1169 1205 825 
Q 1463 481 1925 481 
Q 2391 481 2648 825 
Q 2906 1169 2906 1791 
z
M 3481 434 
Q 3481 -459 3084 -895 
Q 2688 -1331 1869 -1331 
Q 1566 -1331 1297 -1286 
Q 1028 -1241 775 -1147 
L 775 -588 
Q 1028 -725 1275 -790 
Q 1522 -856 1778 -856 
Q 2344 -856 2625 -561 
Q 2906 -266 2906 331 
L 2906 616 
Q 2728 306 2450 153 
Q 2172 0 1784 0 
Q 1141 0 747 490 
Q 353 981 353 1791 
Q 353 2603 747 3093 
Q 1141 3584 1784 3584 
Q 2172 3584 2450 3431 
Q 2728 3278 2906 2969 
L 2906 3500 
L 3481 3500 
L 3481 434 
z
" transform="scale(0.015625)"/>
      </defs>
      <use xlink:href="#DejaVuSans-4f"/>
      <use xlink:href="#DejaVuSans-62" transform="translate(78.710938 0)"/>
      <use xlink:href="#DejaVuSans-73" transform="translate(142.1875 0)"/>
      <use xlink:href="#DejaVuSans-65" transform="translate(194.287109 0)"/>
      <use xlink:href="#DejaVuSans-72" transform="translate(255.810547 0)"/>
      <use xlink:href="#DejaVuSans-76" transform="translate(296.923828 0)"/>
      <use xlink:href="#DejaVuSans-65" transform="translate(356.103516 0)"/>
      <use xlink:href="#DejaVuSans-64" transform="translate(417.626953 0)"/>
      <use xlink:href="#DejaVuSans-20" transform="translate(481.103516 0)"/>
      <use xlink:href="#DejaVuSans-72" transform="translate(512.890625 0)"/>
      <use xlink:href="#DejaVuSans-61" transform="translate(554.003906 0)"/>
      <use xlink:href="#DejaVuSans-74" transform="translate(615.283203 0)"/>
      <use xlink:href="#DejaVuSans-69" transform="translate(654.492188 0)"/>
      <use xlink:href="#DejaVuSans-6e" transform="translate(682.275391 0)"/>
      <use xlink:href="#DejaVuSans-67" transform="translate(745.654297 0)"/>
     </g>
    </g>
   </g>
   <g id="matplotlib.axis_2">
    <g id="ytick_1">
     <g id="line2d_11">
      <defs>
       <path id="m0a58be782c" d="M 0 0 
L -3.5 0 
" style="stroke: #000000; stroke-width: 0.8"/>
      </defs>
      <g>
       <use xlink:href="#m0a58be782c" x="45.437969" y="329.923433" style="stroke: #000000; stroke-width: 0.8"/>
      </g>
     </g>
     <g id="text_12">
      <!-- -4.0 -->
      <g transform="translate(20.878125 333.342729) scale(0.09 -0.09)">
       <defs>
        <path id="DejaVuSans-2d" d="M 313 2009 
L 1997 2009 
L 1997 1497 
L 313 1497 
L 313 2009 
z
" transform="scale(0.015625)"/>
       </defs>
       <use xlink:href="#DejaVuSans-2d"/>
       <use xlink:href="#DejaVuSans-34" transform="translate(36.083984 0)"/>
       <use xlink:href="#DejaVuSans-2e" transform="translate(99.707031 0)"/>
       <use xlink:href="#DejaVuSans-30" transform="translate(131.494141 0)"/>
      </g>
     </g>
    </g>
    <g id="ytick_2">
     <g id="line2d_12">
      <g>
       <use xlink:href="#m0a58be782c" x="45.437969" y="262.044537" style="stroke: #000000; stroke-width: 0.8"/>
      </g>
     </g>
     <g id="text_13">
      <!-- -2.0 -->
      <g transform="translate(20.878125 265.463834) scale(0.09 -0.09)">
       <use xlink:href="#DejaVuSans-2d"/>
       <use xlink:href="#DejaVuSans-32" transform="translate(36.083984 0)"/>
       <use xlink:href="#DejaVuSans-2e" transform="translate(99.707031 0)"/>
       <use xlink:href="#DejaVuSans-30" transform="translate(131.494141 0)"/>
      </g>
     </g>
    </g>
    <g id="ytick_3">
     <g id="line2d_13">
      <g>
       <use xlink:href="#m0a58be782c" x="45.437969" y="194.165641" style="stroke: #000000; stroke-width: 0.8"/>
      </g>
     </g>
     <g id="text_14">
      <!-- 0.0 -->
      <g transform="translate(24.125156 197.584938) scale(0.09 -0.09)">
       <use xlink:href="#DejaVuSans-30"/>
       <use xlink:href="#DejaVuSans-2e" transform="translate(63.623047 0)"/>
       <use xlink:href="#DejaVuSans-30" transform="translate(95.410156 0)"/>
      </g>
     </g>
    </g>
    <g id="ytick_4">
     <g id="line2d_14">
      <g>
       <use xlink:href="#m0a58be782c" x="45.437969" y="126.286745" style="stroke: #000000; stroke-width: 0.8"/>
      </g>
     </g>
     <g id="text_15">
      <!-- 2.0 -->
      <g transform="translate(24.125156 129.706042) scale(0.09 -0.09)">
       <use xlink:href="#DejaVuSans-32"/>
       <use xlink:href="#DejaVuSans-2e" transform="translate(63.623047 0)"/>
       <use xlink:href="#DejaVuSans-30" transform="translate(95.410156 0)"/>
      </g>
     </g>
    </g>
    <g id="ytick_5">
     <g id="line2d_15">
      <g>
       <use xlink:href="#m0a58be782c" x="45.437969" y="58.407849" style="stroke: #000000; stroke-width: 0.8"/>
      </g>
     </g>
     <g id="text_16">
      <!-- 4.0 -->
      <g transform="translate(24.125156 61.827146) scale(0.09 -0.09)">
       <use xlink:href="#DejaVuSans-34"/>
       <use xlink:href="#DejaVuSans-2e" transform="translate(63.623047 0)"/>
       <use xlink:href="#DejaVuSans-30" transform="translate(95.410156 0)"/>
      </g>
     </g>
    </g>
    <g id="text_17">
     <!-- Residual (predicted - observed) -->
     <g transform="translate(14.798438 271.124062) rotate(-90) scale(0.1 -0.1)">
      <defs>
       <path id="DejaVuSans-52" d="M 2841 2188 
Q 3044 2119 3236 1894 
Q 3428 1669 3622 1275 
L 4263 0 
L 3584 0 
L 2988 1197 
Q 2756 1666 2539 1819 
Q 2322 1972 1947 1972 
L 1259 1972 
L 1259 0 
L 628 0 
L 628 4666 
L 2053 4666 
Q 2853 4666 3247 4331 
Q 3641 3997 3641 3322 
Q 3641 2881 3436 2590 
Q 3231 2300 2841 2188 
z
M 1259 4147 
L 1259 2491 
L 2053 2491 
Q 2509 2491 2742 2702 
Q 2975 2913 2975 3322 
Q 2975 3731 2742 3939 
Q 2509 4147 2053 4147 
L 1259 4147 
z
" transform="scale(0.015625)"/>
       <path id="DejaVuSans-75" d="M 544 1381 
L 544 3500 
L 1119 3500 
L 1119 1403 
Q 1119 906 1312 657 
Q 1506 409 1894 409 
Q 2359 409 2629 706 
Q 2900 1003 2900 1516 
L 2900 3500 
L 3475 3500 
L 3475 0 
L 2900 0 
L 2900 538 
Q 2691 219 2414 64 
Q 2138 -91 1772 -91 
Q 1169 -91 856 284 
Q 544 659 544 1381 
z
M 1991 3584 
L 1991 3584 
z
" transform="scale(0.015625)"/>
       <path id="DejaVuSans-6c" d="M 603 4863 
L 1178 4863 
L 1178 0 
L 603 0 
L 603 4863 
z
" transform="scale(0.015625)"/>
       <path id="DejaVuSans-28" d="M 1984 4856 
Q 1566 4138 1362 3434 
Q 1159 2731 1159 2009 
Q 1159 1288 1364 580 
Q 1569 -128 1984 -844 
L 1484 -844 
Q 1016 -109 783 600 
Q 550 1309 550 2009 
Q 550 2706 781 3412 
Q 1013 4119 1484 4856 
L 1984 4856 
z
" transform="scale(0.015625)"/>
       <path id="DejaVuSans-70" d="M 1159 525 
L 1159 -1331 
L 581 -1331 
L 581 3500 
L 1159 3500 
L 1159 2969 
Q 1341 3281 1617 3432 
Q 1894 3584 2278 3584 
Q 2916 3584 3314 3078 
Q 3713 2572 3713 1747 
Q 3713 922 3314 415 
Q 2916 -91 2278 -91 
Q 1894 -91 1617 61 
Q 1341 213 1159 525 
z
M 3116 1747 
Q 3116 2381 2855 2742 
Q 2594 3103 2138 3103 
Q 1681 3103 1420 2742 
Q 1159 2381 1159 1747 
Q 1159 1113 1420 752 
Q 1681 391 2138 391 
Q 2594 391 2855 752 
Q 3116 1113 3116 1747 
z
" transform="scale(0.015625)"/>
       <path id="DejaVuSans-63" d="M 3122 3366 
L 3122 2828 
Q 2878 2963 2633 3030 
Q 2388 3097 2138 3097 
Q 1578 3097 1268 2742 
Q 959 2388 959 1747 
Q 959 1106 1268 751 
Q 1578 397 2138 397 
Q 2388 397 2633 464 
Q 2878 531 3122 666 
L 3122 134 
Q 2881 22 2623 -34 
Q 2366 -91 2075 -91 
Q 1284 -91 818 406 
Q 353 903 353 1747 
Q 353 2603 823 3093 
Q 1294 3584 2113 3584 
Q 2378 3584 2631 3529 
Q 2884 3475 3122 3366 
z
" transform="scale(0.015625)"/>
       <path id="DejaVuSans-6f" d="M 1959 3097 
Q 1497 3097 1228 2736 
Q 959 2375 959 1747 
Q 959 1119 1226 758 
Q 1494 397 1959 397 
Q 2419 397 2687 759 
Q 2956 1122 2956 1747 
Q 2956 2369 2687 2733 
Q 2419 3097 1959 3097 
z
M 1959 3584 
Q 2709 3584 3137 3096 
Q 3566 2609 3566 1747 
Q 3566 888 3137 398 
Q 2709 -91 1959 -91 
Q 1206 -91 779 398 
Q 353 888 353 1747 
Q 353 2609 779 3096 
Q 1206 3584 1959 3584 
z
" transform="scale(0.015625)"/>
       <path id="DejaVuSans-29" d="M 513 4856 
L 1013 4856 
Q 1481 4119 1714 3412 
Q 1947 2706 1947 2009 
Q 1947 1309 1714 600 
Q 1481 -109 1013 -844 
L 513 -844 
Q 928 -128 1133 580 
Q 1338 1288 1338 2009 
Q 1338 2731 1133 3434 
Q 928 4138 513 4856 
z
" transform="scale(0.015625)"/>
      </defs>
      <use xlink:href="#DejaVuSans-52"/>
      <use xlink:href="#DejaVuSans-65" transform="translate(64.982422 0)"/>
      <use xlink:href="#DejaVuSans-73" transform="translate(126.505859 0)"/>
      <use xlink:href="#DejaVuSans-69" transform="translate(178.605469 0)"/>
      <use xlink:href="#DejaVuSans-64" transform="translate(206.388672 0)"/>
      <use xlink:href="#DejaVuSans-75" transform="translate(269.865234 0)"/>
      <use xlink:href="#DejaVuSans-61" transform="translate(333.244141 0)"/>
      <use xlink:href="#DejaVuSans-6c" transform="translate(394.523438 0)"/>
      <use xlink:href="#DejaVuSans-20" transform="translate(422.306641 0)"/>
      <use xlink:href="#DejaVuSans-28" transform="translate(454.09375 0)"/>
      <use xlink:href="#DejaVuSans-70" transform="translate(493.107422 0)"/>
      <use xlink:href="#DejaVuSans-72" transform="translate(556.583984 0)"/>
      <use xlink:href="#DejaVuSans-65" transform="translate(595.447266 0)"/>
      <use xlink:href="#DejaVuSans-64" transform="translate(656.970703 0)"/>
      <use xlink:href="#DejaVuSans-69" transform="translate(720.447266 0)"/>
      <use xlink:href="#DejaVuSans-63" transform="translate(748.230469 0)"/>
      <use xlink:href="#DejaVuSans-74" transform="translate(803.210938 0)"/>
      <use xlink:href="#DejaVuSans-65" transform="translate(842.419922 0)"/>
      <use xlink:href="#DejaVuSans-64" transform="translate(903.943359 0)"/>
      <use xlink:href="#DejaVuSans-20" transform="translate(967.419922 0)"/>
      <use xlink:href="#DejaVuSans-2d" transform="translate(999.207031 0)"/>
      <use xlink:href="#DejaVuSans-20" transform="translate(1035.291016 0)"/>
      <use xlink:href="#DejaVuSans-6f" transform="translate(1067.078125 0)"/>
      <use xlink:href="#DejaVuSans-62" transform="translate(1128.259766 0)"/>
      <use xlink:href="#DejaVuSans-73" transform="translate(1191.736328 0)"/>
      <use xlink:href="#DejaVuSans-65" transform="translate(1243.835938 0)"/>
      <use xlink:href="#DejaVuSans-72" transform="translate(1305.359375 0)"/>
      <use xlink:href="#DejaVuSans-76" transform="translate(1346.472656 0)"/>
      <use xlink:href="#DejaVuSans-65" transform="translate(1405.652344 0)"/>
      <use xlink:href="#DejaVuSans-64" transform="translate(1467.175781 0)"/>
      <use xlink:href="#DejaVuSans-29" transform="translate(1530.652344 0)"/>
     </g>
    </g>
   </g>
   <g id="line2d_16">
    <path d="M 61.506914 174.832276 
L 80.649224 174.832276 
" clip-path="url(#p07d4682795)" style="fill: none; stroke-dasharray: 1,0.6; stroke-dashoffset: 0; stroke: #6e6e6e; stroke-width: 0.8"/>
   </g>
   <g id="line2d_17">
    <path d="M 61.536256 157.311764 
L 80.619881 157.311764 
" clip-path="url(#p07d4682795)" style="fill: none; stroke-dasharray: 2,0.8; stroke-dashoffset: 0; stroke: #6e6e6e; stroke-width: 0.8"/>
   </g>
   <g id="line2d_18">
    <path d="M 64.981952 133.481999 
L 77.174185 133.481999 
" clip-path="url(#p07d4682795)" style="fill: none; stroke-dasharray: 1,0.6; stroke-dashoffset: 0; stroke: #6e6e6e; stroke-width: 0.8"/>
   </g>
   <g id="line2d_19">
    <path d="M 111.010625 172.813802 
L 133.705913 172.813802 
" clip-path="url(#p07d4682795)" style="fill: none; stroke-dasharray: 1,0.6; stroke-dashoffset: 0; stroke: #6e6e6e; stroke-width: 0.8"/>
   </g>
   <g id="line2d_20">
    <path d="M 110.104756 158.886794 
L 134.611781 158.886794 
" clip-path="url(#p07d4682795)" style="fill: none; stroke-dasharray: 2,0.8; stroke-dashoffset: 0; stroke: #6e6e6e; stroke-width: 0.8"/>
   </g>
   <g id="line2d_21">
    <path d="M 114.039158 140.630195 
L 130.677379 140.630195 
" clip-path="url(#p07d4682795)" style="fill: none; stroke-dasharray: 1,0.6; stroke-dashoffset: 0; stroke: #6e6e6e; stroke-width: 0.8"/>
   </g>
   <g id="line2d_22">
    <path d="M 162.312141 180.958078 
L 184.964797 180.958078 
" clip-path="url(#p07d4682795)" style="fill: none; stroke-dasharray: 1,0.6; stroke-dashoffset: 0; stroke: #6e6e6e; stroke-width: 0.8"/>
   </g>
   <g id="line2d_23">
    <path d="M 161.751136 165.698274 
L 185.525801 165.698274 
" clip-path="url(#p07d4682795)" style="fill: none; stroke-dasharray: 2,0.8; stroke-dashoffset: 0; stroke: #6e6e6e; stroke-width: 0.8"/>
   </g>
   <g id="line2d_24">
    <path d="M 163.348455 149.985575 
L 183.928483 149.985575 
" clip-path="url(#p07d4682795)" style="fill: none; stroke-dasharray: 1,0.6; stroke-dashoffset: 0; stroke: #6e6e6e; stroke-width: 0.8"/>
   </g>
   <g id="line2d_25">
    <path d="M 212.706445 186.907601 
L 237.130893 186.907601 
" clip-path="url(#p07d4682795)" style="fill: none; stroke-dasharray: 1,0.6; stroke-dashoffset: 0; stroke: #6e6e6e; stroke-width: 0.8"/>
   </g>
   <g id="line2d_26">
    <path d="M 211.4634 173.053638 
L 238.373938 173.053638 
" clip-path="url(#p07d4682795)" style="fill: none; stroke-dasharray: 2,0.8; stroke-dashoffset: 0; stroke: #6e6e6e; stroke-width: 0.8"/>
   </g>
   <g id="line2d_27">
    <path d="M 215.184885 158.00804 
L 234.652452 158.00804 
" clip-path="url(#p07d4682795)" style="fill: none; stroke-dasharray: 1,0.6; stroke-dashoffset: 0; stroke: #6e6e6e; stroke-width: 0.8"/>
   </g>
   <g id="line2d_28">
    <path d="M 265.037428 193.388909 
L 287.36031 193.388909 
" clip-path="url(#p07d4682795)" style="fill: none; stroke-dasharray: 1,0.6; stroke-dashoffset: 0; stroke: #6e6e6e; stroke-width: 0.8"/>
   </g>
   <g id="line2d_29">
    <path d="M 261.142273 180.32639 
L 291.255465 180.32639 
" clip-path="url(#p07d4682795)" style="fill: none; stroke-dasharray: 2,0.8; stroke-dashoffset: 0; stroke: #6e6e6e; stroke-width: 0.8"/>
   </g>
   <g id="line2d_30">
    <path d="M 264.090757 167.407172 
L 288.30698 167.407172 
" clip-path="url(#p07d4682795)" style="fill: none; stroke-dasharray: 1,0.6; stroke-dashoffset: 0; stroke: #6e6e6e; stroke-width: 0.8"/>
   </g>
   <g id="line2d_31">
    <path d="M 315.200542 200.228066 
L 339.757596 200.228066 
" clip-path="url(#p07d4682795)" style="fill: none; stroke-dasharray: 1,0.6; stroke-dashoffset: 0; stroke: #6e6e6e; stroke-width: 0.8"/>
   </g>
   <g id="line2d_32">
    <path d="M 310.730065 188.132013 
L 344.228073 188.132013 
" clip-path="url(#p07d4682795)" style="fill: none; stroke-dasharray: 2,0.8; stroke-dashoffset: 0; stroke: #6e6e6e; stroke-width: 0.8"/>
   </g>
   <g id="line2d_33">
    <path d="M 312.917025 176.999091 
L 342.041112 176.999091 
" clip-path="url(#p07d4682795)" style="fill: none; stroke-dasharray: 1,0.6; stroke-dashoffset: 0; stroke: #6e6e6e; stroke-width: 0.8"/>
   </g>
   <g id="line2d_34">
    <path d="M 364.679067 206.265202 
L 392.83947 206.265202 
" clip-path="url(#p07d4682795)" style="fill: none; stroke-dasharray: 1,0.6; stroke-dashoffset: 0; stroke: #6e6e6e; stroke-width: 0.8"/>
   </g>
   <g id="line2d_35">
    <path d="M 359.075318 195.924796 
L 398.443219 195.924796 
" clip-path="url(#p07d4682795)" style="fill: none; stroke-dasharray: 2,0.8; stroke-dashoffset: 0; stroke: #6e6e6e; stroke-width: 0.8"/>
   </g>
   <g id="line2d_36">
    <path d="M 361.762033 186.432691 
L 395.756504 186.432691 
" clip-path="url(#p07d4682795)" style="fill: none; stroke-dasharray: 1,0.6; stroke-dashoffset: 0; stroke: #6e6e6e; stroke-width: 0.8"/>
   </g>
   <g id="line2d_37">
    <path d="M 415.946962 214.224431 
L 444.131976 214.224431 
" clip-path="url(#p07d4682795)" style="fill: none; stroke-dasharray: 1,0.6; stroke-dashoffset: 0; stroke: #6e6e6e; stroke-width: 0.8"/>
   </g>
   <g id="line2d_38">
    <path d="M 409.842262 203.835731 
L 450.236676 203.835731 
" clip-path="url(#p07d4682795)" style="fill: none; stroke-dasharray: 2,0.8; stroke-dashoffset: 0; stroke: #6e6e6e; stroke-width: 0.8"/>
   </g>
   <g id="line2d_39">
    <path d="M 412.608063 194.634413 
L 447.470874 194.634413 
" clip-path="url(#p07d4682795)" style="fill: none; stroke-dasharray: 1,0.6; stroke-dashoffset: 0; stroke: #6e6e6e; stroke-width: 0.8"/>
   </g>
   <g id="line2d_40">
    <path d="M 466.78684 223.043496 
L 495.852497 223.043496 
" clip-path="url(#p07d4682795)" style="fill: none; stroke-dasharray: 1,0.6; stroke-dashoffset: 0; stroke: #6e6e6e; stroke-width: 0.8"/>
   </g>
   <g id="line2d_41">
    <path d="M 461.960177 213.000148 
L 500.679161 213.000148 
" clip-path="url(#p07d4682795)" style="fill: none; stroke-dasharray: 2,0.8; stroke-dashoffset: 0; stroke: #6e6e6e; stroke-width: 0.8"/>
   </g>
   <g id="line2d_42">
    <path d="M 464.823348 203.431584 
L 497.815989 203.431584 
" clip-path="url(#p07d4682795)" style="fill: none; stroke-dasharray: 1,0.6; stroke-dashoffset: 0; stroke: #6e6e6e; stroke-width: 0.8"/>
   </g>
   <g id="line2d_43">
    <path d="M 519.184946 232.720354 
L 546.014792 232.720354 
" clip-path="url(#p07d4682795)" style="fill: none; stroke-dasharray: 1,0.6; stroke-dashoffset: 0; stroke: #6e6e6e; stroke-width: 0.8"/>
   </g>
   <g id="line2d_44">
    <path d="M 514.201862 221.897792 
L 550.997876 221.897792 
" clip-path="url(#p07d4682795)" style="fill: none; stroke-dasharray: 2,0.8; stroke-dashoffset: 0; stroke: #6e6e6e; stroke-width: 0.8"/>
   </g>
   <g id="line2d_45">
    <path d="M 519.541618 210.917437 
L 545.65812 210.917437 
" clip-path="url(#p07d4682795)" style="fill: none; stroke-dasharray: 1,0.6; stroke-dashoffset: 0; stroke: #6e6e6e; stroke-width: 0.8"/>
   </g>
   <g id="line2d_46">
    <path d="M 45.437969 194.165641 
L 558.239969 194.165641 
" clip-path="url(#p07d4682795)" style="fill: none; stroke-dasharray: 3.7,1.6; stroke-dashoffset: 0; stroke: #0d0d0d"/>
   </g>
   <g id="patch_3">
    <path d="M 45.437969 358.958125 
L 45.437969 26.318125 
" style="fill: none; stroke: #333333; stroke-width: 0.8; stroke-linejoin: miter; stroke-linecap: square"/>
   </g>
   <g id="patch_4">
    <path d="M 45.437969 358.958125 
L 558.239969 358.958125 
" style="fill: none; stroke: #333333; stroke-width: 0.8; stroke-linejoin: miter; stroke-linecap: square"/>
   </g>
   <g id="text_18">
    <!-- Residuals by observed rating -->
    <g transform="translate(45.437969 16.318125) scale(0.12 -0.12)">
     <defs>
      <path id="DejaVuSans-Bold-52" d="M 2297 2597 
Q 2675 2597 2839 2737 
Q 3003 2878 3003 3200 
Q 3003 3519 2839 3656 
Q 2675 3794 2297 3794 
L 1791 3794 
L 1791 2597 
L 2297 2597 
z
M 1791 1766 
L 1791 0 
L 588 0 
L 588 4666 
L 2425 4666 
Q 3347 4666 3776 4356 
Q 4206 4047 4206 3378 
Q 4206 2916 3982 2619 
Q 3759 2322 3309 2181 
Q 3556 2125 3751 1926 
Q 3947 1728 4147 1325 
L 4800 0 
L 3519 0 
L 2950 1159 
Q 2778 1509 2601 1637 
Q 2425 1766 2131 1766 
L 1791 1766 
z
" transform="scale(0.015625)"/>
      <path id="DejaVuSans-Bold-65" d="M 4031 1759 
L 4031 1441 
L 1416 1441 
Q 1456 1047 1700 850 
Q 1944 653 2381 653 
Q 2734 653 3104 758 
Q 3475 863 3866 1075 
L 3866 213 
Q 3469 63 3072 -14 
Q 2675 -91 2278 -91 
Q 1328 -91 801 392 
Q 275 875 275 1747 
Q 275 2603 792 3093 
Q 1309 3584 2216 3584 
Q 3041 3584 3536 3087 
Q 4031 2591 4031 1759 
z
M 2881 2131 
Q 2881 2450 2695 2645 
Q 2509 2841 2209 2841 
Q 1884 2841 1681 2658 
Q 1478 2475 1428 2131 
L 2881 2131 
z
" transform="scale(0.015625)"/>
      <path id="DejaVuSans-Bold-73" d="M 3272 3391 
L 3272 2541 
Q 2913 2691 2578 2766 
Q 2244 2841 1947 2841 
Q 1628 2841 1473 2761 
Q 1319 2681 1319 2516 
Q 1319 2381 1436 2309 
Q 1553 2238 1856 2203 
L 2053 2175 
Q 2913 2066 3209 1816 
Q 3506 1566 3506 1031 
Q 3506 472 3093 190 
Q 2681 -91 1863 -91 
Q 1516 -91 1145 -36 
Q 775 19 384 128 
L 384 978 
Q 719 816 1070 734 
Q 1422 653 1784 653 
Q 2113 653 2278 743 
Q 2444 834 2444 1013 
Q 2444 1163 2330 1236 
Q 2216 1309 1875 1350 
L 1678 1375 
Q 931 1469 631 1722 
Q 331 1975 331 2491 
Q 331 3047 712 3315 
Q 1094 3584 1881 3584 
Q 2191 3584 2531 3537 
Q 2872 3491 3272 3391 
z
" transform="scale(0.015625)"/>
      <path id="DejaVuSans-Bold-69" d="M 538 3500 
L 1656 3500 
L 1656 0 
L 538 0 
L 538 3500 
z
M 538 4863 
L 1656 4863 
L 1656 3950 
L 538 3950 
L 538 4863 
z
" transform="scale(0.015625)"/>
      <path id="DejaVuSans-Bold-64" d="M 2919 2988 
L 2919 4863 
L 4044 4863 
L 4044 0 
L 2919 0 
L 2919 506 
Q 2688 197 2409 53 
Q 2131 -91 1766 -91 
Q 1119 -91 703 423 
Q 288 938 288 1747 
Q 288 2556 703 3070 
Q 1119 3584 1766 3584 
Q 2128 3584 2408 3439 
Q 2688 3294 2919 2988 
z
M 2181 722 
Q 2541 722 2730 984 
Q 2919 1247 2919 1747 
Q 2919 2247 2730 2509 
Q 2541 2772 2181 2772 
Q 1825 2772 1636 2509 
Q 1447 2247 1447 1747 
Q 1447 1247 1636 984 
Q 1825 722 2181 722 
z
" transform="scale(0.015625)"/>
      <path id="DejaVuSans-Bold-75" d="M 500 1363 
L 500 3500 
L 1625 3500 
L 1625 3150 
Q 1625 2866 1622 2436 
Q 1619 2006 1619 1863 
Q 1619 1441 1641 1255 
Q 1663 1069 1716 984 
Q 1784 875 1895 815 
Q 2006 756 2150 756 
Q 2500 756 2700 1025 
Q 2900 1294 2900 1772 
L 2900 3500 
L 4019 3500 
L 4019 0 
L 2900 0 
L 2900 506 
Q 2647 200 2364 54 
Q 2081 -91 1741 -91 
Q 1134 -91 817 281 
Q 500 653 500 1363 
z
" transform="scale(0.015625)"/>
      <path id="DejaVuSans-Bold-61" d="M 2106 1575 
Q 1756 1575 1579 1456 
Q 1403 1338 1403 1106 
Q 1403 894 1545 773 
Q 1688 653 1941 653 
Q 2256 653 2472 879 
Q 2688 1106 2688 1447 
L 2688 1575 
L 2106 1575 
z
M 3816 1997 
L 3816 0 
L 2688 0 
L 2688 519 
Q 2463 200 2181 54 
Q 1900 -91 1497 -91 
Q 953 -91 614 226 
Q 275 544 275 1050 
Q 275 1666 698 1953 
Q 1122 2241 2028 2241 
L 2688 2241 
L 2688 2328 
Q 2688 2594 2478 2717 
Q 2269 2841 1825 2841 
Q 1466 2841 1156 2769 
Q 847 2697 581 2553 
L 581 3406 
Q 941 3494 1303 3539 
Q 1666 3584 2028 3584 
Q 2975 3584 3395 3211 
Q 3816 2838 3816 1997 
z
" transform="scale(0.015625)"/>
      <path id="DejaVuSans-Bold-6c" d="M 538 4863 
L 1656 4863 
L 1656 0 
L 538 0 
L 538 4863 
z
" transform="scale(0.015625)"/>
      <path id="DejaVuSans-Bold-20" transform="scale(0.015625)"/>
      <path id="DejaVuSans-Bold-62" d="M 2400 722 
Q 2759 722 2948 984 
Q 3138 1247 3138 1747 
Q 3138 2247 2948 2509 
Q 2759 2772 2400 2772 
Q 2041 2772 1848 2508 
Q 1656 2244 1656 1747 
Q 1656 1250 1848 986 
Q 2041 722 2400 722 
z
M 1656 2988 
Q 1888 3294 2169 3439 
Q 2450 3584 2816 3584 
Q 3463 3584 3878 3070 
Q 4294 2556 4294 1747 
Q 4294 938 3878 423 
Q 3463 -91 2816 -91 
Q 2450 -91 2169 54 
Q 1888 200 1656 506 
L 1656 0 
L 538 0 
L 538 4863 
L 1656 4863 
L 1656 2988 
z
" transform="scale(0.015625)"/>
      <path id="DejaVuSans-Bold-79" d="M 78 3500 
L 1197 3500 
L 2138 1125 
L 2938 3500 
L 4056 3500 
L 2584 -331 
Q 2363 -916 2067 -1148 
Q 1772 -1381 1288 -1381 
L 641 -1381 
L 641 -647 
L 991 -647 
Q 1275 -647 1404 -556 
Q 1534 -466 1606 -231 
L 1638 -134 
L 78 3500 
z
" transform="scale(0.015625)"/>
      <path id="DejaVuSans-Bold-6f" d="M 2203 2784 
Q 1831 2784 1636 2517 
Q 1441 2250 1441 1747 
Q 1441 1244 1636 976 
Q 1831 709 2203 709 
Q 2569 709 2762 976 
Q 2956 1244 2956 1747 
Q 2956 2250 2762 2517 
Q 2569 2784 2203 2784 
z
M 2203 3584 
Q 3106 3584 3614 3096 
Q 4122 2609 4122 1747 
Q 4122 884 3614 396 
Q 3106 -91 2203 -91 
Q 1297 -91 786 396 
Q 275 884 275 1747 
Q 275 2609 786 3096 
Q 1297 3584 2203 3584 
z
" transform="scale(0.015625)"/>
      <path id="DejaVuSans-Bold-72" d="M 3138 2547 
Q 2991 2616 2845 2648 
Q 2700 2681 2553 2681 
Q 2122 2681 1889 2404 
Q 1656 2128 1656 1613 
L 1656 0 
L 538 0 
L 538 3500 
L 1656 3500 
L 1656 2925 
Q 1872 3269 2151 3426 
Q 2431 3584 2822 3584 
Q 2878 3584 2943 3579 
Q 3009 3575 3134 3559 
L 3138 2547 
z
" transform="scale(0.015625)"/>
      <path id="DejaVuSans-Bold-76" d="M 97 3500 
L 1216 3500 
L 2088 1081 
L 2956 3500 
L 4078 3500 
L 2700 0 
L 1472 0 
L 97 3500 
z
" transform="scale(0.015625)"/>
      <path id="DejaVuSans-Bold-74" d="M 1759 4494 
L 1759 3500 
L 2913 3500 
L 2913 2700 
L 1759 2700 
L 1759 1216 
Q 1759 972 1856 886 
Q 1953 800 2241 800 
L 2816 800 
L 2816 0 
L 1856 0 
Q 1194 0 917 276 
Q 641 553 641 1216 
L 641 2700 
L 84 2700 
L 84 3500 
L 641 3500 
L 641 4494 
L 1759 4494 
z
" transform="scale(0.015625)"/>
      <path id="DejaVuSans-Bold-6e" d="M 4056 2131 
L 4056 0 
L 2931 0 
L 2931 347 
L 2931 1631 
Q 2931 2084 2911 2256 
Q 2891 2428 2841 2509 
Q 2775 2619 2662 2680 
Q 2550 2741 2406 2741 
Q 2056 2741 1856 2470 
Q 1656 2200 1656 1722 
L 1656 0 
L 538 0 
L 538 3500 
L 1656 3500 
L 1656 2988 
Q 1909 3294 2193 3439 
Q 2478 3584 2822 3584 
Q 3428 3584 3742 3212 
Q 4056 2841 4056 2131 
z
" transform="scale(0.015625)"/>
      <path id="DejaVuSans-Bold-67" d="M 2919 594 
Q 2688 288 2409 144 
Q 2131 0 1766 0 
Q 1125 0 706 504 
Q 288 1009 288 1791 
Q 288 2575 706 3076 
Q 1125 3578 1766 3578 
Q 2131 3578 2409 3434 
Q 2688 3291 2919 2981 
L 2919 3500 
L 4044 3500 
L 4044 353 
Q 4044 -491 3511 -936 
Q 2978 -1381 1966 -1381 
Q 1638 -1381 1331 -1331 
Q 1025 -1281 716 -1178 
L 716 -306 
Q 1009 -475 1290 -558 
Q 1572 -641 1856 -641 
Q 2406 -641 2662 -400 
Q 2919 -159 2919 353 
L 2919 594 
z
M 2181 2772 
Q 1834 2772 1640 2515 
Q 1447 2259 1447 1791 
Q 1447 1309 1634 1061 
Q 1822 813 2181 813 
Q 2531 813 2725 1069 
Q 2919 1325 2919 1791 
Q 2919 2259 2725 2515 
Q 2531 2772 2181 2772 
z
" transform="scale(0.015625)"/>
     </defs>
     <use xlink:href="#DejaVuSans-Bold-52"/>
     <use xlink:href="#DejaVuSans-Bold-65" transform="translate(77.001953 0)"/>
     <use xlink:href="#DejaVuSans-Bold-73" transform="translate(144.824219 0)"/>
     <use xlink:href="#DejaVuSans-Bold-69" transform="translate(204.345703 0)"/>
     <use xlink:href="#DejaVuSans-Bold-64" transform="translate(238.623047 0)"/>
     <use xlink:href="#DejaVuSans-Bold-75" transform="translate(310.205078 0)"/>
     <use xlink:href="#DejaVuSans-Bold-61" transform="translate(381.396484 0)"/>
     <use xlink:href="#DejaVuSans-Bold-6c" transform="translate(448.876953 0)"/>
     <use xlink:href="#DejaVuSans-Bold-73" transform="translate(483.154297 0)"/>
     <use xlink:href="#DejaVuSans-Bold-20" transform="translate(542.675781 0)"/>
     <use xlink:href="#DejaVuSans-Bold-62" transform="translate(577.490234 0)"/>
     <use xlink:href="#DejaVuSans-Bold-79" transform="translate(649.072266 0)"/>
     <use xlink:href="#DejaVuSans-Bold-20" transform="translate(714.257812 0)"/>
     <use xlink:href="#DejaVuSans-Bold-6f" transform="translate(749.072266 0)"/>
     <use xlink:href="#DejaVuSans-Bold-62" transform="translate(817.773438 0)"/>
     <use xlink:href="#DejaVuSans-Bold-73" transform="translate(889.355469 0)"/>
     <use xlink:href="#DejaVuSans-Bold-65" transform="translate(948.876953 0)"/>
     <use xlink:href="#DejaVuSans-Bold-72" transform="translate(1016.699219 0)"/>
     <use xlink:href="#DejaVuSans-Bold-76" transform="translate(1066.015625 0)"/>
     <use xlink:href="#DejaVuSans-Bold-65" transform="translate(1131.201172 0)"/>
     <use xlink:href="#DejaVuSans-Bold-64" transform="translate(1199.023438 0)"/>
     <use xlink:href="#DejaVuSans-Bold-20" transform="translate(1270.605469 0)"/>
     <use xlink:href="#DejaVuSans-Bold-72" transform="translate(1305.419922 0)"/>
     <use xlink:href="#DejaVuSans-Bold-61" transform="translate(1354.736328 0)"/>
     <use xlink:href="#DejaVuSans-Bold-74" transform="translate(1422.216797 0)"/>
     <use xlink:href="#DejaVuSans-Bold-69" transform="translate(1470.019531 0)"/>
     <use xlink:href="#DejaVuSans-Bold-6e" transform="translate(1504.296875 0)"/>
     <use xlink:href="#DejaVuSans-Bold-67" transform="translate(1575.488281 0)"/>
    </g>
   </g>
   <g id="legend_1">
    <g id="line2d_47">
     <path d="M 54.437969 39.416562 
L 64.437969 39.416562 
L 74.437969 39.416562 
" style="fill: none; stroke-dasharray: 3.7,1.6; stroke-dashoffset: 0; stroke: #0d0d0d"/>
    </g>
    <g id="text_19">
     <!-- Zero residual -->
     <g transform="translate(82.437969 42.916562) scale(0.1 -0.1)">
      <defs>
       <path id="DejaVuSans-5a" d="M 359 4666 
L 4025 4666 
L 4025 4184 
L 1075 531 
L 4097 531 
L 4097 0 
L 288 0 
L 288 481 
L 3238 4134 
L 359 4134 
L 359 4666 
z
" transform="scale(0.015625)"/>
      </defs>
      <use xlink:href="#DejaVuSans-5a"/>
      <use xlink:href="#DejaVuSans-65" transform="translate(68.505859 0)"/>
      <use xlink:href="#DejaVuSans-72" transform="translate(130.029297 0)"/>
      <use xlink:href="#DejaVuSans-6f" transform="translate(168.892578 0)"/>
      <use xlink:href="#DejaVuSans-20" transform="translate(230.074219 0)"/>
      <use xlink:href="#DejaVuSans-72" transform="translate(261.861328 0)"/>
      <use xlink:href="#DejaVuSans-65" transform="translate(300.724609 0)"/>
      <use xlink:href="#DejaVuSans-73" transform="translate(362.248047 0)"/>
      <use xlink:href="#DejaVuSans-69" transform="translate(414.347656 0)"/>
      <use xlink:href="#DejaVuSans-64" transform="translate(442.130859 0)"/>
      <use xlink:href="#DejaVuSans-75" transform="translate(505.607422 0)"/>
      <use xlink:href="#DejaVuSans-61" transform="translate(568.986328 0)"/>
      <use xlink:href="#DejaVuSans-6c" transform="translate(630.265625 0)"/>
     </g>
    </g>
   </g>
  </g>
 </g>
 <defs>
  <clipPath id="p07d4682795">
   <rect x="45.437969" y="26.318125" width="512.802" height="332.64"/>
  </clipPath>
 </defs>
</svg>
