<?xml version="1.0" encoding="utf-8" standalone="no"?>
<!DOCTYPE svg PUBLIC "-//W3C//DTD SVG 1.1//EN"
  "http://www.w3.org/Graphics/SVG/1.1/DTD/svg11.dtd">
<svg xmlns:xlink="http://www.w3.org/1999/xlink" width="567.919187pt" height="439.898562pt" viewBox="0 0 567.919187 439.898562" xmlns="http://www.w3.org/2000/svg" version="1.1">
 <metadata>
  <rdf:RDF xmlns:dc="http://purl.org/dc/elements/1.1/" xmlns:cc="http://creativecommons.org/ns#" xmlns:rdf="http://www.w3.org/1999/02/22-rdf-syntax-ns#">
   <cc:Work>
    <dc:type rdf:resource="http://purl.org/dc/dcmitype/StillImage"/>
    <dc:date>2026-04-27T15:29:37.559590</dc:date>
    <dc:format>image/svg+xml</dc:format>
    <dc:creator>
     <cc:Agent>
      <dc:title>Matplotlib v3.10.8, https://matplotlib.org/</dc:title>
     </cc:Agent>
    </dc:creator>
   </cc:Work>
  </rdf:RDF>
 </metadata>
 <defs>
  <style type="text/css">*{stroke-linejoin: round; stroke-linecap: butt}</style>
 </defs>
 <g id="figure_1">
  <g id="patch_1">
   <path d="M 0 439.898562 
L 567.919187 439.898562 
L 567.919187 0 
L 0 0 
z
" style="fill: #ffffff"/>
  </g>
  <g id="axes_1">
   <g id="patch_2">
    <path d="M 47.917188 403.310125 
L 560.719187 403.310125 
L 560.719187 26.318125 
L 47.917188 26.318125 
z
" style="fill: #ffffff"/>
   </g>
   <g id="FillBetweenPolyCollection_1">
    <defs>
     <path id="md54c41c64d" d="M 86.250661 -44.609544 
L 75.804964 -44.609544 
L 75.181172 -48.255501 
L 74.668932 -51.901459 
L 74.268082 -55.547416 
L 73.960417 -59.193374 
L 73.716857 -62.839331 
L 73.505847 -66.485289 
L 73.300429 -70.131246 
L 73.082536 -73.777203 
L 72.844363 -77.423161 
L 72.58749 -81.069118 
L 72.320687 -84.715076 
L 72.057144 -88.361033 
L 71.811648 -92.006991 
L 71.598086 -95.652948 
L 71.427554 -99.298906 
L 71.307293 -102.944863 
L 71.24043 -106.59082 
L 71.226369 -110.236778 
L 71.261588 -113.882735 
L 71.340615 -117.528693 
L 71.45711 -121.17465 
L 71.604944 -124.820608 
L 71.779118 -128.466565 
L 71.976256 -132.112523 
L 72.194411 -135.75848 
L 72.432166 -139.404438 
L 72.687338 -143.050395 
L 72.955859 -146.696352 
L 73.231397 -150.34231 
L 73.505961 -153.988267 
L 73.771277 -157.634225 
L 74.020384 -161.280182 
L 74.248805 -164.92614 
L 74.45489 -168.572097 
L 74.639297 -172.218055 
L 74.803932 -175.864012 
L 74.950843 -179.509969 
L 75.081539 -183.155927 
L 75.196964 -186.801884 
L 75.298142 -190.447842 
L 75.387179 -194.093799 
L 75.468199 -197.739757 
L 75.547764 -201.385714 
L 75.634475 -205.031672 
L 75.737787 -208.677629 
L 75.866307 -212.323586 
L 76.026087 -215.969544 
L 76.219364 -219.615501 
L 76.444071 -223.261459 
L 76.694189 -226.907416 
L 76.960787 -230.553374 
L 77.233492 -234.199331 
L 77.502081 -237.845289 
L 77.757905 -241.491246 
L 77.994897 -245.137203 
L 78.210018 -248.783161 
L 78.403087 -252.429118 
L 78.576122 -256.075076 
L 78.732438 -259.721033 
L 78.875781 -263.366991 
L 79.009715 -267.012948 
L 79.137327 -270.658906 
L 79.261132 -274.304863 
L 79.383046 -277.95082 
L 79.504302 -281.596778 
L 79.625328 -285.242735 
L 79.745698 -288.888693 
L 79.864236 -292.53465 
L 79.979321 -296.180608 
L 80.089264 -299.826565 
L 80.192603 -303.472523 
L 80.288227 -307.11848 
L 80.375295 -310.764437 
L 80.453089 -314.410395 
L 80.520929 -318.056352 
L 80.578246 -321.70231 
L 80.624793 -325.348267 
L 80.660875 -328.994225 
L 80.687473 -332.640182 
L 80.706162 -336.28614 
L 80.71886 -339.932097 
L 80.727485 -343.578055 
L 80.733679 -347.224012 
L 80.738668 -350.869969 
L 80.743276 -354.515927 
L 80.748021 -358.161884 
L 80.753216 -361.807842 
L 80.758993 -365.453799 
L 80.765286 -369.099757 
L 80.771811 -372.745714 
L 80.77814 -376.391672 
L 80.783868 -380.037629 
L 80.78887 -383.683586 
L 80.793505 -387.329544 
L 80.798692 -390.975501 
L 80.805757 -394.621459 
L 80.816096 -398.267416 
L 80.830729 -401.913374 
L 80.849933 -405.559331 
L 81.205692 -405.559331 
L 81.205692 -405.559331 
L 81.224896 -401.913374 
L 81.23953 -398.267416 
L 81.249868 -394.621459 
L 81.256934 -390.975501 
L 81.26212 -387.329544 
L 81.266756 -383.683586 
L 81.271757 -380.037629 
L 81.277486 -376.391672 
L 81.283814 -372.745714 
L 81.29034 -369.099757 
L 81.296632 -365.453799 
L 81.302409 -361.807842 
L 81.307604 -358.161884 
L 81.31235 -354.515927 
L 81.316957 -350.869969 
L 81.321947 -347.224012 
L 81.328141 -343.578055 
L 81.336766 -339.932097 
L 81.349463 -336.28614 
L 81.368153 -332.640182 
L 81.394751 -328.994225 
L 81.430833 -325.348267 
L 81.477379 -321.70231 
L 81.534697 -318.056352 
L 81.602537 -314.410395 
L 81.68033 -310.764437 
L 81.767398 -307.11848 
L 81.863022 -303.472523 
L 81.966362 -299.826565 
L 82.076304 -296.180608 
L 82.19139 -292.53465 
L 82.309928 -288.888693 
L 82.430297 -285.242735 
L 82.551324 -281.596778 
L 82.672579 -277.95082 
L 82.794493 -274.304863 
L 82.918298 -270.658906 
L 83.04591 -267.012948 
L 83.179845 -263.366991 
L 83.323187 -259.721033 
L 83.479503 -256.075076 
L 83.652538 -252.429118 
L 83.845607 -248.783161 
L 84.060728 -245.137203 
L 84.297721 -241.491246 
L 84.553544 -237.845289 
L 84.822134 -234.199331 
L 85.094839 -230.553374 
L 85.361437 -226.907416 
L 85.611554 -223.261459 
L 85.836261 -219.615501 
L 86.029538 -215.969544 
L 86.189319 -212.323586 
L 86.317839 -208.677629 
L 86.42115 -205.031672 
L 86.507862 -201.385714 
L 86.587426 -197.739757 
L 86.668447 -194.093799 
L 86.757483 -190.447842 
L 86.858661 -186.801884 
L 86.974087 -183.155927 
L 87.104782 -179.509969 
L 87.251694 -175.864012 
L 87.416328 -172.218055 
L 87.600735 -168.572097 
L 87.80682 -164.92614 
L 88.035241 -161.280182 
L 88.284348 -157.634225 
L 88.549664 -153.988267 
L 88.824228 -150.34231 
L 89.099767 -146.696352 
L 89.368287 -143.050395 
L 89.623459 -139.404438 
L 89.861214 -135.75848 
L 90.07937 -132.112523 
L 90.276508 -128.466565 
L 90.450682 -124.820608 
L 90.598516 -121.17465 
L 90.715011 -117.528693 
L 90.794038 -113.882735 
L 90.829256 -110.236778 
L 90.815196 -106.59082 
L 90.748332 -102.944863 
L 90.628072 -99.298906 
L 90.45754 -95.652948 
L 90.243977 -92.006991 
L 89.998482 -88.361033 
L 89.734938 -84.715076 
L 89.468135 -81.069118 
L 89.211263 -77.423161 
L 88.97309 -73.777203 
L 88.755197 -70.131246 
L 88.549779 -66.485289 
L 88.338769 -62.839331 
L 88.095209 -59.193374 
L 87.787544 -55.547416 
L 87.386694 -51.901459 
L 86.874454 -48.255501 
L 86.250661 -44.609544 
z
" style="stroke: #686868; stroke-width: 0.8"/>
    </defs>
    <g clip-path="url(#p52ad233bd3)">
     <use xlink:href="#md54c41c64d" x="0" y="439.898562" style="fill: #adadad; stroke: #686868; stroke-width: 0.8"/>
    </g>
   </g>
   <g id="FillBetweenPolyCollection_2">
    <defs>
     <path id="m6adf43fa0d" d="M 130.396661 -44.609544 
L 129.184683 -44.609544 
L 129.022161 -48.250956 
L 128.853983 -51.892368 
L 128.677884 -55.53378 
L 128.488892 -59.175192 
L 128.283506 -62.816604 
L 128.062219 -66.458016 
L 127.828366 -70.099428 
L 127.583772 -73.74084 
L 127.32411 -77.382252 
L 127.03739 -81.023664 
L 126.70712 -84.665076 
L 126.318628 -88.306488 
L 125.864973 -91.9479 
L 125.349355 -95.589312 
L 124.783238 -99.230724 
L 124.181836 -102.872136 
L 123.559691 -106.513548 
L 122.928471 -110.15496 
L 122.297327 -113.796372 
L 121.67432 -117.437784 
L 121.067153 -121.079196 
L 120.48294 -124.720608 
L 119.928341 -128.36202 
L 119.410816 -132.003432 
L 118.93955 -135.644844 
L 118.524112 -139.286256 
L 118.171711 -142.927668 
L 117.886605 -146.56908 
L 117.673733 -150.210492 
L 117.54387 -153.851904 
L 117.514898 -157.493316 
L 117.606132 -161.134728 
L 117.827545 -164.77614 
L 118.16927 -168.417552 
L 118.597486 -172.058964 
L 119.0606 -175.700376 
L 119.504604 -179.341788 
L 119.890686 -182.9832 
L 120.20601 -186.624612 
L 120.462608 -190.266024 
L 120.686647 -193.907436 
L 120.905125 -197.548848 
L 121.136607 -201.19026 
L 121.388689 -204.831672 
L 121.660873 -208.473084 
L 121.949341 -212.114496 
L 122.250376 -215.755908 
L 122.561309 -219.39732 
L 122.880149 -223.038732 
L 123.205562 -226.680144 
L 123.537376 -230.321556 
L 123.876439 -233.962968 
L 124.223012 -237.60438 
L 124.574503 -241.245792 
L 124.924391 -244.887204 
L 125.263642 -248.528616 
L 125.584225 -252.170028 
L 125.882645 -255.81144 
L 126.16103 -259.452852 
L 126.424639 -263.094264 
L 126.677038 -266.735676 
L 126.916265 -270.377088 
L 127.135169 -274.0185 
L 127.326406 -277.659912 
L 127.48888 -281.301324 
L 127.63086 -284.942736 
L 127.767232 -288.584148 
L 127.912547 -292.22556 
L 128.074413 -295.866972 
L 128.25125 -299.508384 
L 128.435136 -303.149796 
L 128.616977 -306.791208 
L 128.790112 -310.43262 
L 128.950494 -314.074032 
L 129.094823 -317.715444 
L 129.219408 -321.356856 
L 129.321119 -324.998268 
L 129.399338 -328.63968 
L 129.456917 -332.281092 
L 129.499289 -335.922504 
L 129.532441 -339.563916 
L 129.561029 -343.205328 
L 129.58752 -346.84674 
L 129.6125 -350.488152 
L 129.635714 -354.129564 
L 129.657103 -357.770976 
L 129.677173 -361.412388 
L 129.6966 -365.0538 
L 129.715506 -368.695212 
L 129.73308 -372.336624 
L 129.747895 -375.978036 
L 129.758696 -379.619448 
L 129.765116 -383.26086 
L 129.767859 -386.902272 
L 129.768316 -390.543684 
L 129.767965 -394.185096 
L 129.767935 -397.826508 
L 129.768883 -401.46792 
L 129.771028 -405.109332 
L 129.810315 -405.109332 
L 129.810315 -405.109332 
L 129.81246 -401.46792 
L 129.813408 -397.826508 
L 129.813379 -394.185096 
L 129.813027 -390.543684 
L 129.813484 -386.902272 
L 129.816227 -383.26086 
L 129.822648 -379.619448 
L 129.833448 -375.978036 
L 129.848263 -372.336624 
L 129.865837 -368.695212 
L 129.884743 -365.0538 
L 129.90417 -361.412388 
L 129.924241 -357.770976 
L 129.945629 -354.129564 
L 129.968844 -350.488152 
L 129.993823 -346.84674 
L 130.020314 -343.205328 
L 130.048902 -339.563916 
L 130.082054 -335.922504 
L 130.124426 -332.281092 
L 130.182005 -328.63968 
L 130.260224 -324.998268 
L 130.361935 -321.356856 
L 130.48652 -317.715444 
L 130.630849 -314.074032 
L 130.791232 -310.43262 
L 130.964366 -306.791208 
L 131.146207 -303.149796 
L 131.330093 -299.508384 
L 131.50693 -295.866972 
L 131.668797 -292.22556 
L 131.814111 -288.584148 
L 131.950483 -284.942736 
L 132.092463 -281.301324 
L 132.254937 -277.659912 
L 132.446174 -274.0185 
L 132.665078 -270.377088 
L 132.904305 -266.735676 
L 133.156704 -263.094264 
L 133.420313 -259.452852 
L 133.698699 -255.81144 
L 133.997118 -252.170028 
L 134.317701 -248.528616 
L 134.656953 -244.887204 
L 135.00684 -241.245792 
L 135.358332 -237.60438 
L 135.704904 -233.962968 
L 136.043967 -230.321556 
L 136.375781 -226.680144 
L 136.701194 -223.038732 
L 137.020034 -219.39732 
L 137.330967 -215.755908 
L 137.632002 -212.114496 
L 137.92047 -208.473084 
L 138.192654 -204.831672 
L 138.444736 -201.19026 
L 138.676218 -197.548848 
L 138.894696 -193.907436 
L 139.118735 -190.266024 
L 139.375333 -186.624612 
L 139.690657 -182.9832 
L 140.07674 -179.341788 
L 140.520743 -175.700376 
L 140.983857 -172.058964 
L 141.412073 -168.417552 
L 141.753798 -164.77614 
L 141.975212 -161.134728 
L 142.066445 -157.493316 
L 142.037473 -153.851904 
L 141.90761 -150.210492 
L 141.694738 -146.56908 
L 141.409632 -142.927668 
L 141.057232 -139.286256 
L 140.641794 -135.644844 
L 140.170527 -132.003432 
L 139.653002 -128.36202 
L 139.098403 -124.720608 
L 138.51419 -121.079196 
L 137.907023 -117.437784 
L 137.284016 -113.796372 
L 136.652872 -110.15496 
L 136.021652 -106.513548 
L 135.399507 -102.872136 
L 134.798105 -99.230724 
L 134.231988 -95.589312 
L 133.71637 -91.9479 
L 133.262715 -88.306488 
L 132.874223 -84.665076 
L 132.543953 -81.023664 
L 132.257233 -77.382252 
L 131.997572 -73.74084 
L 131.752978 -70.099428 
L 131.519124 -66.458016 
L 131.297837 -62.816604 
L 131.092451 -59.175192 
L 130.90346 -55.53378 
L 130.72736 -51.892368 
L 130.559182 -48.250956 
L 130.396661 -44.609544 
z
" style="stroke: #686868; stroke-width: 0.8"/>
    </defs>
    <g clip-path="url(#p52ad233bd3)">
     <use xlink:href="#m6adf43fa0d" x="0" y="439.898562" style="fill: #adadad; stroke: #686868; stroke-width: 0.8"/>
    </g>
   </g>
   <g id="FillBetweenPolyCollection_3">
    <defs>
     <path id="m9baa400451" d="M 178.673559 -44.609544 
L 178.433502 -44.609544 
L 178.396236 -48.161101 
L 178.358288 -51.712658 
L 178.320872 -55.264215 
L 178.282728 -58.815772 
L 178.239759 -62.367329 
L 178.186276 -65.918886 
L 178.117254 -69.470443 
L 178.02987 -73.022 
L 177.923008 -76.573557 
L 177.795218 -80.125114 
L 177.643131 -83.676671 
L 177.46192 -87.228228 
L 177.247366 -90.779785 
L 176.997496 -94.331342 
L 176.712077 -97.882899 
L 176.389945 -101.434456 
L 176.025685 -104.986013 
L 175.607699 -108.53757 
L 175.119433 -112.089127 
L 174.544408 -115.640684 
L 173.873867 -119.192241 
L 173.114142 -122.743798 
L 172.290377 -126.295355 
L 171.444488 -129.846912 
L 170.627219 -133.398469 
L 169.886228 -136.950026 
L 169.254401 -140.501583 
L 168.743888 -144.05314 
L 168.348985 -147.604697 
L 168.054394 -151.156254 
L 167.841078 -154.707811 
L 167.686204 -158.259368 
L 167.562888 -161.810925 
L 167.447156 -165.362483 
L 167.329617 -168.91404 
L 167.220046 -172.465597 
L 167.137932 -176.017154 
L 167.09678 -179.568711 
L 167.096883 -183.120268 
L 167.131629 -186.671825 
L 167.197655 -190.223382 
L 167.296282 -193.774939 
L 167.424871 -197.326496 
L 167.568231 -200.878053 
L 167.700162 -204.42961 
L 167.796055 -207.981167 
L 167.849226 -211.532724 
L 167.8815 -215.084281 
L 167.94105 -218.635838 
L 168.086074 -222.187395 
L 168.360642 -225.738952 
L 168.775259 -229.290509 
L 169.303388 -232.842066 
L 169.895391 -236.393623 
L 170.500079 -239.94518 
L 171.080644 -243.496737 
L 171.618184 -247.048294 
L 172.106016 -250.599851 
L 172.54315 -254.151408 
L 172.932642 -257.702965 
L 173.283526 -261.254522 
L 173.610785 -264.806079 
L 173.930388 -268.357636 
L 174.252495 -271.909193 
L 174.578409 -275.46075 
L 174.903179 -279.012307 
L 175.220524 -282.563864 
L 175.525693 -286.115421 
L 175.815332 -289.666978 
L 176.086699 -293.218535 
L 176.338329 -296.770092 
L 176.571542 -300.321649 
L 176.790548 -303.873206 
L 177.000128 -307.424763 
L 177.202342 -310.97632 
L 177.39483 -314.527877 
L 177.571858 -318.079434 
L 177.727036 -321.630991 
L 177.855899 -325.182548 
L 177.957523 -328.734105 
L 178.035205 -332.285662 
L 178.096028 -335.837219 
L 178.14883 -339.388776 
L 178.201061 -342.940333 
L 178.256219 -346.49189 
L 178.313378 -350.043447 
L 178.368731 -353.595004 
L 178.417749 -357.146562 
L 178.456732 -360.698119 
L 178.48356 -364.249676 
L 178.498055 -367.801233 
L 178.502155 -371.35279 
L 178.499629 -374.904347 
L 178.495079 -378.455904 
L 178.492492 -382.007461 
L 178.494052 -385.559018 
L 178.499864 -389.110575 
L 178.508602 -392.662132 
L 178.5185 -396.213689 
L 178.588561 -396.213689 
L 178.588561 -396.213689 
L 178.598459 -392.662132 
L 178.607197 -389.110575 
L 178.613009 -385.559018 
L 178.614569 -382.007461 
L 178.611982 -378.455904 
L 178.607432 -374.904347 
L 178.604906 -371.35279 
L 178.609005 -367.801233 
L 178.6235 -364.249676 
L 178.650329 -360.698119 
L 178.689312 -357.146562 
L 178.73833 -353.595004 
L 178.793683 -350.043447 
L 178.850842 -346.49189 
L 178.906 -342.940333 
L 178.958231 -339.388776 
L 179.011033 -335.837219 
L 179.071856 -332.285662 
L 179.149538 -328.734105 
L 179.251161 -325.182548 
L 179.380025 -321.630991 
L 179.535203 -318.079434 
L 179.712231 -314.527877 
L 179.904719 -310.97632 
L 180.106933 -307.424763 
L 180.316513 -303.873206 
L 180.535519 -300.321649 
L 180.768732 -296.770092 
L 181.020362 -293.218535 
L 181.291729 -289.666978 
L 181.581368 -286.115421 
L 181.886537 -282.563864 
L 182.203882 -279.012307 
L 182.528652 -275.46075 
L 182.854566 -271.909193 
L 183.176673 -268.357636 
L 183.496276 -264.806079 
L 183.823534 -261.254522 
L 184.174419 -257.702965 
L 184.563911 -254.151408 
L 185.001045 -250.599851 
L 185.488877 -247.048294 
L 186.026417 -243.496737 
L 186.606981 -239.94518 
L 187.21167 -236.393623 
L 187.803673 -232.842066 
L 188.331802 -229.290509 
L 188.746418 -225.738952 
L 189.020987 -222.187395 
L 189.166011 -218.635838 
L 189.225561 -215.084281 
L 189.257835 -211.532724 
L 189.311006 -207.981167 
L 189.406899 -204.42961 
L 189.53883 -200.878053 
L 189.68219 -197.326496 
L 189.810779 -193.774939 
L 189.909406 -190.223382 
L 189.975432 -186.671825 
L 190.010178 -183.120268 
L 190.010281 -179.568711 
L 189.969129 -176.017154 
L 189.887014 -172.465597 
L 189.777444 -168.91404 
L 189.659905 -165.362483 
L 189.544173 -161.810925 
L 189.420857 -158.259368 
L 189.265983 -154.707811 
L 189.052667 -151.156254 
L 188.758076 -147.604697 
L 188.363172 -144.05314 
L 187.85266 -140.501583 
L 187.220832 -136.950026 
L 186.479842 -133.398469 
L 185.662573 -129.846912 
L 184.816684 -126.295355 
L 183.992918 -122.743798 
L 183.233193 -119.192241 
L 182.562653 -115.640684 
L 181.987628 -112.089127 
L 181.499362 -108.53757 
L 181.081375 -104.986013 
L 180.717116 -101.434456 
L 180.394984 -97.882899 
L 180.109565 -94.331342 
L 179.859695 -90.779785 
L 179.645141 -87.228228 
L 179.463929 -83.676671 
L 179.311843 -80.125114 
L 179.184053 -76.573557 
L 179.077191 -73.022 
L 178.989807 -69.470443 
L 178.920784 -65.918886 
L 178.867302 -62.367329 
L 178.824333 -58.815772 
L 178.786189 -55.264215 
L 178.748773 -51.712658 
L 178.710824 -48.161101 
L 178.673559 -44.609544 
z
" style="stroke: #686868; stroke-width: 0.8"/>
    </defs>
    <g clip-path="url(#p52ad233bd3)">
     <use xlink:href="#m9baa400451" x="0" y="439.898562" style="fill: #adadad; stroke: #686868; stroke-width: 0.8"/>
    </g>
   </g>
   <g id="FillBetweenPolyCollection_4">
    <defs>
     <path id="m8771599db2" d="M 227.364182 -44.609544 
L 227.268596 -44.609544 
L 227.261834 -48.255501 
L 227.259558 -51.901459 
L 227.258997 -55.547416 
L 227.257489 -59.193374 
L 227.253783 -62.839331 
L 227.247326 -66.485289 
L 227.237241 -70.131246 
L 227.221958 -73.777203 
L 227.19932 -77.423161 
L 227.167452 -81.069118 
L 227.126361 -84.715076 
L 227.078033 -88.361033 
L 227.023777 -92.006991 
L 226.961776 -95.652948 
L 226.887131 -99.298906 
L 226.791671 -102.944863 
L 226.662861 -106.59082 
L 226.487581 -110.236778 
L 226.262289 -113.882735 
L 225.998201 -117.528693 
L 225.709915 -121.17465 
L 225.395079 -124.820608 
L 225.02835 -128.466565 
L 224.579552 -132.112523 
L 224.036642 -135.75848 
L 223.410648 -139.404438 
L 222.725898 -143.050395 
L 222.011571 -146.696352 
L 221.296548 -150.34231 
L 220.600525 -153.988267 
L 219.923894 -157.634225 
L 219.249096 -161.280182 
L 218.558548 -164.92614 
L 217.854197 -168.572097 
L 217.161604 -172.218055 
L 216.522222 -175.864012 
L 215.983959 -179.509969 
L 215.586238 -183.155927 
L 215.338458 -186.801884 
L 215.209604 -190.447842 
L 215.14281 -194.093799 
L 215.080972 -197.739757 
L 214.983377 -201.385714 
L 214.836554 -205.031672 
L 214.666542 -208.677629 
L 214.536565 -212.323586 
L 214.514777 -215.969544 
L 214.630965 -219.615501 
L 214.860252 -223.261459 
L 215.152024 -226.907416 
L 215.481085 -230.553374 
L 215.869061 -234.199331 
L 216.34699 -237.845289 
L 216.897984 -241.491246 
L 217.447226 -245.137203 
L 217.910808 -248.783161 
L 218.252553 -252.429118 
L 218.502606 -256.075076 
L 218.734924 -259.721033 
L 219.027795 -263.366991 
L 219.429129 -267.012948 
L 219.936259 -270.658906 
L 220.498296 -274.304863 
L 221.045934 -277.95082 
L 221.533028 -281.596778 
L 221.959105 -285.242735 
L 222.358003 -288.888693 
L 222.766342 -292.53465 
L 223.197158 -296.180608 
L 223.636972 -299.826565 
L 224.065823 -303.472523 
L 224.478033 -307.11848 
L 224.879983 -310.764437 
L 225.269668 -314.410395 
L 225.626609 -318.056352 
L 225.925404 -321.70231 
L 226.155229 -325.348267 
L 226.324709 -328.994225 
L 226.452822 -332.640182 
L 226.558633 -336.28614 
L 226.656592 -339.932097 
L 226.755372 -343.578055 
L 226.857055 -347.224012 
L 226.957296 -350.869969 
L 227.048293 -354.515927 
L 227.123168 -358.161884 
L 227.178431 -361.807842 
L 227.21402 -365.453799 
L 227.233023 -369.099757 
L 227.241395 -372.745714 
L 227.246115 -376.391672 
L 227.252188 -380.037629 
L 227.260999 -383.683586 
L 227.271055 -387.329544 
L 227.279958 -390.975501 
L 227.286142 -394.621459 
L 227.289715 -398.267416 
L 227.292265 -401.913374 
L 227.295696 -405.559331 
L 227.337083 -405.559331 
L 227.337083 -405.559331 
L 227.340514 -401.913374 
L 227.343064 -398.267416 
L 227.346636 -394.621459 
L 227.35282 -390.975501 
L 227.361723 -387.329544 
L 227.371779 -383.683586 
L 227.38059 -380.037629 
L 227.386663 -376.391672 
L 227.391383 -372.745714 
L 227.399756 -369.099757 
L 227.418758 -365.453799 
L 227.454347 -361.807842 
L 227.50961 -358.161884 
L 227.584486 -354.515927 
L 227.675483 -350.869969 
L 227.775724 -347.224012 
L 227.877407 -343.578055 
L 227.976187 -339.932097 
L 228.074145 -336.28614 
L 228.179956 -332.640182 
L 228.30807 -328.994225 
L 228.477549 -325.348267 
L 228.707375 -321.70231 
L 229.006169 -318.056352 
L 229.363111 -314.410395 
L 229.752795 -310.764437 
L 230.154745 -307.11848 
L 230.566956 -303.472523 
L 230.995807 -299.826565 
L 231.43562 -296.180608 
L 231.866437 -292.53465 
L 232.274775 -288.888693 
L 232.673673 -285.242735 
L 233.099751 -281.596778 
L 233.586845 -277.95082 
L 234.134482 -274.304863 
L 234.696519 -270.658906 
L 235.20365 -267.012948 
L 235.604984 -263.366991 
L 235.897855 -259.721033 
L 236.130172 -256.075076 
L 236.380226 -252.429118 
L 236.72197 -248.783161 
L 237.185553 -245.137203 
L 237.734795 -241.491246 
L 238.285788 -237.845289 
L 238.763717 -234.199331 
L 239.151694 -230.553374 
L 239.480754 -226.907416 
L 239.772526 -223.261459 
L 240.001814 -219.615501 
L 240.118001 -215.969544 
L 240.096214 -212.323586 
L 239.966236 -208.677629 
L 239.796225 -205.031672 
L 239.649401 -201.385714 
L 239.551807 -197.739757 
L 239.489968 -194.093799 
L 239.423175 -190.447842 
L 239.294321 -186.801884 
L 239.04654 -183.155927 
L 238.64882 -179.509969 
L 238.110556 -175.864012 
L 237.471175 -172.218055 
L 236.778582 -168.572097 
L 236.074231 -164.92614 
L 235.383682 -161.280182 
L 234.708885 -157.634225 
L 234.032254 -153.988267 
L 233.33623 -150.34231 
L 232.621208 -146.696352 
L 231.90688 -143.050395 
L 231.222131 -139.404438 
L 230.596136 -135.75848 
L 230.053227 -132.112523 
L 229.604428 -128.466565 
L 229.2377 -124.820608 
L 228.922864 -121.17465 
L 228.634577 -117.528693 
L 228.370489 -113.882735 
L 228.145197 -110.236778 
L 227.969918 -106.59082 
L 227.841108 -102.944863 
L 227.745648 -99.298906 
L 227.671003 -95.652948 
L 227.609002 -92.006991 
L 227.554745 -88.361033 
L 227.506417 -84.715076 
L 227.465326 -81.069118 
L 227.433459 -77.423161 
L 227.41082 -73.777203 
L 227.395538 -70.131246 
L 227.385452 -66.485289 
L 227.378996 -62.839331 
L 227.37529 -59.193374 
L 227.373782 -55.547416 
L 227.373221 -51.901459 
L 227.370945 -48.255501 
L 227.364182 -44.609544 
z
" style="stroke: #686868; stroke-width: 0.8"/>
    </defs>
    <g clip-path="url(#p52ad233bd3)">
     <use xlink:href="#m8771599db2" x="0" y="439.898562" style="fill: #adadad; stroke: #686868; stroke-width: 0.8"/>
    </g>
   </g>
   <g id="FillBetweenPolyCollection_5">
    <defs>
     <path id="ma442999089" d="M 276.089886 -49.493902 
L 276.068611 -49.493902 
L 276.06701 -53.090523 
L 276.065724 -56.687143 
L 276.06428 -60.283764 
L 276.062733 -63.880384 
L 276.060928 -67.477005 
L 276.057754 -71.073625 
L 276.051918 -74.670246 
L 276.043714 -78.266866 
L 276.034983 -81.863487 
L 276.025777 -85.460107 
L 276.011376 -89.056728 
L 275.984608 -92.653348 
L 275.942172 -96.249969 
L 275.887928 -99.846589 
L 275.828748 -103.44321 
L 275.767 -107.03983 
L 275.698955 -110.636451 
L 275.620945 -114.233071 
L 275.532618 -117.829692 
L 275.430958 -121.426312 
L 275.304682 -125.022933 
L 275.137683 -128.619553 
L 274.917331 -132.216173 
L 274.642058 -135.812794 
L 274.326294 -139.409414 
L 273.996368 -143.006035 
L 273.672447 -146.602655 
L 273.350048 -150.199276 
L 273.00606 -153.795896 
L 272.628858 -157.392517 
L 272.234869 -160.989137 
L 271.847051 -164.585758 
L 271.465547 -168.182378 
L 271.06848 -171.778999 
L 270.629786 -175.375619 
L 270.126441 -178.97224 
L 269.544348 -182.56886 
L 268.893447 -186.165481 
L 268.21188 -189.762101 
L 267.549005 -193.358722 
L 266.942819 -196.955342 
L 266.39986 -200.551963 
L 265.883546 -204.148583 
L 265.330815 -207.745204 
L 264.695785 -211.341824 
L 263.985407 -214.938445 
L 263.261295 -218.535065 
L 262.611542 -222.131686 
L 262.113083 -225.728306 
L 261.807172 -229.324927 
L 261.691687 -232.921547 
L 261.723336 -236.518168 
L 261.836613 -240.114788 
L 261.976242 -243.711409 
L 262.122161 -247.308029 
L 262.29997 -250.90465 
L 262.56786 -254.50127 
L 262.969188 -258.097891 
L 263.489491 -261.694511 
L 264.071491 -265.291132 
L 264.667672 -268.887752 
L 265.267379 -272.484373 
L 265.885398 -276.080993 
L 266.53929 -279.677614 
L 267.227705 -283.274234 
L 267.921115 -286.870855 
L 268.584125 -290.467475 
L 269.209456 -294.064096 
L 269.818355 -297.660716 
L 270.430058 -301.257337 
L 271.044588 -304.853957 
L 271.653761 -308.450578 
L 272.253673 -312.047198 
L 272.837895 -315.643819 
L 273.382454 -319.240439 
L 273.847985 -322.83706 
L 274.206344 -326.43368 
L 274.466649 -330.030301 
L 274.670461 -333.626921 
L 274.860278 -337.223542 
L 275.054487 -340.820162 
L 275.248198 -344.416783 
L 275.427539 -348.013403 
L 275.579807 -351.610024 
L 275.698323 -355.206644 
L 275.784709 -358.803265 
L 275.846214 -362.399885 
L 275.890474 -365.996506 
L 275.923074 -369.593126 
L 275.947922 -373.189747 
L 275.967905 -376.786367 
L 275.98508 -380.382988 
L 276.000577 -383.979608 
L 276.014257 -387.576229 
L 276.024519 -391.172849 
L 276.029481 -394.76947 
L 276.029606 -398.36609 
L 276.029054 -401.962711 
L 276.033065 -405.559331 
L 276.125431 -405.559331 
L 276.125431 -405.559331 
L 276.129442 -401.962711 
L 276.12889 -398.36609 
L 276.129016 -394.76947 
L 276.133977 -391.172849 
L 276.14424 -387.576229 
L 276.157919 -383.979608 
L 276.173416 -380.382988 
L 276.190592 -376.786367 
L 276.210574 -373.189747 
L 276.235422 -369.593126 
L 276.268023 -365.996506 
L 276.312282 -362.399885 
L 276.373787 -358.803265 
L 276.460173 -355.206644 
L 276.578689 -351.610024 
L 276.730957 -348.013403 
L 276.910299 -344.416783 
L 277.104009 -340.820162 
L 277.298219 -337.223542 
L 277.488035 -333.626921 
L 277.691848 -330.030301 
L 277.952152 -326.43368 
L 278.310511 -322.83706 
L 278.776042 -319.240439 
L 279.320601 -315.643819 
L 279.904823 -312.047198 
L 280.504735 -308.450578 
L 281.113908 -304.853957 
L 281.728438 -301.257337 
L 282.340141 -297.660716 
L 282.94904 -294.064096 
L 283.574371 -290.467475 
L 284.237381 -286.870855 
L 284.930791 -283.274234 
L 285.619206 -279.677614 
L 286.273098 -276.080993 
L 286.891118 -272.484373 
L 287.490824 -268.887752 
L 288.087005 -265.291132 
L 288.669005 -261.694511 
L 289.189309 -258.097891 
L 289.590636 -254.50127 
L 289.858527 -250.90465 
L 290.036335 -247.308029 
L 290.182254 -243.711409 
L 290.321883 -240.114788 
L 290.43516 -236.518168 
L 290.466809 -232.921547 
L 290.351324 -229.324927 
L 290.045413 -225.728306 
L 289.546954 -222.131686 
L 288.897201 -218.535065 
L 288.17309 -214.938445 
L 287.462712 -211.341824 
L 286.827681 -207.745204 
L 286.274951 -204.148583 
L 285.758636 -200.551963 
L 285.215677 -196.955342 
L 284.609492 -193.358722 
L 283.946616 -189.762101 
L 283.26505 -186.165481 
L 282.614148 -182.56886 
L 282.032056 -178.97224 
L 281.528711 -175.375619 
L 281.090016 -171.778999 
L 280.692949 -168.182378 
L 280.311445 -164.585758 
L 279.923628 -160.989137 
L 279.529638 -157.392517 
L 279.152436 -153.795896 
L 278.808448 -150.199276 
L 278.486049 -146.602655 
L 278.162128 -143.006035 
L 277.832202 -139.409414 
L 277.516438 -135.812794 
L 277.241165 -132.216173 
L 277.020813 -128.619553 
L 276.853814 -125.022933 
L 276.727538 -121.426312 
L 276.625878 -117.829692 
L 276.537551 -114.233071 
L 276.459541 -110.636451 
L 276.391496 -107.03983 
L 276.329749 -103.44321 
L 276.270568 -99.846589 
L 276.216325 -96.249969 
L 276.173888 -92.653348 
L 276.14712 -89.056728 
L 276.132719 -85.460107 
L 276.123513 -81.863487 
L 276.114782 -78.266866 
L 276.106578 -74.670246 
L 276.100742 -71.073625 
L 276.097568 -67.477005 
L 276.095763 -63.880384 
L 276.094216 -60.283764 
L 276.092772 -56.687143 
L 276.091486 -53.090523 
L 276.089886 -49.493902 
z
" style="stroke: #686868; stroke-width: 0.8"/>
    </defs>
    <g clip-path="url(#p52ad233bd3)">
     <use xlink:href="#ma442999089" x="0" y="439.898562" style="fill: #adadad; stroke: #686868; stroke-width: 0.8"/>
    </g>
   </g>
   <g id="FillBetweenPolyCollection_6">
    <defs>
     <path id="m8365ddfaa9" d="M 324.847127 -44.609544 
L 324.837087 -44.609544 
L 324.837986 -48.255501 
L 324.839561 -51.901459 
L 324.839909 -55.547416 
L 324.83861 -59.193374 
L 324.83705 -62.839331 
L 324.836549 -66.485289 
L 324.836053 -70.131246 
L 324.833506 -73.777203 
L 324.829201 -77.423161 
L 324.824532 -81.069118 
L 324.818349 -84.715076 
L 324.808776 -88.361033 
L 324.797956 -92.006991 
L 324.790571 -95.652948 
L 324.786272 -99.298906 
L 324.77915 -102.944863 
L 324.768899 -106.59082 
L 324.761833 -110.236778 
L 324.753602 -113.882735 
L 324.727278 -117.528693 
L 324.677892 -121.17465 
L 324.618695 -124.820608 
L 324.555381 -128.466565 
L 324.479555 -132.112523 
L 324.39129 -135.75848 
L 324.304156 -139.404438 
L 324.228108 -143.050395 
L 324.154397 -146.696352 
L 324.052383 -150.34231 
L 323.895334 -153.988267 
L 323.689003 -157.634225 
L 323.444109 -161.280182 
L 323.149813 -164.92614 
L 322.812764 -168.572097 
L 322.462266 -172.218055 
L 322.105153 -175.864012 
L 321.747684 -179.509969 
L 321.423353 -183.155927 
L 321.142302 -186.801884 
L 320.857819 -190.447842 
L 320.496001 -194.093799 
L 319.996404 -197.739757 
L 319.337421 -201.385714 
L 318.55557 -205.031672 
L 317.741646 -208.677629 
L 316.981737 -212.323586 
L 316.281546 -215.969544 
L 315.563097 -219.615501 
L 314.772553 -223.261459 
L 313.965648 -226.907416 
L 313.216787 -230.553374 
L 312.498627 -234.199331 
L 311.757009 -237.845289 
L 311.028397 -241.491246 
L 310.371281 -245.137203 
L 309.804511 -248.783161 
L 309.365463 -252.429118 
L 309.078694 -256.075076 
L 308.899364 -259.721033 
L 308.797358 -263.366991 
L 308.820763 -267.012948 
L 309.031654 -270.658906 
L 309.421823 -274.304863 
L 309.890586 -277.95082 
L 310.358583 -281.596778 
L 310.900013 -285.242735 
L 311.643828 -288.888693 
L 312.599419 -292.53465 
L 313.677829 -296.180608 
L 314.780453 -299.826565 
L 315.825884 -303.472523 
L 316.791181 -307.11848 
L 317.724564 -310.764437 
L 318.656246 -314.410395 
L 319.536351 -318.056352 
L 320.313571 -321.70231 
L 320.995559 -325.348267 
L 321.601648 -328.994225 
L 322.144182 -332.640182 
L 322.632623 -336.28614 
L 323.053574 -339.932097 
L 323.391853 -343.578055 
L 323.661557 -347.224012 
L 323.882801 -350.869969 
L 324.063965 -354.515927 
L 324.21678 -358.161884 
L 324.354057 -361.807842 
L 324.478092 -365.453799 
L 324.581729 -369.099757 
L 324.655312 -372.745714 
L 324.697907 -376.391672 
L 324.723113 -380.037629 
L 324.747712 -383.683586 
L 324.775201 -387.329544 
L 324.796334 -390.975501 
L 324.804303 -394.621459 
L 324.802101 -398.267416 
L 324.79858 -401.913374 
L 324.802594 -405.559331 
L 324.88162 -405.559331 
L 324.88162 -405.559331 
L 324.885633 -401.913374 
L 324.882113 -398.267416 
L 324.879911 -394.621459 
L 324.88788 -390.975501 
L 324.909013 -387.329544 
L 324.936502 -383.683586 
L 324.961101 -380.037629 
L 324.986307 -376.391672 
L 325.028902 -372.745714 
L 325.102485 -369.099757 
L 325.206121 -365.453799 
L 325.330156 -361.807842 
L 325.467434 -358.161884 
L 325.620249 -354.515927 
L 325.801413 -350.869969 
L 326.022657 -347.224012 
L 326.292361 -343.578055 
L 326.63064 -339.932097 
L 327.051591 -336.28614 
L 327.540032 -332.640182 
L 328.082566 -328.994225 
L 328.688655 -325.348267 
L 329.370643 -321.70231 
L 330.147863 -318.056352 
L 331.027968 -314.410395 
L 331.95965 -310.764437 
L 332.893033 -307.11848 
L 333.85833 -303.472523 
L 334.903761 -299.826565 
L 336.006385 -296.180608 
L 337.084795 -292.53465 
L 338.040386 -288.888693 
L 338.784201 -285.242735 
L 339.325631 -281.596778 
L 339.793628 -277.95082 
L 340.262391 -274.304863 
L 340.65256 -270.658906 
L 340.863451 -267.012948 
L 340.886856 -263.366991 
L 340.78485 -259.721033 
L 340.60552 -256.075076 
L 340.318751 -252.429118 
L 339.879703 -248.783161 
L 339.312933 -245.137203 
L 338.655817 -241.491246 
L 337.927205 -237.845289 
L 337.185587 -234.199331 
L 336.467427 -230.553374 
L 335.718566 -226.907416 
L 334.911661 -223.261459 
L 334.121117 -219.615501 
L 333.402668 -215.969544 
L 332.702477 -212.323586 
L 331.942568 -208.677629 
L 331.128644 -205.031672 
L 330.346793 -201.385714 
L 329.68781 -197.739757 
L 329.188213 -194.093799 
L 328.826395 -190.447842 
L 328.541912 -186.801884 
L 328.260861 -183.155927 
L 327.93653 -179.509969 
L 327.579061 -175.864012 
L 327.221948 -172.218055 
L 326.87145 -168.572097 
L 326.534401 -164.92614 
L 326.240105 -161.280182 
L 325.995211 -157.634225 
L 325.78888 -153.988267 
L 325.631831 -150.34231 
L 325.529816 -146.696352 
L 325.456106 -143.050395 
L 325.380058 -139.404438 
L 325.292924 -135.75848 
L 325.204659 -132.112523 
L 325.128833 -128.466565 
L 325.065519 -124.820608 
L 325.006322 -121.17465 
L 324.956936 -117.528693 
L 324.930612 -113.882735 
L 324.922381 -110.236778 
L 324.915315 -106.59082 
L 324.905064 -102.944863 
L 324.897942 -99.298906 
L 324.893643 -95.652948 
L 324.886258 -92.006991 
L 324.875438 -88.361033 
L 324.865865 -84.715076 
L 324.859681 -81.069118 
L 324.855012 -77.423161 
L 324.850708 -73.777203 
L 324.848161 -70.131246 
L 324.847665 -66.485289 
L 324.847164 -62.839331 
L 324.845604 -59.193374 
L 324.844305 -55.547416 
L 324.844653 -51.901459 
L 324.846228 -48.255501 
L 324.847127 -44.609544 
z
" style="stroke: #686868; stroke-width: 0.8"/>
    </defs>
    <g clip-path="url(#p52ad233bd3)">
     <use xlink:href="#m8365ddfaa9" x="0" y="439.898562" style="fill: #adadad; stroke: #686868; stroke-width: 0.8"/>
    </g>
   </g>
   <g id="FillBetweenPolyCollection_7">
    <defs>
     <path id="m583563aa30" d="M 373.618438 -103.568751 
L 373.591494 -103.568751 
L 373.582995 -106.619161 
L 373.571938 -109.669571 
L 373.559328 -112.719981 
L 373.547092 -115.770391 
L 373.537447 -118.820801 
L 373.531597 -121.871211 
L 373.528433 -124.921621 
L 373.525746 -127.972031 
L 373.520356 -131.022441 
L 373.506495 -134.07285 
L 373.479785 -137.12326 
L 373.442724 -140.17367 
L 373.402415 -143.22408 
L 373.365209 -146.27449 
L 373.333574 -149.3249 
L 373.303814 -152.37531 
L 373.267068 -155.42572 
L 373.214916 -158.47613 
L 373.144597 -161.52654 
L 373.061003 -164.576949 
L 372.974304 -167.627359 
L 372.894744 -170.677769 
L 372.829936 -173.728179 
L 372.775582 -176.778589 
L 372.703133 -179.828999 
L 372.582078 -182.879409 
L 372.419708 -185.929819 
L 372.249083 -188.980229 
L 372.083766 -192.030638 
L 371.907822 -195.081048 
L 371.697297 -198.131458 
L 371.439463 -201.181868 
L 371.138794 -204.232278 
L 370.810077 -207.282688 
L 370.463747 -210.333098 
L 370.101104 -213.383508 
L 369.732259 -216.433918 
L 369.370649 -219.484328 
L 368.985449 -222.534737 
L 368.510321 -225.585147 
L 367.930229 -228.635557 
L 367.302971 -231.685967 
L 366.672846 -234.736377 
L 366.014174 -237.786787 
L 365.268002 -240.837197 
L 364.40402 -243.887607 
L 363.441933 -246.938017 
L 362.423062 -249.988426 
L 361.388394 -253.038836 
L 360.386408 -256.089246 
L 359.454447 -259.139656 
L 358.581197 -262.190066 
L 357.730393 -265.240476 
L 356.906972 -268.290886 
L 356.159719 -271.341296 
L 355.533426 -274.391706 
L 355.079117 -277.442116 
L 354.874345 -280.492525 
L 354.941017 -283.542935 
L 355.14578 -286.593345 
L 355.288216 -289.643755 
L 355.338924 -292.694165 
L 355.495951 -295.744575 
L 355.972877 -298.794985 
L 356.822485 -301.845395 
L 357.952235 -304.895805 
L 359.198881 -307.946214 
L 360.409501 -310.996624 
L 361.534075 -314.047034 
L 362.619268 -317.097444 
L 363.717318 -320.147854 
L 364.837913 -323.198264 
L 365.941434 -326.248674 
L 366.95829 -329.299084 
L 367.840152 -332.349494 
L 368.585828 -335.399904 
L 369.226416 -338.450313 
L 369.799356 -341.500723 
L 370.329348 -344.551133 
L 370.830453 -347.601543 
L 371.309442 -350.651953 
L 371.751921 -353.702363 
L 372.128917 -356.752773 
L 372.432317 -359.803183 
L 372.679807 -362.853593 
L 372.882905 -365.904002 
L 373.037458 -368.954412 
L 373.146272 -372.004822 
L 373.226734 -375.055232 
L 373.292742 -378.105642 
L 373.346525 -381.156052 
L 373.389007 -384.206462 
L 373.426191 -387.256872 
L 373.463519 -390.307282 
L 373.499198 -393.357692 
L 373.525576 -396.408101 
L 373.537289 -399.458511 
L 373.539528 -402.508921 
L 373.545723 -405.559331 
L 373.664208 -405.559331 
L 373.664208 -405.559331 
L 373.670404 -402.508921 
L 373.672643 -399.458511 
L 373.684355 -396.408101 
L 373.710733 -393.357692 
L 373.746413 -390.307282 
L 373.783741 -387.256872 
L 373.820925 -384.206462 
L 373.863406 -381.156052 
L 373.91719 -378.105642 
L 373.983198 -375.055232 
L 374.063659 -372.004822 
L 374.172474 -368.954412 
L 374.327026 -365.904002 
L 374.530124 -362.853593 
L 374.777615 -359.803183 
L 375.081015 -356.752773 
L 375.458011 -353.702363 
L 375.900489 -350.651953 
L 376.379479 -347.601543 
L 376.880583 -344.551133 
L 377.410576 -341.500723 
L 377.983516 -338.450313 
L 378.624103 -335.399904 
L 379.36978 -332.349494 
L 380.251642 -329.299084 
L 381.268498 -326.248674 
L 382.372019 -323.198264 
L 383.492614 -320.147854 
L 384.590664 -317.097444 
L 385.675856 -314.047034 
L 386.80043 -310.996624 
L 388.01105 -307.946214 
L 389.257697 -304.895805 
L 390.387447 -301.845395 
L 391.237055 -298.794985 
L 391.71398 -295.744575 
L 391.871008 -292.694165 
L 391.921715 -289.643755 
L 392.064151 -286.593345 
L 392.268914 -283.542935 
L 392.335587 -280.492525 
L 392.130815 -277.442116 
L 391.676506 -274.391706 
L 391.050213 -271.341296 
L 390.30296 -268.290886 
L 389.479538 -265.240476 
L 388.628734 -262.190066 
L 387.755485 -259.139656 
L 386.823523 -256.089246 
L 385.821538 -253.038836 
L 384.786869 -249.988426 
L 383.767998 -246.938017 
L 382.805912 -243.887607 
L 381.94193 -240.837197 
L 381.195758 -237.786787 
L 380.537085 -234.736377 
L 379.906961 -231.685967 
L 379.279702 -228.635557 
L 378.699611 -225.585147 
L 378.224482 -222.534737 
L 377.839283 -219.484328 
L 377.477672 -216.433918 
L 377.108828 -213.383508 
L 376.746185 -210.333098 
L 376.399854 -207.282688 
L 376.071137 -204.232278 
L 375.770468 -201.181868 
L 375.512634 -198.131458 
L 375.302109 -195.081048 
L 375.126165 -192.030638 
L 374.960849 -188.980229 
L 374.790224 -185.929819 
L 374.627854 -182.879409 
L 374.506798 -179.828999 
L 374.43435 -176.778589 
L 374.379995 -173.728179 
L 374.315188 -170.677769 
L 374.235627 -167.627359 
L 374.148929 -164.576949 
L 374.065335 -161.52654 
L 373.995016 -158.47613 
L 373.942863 -155.42572 
L 373.906117 -152.37531 
L 373.876358 -149.3249 
L 373.844723 -146.27449 
L 373.807517 -143.22408 
L 373.767208 -140.17367 
L 373.730147 -137.12326 
L 373.703436 -134.07285 
L 373.689575 -131.022441 
L 373.684185 -127.972031 
L 373.681499 -124.921621 
L 373.678334 -121.871211 
L 373.672485 -118.820801 
L 373.662839 -115.770391 
L 373.650604 -112.719981 
L 373.637993 -109.669571 
L 373.626936 -106.619161 
L 373.618438 -103.568751 
z
" style="stroke: #686868; stroke-width: 0.8"/>
    </defs>
    <g clip-path="url(#p52ad233bd3)">
     <use xlink:href="#m583563aa30" x="0" y="439.898562" style="fill: #adadad; stroke: #686868; stroke-width: 0.8"/>
    </g>
   </g>
   <g id="FillBetweenPolyCollection_8">
    <defs>
     <path id="mc1a6edf47d" d="M 422.376146 -103.199532 
L 422.359503 -103.199532 
L 422.355133 -106.253672 
L 422.349085 -109.307811 
L 422.343287 -112.361951 
L 422.341568 -115.41609 
L 422.345219 -118.470229 
L 422.350557 -121.524369 
L 422.351969 -124.578508 
L 422.347283 -127.632648 
L 422.33801 -130.686787 
L 422.324478 -133.740926 
L 422.306377 -136.795066 
L 422.288658 -139.849205 
L 422.278803 -142.903344 
L 422.27666 -145.957484 
L 422.273414 -149.011623 
L 422.261559 -152.065763 
L 422.241141 -155.119902 
L 422.214539 -158.174041 
L 422.183378 -161.228181 
L 422.152319 -164.28232 
L 422.1223 -167.336459 
L 422.083566 -170.390599 
L 422.027743 -173.444738 
L 421.959271 -176.498878 
L 421.891655 -179.553017 
L 421.839385 -182.607156 
L 421.806215 -185.661296 
L 421.773497 -188.715435 
L 421.713298 -191.769575 
L 421.619069 -194.823714 
L 421.503642 -197.877853 
L 421.374457 -200.931993 
L 421.239431 -203.986132 
L 421.115037 -207.040271 
L 421.002112 -210.094411 
L 420.878561 -213.14855 
L 420.729246 -216.20269 
L 420.556263 -219.256829 
L 420.355858 -222.310968 
L 420.114005 -225.365108 
L 419.819674 -228.419247 
L 419.4691 -231.473386 
L 419.083393 -234.527526 
L 418.712862 -237.581665 
L 418.374738 -240.635805 
L 418.003298 -243.689944 
L 417.50114 -246.744083 
L 416.830104 -249.798223 
L 416.052842 -252.852362 
L 415.286351 -255.906501 
L 414.578873 -258.960641 
L 413.85407 -262.01478 
L 413.021996 -265.06892 
L 412.081843 -268.123059 
L 411.087368 -271.177198 
L 410.099029 -274.231338 
L 409.159533 -277.285477 
L 408.264643 -280.339617 
L 407.408107 -283.393756 
L 406.620264 -286.447895 
L 405.895336 -289.502035 
L 405.172965 -292.556174 
L 404.43985 -295.610313 
L 403.767202 -298.664453 
L 403.241929 -301.718592 
L 402.927647 -304.772732 
L 402.862681 -307.826871 
L 403.038665 -310.88101 
L 403.422438 -313.93515 
L 403.989253 -316.989289 
L 404.689598 -320.043428 
L 405.467573 -323.097568 
L 406.334923 -326.151707 
L 407.335444 -329.205847 
L 408.47905 -332.259986 
L 409.76139 -335.314125 
L 411.150113 -338.368265 
L 412.544327 -341.422404 
L 413.830672 -344.476544 
L 414.967871 -347.530683 
L 415.977995 -350.584822 
L 416.884681 -353.638962 
L 417.691562 -356.693101 
L 418.405058 -359.74724 
L 419.054198 -362.80138 
L 419.660566 -365.855519 
L 420.199434 -368.909659 
L 420.635061 -371.963798 
L 420.971729 -375.017937 
L 421.238761 -378.072077 
L 421.4563 -381.126216 
L 421.635455 -384.180355 
L 421.788432 -387.234495 
L 421.918433 -390.288634 
L 422.013795 -393.342774 
L 422.061054 -396.396913 
L 422.061314 -399.451052 
L 422.04818 -402.505192 
L 422.077122 -405.559331 
L 422.658527 -405.559331 
L 422.658527 -405.559331 
L 422.687469 -402.505192 
L 422.674336 -399.451052 
L 422.674596 -396.396913 
L 422.721854 -393.342774 
L 422.817216 -390.288634 
L 422.947218 -387.234495 
L 423.100194 -384.180355 
L 423.279349 -381.126216 
L 423.496889 -378.072077 
L 423.763921 -375.017937 
L 424.100588 -371.963798 
L 424.536215 -368.909659 
L 425.075083 -365.855519 
L 425.681451 -362.80138 
L 426.330591 -359.74724 
L 427.044087 -356.693101 
L 427.850968 -353.638962 
L 428.757655 -350.584822 
L 429.767778 -347.530683 
L 430.904977 -344.476544 
L 432.191323 -341.422404 
L 433.585536 -338.368265 
L 434.974259 -335.314125 
L 436.256599 -332.259986 
L 437.400206 -329.205847 
L 438.400727 -326.151707 
L 439.268076 -323.097568 
L 440.046052 -320.043428 
L 440.746396 -316.989289 
L 441.313211 -313.93515 
L 441.696984 -310.88101 
L 441.872968 -307.826871 
L 441.808003 -304.772732 
L 441.493721 -301.718592 
L 440.968447 -298.664453 
L 440.295799 -295.610313 
L 439.562684 -292.556174 
L 438.840313 -289.502035 
L 438.115385 -286.447895 
L 437.327542 -283.393756 
L 436.471007 -280.339617 
L 435.576116 -277.285477 
L 434.63662 -274.231338 
L 433.648281 -271.177198 
L 432.653806 -268.123059 
L 431.713653 -265.06892 
L 430.88158 -262.01478 
L 430.156776 -258.960641 
L 429.449298 -255.906501 
L 428.682807 -252.852362 
L 427.905546 -249.798223 
L 427.23451 -246.744083 
L 426.732351 -243.689944 
L 426.360912 -240.635805 
L 426.022787 -237.581665 
L 425.652256 -234.527526 
L 425.266549 -231.473386 
L 424.915975 -228.419247 
L 424.621645 -225.365108 
L 424.379791 -222.310968 
L 424.179386 -219.256829 
L 424.006403 -216.20269 
L 423.857088 -213.14855 
L 423.733537 -210.094411 
L 423.620613 -207.040271 
L 423.496218 -203.986132 
L 423.361193 -200.931993 
L 423.232007 -197.877853 
L 423.11658 -194.823714 
L 423.022351 -191.769575 
L 422.962152 -188.715435 
L 422.929434 -185.661296 
L 422.896264 -182.607156 
L 422.843994 -179.553017 
L 422.776378 -176.498878 
L 422.707907 -173.444738 
L 422.652084 -170.390599 
L 422.613349 -167.336459 
L 422.58333 -164.28232 
L 422.552271 -161.228181 
L 422.52111 -158.174041 
L 422.494508 -155.119902 
L 422.47409 -152.065763 
L 422.462235 -149.011623 
L 422.458989 -145.957484 
L 422.456846 -142.903344 
L 422.446992 -139.849205 
L 422.429272 -136.795066 
L 422.411171 -133.740926 
L 422.39764 -130.686787 
L 422.388366 -127.632648 
L 422.38368 -124.578508 
L 422.385092 -121.524369 
L 422.390431 -118.470229 
L 422.394082 -115.41609 
L 422.392363 -112.361951 
L 422.386565 -109.307811 
L 422.380517 -106.253672 
L 422.376146 -103.199532 
z
" style="stroke: #686868; stroke-width: 0.8"/>
    </defs>
    <g clip-path="url(#p52ad233bd3)">
     <use xlink:href="#mc1a6edf47d" x="0" y="439.898562" style="fill: #adadad; stroke: #686868; stroke-width: 0.8"/>
    </g>
   </g>
   <g id="FillBetweenPolyCollection_9">
    <defs>
     <path id="m4b143531b5" d="M 471.147804 -117.068302 
L 471.113563 -117.068302 
L 471.10959 -119.982353 
L 471.108156 -122.896404 
L 471.1098 -125.810455 
L 471.113654 -128.724505 
L 471.117166 -131.638556 
L 471.11753 -134.552607 
L 471.113883 -137.466658 
L 471.107619 -140.380709 
L 471.100183 -143.294759 
L 471.091699 -146.20881 
L 471.082965 -149.122861 
L 471.076959 -152.036912 
L 471.075448 -154.950963 
L 471.075331 -157.865013 
L 471.071629 -160.779064 
L 471.063273 -163.693115 
L 471.052931 -166.607166 
L 471.041997 -169.521217 
L 471.029466 -172.435267 
L 471.016013 -175.349318 
L 471.005401 -178.263369 
L 471.000238 -181.17742 
L 470.999058 -184.091471 
L 470.998622 -187.005521 
L 470.995766 -189.919572 
L 470.98561 -192.833623 
L 470.961038 -195.747674 
L 470.915361 -198.661725 
L 470.845354 -201.575775 
L 470.754588 -204.489826 
L 470.65522 -207.403877 
L 470.56307 -210.317928 
L 470.4878 -213.231979 
L 470.425634 -216.146029 
L 470.35944 -219.06008 
L 470.268224 -221.974131 
L 470.141546 -224.888182 
L 469.987114 -227.802233 
L 469.825195 -230.716283 
L 469.674251 -233.630334 
L 469.537306 -236.544385 
L 469.397677 -239.458436 
L 469.225007 -242.372487 
L 468.988231 -245.286537 
L 468.673338 -248.200588 
L 468.294628 -251.114639 
L 467.881473 -254.02869 
L 467.447857 -256.94274 
L 466.984628 -259.856791 
L 466.487194 -262.770842 
L 465.969145 -265.684893 
L 465.431785 -268.598944 
L 464.837984 -271.512994 
L 464.13778 -274.427045 
L 463.320587 -277.341096 
L 462.433168 -280.255147 
L 461.540462 -283.169198 
L 460.673582 -286.083248 
L 459.821438 -288.997299 
L 458.96062 -291.91135 
L 458.073245 -294.825401 
L 457.140169 -297.739452 
L 456.151486 -300.653502 
L 455.145803 -303.567553 
L 454.219736 -306.481604 
L 453.476634 -309.395655 
L 452.974956 -312.309706 
L 452.720262 -315.223756 
L 452.666932 -318.137807 
L 452.723705 -321.051858 
L 452.792233 -323.965909 
L 452.817344 -326.87996 
L 452.822896 -329.79401 
L 452.922239 -332.708061 
L 453.257178 -335.622112 
L 453.884687 -338.536163 
L 454.740302 -341.450214 
L 455.714766 -344.364264 
L 456.734845 -347.278315 
L 457.784955 -350.192366 
L 458.88614 -353.106417 
L 460.046173 -356.020468 
L 461.218615 -358.934518 
L 462.314826 -361.848569 
L 463.245621 -364.76262 
L 463.953402 -367.676671 
L 464.443532 -370.590722 
L 464.813823 -373.504772 
L 465.233096 -376.418823 
L 465.845804 -379.332874 
L 466.668639 -382.246925 
L 467.580037 -385.160976 
L 468.416066 -388.075026 
L 469.070198 -390.989077 
L 469.511138 -393.903128 
L 469.7524 -396.817179 
L 469.848272 -399.73123 
L 469.908549 -402.64528 
L 470.056572 -405.559331 
L 472.204795 -405.559331 
L 472.204795 -405.559331 
L 472.352818 -402.64528 
L 472.413095 -399.73123 
L 472.508967 -396.817179 
L 472.750229 -393.903128 
L 473.191169 -390.989077 
L 473.845301 -388.075026 
L 474.68133 -385.160976 
L 475.592728 -382.246925 
L 476.415563 -379.332874 
L 477.028271 -376.418823 
L 477.447544 -373.504772 
L 477.817835 -370.590722 
L 478.307965 -367.676671 
L 479.015745 -364.76262 
L 479.946541 -361.848569 
L 481.042752 -358.934518 
L 482.215194 -356.020468 
L 483.375227 -353.106417 
L 484.476411 -350.192366 
L 485.526522 -347.278315 
L 486.546601 -344.364264 
L 487.521065 -341.450214 
L 488.37668 -338.536163 
L 489.004189 -335.622112 
L 489.339128 -332.708061 
L 489.43847 -329.79401 
L 489.444023 -326.87996 
L 489.469133 -323.965909 
L 489.537662 -321.051858 
L 489.594435 -318.137807 
L 489.541105 -315.223756 
L 489.286411 -312.309706 
L 488.784733 -309.395655 
L 488.041631 -306.481604 
L 487.115564 -303.567553 
L 486.109881 -300.653502 
L 485.121198 -297.739452 
L 484.188122 -294.825401 
L 483.300747 -291.91135 
L 482.439929 -288.997299 
L 481.587785 -286.083248 
L 480.720905 -283.169198 
L 479.828199 -280.255147 
L 478.94078 -277.341096 
L 478.123587 -274.427045 
L 477.423383 -271.512994 
L 476.829582 -268.598944 
L 476.292222 -265.684893 
L 475.774173 -262.770842 
L 475.276739 -259.856791 
L 474.81351 -256.94274 
L 474.379893 -254.02869 
L 473.966739 -251.114639 
L 473.588029 -248.200588 
L 473.273136 -245.286537 
L 473.03636 -242.372487 
L 472.863689 -239.458436 
L 472.724061 -236.544385 
L 472.587116 -233.630334 
L 472.436172 -230.716283 
L 472.274253 -227.802233 
L 472.119821 -224.888182 
L 471.993143 -221.974131 
L 471.901927 -219.06008 
L 471.835733 -216.146029 
L 471.773567 -213.231979 
L 471.698297 -210.317928 
L 471.606147 -207.403877 
L 471.506779 -204.489826 
L 471.416013 -201.575775 
L 471.346006 -198.661725 
L 471.300329 -195.747674 
L 471.275757 -192.833623 
L 471.265601 -189.919572 
L 471.262745 -187.005521 
L 471.262309 -184.091471 
L 471.261129 -181.17742 
L 471.255966 -178.263369 
L 471.245354 -175.349318 
L 471.231901 -172.435267 
L 471.21937 -169.521217 
L 471.208436 -166.607166 
L 471.198094 -163.693115 
L 471.189738 -160.779064 
L 471.186036 -157.865013 
L 471.185919 -154.950963 
L 471.184408 -152.036912 
L 471.178402 -149.122861 
L 471.169668 -146.20881 
L 471.161184 -143.294759 
L 471.153748 -140.380709 
L 471.147483 -137.466658 
L 471.143837 -134.552607 
L 471.144201 -131.638556 
L 471.147713 -128.724505 
L 471.151567 -125.810455 
L 471.153211 -122.896404 
L 471.151777 -119.982353 
L 471.147804 -117.068302 
z
" style="stroke: #686868; stroke-width: 0.8"/>
    </defs>
    <g clip-path="url(#p52ad233bd3)">
     <use xlink:href="#m4b143531b5" x="0" y="439.898562" style="fill: #adadad; stroke: #686868; stroke-width: 0.8"/>
    </g>
   </g>
   <g id="FillBetweenPolyCollection_10">
    <defs>
     <path id="m55dcad64ec" d="M 519.916193 -51.829677 
L 519.870892 -51.829677 
L 519.867134 -55.402704 
L 519.869282 -58.975731 
L 519.875959 -62.548757 
L 519.882798 -66.121784 
L 519.885505 -69.694811 
L 519.881868 -73.267838 
L 519.872305 -76.840865 
L 519.860161 -80.413891 
L 519.850548 -83.986918 
L 519.84716 -87.559945 
L 519.850006 -91.132972 
L 519.855826 -94.705999 
L 519.860179 -98.279026 
L 519.860595 -101.852052 
L 519.858683 -105.425079 
L 519.857822 -108.998106 
L 519.85899 -112.571133 
L 519.860373 -116.14416 
L 519.859361 -119.717186 
L 519.852994 -123.290213 
L 519.838816 -126.86324 
L 519.817556 -130.436267 
L 519.793643 -134.009294 
L 519.772424 -137.58232 
L 519.757912 -141.155347 
L 519.75158 -144.728374 
L 519.750356 -148.301401 
L 519.747622 -151.874428 
L 519.739733 -155.447454 
L 519.729199 -159.020481 
L 519.71894 -162.593508 
L 519.707848 -166.166535 
L 519.694649 -169.739562 
L 519.682149 -173.312589 
L 519.675316 -176.885615 
L 519.676184 -180.458642 
L 519.681516 -184.031669 
L 519.68615 -187.604696 
L 519.687192 -191.177723 
L 519.682338 -194.750749 
L 519.666977 -198.323776 
L 519.638194 -201.896803 
L 519.599139 -205.46983 
L 519.553662 -209.042857 
L 519.497858 -212.615883 
L 519.422856 -216.18891 
L 519.328478 -219.761937 
L 519.229741 -223.334964 
L 519.145062 -226.907991 
L 519.080768 -230.481017 
L 519.02801 -234.054044 
L 518.966116 -237.627071 
L 518.866381 -241.200098 
L 518.704992 -244.773125 
L 518.484919 -248.346152 
L 518.242003 -251.919178 
L 518.012506 -255.492205 
L 517.789032 -259.065232 
L 517.523983 -262.638259 
L 517.180963 -266.211286 
L 516.768108 -269.784312 
L 516.320705 -273.357339 
L 515.86346 -276.930366 
L 515.387245 -280.503393 
L 514.852993 -284.07642 
L 514.216298 -287.649446 
L 513.453216 -291.222473 
L 512.576293 -294.7955 
L 511.633536 -298.368527 
L 510.675049 -301.941554 
L 509.70915 -305.51458 
L 508.709016 -309.087607 
L 507.665017 -312.660634 
L 506.605499 -316.233661 
L 505.578669 -319.806688 
L 504.646237 -323.379715 
L 503.865888 -326.952741 
L 503.246139 -330.525768 
L 502.761529 -334.098795 
L 502.440042 -337.671822 
L 502.377079 -341.244849 
L 502.634452 -344.817875 
L 503.174086 -348.390902 
L 503.906056 -351.963929 
L 504.760905 -355.536956 
L 505.696926 -359.109983 
L 506.657534 -362.683009 
L 507.547885 -366.256036 
L 508.275779 -369.829063 
L 508.830828 -373.40209 
L 509.310794 -376.975117 
L 509.838502 -380.548143 
L 510.450025 -384.12117 
L 511.07784 -387.694197 
L 511.606022 -391.267224 
L 511.925063 -394.840251 
L 512.067709 -398.413277 
L 512.3892 -401.986304 
L 513.395633 -405.559331 
L 526.391451 -405.559331 
L 526.391451 -405.559331 
L 527.397884 -401.986304 
L 527.719375 -398.413277 
L 527.862021 -394.840251 
L 528.181063 -391.267224 
L 528.709245 -387.694197 
L 529.33706 -384.12117 
L 529.948583 -380.548143 
L 530.476291 -376.975117 
L 530.956257 -373.40209 
L 531.511305 -369.829063 
L 532.239199 -366.256036 
L 533.129551 -362.683009 
L 534.090159 -359.109983 
L 535.02618 -355.536956 
L 535.881029 -351.963929 
L 536.612998 -348.390902 
L 537.152633 -344.817875 
L 537.410006 -341.244849 
L 537.347043 -337.671822 
L 537.025555 -334.098795 
L 536.540946 -330.525768 
L 535.921197 -326.952741 
L 535.140847 -323.379715 
L 534.208416 -319.806688 
L 533.181586 -316.233661 
L 532.122068 -312.660634 
L 531.078069 -309.087607 
L 530.077934 -305.51458 
L 529.112036 -301.941554 
L 528.153549 -298.368527 
L 527.210791 -294.7955 
L 526.333869 -291.222473 
L 525.570787 -287.649446 
L 524.934092 -284.07642 
L 524.399839 -280.503393 
L 523.923625 -276.930366 
L 523.46638 -273.357339 
L 523.018976 -269.784312 
L 522.606122 -266.211286 
L 522.263101 -262.638259 
L 521.998053 -259.065232 
L 521.774579 -255.492205 
L 521.545082 -251.919178 
L 521.302166 -248.346152 
L 521.082093 -244.773125 
L 520.920704 -241.200098 
L 520.820968 -237.627071 
L 520.759075 -234.054044 
L 520.706317 -230.481017 
L 520.642022 -226.907991 
L 520.557343 -223.334964 
L 520.458606 -219.761937 
L 520.364228 -216.18891 
L 520.289226 -212.615883 
L 520.233423 -209.042857 
L 520.187945 -205.46983 
L 520.148891 -201.896803 
L 520.120107 -198.323776 
L 520.104747 -194.750749 
L 520.099892 -191.177723 
L 520.100935 -187.604696 
L 520.105569 -184.031669 
L 520.1109 -180.458642 
L 520.111769 -176.885615 
L 520.104936 -173.312589 
L 520.092436 -169.739562 
L 520.079237 -166.166535 
L 520.068145 -162.593508 
L 520.057885 -159.020481 
L 520.047351 -155.447454 
L 520.039463 -151.874428 
L 520.036728 -148.301401 
L 520.035505 -144.728374 
L 520.029173 -141.155347 
L 520.01466 -137.58232 
L 519.993441 -134.009294 
L 519.969529 -130.436267 
L 519.948269 -126.86324 
L 519.934091 -123.290213 
L 519.927724 -119.717186 
L 519.926712 -116.14416 
L 519.928094 -112.571133 
L 519.929263 -108.998106 
L 519.928402 -105.425079 
L 519.92649 -101.852052 
L 519.926906 -98.279026 
L 519.931259 -94.705999 
L 519.937079 -91.132972 
L 519.939924 -87.559945 
L 519.936537 -83.986918 
L 519.926923 -80.413891 
L 519.914779 -76.840865 
L 519.905217 -73.267838 
L 519.90158 -69.694811 
L 519.904286 -66.121784 
L 519.911126 -62.548757 
L 519.917803 -58.975731 
L 519.91995 -55.402704 
L 519.916193 -51.829677 
z
" style="stroke: #686868; stroke-width: 0.8"/>
    </defs>
    <g clip-path="url(#p52ad233bd3)">
     <use xlink:href="#m55dcad64ec" x="0" y="439.898562" style="fill: #adadad; stroke: #686868; stroke-width: 0.8"/>
    </g>
   </g>
   <g id="matplotlib.axis_1">
    <g id="xtick_1">
     <g id="line2d_1">
      <defs>
       <path id="mc14566568d" d="M 0 0 
L 0 3.5 
" style="stroke: #000000; stroke-width: 0.8"/>
      </defs>
      <g>
       <use xlink:href="#mc14566568d" x="81.027813" y="403.310125" style="stroke: #000000; stroke-width: 0.8"/>
      </g>
     </g>
     <g id="text_1">
      <!-- 0.5 -->
      <g transform="translate(73.871406 417.148719) scale(0.09 -0.09)">
       <defs>
        <path id="DejaVuSans-30" d="M 2034 4250 
Q 1547 4250 1301 3770 
Q 1056 3291 1056 2328 
Q 1056 1369 1301 889 
Q 1547 409 2034 409 
Q 2525 409 2770 889 
Q 3016 1369 3016 2328 
Q 3016 3291 2770 3770 
Q 2525 4250 2034 4250 
z
M 2034 4750 
Q 2819 4750 3233 4129 
Q 3647 3509 3647 2328 
Q 3647 1150 3233 529 
Q 2819 -91 2034 -91 
Q 1250 -91 836 529 
Q 422 1150 422 2328 
Q 422 3509 836 4129 
Q 1250 4750 2034 4750 
z
" transform="scale(0.015625)"/>
        <path id="DejaVuSans-2e" d="M 684 794 
L 1344 794 
L 1344 0 
L 684 0 
L 684 794 
z
" transform="scale(0.015625)"/>
        <path id="DejaVuSans-35" d="M 691 4666 
L 3169 4666 
L 3169 4134 
L 1269 4134 
L 1269 2991 
Q 1406 3038 1543 3061 
Q 1681 3084 1819 3084 
Q 2600 3084 3056 2656 
Q 3513 2228 3513 1497 
Q 3513 744 3044 326 
Q 2575 -91 1722 -91 
Q 1428 -91 1123 -41 
Q 819 9 494 109 
L 494 744 
Q 775 591 1075 516 
Q 1375 441 1709 441 
Q 2250 441 2565 725 
Q 2881 1009 2881 1497 
Q 2881 1984 2565 2268 
Q 2250 2553 1709 2553 
Q 1456 2553 1204 2497 
Q 953 2441 691 2322 
L 691 4666 
z
" transform="scale(0.015625)"/>
       </defs>
       <use xlink:href="#DejaVuSans-30"/>
       <use xlink:href="#DejaVuSans-2e" transform="translate(63.623047 0)"/>
       <use xlink:href="#DejaVuSans-35" transform="translate(95.410156 0)"/>
      </g>
     </g>
    </g>
    <g id="xtick_2">
     <g id="line2d_2">
      <g>
       <use xlink:href="#mc14566568d" x="129.790672" y="403.310125" style="stroke: #000000; stroke-width: 0.8"/>
      </g>
     </g>
     <g id="text_2">
      <!-- 1.0 -->
      <g transform="translate(122.634265 417.148719) scale(0.09 -0.09)">
       <defs>
        <path id="DejaVuSans-31" d="M 794 531 
L 1825 531 
L 1825 4091 
L 703 3866 
L 703 4441 
L 1819 4666 
L 2450 4666 
L 2450 531 
L 3481 531 
L 3481 0 
L 794 0 
L 794 531 
z
" transform="scale(0.015625)"/>
       </defs>
       <use xlink:href="#DejaVuSans-31"/>
       <use xlink:href="#DejaVuSans-2e" transform="translate(63.623047 0)"/>
       <use xlink:href="#DejaVuSans-30" transform="translate(95.410156 0)"/>
      </g>
     </g>
    </g>
    <g id="xtick_3">
     <g id="line2d_3">
      <g>
       <use xlink:href="#mc14566568d" x="178.55353" y="403.310125" style="stroke: #000000; stroke-width: 0.8"/>
      </g>
     </g>
     <g id="text_3">
      <!-- 1.5 -->
      <g transform="translate(171.397124 417.148719) scale(0.09 -0.09)">
       <use xlink:href="#DejaVuSans-31"/>
       <use xlink:href="#DejaVuSans-2e" transform="translate(63.623047 0)"/>
       <use xlink:href="#DejaVuSans-35" transform="translate(95.410156 0)"/>
      </g>
     </g>
    </g>
    <g id="xtick_4">
     <g id="line2d_4">
      <g>
       <use xlink:href="#mc14566568d" x="227.316389" y="403.310125" style="stroke: #000000; stroke-width: 0.8"/>
      </g>
     </g>
     <g id="text_4">
      <!-- 2.0 -->
      <g transform="translate(220.159983 417.148719) scale(0.09 -0.09)">
       <defs>
        <path id="DejaVuSans-32" d="M 1228 531 
L 3431 531 
L 3431 0 
L 469 0 
L 469 531 
Q 828 903 1448 1529 
Q 2069 2156 2228 2338 
Q 2531 2678 2651 2914 
Q 2772 3150 2772 3378 
Q 2772 3750 2511 3984 
Q 2250 4219 1831 4219 
Q 1534 4219 1204 4116 
Q 875 4013 500 3803 
L 500 4441 
Q 881 4594 1212 4672 
Q 1544 4750 1819 4750 
Q 2544 4750 2975 4387 
Q 3406 4025 3406 3419 
Q 3406 3131 3298 2873 
Q 3191 2616 2906 2266 
Q 2828 2175 2409 1742 
Q 1991 1309 1228 531 
z
" transform="scale(0.015625)"/>
       </defs>
       <use xlink:href="#DejaVuSans-32"/>
       <use xlink:href="#DejaVuSans-2e" transform="translate(63.623047 0)"/>
       <use xlink:href="#DejaVuSans-30" transform="translate(95.410156 0)"/>
      </g>
     </g>
    </g>
    <g id="xtick_5">
     <g id="line2d_5">
      <g>
       <use xlink:href="#mc14566568d" x="276.079248" y="403.310125" style="stroke: #000000; stroke-width: 0.8"/>
      </g>
     </g>
     <g id="text_5">
      <!-- 2.5 -->
      <g transform="translate(268.922842 417.148719) scale(0.09 -0.09)">
       <use xlink:href="#DejaVuSans-32"/>
       <use xlink:href="#DejaVuSans-2e" transform="translate(63.623047 0)"/>
       <use xlink:href="#DejaVuSans-35" transform="translate(95.410156 0)"/>
      </g>
     </g>
    </g>
    <g id="xtick_6">
     <g id="line2d_6">
      <g>
       <use xlink:href="#mc14566568d" x="324.842107" y="403.310125" style="stroke: #000000; stroke-width: 0.8"/>
      </g>
     </g>
     <g id="text_6">
      <!-- 3.0 -->
      <g transform="translate(317.685701 417.148719) scale(0.09 -0.09)">
       <defs>
        <path id="DejaVuSans-33" d="M 2597 2516 
Q 3050 2419 3304 2112 
Q 3559 1806 3559 1356 
Q 3559 666 3084 287 
Q 2609 -91 1734 -91 
Q 1441 -91 1130 -33 
Q 819 25 488 141 
L 488 750 
Q 750 597 1062 519 
Q 1375 441 1716 441 
Q 2309 441 2620 675 
Q 2931 909 2931 1356 
Q 2931 1769 2642 2001 
Q 2353 2234 1838 2234 
L 1294 2234 
L 1294 2753 
L 1863 2753 
Q 2328 2753 2575 2939 
Q 2822 3125 2822 3475 
Q 2822 3834 2567 4026 
Q 2313 4219 1838 4219 
Q 1578 4219 1281 4162 
Q 984 4106 628 3988 
L 628 4550 
Q 988 4650 1302 4700 
Q 1616 4750 1894 4750 
Q 2613 4750 3031 4423 
Q 3450 4097 3450 3541 
Q 3450 3153 3228 2886 
Q 3006 2619 2597 2516 
z
" transform="scale(0.015625)"/>
       </defs>
       <use xlink:href="#DejaVuSans-33"/>
       <use xlink:href="#DejaVuSans-2e" transform="translate(63.623047 0)"/>
       <use xlink:href="#DejaVuSans-30" transform="translate(95.410156 0)"/>
      </g>
     </g>
    </g>
    <g id="xtick_7">
     <g id="line2d_7">
      <g>
       <use xlink:href="#mc14566568d" x="373.604966" y="403.310125" style="stroke: #000000; stroke-width: 0.8"/>
      </g>
     </g>
     <g id="text_7">
      <!-- 3.5 -->
      <g transform="translate(366.44856 417.148719) scale(0.09 -0.09)">
       <use xlink:href="#DejaVuSans-33"/>
       <use xlink:href="#DejaVuSans-2e" transform="translate(63.623047 0)"/>
       <use xlink:href="#DejaVuSans-35" transform="translate(95.410156 0)"/>
      </g>
     </g>
    </g>
    <g id="xtick_8">
     <g id="line2d_8">
      <g>
       <use xlink:href="#mc14566568d" x="422.367825" y="403.310125" style="stroke: #000000; stroke-width: 0.8"/>
      </g>
     </g>
     <g id="text_8">
      <!-- 4.0 -->
      <g transform="translate(415.211418 417.148719) scale(0.09 -0.09)">
       <defs>
        <path id="DejaVuSans-34" d="M 2419 4116 
L 825 1625 
L 2419 1625 
L 2419 4116 
z
M 2253 4666 
L 3047 4666 
L 3047 1625 
L 3713 1625 
L 3713 1100 
L 3047 1100 
L 3047 0 
L 2419 0 
L 2419 1100 
L 313 1100 
L 313 1709 
L 2253 4666 
z
" transform="scale(0.015625)"/>
       </defs>
       <use xlink:href="#DejaVuSans-34"/>
       <use xlink:href="#DejaVuSans-2e" transform="translate(63.623047 0)"/>
       <use xlink:href="#DejaVuSans-30" transform="translate(95.410156 0)"/>
      </g>
     </g>
    </g>
    <g id="xtick_9">
     <g id="line2d_9">
      <g>
       <use xlink:href="#mc14566568d" x="471.130683" y="403.310125" style="stroke: #000000; stroke-width: 0.8"/>
      </g>
     </g>
     <g id="text_9">
      <!-- 4.5 -->
      <g transform="translate(463.974277 417.148719) scale(0.09 -0.09)">
       <use xlink:href="#DejaVuSans-34"/>
       <use xlink:href="#DejaVuSans-2e" transform="translate(63.623047 0)"/>
       <use xlink:href="#DejaVuSans-35" transform="translate(95.410156 0)"/>
      </g>
     </g>
    </g>
    <g id="xtick_10">
     <g id="line2d_10">
      <g>
       <use xlink:href="#mc14566568d" x="519.893542" y="403.310125" style="stroke: #000000; stroke-width: 0.8"/>
      </g>
     </g>
     <g id="text_10">
      <!-- 5.0 -->
      <g transform="translate(512.737136 417.148719) scale(0.09 -0.09)">
       <use xlink:href="#DejaVuSans-35"/>
       <use xlink:href="#DejaVuSans-2e" transform="translate(63.623047 0)"/>
       <use xlink:href="#DejaVuSans-30" transform="translate(95.410156 0)"/>
      </g>
     </g>
    </g>
    <g id="text_11">
     <!-- Observed rating -->
     <g transform="translate(263.860375 430.618875) scale(0.1 -0.1)">
      <defs>
       <path id="DejaVuSans-4f" d="M 2522 4238 
Q 1834 4238 1429 3725 
Q 1025 3213 1025 2328 
Q 1025 1447 1429 934 
Q 1834 422 2522 422 
Q 3209 422 3611 934 
Q 4013 1447 4013 2328 
Q 4013 3213 3611 3725 
Q 3209 4238 2522 4238 
z
M 2522 4750 
Q 3503 4750 4090 4092 
Q 4678 3434 4678 2328 
Q 4678 1225 4090 567 
Q 3503 -91 2522 -91 
Q 1538 -91 948 565 
Q 359 1222 359 2328 
Q 359 3434 948 4092 
Q 1538 4750 2522 4750 
z
" transform="scale(0.015625)"/>
       <path id="DejaVuSans-62" d="M 3116 1747 
Q 3116 2381 2855 2742 
Q 2594 3103 2138 3103 
Q 1681 3103 1420 2742 
Q 1159 2381 1159 1747 
Q 1159 1113 1420 752 
Q 1681 391 2138 391 
Q 2594 391 2855 752 
Q 3116 1113 3116 1747 
z
M 1159 2969 
Q 1341 3281 1617 3432 
Q 1894 3584 2278 3584 
Q 2916 3584 3314 3078 
Q 3713 2572 3713 1747 
Q 3713 922 3314 415 
Q 2916 -91 2278 -91 
Q 1894 -91 1617 61 
Q 1341 213 1159 525 
L 1159 0 
L 581 0 
L 581 4863 
L 1159 4863 
L 1159 2969 
z
" transform="scale(0.015625)"/>
       <path id="DejaVuSans-73" d="M 2834 3397 
L 2834 2853 
Q 2591 2978 2328 3040 
Q 2066 3103 1784 3103 
Q 1356 3103 1142 2972 
Q 928 2841 928 2578 
Q 928 2378 1081 2264 
Q 1234 2150 1697 2047 
L 1894 2003 
Q 2506 1872 2764 1633 
Q 3022 1394 3022 966 
Q 3022 478 2636 193 
Q 2250 -91 1575 -91 
Q 1294 -91 989 -36 
Q 684 19 347 128 
L 347 722 
Q 666 556 975 473 
Q 1284 391 1588 391 
Q 1994 391 2212 530 
Q 2431 669 2431 922 
Q 2431 1156 2273 1281 
Q 2116 1406 1581 1522 
L 1381 1569 
Q 847 1681 609 1914 
Q 372 2147 372 2553 
Q 372 3047 722 3315 
Q 1072 3584 1716 3584 
Q 2034 3584 2315 3537 
Q 2597 3491 2834 3397 
z
" transform="scale(0.015625)"/>
       <path id="DejaVuSans-65" d="M 3597 1894 
L 3597 1613 
L 953 1613 
Q 991 1019 1311 708 
Q 1631 397 2203 397 
Q 2534 397 2845 478 
Q 3156 559 3463 722 
L 3463 178 
Q 3153 47 2828 -22 
Q 2503 -91 2169 -91 
Q 1331 -91 842 396 
Q 353 884 353 1716 
Q 353 2575 817 3079 
Q 1281 3584 2069 3584 
Q 2775 3584 3186 3129 
Q 3597 2675 3597 1894 
z
M 3022 2063 
Q 3016 2534 2758 2815 
Q 2500 3097 2075 3097 
Q 1594 3097 1305 2825 
Q 1016 2553 972 2059 
L 3022 2063 
z
" transform="scale(0.015625)"/>
       <path id="DejaVuSans-72" d="M 2631 2963 
Q 2534 3019 2420 3045 
Q 2306 3072 2169 3072 
Q 1681 3072 1420 2755 
Q 1159 2438 1159 1844 
L 1159 0 
L 581 0 
L 581 3500 
L 1159 3500 
L 1159 2956 
Q 1341 3275 1631 3429 
Q 1922 3584 2338 3584 
Q 2397 3584 2469 3576 
Q 2541 3569 2628 3553 
L 2631 2963 
z
" transform="scale(0.015625)"/>
       <path id="DejaVuSans-76" d="M 191 3500 
L 800 3500 
L 1894 563 
L 2988 3500 
L 3597 3500 
L 2284 0 
L 1503 0 
L 191 3500 
z
" transform="scale(0.015625)"/>
       <path id="DejaVuSans-64" d="M 2906 2969 
L 2906 4863 
L 3481 4863 
L 3481 0 
L 2906 0 
L 2906 525 
Q 2725 213 2448 61 
Q 2172 -91 1784 -91 
Q 1150 -91 751 415 
Q 353 922 353 1747 
Q 353 2572 751 3078 
Q 1150 3584 1784 3584 
Q 2172 3584 2448 3432 
Q 2725 3281 2906 2969 
z
M 947 1747 
Q 947 1113 1208 752 
Q 1469 391 1925 391 
Q 2381 391 2643 752 
Q 2906 1113 2906 1747 
Q 2906 2381 2643 2742 
Q 2381 3103 1925 3103 
Q 1469 3103 1208 2742 
Q 947 2381 947 1747 
z
" transform="scale(0.015625)"/>
       <path id="DejaVuSans-20" transform="scale(0.015625)"/>
       <path id="DejaVuSans-61" d="M 2194 1759 
Q 1497 1759 1228 1600 
Q 959 1441 959 1056 
Q 959 750 1161 570 
Q 1363 391 1709 391 
Q 2188 391 2477 730 
Q 2766 1069 2766 1631 
L 2766 1759 
L 2194 1759 
z
M 3341 1997 
L 3341 0 
L 2766 0 
L 2766 531 
Q 2569 213 2275 61 
Q 1981 -91 1556 -91 
Q 1019 -91 701 211 
Q 384 513 384 1019 
Q 384 1609 779 1909 
Q 1175 2209 1959 2209 
L 2766 2209 
L 2766 2266 
Q 2766 2663 2505 2880 
Q 2244 3097 1772 3097 
Q 1472 3097 1187 3025 
Q 903 2953 641 2809 
L 641 3341 
Q 956 3463 1253 3523 
Q 1550 3584 1831 3584 
Q 2591 3584 2966 3190 
Q 3341 2797 3341 1997 
z
" transform="scale(0.015625)"/>
       <path id="DejaVuSans-74" d="M 1172 4494 
L 1172 3500 
L 2356 3500 
L 2356 3053 
L 1172 3053 
L 1172 1153 
Q 1172 725 1289 603 
Q 1406 481 1766 481 
L 2356 481 
L 2356 0 
L 1766 0 
Q 1100 0 847 248 
Q 594 497 594 1153 
L 594 3053 
L 172 3053 
L 172 3500 
L 594 3500 
L 594 4494 
L 1172 4494 
z
" transform="scale(0.015625)"/>
       <path id="DejaVuSans-69" d="M 603 3500 
L 1178 3500 
L 1178 0 
L 603 0 
L 603 3500 
z
M 603 4863 
L 1178 4863 
L 1178 4134 
L 603 4134 
L 603 4863 
z
" transform="scale(0.015625)"/>
       <path id="DejaVuSans-6e" d="M 3513 2113 
L 3513 0 
L 2938 0 
L 2938 2094 
Q 2938 2591 2744 2837 
Q 2550 3084 2163 3084 
Q 1697 3084 1428 2787 
Q 1159 2491 1159 1978 
L 1159 0 
L 581 0 
L 581 3500 
L 1159 3500 
L 1159 2956 
Q 1366 3272 1645 3428 
Q 1925 3584 2291 3584 
Q 2894 3584 3203 3211 
Q 3513 2838 3513 2113 
z
" transform="scale(0.015625)"/>
       <path id="DejaVuSans-67" d="M 2906 1791 
Q 2906 2416 2648 2759 
Q 2391 3103 1925 3103 
Q 1463 3103 1205 2759 
Q 947 2416 947 1791 
Q 947 1169 1205 825 
Q 1463 481 1925 481 
Q 2391 481 2648 825 
Q 2906 1169 2906 1791 
z
M 3481 434 
Q 3481 -459 3084 -895 
Q 2688 -1331 1869 -1331 
Q 1566 -1331 1297 -1286 
Q 1028 -1241 775 -1147 
L 775 -588 
Q 1028 -725 1275 -790 
Q 1522 -856 1778 -856 
Q 2344 -856 2625 -561 
Q 2906 -266 2906 331 
L 2906 616 
Q 2728 306 2450 153 
Q 2172 0 1784 0 
Q 1141 0 747 490 
Q 353 981 353 1791 
Q 353 2603 747 3093 
Q 1141 3584 1784 3584 
Q 2172 3584 2450 3431 
Q 2728 3278 2906 2969 
L 2906 3500 
L 3481 3500 
L 3481 434 
z
" transform="scale(0.015625)"/>
      </defs>
      <use xlink:href="#DejaVuSans-4f"/>
      <use xlink:href="#DejaVuSans-62" transform="translate(78.710938 0)"/>
      <use xlink:href="#DejaVuSans-73" transform="translate(142.1875 0)"/>
      <use xlink:href="#DejaVuSans-65" transform="translate(194.287109 0)"/>
      <use xlink:href="#DejaVuSans-72" transform="translate(255.810547 0)"/>
      <use xlink:href="#DejaVuSans-76" transform="translate(296.923828 0)"/>
      <use xlink:href="#DejaVuSans-65" transform="translate(356.103516 0)"/>
      <use xlink:href="#DejaVuSans-64" transform="translate(417.626953 0)"/>
      <use xlink:href="#DejaVuSans-20" transform="translate(481.103516 0)"/>
      <use xlink:href="#DejaVuSans-72" transform="translate(512.890625 0)"/>
      <use xlink:href="#DejaVuSans-61" transform="translate(554.003906 0)"/>
      <use xlink:href="#DejaVuSans-74" transform="translate(615.283203 0)"/>
      <use xlink:href="#DejaVuSans-69" transform="translate(654.492188 0)"/>
      <use xlink:href="#DejaVuSans-6e" transform="translate(682.275391 0)"/>
      <use xlink:href="#DejaVuSans-67" transform="translate(745.654297 0)"/>
     </g>
    </g>
   </g>
   <g id="matplotlib.axis_2">
    <g id="ytick_1">
     <g id="line2d_11">
      <defs>
       <path id="m29ddc87ecd" d="M 0 0 
L -3.5 0 
" style="stroke: #000000; stroke-width: 0.8"/>
      </defs>
      <g>
       <use xlink:href="#m29ddc87ecd" x="47.917188" y="355.183487" style="stroke: #000000; stroke-width: 0.8"/>
      </g>
     </g>
     <g id="text_12">
      <!-- 1.00 -->
      <g transform="translate(20.878125 358.602784) scale(0.09 -0.09)">
       <use xlink:href="#DejaVuSans-31"/>
       <use xlink:href="#DejaVuSans-2e" transform="translate(63.623047 0)"/>
       <use xlink:href="#DejaVuSans-30" transform="translate(95.410156 0)"/>
       <use xlink:href="#DejaVuSans-30" transform="translate(159.033203 0)"/>
      </g>
     </g>
    </g>
    <g id="ytick_2">
     <g id="line2d_12">
      <g>
       <use xlink:href="#m29ddc87ecd" x="47.917188" y="274.972423" style="stroke: #000000; stroke-width: 0.8"/>
      </g>
     </g>
     <g id="text_13">
      <!-- 2.00 -->
      <g transform="translate(20.878125 278.39172) scale(0.09 -0.09)">
       <use xlink:href="#DejaVuSans-32"/>
       <use xlink:href="#DejaVuSans-2e" transform="translate(63.623047 0)"/>
       <use xlink:href="#DejaVuSans-30" transform="translate(95.410156 0)"/>
       <use xlink:href="#DejaVuSans-30" transform="translate(159.033203 0)"/>
      </g>
     </g>
    </g>
    <g id="ytick_3">
     <g id="line2d_13">
      <g>
       <use xlink:href="#m29ddc87ecd" x="47.917188" y="194.761359" style="stroke: #000000; stroke-width: 0.8"/>
      </g>
     </g>
     <g id="text_14">
      <!-- 3.00 -->
      <g transform="translate(20.878125 198.180656) scale(0.09 -0.09)">
       <use xlink:href="#DejaVuSans-33"/>
       <use xlink:href="#DejaVuSans-2e" transform="translate(63.623047 0)"/>
       <use xlink:href="#DejaVuSans-30" transform="translate(95.410156 0)"/>
       <use xlink:href="#DejaVuSans-30" transform="translate(159.033203 0)"/>
      </g>
     </g>
    </g>
    <g id="ytick_4">
     <g id="line2d_14">
      <g>
       <use xlink:href="#m29ddc87ecd" x="47.917188" y="114.550295" style="stroke: #000000; stroke-width: 0.8"/>
      </g>
     </g>
     <g id="text_15">
      <!-- 4.00 -->
      <g transform="translate(20.878125 117.969592) scale(0.09 -0.09)">
       <use xlink:href="#DejaVuSans-34"/>
       <use xlink:href="#DejaVuSans-2e" transform="translate(63.623047 0)"/>
       <use xlink:href="#DejaVuSans-30" transform="translate(95.410156 0)"/>
       <use xlink:href="#DejaVuSans-30" transform="translate(159.033203 0)"/>
      </g>
     </g>
    </g>
    <g id="ytick_5">
     <g id="line2d_15">
      <g>
       <use xlink:href="#m29ddc87ecd" x="47.917188" y="34.339231" style="stroke: #000000; stroke-width: 0.8"/>
      </g>
     </g>
     <g id="text_16">
      <!-- 5.00 -->
      <g transform="translate(20.878125 37.758528) scale(0.09 -0.09)">
       <use xlink:href="#DejaVuSans-35"/>
       <use xlink:href="#DejaVuSans-2e" transform="translate(63.623047 0)"/>
       <use xlink:href="#DejaVuSans-30" transform="translate(95.410156 0)"/>
       <use xlink:href="#DejaVuSans-30" transform="translate(159.033203 0)"/>
      </g>
     </g>
    </g>
    <g id="text_17">
     <!-- Predicted rating -->
     <g transform="translate(14.798438 254.685219) rotate(-90) scale(0.1 -0.1)">
      <defs>
       <path id="DejaVuSans-50" d="M 1259 4147 
L 1259 2394 
L 2053 2394 
Q 2494 2394 2734 2622 
Q 2975 2850 2975 3272 
Q 2975 3691 2734 3919 
Q 2494 4147 2053 4147 
L 1259 4147 
z
M 628 4666 
L 2053 4666 
Q 2838 4666 3239 4311 
Q 3641 3956 3641 3272 
Q 3641 2581 3239 2228 
Q 2838 1875 2053 1875 
L 1259 1875 
L 1259 0 
L 628 0 
L 628 4666 
z
" transform="scale(0.015625)"/>
       <path id="DejaVuSans-63" d="M 3122 3366 
L 3122 2828 
Q 2878 2963 2633 3030 
Q 2388 3097 2138 3097 
Q 1578 3097 1268 2742 
Q 959 2388 959 1747 
Q 959 1106 1268 751 
Q 1578 397 2138 397 
Q 2388 397 2633 464 
Q 2878 531 3122 666 
L 3122 134 
Q 2881 22 2623 -34 
Q 2366 -91 2075 -91 
Q 1284 -91 818 406 
Q 353 903 353 1747 
Q 353 2603 823 3093 
Q 1294 3584 2113 3584 
Q 2378 3584 2631 3529 
Q 2884 3475 3122 3366 
z
" transform="scale(0.015625)"/>
      </defs>
      <use xlink:href="#DejaVuSans-50"/>
      <use xlink:href="#DejaVuSans-72" transform="translate(58.552734 0)"/>
      <use xlink:href="#DejaVuSans-65" transform="translate(97.416016 0)"/>
      <use xlink:href="#DejaVuSans-64" transform="translate(158.939453 0)"/>
      <use xlink:href="#DejaVuSans-69" transform="translate(222.416016 0)"/>
      <use xlink:href="#DejaVuSans-63" transform="translate(250.199219 0)"/>
      <use xlink:href="#DejaVuSans-74" transform="translate(305.179688 0)"/>
      <use xlink:href="#DejaVuSans-65" transform="translate(344.388672 0)"/>
      <use xlink:href="#DejaVuSans-64" transform="translate(405.912109 0)"/>
      <use xlink:href="#DejaVuSans-20" transform="translate(469.388672 0)"/>
      <use xlink:href="#DejaVuSans-72" transform="translate(501.175781 0)"/>
      <use xlink:href="#DejaVuSans-61" transform="translate(542.289062 0)"/>
      <use xlink:href="#DejaVuSans-74" transform="translate(603.568359 0)"/>
      <use xlink:href="#DejaVuSans-69" transform="translate(642.777344 0)"/>
      <use xlink:href="#DejaVuSans-6e" transform="translate(670.560547 0)"/>
      <use xlink:href="#DejaVuSans-67" transform="translate(733.939453 0)"/>
     </g>
    </g>
   </g>
   <g id="line2d_16">
    <path d="M 71.926505 349.597356 
L 90.12912 349.597356 
" clip-path="url(#p52ad233bd3)" style="fill: none; stroke-dasharray: 1,0.6; stroke-dashoffset: 0; stroke: #686868; stroke-width: 0.8"/>
   </g>
   <g id="line2d_17">
    <path d="M 71.954407 308.190116 
L 90.101218 308.190116 
" clip-path="url(#p52ad233bd3)" style="fill: none; stroke-dasharray: 2,0.8; stroke-dashoffset: 0; stroke: #686868; stroke-width: 0.8"/>
   </g>
   <g id="line2d_18">
    <path d="M 75.230954 251.871853 
L 86.824671 251.871853 
" clip-path="url(#p52ad233bd3)" style="fill: none; stroke-dasharray: 1,0.6; stroke-dashoffset: 0; stroke: #686868; stroke-width: 0.8"/>
   </g>
   <g id="line2d_19">
    <path d="M 119.000083 304.721448 
L 140.581261 304.721448 
" clip-path="url(#p52ad233bd3)" style="fill: none; stroke-dasharray: 1,0.6; stroke-dashoffset: 0; stroke: #686868; stroke-width: 0.8"/>
   </g>
   <g id="line2d_20">
    <path d="M 118.138683 271.806944 
L 141.44266 271.806944 
" clip-path="url(#p52ad233bd3)" style="fill: none; stroke-dasharray: 2,0.8; stroke-dashoffset: 0; stroke: #686868; stroke-width: 0.8"/>
   </g>
   <g id="line2d_21">
    <path d="M 121.879946 228.660065 
L 137.701398 228.660065 
" clip-path="url(#p52ad233bd3)" style="fill: none; stroke-dasharray: 1,0.6; stroke-dashoffset: 0; stroke: #686868; stroke-width: 0.8"/>
   </g>
   <g id="line2d_22">
    <path d="M 167.783211 283.863757 
L 189.32385 283.863757 
" clip-path="url(#p52ad233bd3)" style="fill: none; stroke-dasharray: 1,0.6; stroke-dashoffset: 0; stroke: #686868; stroke-width: 0.8"/>
   </g>
   <g id="line2d_23">
    <path d="M 167.249746 247.799378 
L 189.857315 247.799378 
" clip-path="url(#p52ad233bd3)" style="fill: none; stroke-dasharray: 2,0.8; stroke-dashoffset: 0; stroke: #686868; stroke-width: 0.8"/>
   </g>
   <g id="line2d_24">
    <path d="M 168.768652 210.664646 
L 188.338409 210.664646 
" clip-path="url(#p52ad233bd3)" style="fill: none; stroke-dasharray: 1,0.6; stroke-dashoffset: 0; stroke: #686868; stroke-width: 0.8"/>
   </g>
   <g id="line2d_25">
    <path d="M 215.703662 257.819076 
L 238.929116 257.819076 
" clip-path="url(#p52ad233bd3)" style="fill: none; stroke-dasharray: 1,0.6; stroke-dashoffset: 0; stroke: #686868; stroke-width: 0.8"/>
   </g>
   <g id="line2d_26">
    <path d="M 214.521638 225.077204 
L 240.11114 225.077204 
" clip-path="url(#p52ad233bd3)" style="fill: none; stroke-dasharray: 2,0.8; stroke-dashoffset: 0; stroke: #686868; stroke-width: 0.8"/>
   </g>
   <g id="line2d_27">
    <path d="M 218.060436 189.51907 
L 236.572342 189.51907 
" clip-path="url(#p52ad233bd3)" style="fill: none; stroke-dasharray: 1,0.6; stroke-dashoffset: 0; stroke: #686868; stroke-width: 0.8"/>
   </g>
   <g id="line2d_28">
    <path d="M 265.465722 233.031196 
L 286.692775 233.031196 
" clip-path="url(#p52ad233bd3)" style="fill: none; stroke-dasharray: 1,0.6; stroke-dashoffset: 0; stroke: #686868; stroke-width: 0.8"/>
   </g>
   <g id="line2d_29">
    <path d="M 261.761779 202.159788 
L 290.396717 202.159788 
" clip-path="url(#p52ad233bd3)" style="fill: none; stroke-dasharray: 2,0.8; stroke-dashoffset: 0; stroke: #686868; stroke-width: 0.8"/>
   </g>
   <g id="line2d_30">
    <path d="M 264.565523 171.627051 
L 287.592973 171.627051 
" clip-path="url(#p52ad233bd3)" style="fill: none; stroke-dasharray: 1,0.6; stroke-dashoffset: 0; stroke: #686868; stroke-width: 0.8"/>
   </g>
   <g id="line2d_31">
    <path d="M 313.166332 209.089039 
L 336.517882 209.089039 
" clip-path="url(#p52ad233bd3)" style="fill: none; stroke-dasharray: 1,0.6; stroke-dashoffset: 0; stroke: #686868; stroke-width: 0.8"/>
   </g>
   <g id="line2d_32">
    <path d="M 308.91531 180.501737 
L 340.768904 180.501737 
" clip-path="url(#p52ad233bd3)" style="fill: none; stroke-dasharray: 2,0.8; stroke-dashoffset: 0; stroke: #686868; stroke-width: 0.8"/>
   </g>
   <g id="line2d_33">
    <path d="M 310.994913 154.190657 
L 338.689301 154.190657 
" clip-path="url(#p52ad233bd3)" style="fill: none; stroke-dasharray: 1,0.6; stroke-dashoffset: 0; stroke: #686868; stroke-width: 0.8"/>
   </g>
   <g id="line2d_34">
    <path d="M 360.21596 183.251422 
L 386.993971 183.251422 
" clip-path="url(#p52ad233bd3)" style="fill: none; stroke-dasharray: 1,0.6; stroke-dashoffset: 0; stroke: #686868; stroke-width: 0.8"/>
   </g>
   <g id="line2d_35">
    <path d="M 354.887299 158.813341 
L 392.322632 158.813341 
" clip-path="url(#p52ad233bd3)" style="fill: none; stroke-dasharray: 2,0.8; stroke-dashoffset: 0; stroke: #686868; stroke-width: 0.8"/>
   </g>
   <g id="line2d_36">
    <path d="M 357.442123 136.380098 
L 389.767809 136.380098 
" clip-path="url(#p52ad233bd3)" style="fill: none; stroke-dasharray: 1,0.6; stroke-dashoffset: 0; stroke: #686868; stroke-width: 0.8"/>
   </g>
   <g id="line2d_37">
    <path d="M 408.967118 161.956397 
L 435.768532 161.956397 
" clip-path="url(#p52ad233bd3)" style="fill: none; stroke-dasharray: 1,0.6; stroke-dashoffset: 0; stroke: #686868; stroke-width: 0.8"/>
   </g>
   <g id="line2d_38">
    <path d="M 403.162097 137.404179 
L 441.573552 137.404179 
" clip-path="url(#p52ad233bd3)" style="fill: none; stroke-dasharray: 2,0.8; stroke-dashoffset: 0; stroke: #686868; stroke-width: 0.8"/>
   </g>
   <g id="line2d_39">
    <path d="M 405.792125 115.658172 
L 438.943524 115.658172 
" clip-path="url(#p52ad233bd3)" style="fill: none; stroke-dasharray: 1,0.6; stroke-dashoffset: 0; stroke: #686868; stroke-width: 0.8"/>
   </g>
   <g id="line2d_40">
    <path d="M 457.31127 142.693471 
L 484.950097 142.693471 
" clip-path="url(#p52ad233bd3)" style="fill: none; stroke-dasharray: 1,0.6; stroke-dashoffset: 0; stroke: #686868; stroke-width: 0.8"/>
   </g>
   <g id="line2d_41">
    <path d="M 452.721548 118.957445 
L 489.539819 118.957445 
" clip-path="url(#p52ad233bd3)" style="fill: none; stroke-dasharray: 2,0.8; stroke-dashoffset: 0; stroke: #686868; stroke-width: 0.8"/>
   </g>
   <g id="line2d_42">
    <path d="M 455.444166 96.343503 
L 486.817201 96.343503 
" clip-path="url(#p52ad233bd3)" style="fill: none; stroke-dasharray: 1,0.6; stroke-dashoffset: 0; stroke: #686868; stroke-width: 0.8"/>
   </g>
   <g id="line2d_43">
    <path d="M 507.137157 125.457819 
L 532.649928 125.457819 
" clip-path="url(#p52ad233bd3)" style="fill: none; stroke-dasharray: 1,0.6; stroke-dashoffset: 0; stroke: #686868; stroke-width: 0.8"/>
   </g>
   <g id="line2d_44">
    <path d="M 502.398692 99.880231 
L 537.388392 99.880231 
" clip-path="url(#p52ad233bd3)" style="fill: none; stroke-dasharray: 2,0.8; stroke-dashoffset: 0; stroke: #686868; stroke-width: 0.8"/>
   </g>
   <g id="line2d_45">
    <path d="M 507.47632 73.929723 
L 532.310765 73.929723 
" clip-path="url(#p52ad233bd3)" style="fill: none; stroke-dasharray: 1,0.6; stroke-dashoffset: 0; stroke: #686868; stroke-width: 0.8"/>
   </g>
   <g id="line2d_46">
    <path d="M 81.027813 395.289019 
L 129.790672 355.183487 
L 178.55353 315.077955 
L 227.316389 274.972423 
L 276.079248 234.866891 
L 324.842107 194.761359 
L 373.604966 154.655827 
L 422.367825 114.550295 
L 471.130683 74.444763 
L 519.893542 34.339231 
" clip-path="url(#p52ad233bd3)" style="fill: none; stroke-dasharray: 3.7,1.6; stroke-dashoffset: 0; stroke: #0d0d0d"/>
   </g>
   <g id="patch_3">
    <path d="M 47.917188 403.310125 
L 47.917188 26.318125 
" style="fill: none; stroke: #333333; stroke-width: 0.8; stroke-linejoin: miter; stroke-linecap: square"/>
   </g>
   <g id="patch_4">
    <path d="M 47.917188 403.310125 
L 560.719188 403.310125 
" style="fill: none; stroke: #333333; stroke-width: 0.8; stroke-linejoin: miter; stroke-linecap: square"/>
   </g>
   <g id="text_18">
    <!-- Parity plot: observed vs predicted ratings -->
    <g transform="translate(47.917188 16.318125) scale(0.12 -0.12)">
     <defs>
      <path id="DejaVuSans-Bold-50" d="M 588 4666 
L 2584 4666 
Q 3475 4666 3951 4270 
Q 4428 3875 4428 3144 
Q 4428 2409 3951 2014 
Q 3475 1619 2584 1619 
L 1791 1619 
L 1791 0 
L 588 0 
L 588 4666 
z
M 1791 3794 
L 1791 2491 
L 2456 2491 
Q 2806 2491 2997 2661 
Q 3188 2831 3188 3144 
Q 3188 3456 2997 3625 
Q 2806 3794 2456 3794 
L 1791 3794 
z
" transform="scale(0.015625)"/>
      <path id="DejaVuSans-Bold-61" d="M 2106 1575 
Q 1756 1575 1579 1456 
Q 1403 1338 1403 1106 
Q 1403 894 1545 773 
Q 1688 653 1941 653 
Q 2256 653 2472 879 
Q 2688 1106 2688 1447 
L 2688 1575 
L 2106 1575 
z
M 3816 1997 
L 3816 0 
L 2688 0 
L 2688 519 
Q 2463 200 2181 54 
Q 1900 -91 1497 -91 
Q 953 -91 614 226 
Q 275 544 275 1050 
Q 275 1666 698 1953 
Q 1122 2241 2028 2241 
L 2688 2241 
L 2688 2328 
Q 2688 2594 2478 2717 
Q 2269 2841 1825 2841 
Q 1466 2841 1156 2769 
Q 847 2697 581 2553 
L 581 3406 
Q 941 3494 1303 3539 
Q 1666 3584 2028 3584 
Q 2975 3584 3395 3211 
Q 3816 2838 3816 1997 
z
" transform="scale(0.015625)"/>
      <path id="DejaVuSans-Bold-72" d="M 3138 2547 
Q 2991 2616 2845 2648 
Q 2700 2681 2553 2681 
Q 2122 2681 1889 2404 
Q 1656 2128 1656 1613 
L 1656 0 
L 538 0 
L 538 3500 
L 1656 3500 
L 1656 2925 
Q 1872 3269 2151 3426 
Q 2431 3584 2822 3584 
Q 2878 3584 2943 3579 
Q 3009 3575 3134 3559 
L 3138 2547 
z
" transform="scale(0.015625)"/>
      <path id="DejaVuSans-Bold-69" d="M 538 3500 
L 1656 3500 
L 1656 0 
L 538 0 
L 538 3500 
z
M 538 4863 
L 1656 4863 
L 1656 3950 
L 538 3950 
L 538 4863 
z
" transform="scale(0.015625)"/>
      <path id="DejaVuSans-Bold-74" d="M 1759 4494 
L 1759 3500 
L 2913 3500 
L 2913 2700 
L 1759 2700 
L 1759 1216 
Q 1759 972 1856 886 
Q 1953 800 2241 800 
L 2816 800 
L 2816 0 
L 1856 0 
Q 1194 0 917 276 
Q 641 553 641 1216 
L 641 2700 
L 84 2700 
L 84 3500 
L 641 3500 
L 641 4494 
L 1759 4494 
z
" transform="scale(0.015625)"/>
      <path id="DejaVuSans-Bold-79" d="M 78 3500 
L 1197 3500 
L 2138 1125 
L 2938 3500 
L 4056 3500 
L 2584 -331 
Q 2363 -916 2067 -1148 
Q 1772 -1381 1288 -1381 
L 641 -1381 
L 641 -647 
L 991 -647 
Q 1275 -647 1404 -556 
Q 1534 -466 1606 -231 
L 1638 -134 
L 78 3500 
z
" transform="scale(0.015625)"/>
      <path id="DejaVuSans-Bold-20" transform="scale(0.015625)"/>
      <path id="DejaVuSans-Bold-70" d="M 1656 506 
L 1656 -1331 
L 538 -1331 
L 538 3500 
L 1656 3500 
L 1656 2988 
Q 1888 3294 2169 3439 
Q 2450 3584 2816 3584 
Q 3463 3584 3878 3070 
Q 4294 2556 4294 1747 
Q 4294 938 3878 423 
Q 3463 -91 2816 -91 
Q 2450 -91 2169 54 
Q 1888 200 1656 506 
z
M 2400 2772 
Q 2041 2772 1848 2508 
Q 1656 2244 1656 1747 
Q 1656 1250 1848 986 
Q 2041 722 2400 722 
Q 2759 722 2948 984 
Q 3138 1247 3138 1747 
Q 3138 2247 2948 2509 
Q 2759 2772 2400 2772 
z
" transform="scale(0.015625)"/>
      <path id="DejaVuSans-Bold-6c" d="M 538 4863 
L 1656 4863 
L 1656 0 
L 538 0 
L 538 4863 
z
" transform="scale(0.015625)"/>
      <path id="DejaVuSans-Bold-6f" d="M 2203 2784 
Q 1831 2784 1636 2517 
Q 1441 2250 1441 1747 
Q 1441 1244 1636 976 
Q 1831 709 2203 709 
Q 2569 709 2762 976 
Q 2956 1244 2956 1747 
Q 2956 2250 2762 2517 
Q 2569 2784 2203 2784 
z
M 2203 3584 
Q 3106 3584 3614 3096 
Q 4122 2609 4122 1747 
Q 4122 884 3614 396 
Q 3106 -91 2203 -91 
Q 1297 -91 786 396 
Q 275 884 275 1747 
Q 275 2609 786 3096 
Q 1297 3584 2203 3584 
z
" transform="scale(0.015625)"/>
      <path id="DejaVuSans-Bold-3a" d="M 716 3500 
L 1844 3500 
L 1844 2291 
L 716 2291 
L 716 3500 
z
M 716 1209 
L 1844 1209 
L 1844 0 
L 716 0 
L 716 1209 
z
" transform="scale(0.015625)"/>
      <path id="DejaVuSans-Bold-62" d="M 2400 722 
Q 2759 722 2948 984 
Q 3138 1247 3138 1747 
Q 3138 2247 2948 2509 
Q 2759 2772 2400 2772 
Q 2041 2772 1848 2508 
Q 1656 2244 1656 1747 
Q 1656 1250 1848 986 
Q 2041 722 2400 722 
z
M 1656 2988 
Q 1888 3294 2169 3439 
Q 2450 3584 2816 3584 
Q 3463 3584 3878 3070 
Q 4294 2556 4294 1747 
Q 4294 938 3878 423 
Q 3463 -91 2816 -91 
Q 2450 -91 2169 54 
Q 1888 200 1656 506 
L 1656 0 
L 538 0 
L 538 4863 
L 1656 4863 
L 1656 2988 
z
" transform="scale(0.015625)"/>
      <path id="DejaVuSans-Bold-73" d="M 3272 3391 
L 3272 2541 
Q 2913 2691 2578 2766 
Q 2244 2841 1947 2841 
Q 1628 2841 1473 2761 
Q 1319 2681 1319 2516 
Q 1319 2381 1436 2309 
Q 1553 2238 1856 2203 
L 2053 2175 
Q 2913 2066 3209 1816 
Q 3506 1566 3506 1031 
Q 3506 472 3093 190 
Q 2681 -91 1863 -91 
Q 1516 -91 1145 -36 
Q 775 19 384 128 
L 384 978 
Q 719 816 1070 734 
Q 1422 653 1784 653 
Q 2113 653 2278 743 
Q 2444 834 2444 1013 
Q 2444 1163 2330 1236 
Q 2216 1309 1875 1350 
L 1678 1375 
Q 931 1469 631 1722 
Q 331 1975 331 2491 
Q 331 3047 712 3315 
Q 1094 3584 1881 3584 
Q 2191 3584 2531 3537 
Q 2872 3491 3272 3391 
z
" transform="scale(0.015625)"/>
      <path id="DejaVuSans-Bold-65" d="M 4031 1759 
L 4031 1441 
L 1416 1441 
Q 1456 1047 1700 850 
Q 1944 653 2381 653 
Q 2734 653 3104 758 
Q 3475 863 3866 1075 
L 3866 213 
Q 3469 63 3072 -14 
Q 2675 -91 2278 -91 
Q 1328 -91 801 392 
Q 275 875 275 1747 
Q 275 2603 792 3093 
Q 1309 3584 2216 3584 
Q 3041 3584 3536 3087 
Q 4031 2591 4031 1759 
z
M 2881 2131 
Q 2881 2450 2695 2645 
Q 2509 2841 2209 2841 
Q 1884 2841 1681 2658 
Q 1478 2475 1428 2131 
L 2881 2131 
z
" transform="scale(0.015625)"/>
      <path id="DejaVuSans-Bold-76" d="M 97 3500 
L 1216 3500 
L 2088 1081 
L 2956 3500 
L 4078 3500 
L 2700 0 
L 1472 0 
L 97 3500 
z
" transform="scale(0.015625)"/>
      <path id="DejaVuSans-Bold-64" d="M 2919 2988 
L 2919 4863 
L 4044 4863 
L 4044 0 
L 2919 0 
L 2919 506 
Q 2688 197 2409 53 
Q 2131 -91 1766 -91 
Q 1119 -91 703 423 
Q 288 938 288 1747 
Q 288 2556 703 3070 
Q 1119 3584 1766 3584 
Q 2128 3584 2408 3439 
Q 2688 3294 2919 2988 
z
M 2181 722 
Q 2541 722 2730 984 
Q 2919 1247 2919 1747 
Q 2919 2247 2730 2509 
Q 2541 2772 2181 2772 
Q 1825 2772 1636 2509 
Q 1447 2247 1447 1747 
Q 1447 1247 1636 984 
Q 1825 722 2181 722 
z
" transform="scale(0.015625)"/>
      <path id="DejaVuSans-Bold-63" d="M 3366 3391 
L 3366 2478 
Q 3138 2634 2908 2709 
Q 2678 2784 2431 2784 
Q 1963 2784 1702 2511 
Q 1441 2238 1441 1747 
Q 1441 1256 1702 982 
Q 1963 709 2431 709 
Q 2694 709 2930 787 
Q 3166 866 3366 1019 
L 3366 103 
Q 3103 6 2833 -42 
Q 2563 -91 2291 -91 
Q 1344 -91 809 395 
Q 275 881 275 1747 
Q 275 2613 809 3098 
Q 1344 3584 2291 3584 
Q 2566 3584 2833 3536 
Q 3100 3488 3366 3391 
z
" transform="scale(0.015625)"/>
      <path id="DejaVuSans-Bold-6e" d="M 4056 2131 
L 4056 0 
L 2931 0 
L 2931 347 
L 2931 1631 
Q 2931 2084 2911 2256 
Q 2891 2428 2841 2509 
Q 2775 2619 2662 2680 
Q 2550 2741 2406 2741 
Q 2056 2741 1856 2470 
Q 1656 2200 1656 1722 
L 1656 0 
L 538 0 
L 538 3500 
L 1656 3500 
L 1656 2988 
Q 1909 3294 2193 3439 
Q 2478 3584 2822 3584 
Q 3428 3584 3742 3212 
Q 4056 2841 4056 2131 
z
" transform="scale(0.015625)"/>
      <path id="DejaVuSans-Bold-67" d="M 2919 594 
Q 2688 288 2409 144 
Q 2131 0 1766 0 
Q 1125 0 706 504 
Q 288 1009 288 1791 
Q 288 2575 706 3076 
Q 1125 3578 1766 3578 
Q 2131 3578 2409 3434 
Q 2688 3291 2919 2981 
L 2919 3500 
L 4044 3500 
L 4044 353 
Q 4044 -491 3511 -936 
Q 2978 -1381 1966 -1381 
Q 1638 -1381 1331 -1331 
Q 1025 -1281 716 -1178 
L 716 -306 
Q 1009 -475 1290 -558 
Q 1572 -641 1856 -641 
Q 2406 -641 2662 -400 
Q 2919 -159 2919 353 
L 2919 594 
z
M 2181 2772 
Q 1834 2772 1640 2515 
Q 1447 2259 1447 1791 
Q 1447 1309 1634 1061 
Q 1822 813 2181 813 
Q 2531 813 2725 1069 
Q 2919 1325 2919 1791 
Q 2919 2259 2725 2515 
Q 2531 2772 2181 2772 
z
" transform="scale(0.015625)"/>
     </defs>
     <use xlink:href="#DejaVuSans-Bold-50"/>
     <use xlink:href="#DejaVuSans-Bold-61" transform="translate(70.666016 0)"/>
     <use xlink:href="#DejaVuSans-Bold-72" transform="translate(138.146484 0)"/>
     <use xlink:href="#DejaVuSans-Bold-69" transform="translate(187.462891 0)"/>
     <use xlink:href="#DejaVuSans-Bold-74" transform="translate(221.740234 0)"/>
     <use xlink:href="#DejaVuSans-Bold-79" transform="translate(269.542969 0)"/>
     <use xlink:href="#DejaVuSans-Bold-20" transform="translate(334.728516 0)"/>
     <use xlink:href="#DejaVuSans-Bold-70" transform="translate(369.542969 0)"/>
     <use xlink:href="#DejaVuSans-Bold-6c" transform="translate(441.125 0)"/>
     <use xlink:href="#DejaVuSans-Bold-6f" transform="translate(475.402344 0)"/>
     <use xlink:href="#DejaVuSans-Bold-74" transform="translate(544.103516 0)"/>
     <use xlink:href="#DejaVuSans-Bold-3a" transform="translate(591.90625 0)"/>
     <use xlink:href="#DejaVuSans-Bold-20" transform="translate(631.896484 0)"/>
     <use xlink:href="#DejaVuSans-Bold-6f" transform="translate(666.710938 0)"/>
     <use xlink:href="#DejaVuSans-Bold-62" transform="translate(735.412109 0)"/>
     <use xlink:href="#DejaVuSans-Bold-73" transform="translate(806.994141 0)"/>
     <use xlink:href="#DejaVuSans-Bold-65" transform="translate(866.515625 0)"/>
     <use xlink:href="#DejaVuSans-Bold-72" transform="translate(934.337891 0)"/>
     <use xlink:href="#DejaVuSans-Bold-76" transform="translate(983.654297 0)"/>
     <use xlink:href="#DejaVuSans-Bold-65" transform="translate(1048.839844 0)"/>
     <use xlink:href="#DejaVuSans-Bold-64" transform="translate(1116.662109 0)"/>
     <use xlink:href="#DejaVuSans-Bold-20" transform="translate(1188.244141 0)"/>
     <use xlink:href="#DejaVuSans-Bold-76" transform="translate(1223.058594 0)"/>
     <use xlink:href="#DejaVuSans-Bold-73" transform="translate(1288.244141 0)"/>
     <use xlink:href="#DejaVuSans-Bold-20" transform="translate(1347.765625 0)"/>
     <use xlink:href="#DejaVuSans-Bold-70" transform="translate(1382.580078 0)"/>
     <use xlink:href="#DejaVuSans-Bold-72" transform="translate(1454.162109 0)"/>
     <use xlink:href="#DejaVuSans-Bold-65" transform="translate(1503.478516 0)"/>
     <use xlink:href="#DejaVuSans-Bold-64" transform="translate(1571.300781 0)"/>
     <use xlink:href="#DejaVuSans-Bold-69" transform="translate(1642.882812 0)"/>
     <use xlink:href="#DejaVuSans-Bold-63" transform="translate(1677.160156 0)"/>
     <use xlink:href="#DejaVuSans-Bold-74" transform="translate(1736.4375 0)"/>
     <use xlink:href="#DejaVuSans-Bold-65" transform="translate(1784.240234 0)"/>
     <use xlink:href="#DejaVuSans-Bold-64" transform="translate(1852.0625 0)"/>
     <use xlink:href="#DejaVuSans-Bold-20" transform="translate(1923.644531 0)"/>
     <use xlink:href="#DejaVuSans-Bold-72" transform="translate(1958.458984 0)"/>
     <use xlink:href="#DejaVuSans-Bold-61" transform="translate(2007.775391 0)"/>
     <use xlink:href="#DejaVuSans-Bold-74" transform="translate(2075.255859 0)"/>
     <use xlink:href="#DejaVuSans-Bold-69" transform="translate(2123.058594 0)"/>
     <use xlink:href="#DejaVuSans-Bold-6e" transform="translate(2157.335938 0)"/>
     <use xlink:href="#DejaVuSans-Bold-67" transform="translate(2228.527344 0)"/>
     <use xlink:href="#DejaVuSans-Bold-73" transform="translate(2300.109375 0)"/>
    </g>
   </g>
   <g id="legend_1">
    <g id="line2d_47">
     <path d="M 56.917188 39.416562 
L 66.917188 39.416562 
L 76.917188 39.416562 
" style="fill: none; stroke-dasharray: 3.7,1.6; stroke-dashoffset: 0; stroke: #0d0d0d"/>
    </g>
    <g id="text_19">
     <!-- Perfect fit -->
     <g transform="translate(84.917188 42.916562) scale(0.1 -0.1)">
      <defs>
       <path id="DejaVuSans-66" d="M 2375 4863 
L 2375 4384 
L 1825 4384 
Q 1516 4384 1395 4259 
Q 1275 4134 1275 3809 
L 1275 3500 
L 2222 3500 
L 2222 3053 
L 1275 3053 
L 1275 0 
L 697 0 
L 697 3053 
L 147 3053 
L 147 3500 
L 697 3500 
L 697 3744 
Q 697 4328 969 4595 
Q 1241 4863 1831 4863 
L 2375 4863 
z
" transform="scale(0.015625)"/>
      </defs>
      <use xlink:href="#DejaVuSans-50"/>
      <use xlink:href="#DejaVuSans-65" transform="translate(56.677734 0)"/>
      <use xlink:href="#DejaVuSans-72" transform="translate(118.201172 0)"/>
      <use xlink:href="#DejaVuSans-66" transform="translate(159.314453 0)"/>
      <use xlink:href="#DejaVuSans-65" transform="translate(194.519531 0)"/>
      <use xlink:href="#DejaVuSans-63" transform="translate(256.042969 0)"/>
      <use xlink:href="#DejaVuSans-74" transform="translate(311.023438 0)"/>
      <use xlink:href="#DejaVuSans-20" transform="translate(350.232422 0)"/>
      <use xlink:href="#DejaVuSans-66" transform="translate(382.019531 0)"/>
      <use xlink:href="#DejaVuSans-69" transform="translate(417.224609 0)"/>
      <use xlink:href="#DejaVuSans-74" transform="translate(445.007812 0)"/>
     </g>
    </g>
   </g>
  </g>
 </g>
 <defs>
  <clipPath id="p52ad233bd3">
   <rect x="47.917188" y="26.318125" width="512.802" height="376.992"/>
  </clipPath>
 </defs>
</svg>
