<?xml version="1.0" encoding="utf-8" standalone="no"?>
<!DOCTYPE svg PUBLIC "-//W3C//DTD SVG 1.1//EN"
  "http://www.w3.org/Graphics/SVG/1.1/DTD/svg11.dtd">
<svg xmlns:xlink="http://www.w3.org/1999/xlink" width="473.470937pt" height="351.194562pt" viewBox="0 0 473.470937 351.194562" xmlns="http://www.w3.org/2000/svg" version="1.1">
 <metadata>
  <rdf:RDF xmlns:dc="http://purl.org/dc/elements/1.1/" xmlns:cc="http://creativecommons.org/ns#" xmlns:rdf="http://www.w3.org/1999/02/22-rdf-syntax-ns#">
   <cc:Work>
    <dc:type rdf:resource="http://purl.org/dc/dcmitype/StillImage"/>
    <dc:date>2026-04-27T15:29:38.138971</dc:date>
    <dc:format>image/svg+xml</dc:format>
    <dc:creator>
     <cc:Agent>
      <dc:title>Matplotlib v3.10.8, https://matplotlib.org/</dc:title>
     </cc:Agent>
    </dc:creator>
   </cc:Work>
  </rdf:RDF>
 </metadata>
 <defs>
  <style type="text/css">*{stroke-linejoin: round; stroke-linecap: butt}</style>
 </defs>
 <g id="figure_1">
  <g id="patch_1">
   <path d="M 0 351.194562 
L 473.470937 351.194562 
L 473.470937 0 
L 0 0 
z
" style="fill: #ffffff"/>
  </g>
  <g id="axes_1">
   <g id="patch_2">
    <path d="M 42.190938 314.606125 
L 466.270937 314.606125 
L 466.270937 26.318125 
L 42.190938 26.318125 
z
" style="fill: #ffffff"/>
   </g>
   <g id="patch_3">
    <path d="M 61.467301 314.606125 
L 66.286392 314.606125 
L 66.286392 314.515241 
L 61.467301 314.515241 
z
" clip-path="url(#p36b949a49d)" style="fill: #595959; fill-opacity: 0.55; stroke: #ffffff; stroke-width: 0.2; stroke-linejoin: miter"/>
   </g>
   <g id="patch_4">
    <path d="M 66.286392 314.606125 
L 71.105483 314.606125 
L 71.105483 314.606125 
L 66.286392 314.606125 
z
" clip-path="url(#p36b949a49d)" style="fill: #595959; fill-opacity: 0.55; stroke: #ffffff; stroke-width: 0.2; stroke-linejoin: miter"/>
   </g>
   <g id="patch_5">
    <path d="M 71.105483 314.606125 
L 75.924574 314.606125 
L 75.924574 314.606125 
L 71.105483 314.606125 
z
" clip-path="url(#p36b949a49d)" style="fill: #595959; fill-opacity: 0.55; stroke: #ffffff; stroke-width: 0.2; stroke-linejoin: miter"/>
   </g>
   <g id="patch_6">
    <path d="M 75.924574 314.606125 
L 80.743665 314.606125 
L 80.743665 314.515241 
L 75.924574 314.515241 
z
" clip-path="url(#p36b949a49d)" style="fill: #595959; fill-opacity: 0.55; stroke: #ffffff; stroke-width: 0.2; stroke-linejoin: miter"/>
   </g>
   <g id="patch_7">
    <path d="M 80.743665 314.606125 
L 85.562756 314.606125 
L 85.562756 314.515241 
L 80.743665 314.515241 
z
" clip-path="url(#p36b949a49d)" style="fill: #595959; fill-opacity: 0.55; stroke: #ffffff; stroke-width: 0.2; stroke-linejoin: miter"/>
   </g>
   <g id="patch_8">
    <path d="M 85.562756 314.606125 
L 90.381847 314.606125 
L 90.381847 314.57583 
L 85.562756 314.57583 
z
" clip-path="url(#p36b949a49d)" style="fill: #595959; fill-opacity: 0.55; stroke: #ffffff; stroke-width: 0.2; stroke-linejoin: miter"/>
   </g>
   <g id="patch_9">
    <path d="M 90.381847 314.606125 
L 95.200937 314.606125 
L 95.200937 314.545536 
L 90.381847 314.545536 
z
" clip-path="url(#p36b949a49d)" style="fill: #595959; fill-opacity: 0.55; stroke: #ffffff; stroke-width: 0.2; stroke-linejoin: miter"/>
   </g>
   <g id="patch_10">
    <path d="M 95.200937 314.606125 
L 100.020028 314.606125 
L 100.020028 314.545536 
L 95.200937 314.545536 
z
" clip-path="url(#p36b949a49d)" style="fill: #595959; fill-opacity: 0.55; stroke: #ffffff; stroke-width: 0.2; stroke-linejoin: miter"/>
   </g>
   <g id="patch_11">
    <path d="M 100.020028 314.606125 
L 104.839119 314.606125 
L 104.839119 314.515241 
L 100.020028 314.515241 
z
" clip-path="url(#p36b949a49d)" style="fill: #595959; fill-opacity: 0.55; stroke: #ffffff; stroke-width: 0.2; stroke-linejoin: miter"/>
   </g>
   <g id="patch_12">
    <path d="M 104.839119 314.606125 
L 109.65821 314.606125 
L 109.65821 314.424357 
L 104.839119 314.424357 
z
" clip-path="url(#p36b949a49d)" style="fill: #595959; fill-opacity: 0.55; stroke: #ffffff; stroke-width: 0.2; stroke-linejoin: miter"/>
   </g>
   <g id="patch_13">
    <path d="M 109.65821 314.606125 
L 114.477301 314.606125 
L 114.477301 314.303179 
L 109.65821 314.303179 
z
" clip-path="url(#p36b949a49d)" style="fill: #595959; fill-opacity: 0.55; stroke: #ffffff; stroke-width: 0.2; stroke-linejoin: miter"/>
   </g>
   <g id="patch_14">
    <path d="M 114.477301 314.606125 
L 119.296392 314.606125 
L 119.296392 314.363768 
L 114.477301 314.363768 
z
" clip-path="url(#p36b949a49d)" style="fill: #595959; fill-opacity: 0.55; stroke: #ffffff; stroke-width: 0.2; stroke-linejoin: miter"/>
   </g>
   <g id="patch_15">
    <path d="M 119.296392 314.606125 
L 124.115483 314.606125 
L 124.115483 314.303179 
L 119.296392 314.303179 
z
" clip-path="url(#p36b949a49d)" style="fill: #595959; fill-opacity: 0.55; stroke: #ffffff; stroke-width: 0.2; stroke-linejoin: miter"/>
   </g>
   <g id="patch_16">
    <path d="M 124.115483 314.606125 
L 128.934574 314.606125 
L 128.934574 314.151706 
L 124.115483 314.151706 
z
" clip-path="url(#p36b949a49d)" style="fill: #595959; fill-opacity: 0.55; stroke: #ffffff; stroke-width: 0.2; stroke-linejoin: miter"/>
   </g>
   <g id="patch_17">
    <path d="M 128.934574 314.606125 
L 133.753665 314.606125 
L 133.753665 314.151706 
L 128.934574 314.151706 
z
" clip-path="url(#p36b949a49d)" style="fill: #595959; fill-opacity: 0.55; stroke: #ffffff; stroke-width: 0.2; stroke-linejoin: miter"/>
   </g>
   <g id="patch_18">
    <path d="M 133.753665 314.606125 
L 138.572756 314.606125 
L 138.572756 314.030528 
L 133.753665 314.030528 
z
" clip-path="url(#p36b949a49d)" style="fill: #595959; fill-opacity: 0.55; stroke: #ffffff; stroke-width: 0.2; stroke-linejoin: miter"/>
   </g>
   <g id="patch_19">
    <path d="M 138.572756 314.606125 
L 143.391847 314.606125 
L 143.391847 314.151706 
L 138.572756 314.151706 
z
" clip-path="url(#p36b949a49d)" style="fill: #595959; fill-opacity: 0.55; stroke: #ffffff; stroke-width: 0.2; stroke-linejoin: miter"/>
   </g>
   <g id="patch_20">
    <path d="M 143.391847 314.606125 
L 148.210937 314.606125 
L 148.210937 313.727581 
L 143.391847 313.727581 
z
" clip-path="url(#p36b949a49d)" style="fill: #595959; fill-opacity: 0.55; stroke: #ffffff; stroke-width: 0.2; stroke-linejoin: miter"/>
   </g>
   <g id="patch_21">
    <path d="M 148.210937 314.606125 
L 153.030028 314.606125 
L 153.030028 313.424635 
L 148.210937 313.424635 
z
" clip-path="url(#p36b949a49d)" style="fill: #595959; fill-opacity: 0.55; stroke: #ffffff; stroke-width: 0.2; stroke-linejoin: miter"/>
   </g>
   <g id="patch_22">
    <path d="M 153.030028 314.606125 
L 157.849119 314.606125 
L 157.849119 312.455208 
L 153.030028 312.455208 
z
" clip-path="url(#p36b949a49d)" style="fill: #595959; fill-opacity: 0.55; stroke: #ffffff; stroke-width: 0.2; stroke-linejoin: miter"/>
   </g>
   <g id="patch_23">
    <path d="M 157.849119 314.606125 
L 162.66821 314.606125 
L 162.66821 312.091673 
L 157.849119 312.091673 
z
" clip-path="url(#p36b949a49d)" style="fill: #595959; fill-opacity: 0.55; stroke: #ffffff; stroke-width: 0.2; stroke-linejoin: miter"/>
   </g>
   <g id="patch_24">
    <path d="M 162.66821 314.606125 
L 167.487301 314.606125 
L 167.487301 311.061656 
L 162.66821 311.061656 
z
" clip-path="url(#p36b949a49d)" style="fill: #595959; fill-opacity: 0.55; stroke: #ffffff; stroke-width: 0.2; stroke-linejoin: miter"/>
   </g>
   <g id="patch_25">
    <path d="M 167.487301 314.606125 
L 172.306392 314.606125 
L 172.306392 308.032196 
L 167.487301 308.032196 
z
" clip-path="url(#p36b949a49d)" style="fill: #595959; fill-opacity: 0.55; stroke: #ffffff; stroke-width: 0.2; stroke-linejoin: miter"/>
   </g>
   <g id="patch_26">
    <path d="M 172.306392 314.606125 
L 177.125483 314.606125 
L 177.125483 306.487171 
L 172.306392 306.487171 
z
" clip-path="url(#p36b949a49d)" style="fill: #595959; fill-opacity: 0.55; stroke: #ffffff; stroke-width: 0.2; stroke-linejoin: miter"/>
   </g>
   <g id="patch_27">
    <path d="M 177.125483 314.606125 
L 181.944574 314.606125 
L 181.944574 302.367105 
L 177.125483 302.367105 
z
" clip-path="url(#p36b949a49d)" style="fill: #595959; fill-opacity: 0.55; stroke: #ffffff; stroke-width: 0.2; stroke-linejoin: miter"/>
   </g>
   <g id="patch_28">
    <path d="M 181.944574 314.606125 
L 186.763665 314.606125 
L 186.763665 298.216744 
L 181.944574 298.216744 
z
" clip-path="url(#p36b949a49d)" style="fill: #595959; fill-opacity: 0.55; stroke: #ffffff; stroke-width: 0.2; stroke-linejoin: miter"/>
   </g>
   <g id="patch_29">
    <path d="M 186.763665 314.606125 
L 191.582756 314.606125 
L 191.582756 291.006628 
L 186.763665 291.006628 
z
" clip-path="url(#p36b949a49d)" style="fill: #595959; fill-opacity: 0.55; stroke: #ffffff; stroke-width: 0.2; stroke-linejoin: miter"/>
   </g>
   <g id="patch_30">
    <path d="M 191.582756 314.606125 
L 196.401847 314.606125 
L 196.401847 281.100292 
L 191.582756 281.100292 
z
" clip-path="url(#p36b949a49d)" style="fill: #595959; fill-opacity: 0.55; stroke: #ffffff; stroke-width: 0.2; stroke-linejoin: miter"/>
   </g>
   <g id="patch_31">
    <path d="M 196.401847 314.606125 
L 201.220937 314.606125 
L 201.220937 268.618915 
L 196.401847 268.618915 
z
" clip-path="url(#p36b949a49d)" style="fill: #595959; fill-opacity: 0.55; stroke: #ffffff; stroke-width: 0.2; stroke-linejoin: miter"/>
   </g>
   <g id="patch_32">
    <path d="M 201.220937 314.606125 
L 206.040028 314.606125 
L 206.040028 252.19924 
L 201.220937 252.19924 
z
" clip-path="url(#p36b949a49d)" style="fill: #595959; fill-opacity: 0.55; stroke: #ffffff; stroke-width: 0.2; stroke-linejoin: miter"/>
   </g>
   <g id="patch_33">
    <path d="M 206.040028 314.606125 
L 210.859119 314.606125 
L 210.859119 232.26539 
L 206.040028 232.26539 
z
" clip-path="url(#p36b949a49d)" style="fill: #595959; fill-opacity: 0.55; stroke: #ffffff; stroke-width: 0.2; stroke-linejoin: miter"/>
   </g>
   <g id="patch_34">
    <path d="M 210.859119 314.606125 
L 215.67821 314.606125 
L 215.67821 208.726482 
L 210.859119 208.726482 
z
" clip-path="url(#p36b949a49d)" style="fill: #595959; fill-opacity: 0.55; stroke: #ffffff; stroke-width: 0.2; stroke-linejoin: miter"/>
   </g>
   <g id="patch_35">
    <path d="M 215.67821 314.606125 
L 220.497301 314.606125 
L 220.497301 180.885741 
L 215.67821 180.885741 
z
" clip-path="url(#p36b949a49d)" style="fill: #595959; fill-opacity: 0.55; stroke: #ffffff; stroke-width: 0.2; stroke-linejoin: miter"/>
   </g>
   <g id="patch_36">
    <path d="M 220.497301 314.606125 
L 225.316392 314.606125 
L 225.316392 157.043887 
L 220.497301 157.043887 
z
" clip-path="url(#p36b949a49d)" style="fill: #595959; fill-opacity: 0.55; stroke: #ffffff; stroke-width: 0.2; stroke-linejoin: miter"/>
   </g>
   <g id="patch_37">
    <path d="M 225.316392 314.606125 
L 230.135483 314.606125 
L 230.135483 132.899088 
L 225.316392 132.899088 
z
" clip-path="url(#p36b949a49d)" style="fill: #595959; fill-opacity: 0.55; stroke: #ffffff; stroke-width: 0.2; stroke-linejoin: miter"/>
   </g>
   <g id="patch_38">
    <path d="M 230.135483 314.606125 
L 234.954574 314.606125 
L 234.954574 107.512209 
L 230.135483 107.512209 
z
" clip-path="url(#p36b949a49d)" style="fill: #595959; fill-opacity: 0.55; stroke: #ffffff; stroke-width: 0.2; stroke-linejoin: miter"/>
   </g>
   <g id="patch_39">
    <path d="M 234.954574 314.606125 
L 239.773665 314.606125 
L 239.773665 74.733447 
L 234.954574 74.733447 
z
" clip-path="url(#p36b949a49d)" style="fill: #595959; fill-opacity: 0.55; stroke: #ffffff; stroke-width: 0.2; stroke-linejoin: miter"/>
   </g>
   <g id="patch_40">
    <path d="M 239.773665 314.606125 
L 244.592756 314.606125 
L 244.592756 53.345456 
L 239.773665 53.345456 
z
" clip-path="url(#p36b949a49d)" style="fill: #595959; fill-opacity: 0.55; stroke: #ffffff; stroke-width: 0.2; stroke-linejoin: miter"/>
   </g>
   <g id="patch_41">
    <path d="M 244.592756 314.606125 
L 249.411847 314.606125 
L 249.411847 47.225946 
L 244.592756 47.225946 
z
" clip-path="url(#p36b949a49d)" style="fill: #595959; fill-opacity: 0.55; stroke: #ffffff; stroke-width: 0.2; stroke-linejoin: miter"/>
   </g>
   <g id="patch_42">
    <path d="M 249.411847 314.606125 
L 254.230937 314.606125 
L 254.230937 40.046125 
L 249.411847 40.046125 
z
" clip-path="url(#p36b949a49d)" style="fill: #595959; fill-opacity: 0.55; stroke: #ffffff; stroke-width: 0.2; stroke-linejoin: miter"/>
   </g>
   <g id="patch_43">
    <path d="M 254.230937 314.606125 
L 259.050028 314.606125 
L 259.050028 63.009435 
L 254.230937 63.009435 
z
" clip-path="url(#p36b949a49d)" style="fill: #595959; fill-opacity: 0.55; stroke: #ffffff; stroke-width: 0.2; stroke-linejoin: miter"/>
   </g>
   <g id="patch_44">
    <path d="M 259.050028 314.606125 
L 263.869119 314.606125 
L 263.869119 77.490256 
L 259.050028 77.490256 
z
" clip-path="url(#p36b949a49d)" style="fill: #595959; fill-opacity: 0.55; stroke: #ffffff; stroke-width: 0.2; stroke-linejoin: miter"/>
   </g>
   <g id="patch_45">
    <path d="M 263.869119 314.606125 
L 268.68821 314.606125 
L 268.68821 109.117823 
L 263.869119 109.117823 
z
" clip-path="url(#p36b949a49d)" style="fill: #595959; fill-opacity: 0.55; stroke: #ffffff; stroke-width: 0.2; stroke-linejoin: miter"/>
   </g>
   <g id="patch_46">
    <path d="M 268.68821 314.606125 
L 273.507301 314.606125 
L 273.507301 137.564457 
L 268.68821 137.564457 
z
" clip-path="url(#p36b949a49d)" style="fill: #595959; fill-opacity: 0.55; stroke: #ffffff; stroke-width: 0.2; stroke-linejoin: miter"/>
   </g>
   <g id="patch_47">
    <path d="M 273.507301 314.606125 
L 278.326392 314.606125 
L 278.326392 161.588078 
L 273.507301 161.588078 
z
" clip-path="url(#p36b949a49d)" style="fill: #595959; fill-opacity: 0.55; stroke: #ffffff; stroke-width: 0.2; stroke-linejoin: miter"/>
   </g>
   <g id="patch_48">
    <path d="M 278.326392 314.606125 
L 283.145483 314.606125 
L 283.145483 183.703139 
L 278.326392 183.703139 
z
" clip-path="url(#p36b949a49d)" style="fill: #595959; fill-opacity: 0.55; stroke: #ffffff; stroke-width: 0.2; stroke-linejoin: miter"/>
   </g>
   <g id="patch_49">
    <path d="M 283.145483 314.606125 
L 287.964574 314.606125 
L 287.964574 206.454387 
L 283.145483 206.454387 
z
" clip-path="url(#p36b949a49d)" style="fill: #595959; fill-opacity: 0.55; stroke: #ffffff; stroke-width: 0.2; stroke-linejoin: miter"/>
   </g>
   <g id="patch_50">
    <path d="M 287.964574 314.606125 
L 292.783665 314.606125 
L 292.783665 224.994685 
L 287.964574 224.994685 
z
" clip-path="url(#p36b949a49d)" style="fill: #595959; fill-opacity: 0.55; stroke: #ffffff; stroke-width: 0.2; stroke-linejoin: miter"/>
   </g>
   <g id="patch_51">
    <path d="M 292.783665 314.606125 
L 297.602756 314.606125 
L 297.602756 241.47495 
L 292.783665 241.47495 
z
" clip-path="url(#p36b949a49d)" style="fill: #595959; fill-opacity: 0.55; stroke: #ffffff; stroke-width: 0.2; stroke-linejoin: miter"/>
   </g>
   <g id="patch_52">
    <path d="M 297.602756 314.606125 
L 302.421847 314.606125 
L 302.421847 256.258717 
L 297.602756 256.258717 
z
" clip-path="url(#p36b949a49d)" style="fill: #595959; fill-opacity: 0.55; stroke: #ffffff; stroke-width: 0.2; stroke-linejoin: miter"/>
   </g>
   <g id="patch_53">
    <path d="M 302.421847 314.606125 
L 307.240937 314.606125 
L 307.240937 264.407965 
L 302.421847 264.407965 
z
" clip-path="url(#p36b949a49d)" style="fill: #595959; fill-opacity: 0.55; stroke: #ffffff; stroke-width: 0.2; stroke-linejoin: miter"/>
   </g>
   <g id="patch_54">
    <path d="M 307.240937 314.606125 
L 312.060028 314.606125 
L 312.060028 273.859882 
L 307.240937 273.859882 
z
" clip-path="url(#p36b949a49d)" style="fill: #595959; fill-opacity: 0.55; stroke: #ffffff; stroke-width: 0.2; stroke-linejoin: miter"/>
   </g>
   <g id="patch_55">
    <path d="M 312.060028 314.606125 
L 316.879119 314.606125 
L 316.879119 283.281504 
L 312.060028 283.281504 
z
" clip-path="url(#p36b949a49d)" style="fill: #595959; fill-opacity: 0.55; stroke: #ffffff; stroke-width: 0.2; stroke-linejoin: miter"/>
   </g>
   <g id="patch_56">
    <path d="M 316.879119 314.606125 
L 321.69821 314.606125 
L 321.69821 288.764827 
L 316.879119 288.764827 
z
" clip-path="url(#p36b949a49d)" style="fill: #595959; fill-opacity: 0.55; stroke: #ffffff; stroke-width: 0.2; stroke-linejoin: miter"/>
   </g>
   <g id="patch_57">
    <path d="M 321.69821 314.606125 
L 326.517301 314.606125 
L 326.517301 293.672553 
L 321.69821 293.672553 
z
" clip-path="url(#p36b949a49d)" style="fill: #595959; fill-opacity: 0.55; stroke: #ffffff; stroke-width: 0.2; stroke-linejoin: miter"/>
   </g>
   <g id="patch_58">
    <path d="M 326.517301 314.606125 
L 331.336392 314.606125 
L 331.336392 297.39879 
L 326.517301 297.39879 
z
" clip-path="url(#p36b949a49d)" style="fill: #595959; fill-opacity: 0.55; stroke: #ffffff; stroke-width: 0.2; stroke-linejoin: miter"/>
   </g>
   <g id="patch_59">
    <path d="M 331.336392 314.606125 
L 336.155483 314.606125 
L 336.155483 302.124748 
L 331.336392 302.124748 
z
" clip-path="url(#p36b949a49d)" style="fill: #595959; fill-opacity: 0.55; stroke: #ffffff; stroke-width: 0.2; stroke-linejoin: miter"/>
   </g>
   <g id="patch_60">
    <path d="M 336.155483 314.606125 
L 340.974574 314.606125 
L 340.974574 304.003013 
L 336.155483 304.003013 
z
" clip-path="url(#p36b949a49d)" style="fill: #595959; fill-opacity: 0.55; stroke: #ffffff; stroke-width: 0.2; stroke-linejoin: miter"/>
   </g>
   <g id="patch_61">
    <path d="M 340.974574 314.606125 
L 345.793665 314.606125 
L 345.793665 306.123636 
L 340.974574 306.123636 
z
" clip-path="url(#p36b949a49d)" style="fill: #595959; fill-opacity: 0.55; stroke: #ffffff; stroke-width: 0.2; stroke-linejoin: miter"/>
   </g>
   <g id="patch_62">
    <path d="M 345.793665 314.606125 
L 350.612756 314.606125 
L 350.612756 308.001901 
L 345.793665 308.001901 
z
" clip-path="url(#p36b949a49d)" style="fill: #595959; fill-opacity: 0.55; stroke: #ffffff; stroke-width: 0.2; stroke-linejoin: miter"/>
   </g>
   <g id="patch_63">
    <path d="M 350.612756 314.606125 
L 355.431847 314.606125 
L 355.431847 309.486337 
L 350.612756 309.486337 
z
" clip-path="url(#p36b949a49d)" style="fill: #595959; fill-opacity: 0.55; stroke: #ffffff; stroke-width: 0.2; stroke-linejoin: miter"/>
   </g>
   <g id="patch_64">
    <path d="M 355.431847 314.606125 
L 360.250937 314.606125 
L 360.250937 311.031362 
L 355.431847 311.031362 
z
" clip-path="url(#p36b949a49d)" style="fill: #595959; fill-opacity: 0.55; stroke: #ffffff; stroke-width: 0.2; stroke-linejoin: miter"/>
   </g>
   <g id="patch_65">
    <path d="M 360.250937 314.606125 
L 365.070028 314.606125 
L 365.070028 311.697843 
L 360.250937 311.697843 
z
" clip-path="url(#p36b949a49d)" style="fill: #595959; fill-opacity: 0.55; stroke: #ffffff; stroke-width: 0.2; stroke-linejoin: miter"/>
   </g>
   <g id="patch_66">
    <path d="M 365.070028 314.606125 
L 369.889119 314.606125 
L 369.889119 311.970494 
L 365.070028 311.970494 
z
" clip-path="url(#p36b949a49d)" style="fill: #595959; fill-opacity: 0.55; stroke: #ffffff; stroke-width: 0.2; stroke-linejoin: miter"/>
   </g>
   <g id="patch_67">
    <path d="M 369.889119 314.606125 
L 374.70821 314.606125 
L 374.70821 312.758154 
L 369.889119 312.758154 
z
" clip-path="url(#p36b949a49d)" style="fill: #595959; fill-opacity: 0.55; stroke: #ffffff; stroke-width: 0.2; stroke-linejoin: miter"/>
   </g>
   <g id="patch_68">
    <path d="M 374.70821 314.606125 
L 379.527301 314.606125 
L 379.527301 313.333752 
L 374.70821 313.333752 
z
" clip-path="url(#p36b949a49d)" style="fill: #595959; fill-opacity: 0.55; stroke: #ffffff; stroke-width: 0.2; stroke-linejoin: miter"/>
   </g>
   <g id="patch_69">
    <path d="M 379.527301 314.606125 
L 384.346392 314.606125 
L 384.346392 313.879054 
L 379.527301 313.879054 
z
" clip-path="url(#p36b949a49d)" style="fill: #595959; fill-opacity: 0.55; stroke: #ffffff; stroke-width: 0.2; stroke-linejoin: miter"/>
   </g>
   <g id="patch_70">
    <path d="M 384.346392 314.606125 
L 389.165483 314.606125 
L 389.165483 314.060822 
L 384.346392 314.060822 
z
" clip-path="url(#p36b949a49d)" style="fill: #595959; fill-opacity: 0.55; stroke: #ffffff; stroke-width: 0.2; stroke-linejoin: miter"/>
   </g>
   <g id="patch_71">
    <path d="M 389.165483 314.606125 
L 393.984574 314.606125 
L 393.984574 313.969938 
L 389.165483 313.969938 
z
" clip-path="url(#p36b949a49d)" style="fill: #595959; fill-opacity: 0.55; stroke: #ffffff; stroke-width: 0.2; stroke-linejoin: miter"/>
   </g>
   <g id="patch_72">
    <path d="M 393.984574 314.606125 
L 398.803665 314.606125 
L 398.803665 314.24259 
L 393.984574 314.24259 
z
" clip-path="url(#p36b949a49d)" style="fill: #595959; fill-opacity: 0.55; stroke: #ffffff; stroke-width: 0.2; stroke-linejoin: miter"/>
   </g>
   <g id="patch_73">
    <path d="M 398.803665 314.606125 
L 403.622756 314.606125 
L 403.622756 314.424357 
L 398.803665 314.424357 
z
" clip-path="url(#p36b949a49d)" style="fill: #595959; fill-opacity: 0.55; stroke: #ffffff; stroke-width: 0.2; stroke-linejoin: miter"/>
   </g>
   <g id="patch_74">
    <path d="M 403.622756 314.606125 
L 408.441847 314.606125 
L 408.441847 314.454652 
L 403.622756 314.454652 
z
" clip-path="url(#p36b949a49d)" style="fill: #595959; fill-opacity: 0.55; stroke: #ffffff; stroke-width: 0.2; stroke-linejoin: miter"/>
   </g>
   <g id="patch_75">
    <path d="M 408.441847 314.606125 
L 413.260937 314.606125 
L 413.260937 314.515241 
L 408.441847 314.515241 
z
" clip-path="url(#p36b949a49d)" style="fill: #595959; fill-opacity: 0.55; stroke: #ffffff; stroke-width: 0.2; stroke-linejoin: miter"/>
   </g>
   <g id="patch_76">
    <path d="M 413.260937 314.606125 
L 418.080028 314.606125 
L 418.080028 314.424357 
L 413.260937 314.424357 
z
" clip-path="url(#p36b949a49d)" style="fill: #595959; fill-opacity: 0.55; stroke: #ffffff; stroke-width: 0.2; stroke-linejoin: miter"/>
   </g>
   <g id="patch_77">
    <path d="M 418.080028 314.606125 
L 422.899119 314.606125 
L 422.899119 314.57583 
L 418.080028 314.57583 
z
" clip-path="url(#p36b949a49d)" style="fill: #595959; fill-opacity: 0.55; stroke: #ffffff; stroke-width: 0.2; stroke-linejoin: miter"/>
   </g>
   <g id="patch_78">
    <path d="M 422.899119 314.606125 
L 427.71821 314.606125 
L 427.71821 314.424357 
L 422.899119 314.424357 
z
" clip-path="url(#p36b949a49d)" style="fill: #595959; fill-opacity: 0.55; stroke: #ffffff; stroke-width: 0.2; stroke-linejoin: miter"/>
   </g>
   <g id="patch_79">
    <path d="M 427.71821 314.606125 
L 432.537301 314.606125 
L 432.537301 314.545536 
L 427.71821 314.545536 
z
" clip-path="url(#p36b949a49d)" style="fill: #595959; fill-opacity: 0.55; stroke: #ffffff; stroke-width: 0.2; stroke-linejoin: miter"/>
   </g>
   <g id="patch_80">
    <path d="M 432.537301 314.606125 
L 437.356392 314.606125 
L 437.356392 314.515241 
L 432.537301 314.515241 
z
" clip-path="url(#p36b949a49d)" style="fill: #595959; fill-opacity: 0.55; stroke: #ffffff; stroke-width: 0.2; stroke-linejoin: miter"/>
   </g>
   <g id="patch_81">
    <path d="M 437.356392 314.606125 
L 442.175483 314.606125 
L 442.175483 314.545536 
L 437.356392 314.545536 
z
" clip-path="url(#p36b949a49d)" style="fill: #595959; fill-opacity: 0.55; stroke: #ffffff; stroke-width: 0.2; stroke-linejoin: miter"/>
   </g>
   <g id="patch_82">
    <path d="M 442.175483 314.606125 
L 446.994574 314.606125 
L 446.994574 314.424357 
L 442.175483 314.424357 
z
" clip-path="url(#p36b949a49d)" style="fill: #595959; fill-opacity: 0.55; stroke: #ffffff; stroke-width: 0.2; stroke-linejoin: miter"/>
   </g>
   <g id="matplotlib.axis_1">
    <g id="xtick_1">
     <g id="line2d_1">
      <defs>
       <path id="m489c2d5bb6" d="M 0 0 
L 0 3.5 
" style="stroke: #000000; stroke-width: 0.8"/>
      </defs>
      <g>
       <use xlink:href="#m489c2d5bb6" x="79.207028" y="314.606125" style="stroke: #000000; stroke-width: 0.8"/>
      </g>
     </g>
     <g id="text_1">
      <!-- −4 -->
      <g transform="translate(72.573044 328.444719) scale(0.09 -0.09)">
       <defs>
        <path id="DejaVuSans-2212" d="M 678 2272 
L 4684 2272 
L 4684 1741 
L 678 1741 
L 678 2272 
z
" transform="scale(0.015625)"/>
        <path id="DejaVuSans-34" d="M 2419 4116 
L 825 1625 
L 2419 1625 
L 2419 4116 
z
M 2253 4666 
L 3047 4666 
L 3047 1625 
L 3713 1625 
L 3713 1100 
L 3047 1100 
L 3047 0 
L 2419 0 
L 2419 1100 
L 313 1100 
L 313 1709 
L 2253 4666 
z
" transform="scale(0.015625)"/>
       </defs>
       <use xlink:href="#DejaVuSans-2212"/>
       <use xlink:href="#DejaVuSans-34" transform="translate(83.789062 0)"/>
      </g>
     </g>
    </g>
    <g id="xtick_2">
     <g id="line2d_2">
      <g>
       <use xlink:href="#m489c2d5bb6" x="165.745274" y="314.606125" style="stroke: #000000; stroke-width: 0.8"/>
      </g>
     </g>
     <g id="text_2">
      <!-- −2 -->
      <g transform="translate(159.11129 328.444719) scale(0.09 -0.09)">
       <defs>
        <path id="DejaVuSans-32" d="M 1228 531 
L 3431 531 
L 3431 0 
L 469 0 
L 469 531 
Q 828 903 1448 1529 
Q 2069 2156 2228 2338 
Q 2531 2678 2651 2914 
Q 2772 3150 2772 3378 
Q 2772 3750 2511 3984 
Q 2250 4219 1831 4219 
Q 1534 4219 1204 4116 
Q 875 4013 500 3803 
L 500 4441 
Q 881 4594 1212 4672 
Q 1544 4750 1819 4750 
Q 2544 4750 2975 4387 
Q 3406 4025 3406 3419 
Q 3406 3131 3298 2873 
Q 3191 2616 2906 2266 
Q 2828 2175 2409 1742 
Q 1991 1309 1228 531 
z
" transform="scale(0.015625)"/>
       </defs>
       <use xlink:href="#DejaVuSans-2212"/>
       <use xlink:href="#DejaVuSans-32" transform="translate(83.789062 0)"/>
      </g>
     </g>
    </g>
    <g id="xtick_3">
     <g id="line2d_3">
      <g>
       <use xlink:href="#m489c2d5bb6" x="252.28352" y="314.606125" style="stroke: #000000; stroke-width: 0.8"/>
      </g>
     </g>
     <g id="text_3">
      <!-- 0 -->
      <g transform="translate(249.420395 328.444719) scale(0.09 -0.09)">
       <defs>
        <path id="DejaVuSans-30" d="M 2034 4250 
Q 1547 4250 1301 3770 
Q 1056 3291 1056 2328 
Q 1056 1369 1301 889 
Q 1547 409 2034 409 
Q 2525 409 2770 889 
Q 3016 1369 3016 2328 
Q 3016 3291 2770 3770 
Q 2525 4250 2034 4250 
z
M 2034 4750 
Q 2819 4750 3233 4129 
Q 3647 3509 3647 2328 
Q 3647 1150 3233 529 
Q 2819 -91 2034 -91 
Q 1250 -91 836 529 
Q 422 1150 422 2328 
Q 422 3509 836 4129 
Q 1250 4750 2034 4750 
z
" transform="scale(0.015625)"/>
       </defs>
       <use xlink:href="#DejaVuSans-30"/>
      </g>
     </g>
    </g>
    <g id="xtick_4">
     <g id="line2d_4">
      <g>
       <use xlink:href="#m489c2d5bb6" x="338.821766" y="314.606125" style="stroke: #000000; stroke-width: 0.8"/>
      </g>
     </g>
     <g id="text_4">
      <!-- 2 -->
      <g transform="translate(335.958641 328.444719) scale(0.09 -0.09)">
       <use xlink:href="#DejaVuSans-32"/>
      </g>
     </g>
    </g>
    <g id="xtick_5">
     <g id="line2d_5">
      <g>
       <use xlink:href="#m489c2d5bb6" x="425.360012" y="314.606125" style="stroke: #000000; stroke-width: 0.8"/>
      </g>
     </g>
     <g id="text_5">
      <!-- 4 -->
      <g transform="translate(422.496887 328.444719) scale(0.09 -0.09)">
       <use xlink:href="#DejaVuSans-34"/>
      </g>
     </g>
    </g>
    <g id="text_6">
     <!-- Residual (predicted - observed) -->
     <g transform="translate(175.745 341.914875) scale(0.1 -0.1)">
      <defs>
       <path id="DejaVuSans-52" d="M 2841 2188 
Q 3044 2119 3236 1894 
Q 3428 1669 3622 1275 
L 4263 0 
L 3584 0 
L 2988 1197 
Q 2756 1666 2539 1819 
Q 2322 1972 1947 1972 
L 1259 1972 
L 1259 0 
L 628 0 
L 628 4666 
L 2053 4666 
Q 2853 4666 3247 4331 
Q 3641 3997 3641 3322 
Q 3641 2881 3436 2590 
Q 3231 2300 2841 2188 
z
M 1259 4147 
L 1259 2491 
L 2053 2491 
Q 2509 2491 2742 2702 
Q 2975 2913 2975 3322 
Q 2975 3731 2742 3939 
Q 2509 4147 2053 4147 
L 1259 4147 
z
" transform="scale(0.015625)"/>
       <path id="DejaVuSans-65" d="M 3597 1894 
L 3597 1613 
L 953 1613 
Q 991 1019 1311 708 
Q 1631 397 2203 397 
Q 2534 397 2845 478 
Q 3156 559 3463 722 
L 3463 178 
Q 3153 47 2828 -22 
Q 2503 -91 2169 -91 
Q 1331 -91 842 396 
Q 353 884 353 1716 
Q 353 2575 817 3079 
Q 1281 3584 2069 3584 
Q 2775 3584 3186 3129 
Q 3597 2675 3597 1894 
z
M 3022 2063 
Q 3016 2534 2758 2815 
Q 2500 3097 2075 3097 
Q 1594 3097 1305 2825 
Q 1016 2553 972 2059 
L 3022 2063 
z
" transform="scale(0.015625)"/>
       <path id="DejaVuSans-73" d="M 2834 3397 
L 2834 2853 
Q 2591 2978 2328 3040 
Q 2066 3103 1784 3103 
Q 1356 3103 1142 2972 
Q 928 2841 928 2578 
Q 928 2378 1081 2264 
Q 1234 2150 1697 2047 
L 1894 2003 
Q 2506 1872 2764 1633 
Q 3022 1394 3022 966 
Q 3022 478 2636 193 
Q 2250 -91 1575 -91 
Q 1294 -91 989 -36 
Q 684 19 347 128 
L 347 722 
Q 666 556 975 473 
Q 1284 391 1588 391 
Q 1994 391 2212 530 
Q 2431 669 2431 922 
Q 2431 1156 2273 1281 
Q 2116 1406 1581 1522 
L 1381 1569 
Q 847 1681 609 1914 
Q 372 2147 372 2553 
Q 372 3047 722 3315 
Q 1072 3584 1716 3584 
Q 2034 3584 2315 3537 
Q 2597 3491 2834 3397 
z
" transform="scale(0.015625)"/>
       <path id="DejaVuSans-69" d="M 603 3500 
L 1178 3500 
L 1178 0 
L 603 0 
L 603 3500 
z
M 603 4863 
L 1178 4863 
L 1178 4134 
L 603 4134 
L 603 4863 
z
" transform="scale(0.015625)"/>
       <path id="DejaVuSans-64" d="M 2906 2969 
L 2906 4863 
L 3481 4863 
L 3481 0 
L 2906 0 
L 2906 525 
Q 2725 213 2448 61 
Q 2172 -91 1784 -91 
Q 1150 -91 751 415 
Q 353 922 353 1747 
Q 353 2572 751 3078 
Q 1150 3584 1784 3584 
Q 2172 3584 2448 3432 
Q 2725 3281 2906 2969 
z
M 947 1747 
Q 947 1113 1208 752 
Q 1469 391 1925 391 
Q 2381 391 2643 752 
Q 2906 1113 2906 1747 
Q 2906 2381 2643 2742 
Q 2381 3103 1925 3103 
Q 1469 3103 1208 2742 
Q 947 2381 947 1747 
z
" transform="scale(0.015625)"/>
       <path id="DejaVuSans-75" d="M 544 1381 
L 544 3500 
L 1119 3500 
L 1119 1403 
Q 1119 906 1312 657 
Q 1506 409 1894 409 
Q 2359 409 2629 706 
Q 2900 1003 2900 1516 
L 2900 3500 
L 3475 3500 
L 3475 0 
L 2900 0 
L 2900 538 
Q 2691 219 2414 64 
Q 2138 -91 1772 -91 
Q 1169 -91 856 284 
Q 544 659 544 1381 
z
M 1991 3584 
L 1991 3584 
z
" transform="scale(0.015625)"/>
       <path id="DejaVuSans-61" d="M 2194 1759 
Q 1497 1759 1228 1600 
Q 959 1441 959 1056 
Q 959 750 1161 570 
Q 1363 391 1709 391 
Q 2188 391 2477 730 
Q 2766 1069 2766 1631 
L 2766 1759 
L 2194 1759 
z
M 3341 1997 
L 3341 0 
L 2766 0 
L 2766 531 
Q 2569 213 2275 61 
Q 1981 -91 1556 -91 
Q 1019 -91 701 211 
Q 384 513 384 1019 
Q 384 1609 779 1909 
Q 1175 2209 1959 2209 
L 2766 2209 
L 2766 2266 
Q 2766 2663 2505 2880 
Q 2244 3097 1772 3097 
Q 1472 3097 1187 3025 
Q 903 2953 641 2809 
L 641 3341 
Q 956 3463 1253 3523 
Q 1550 3584 1831 3584 
Q 2591 3584 2966 3190 
Q 3341 2797 3341 1997 
z
" transform="scale(0.015625)"/>
       <path id="DejaVuSans-6c" d="M 603 4863 
L 1178 4863 
L 1178 0 
L 603 0 
L 603 4863 
z
" transform="scale(0.015625)"/>
       <path id="DejaVuSans-20" transform="scale(0.015625)"/>
       <path id="DejaVuSans-28" d="M 1984 4856 
Q 1566 4138 1362 3434 
Q 1159 2731 1159 2009 
Q 1159 1288 1364 580 
Q 1569 -128 1984 -844 
L 1484 -844 
Q 1016 -109 783 600 
Q 550 1309 550 2009 
Q 550 2706 781 3412 
Q 1013 4119 1484 4856 
L 1984 4856 
z
" transform="scale(0.015625)"/>
       <path id="DejaVuSans-70" d="M 1159 525 
L 1159 -1331 
L 581 -1331 
L 581 3500 
L 1159 3500 
L 1159 2969 
Q 1341 3281 1617 3432 
Q 1894 3584 2278 3584 
Q 2916 3584 3314 3078 
Q 3713 2572 3713 1747 
Q 3713 922 3314 415 
Q 2916 -91 2278 -91 
Q 1894 -91 1617 61 
Q 1341 213 1159 525 
z
M 3116 1747 
Q 3116 2381 2855 2742 
Q 2594 3103 2138 3103 
Q 1681 3103 1420 2742 
Q 1159 2381 1159 1747 
Q 1159 1113 1420 752 
Q 1681 391 2138 391 
Q 2594 391 2855 752 
Q 3116 1113 3116 1747 
z
" transform="scale(0.015625)"/>
       <path id="DejaVuSans-72" d="M 2631 2963 
Q 2534 3019 2420 3045 
Q 2306 3072 2169 3072 
Q 1681 3072 1420 2755 
Q 1159 2438 1159 1844 
L 1159 0 
L 581 0 
L 581 3500 
L 1159 3500 
L 1159 2956 
Q 1341 3275 1631 3429 
Q 1922 3584 2338 3584 
Q 2397 3584 2469 3576 
Q 2541 3569 2628 3553 
L 2631 2963 
z
" transform="scale(0.015625)"/>
       <path id="DejaVuSans-63" d="M 3122 3366 
L 3122 2828 
Q 2878 2963 2633 3030 
Q 2388 3097 2138 3097 
Q 1578 3097 1268 2742 
Q 959 2388 959 1747 
Q 959 1106 1268 751 
Q 1578 397 2138 397 
Q 2388 397 2633 464 
Q 2878 531 3122 666 
L 3122 134 
Q 2881 22 2623 -34 
Q 2366 -91 2075 -91 
Q 1284 -91 818 406 
Q 353 903 353 1747 
Q 353 2603 823 3093 
Q 1294 3584 2113 3584 
Q 2378 3584 2631 3529 
Q 2884 3475 3122 3366 
z
" transform="scale(0.015625)"/>
       <path id="DejaVuSans-74" d="M 1172 4494 
L 1172 3500 
L 2356 3500 
L 2356 3053 
L 1172 3053 
L 1172 1153 
Q 1172 725 1289 603 
Q 1406 481 1766 481 
L 2356 481 
L 2356 0 
L 1766 0 
Q 1100 0 847 248 
Q 594 497 594 1153 
L 594 3053 
L 172 3053 
L 172 3500 
L 594 3500 
L 594 4494 
L 1172 4494 
z
" transform="scale(0.015625)"/>
       <path id="DejaVuSans-2d" d="M 313 2009 
L 1997 2009 
L 1997 1497 
L 313 1497 
L 313 2009 
z
" transform="scale(0.015625)"/>
       <path id="DejaVuSans-6f" d="M 1959 3097 
Q 1497 3097 1228 2736 
Q 959 2375 959 1747 
Q 959 1119 1226 758 
Q 1494 397 1959 397 
Q 2419 397 2687 759 
Q 2956 1122 2956 1747 
Q 2956 2369 2687 2733 
Q 2419 3097 1959 3097 
z
M 1959 3584 
Q 2709 3584 3137 3096 
Q 3566 2609 3566 1747 
Q 3566 888 3137 398 
Q 2709 -91 1959 -91 
Q 1206 -91 779 398 
Q 353 888 353 1747 
Q 353 2609 779 3096 
Q 1206 3584 1959 3584 
z
" transform="scale(0.015625)"/>
       <path id="DejaVuSans-62" d="M 3116 1747 
Q 3116 2381 2855 2742 
Q 2594 3103 2138 3103 
Q 1681 3103 1420 2742 
Q 1159 2381 1159 1747 
Q 1159 1113 1420 752 
Q 1681 391 2138 391 
Q 2594 391 2855 752 
Q 3116 1113 3116 1747 
z
M 1159 2969 
Q 1341 3281 1617 3432 
Q 1894 3584 2278 3584 
Q 2916 3584 3314 3078 
Q 3713 2572 3713 1747 
Q 3713 922 3314 415 
Q 2916 -91 2278 -91 
Q 1894 -91 1617 61 
Q 1341 213 1159 525 
L 1159 0 
L 581 0 
L 581 4863 
L 1159 4863 
L 1159 2969 
z
" transform="scale(0.015625)"/>
       <path id="DejaVuSans-76" d="M 191 3500 
L 800 3500 
L 1894 563 
L 2988 3500 
L 3597 3500 
L 2284 0 
L 1503 0 
L 191 3500 
z
" transform="scale(0.015625)"/>
       <path id="DejaVuSans-29" d="M 513 4856 
L 1013 4856 
Q 1481 4119 1714 3412 
Q 1947 2706 1947 2009 
Q 1947 1309 1714 600 
Q 1481 -109 1013 -844 
L 513 -844 
Q 928 -128 1133 580 
Q 1338 1288 1338 2009 
Q 1338 2731 1133 3434 
Q 928 4138 513 4856 
z
" transform="scale(0.015625)"/>
      </defs>
      <use xlink:href="#DejaVuSans-52"/>
      <use xlink:href="#DejaVuSans-65" transform="translate(64.982422 0)"/>
      <use xlink:href="#DejaVuSans-73" transform="translate(126.505859 0)"/>
      <use xlink:href="#DejaVuSans-69" transform="translate(178.605469 0)"/>
      <use xlink:href="#DejaVuSans-64" transform="translate(206.388672 0)"/>
      <use xlink:href="#DejaVuSans-75" transform="translate(269.865234 0)"/>
      <use xlink:href="#DejaVuSans-61" transform="translate(333.244141 0)"/>
      <use xlink:href="#DejaVuSans-6c" transform="translate(394.523438 0)"/>
      <use xlink:href="#DejaVuSans-20" transform="translate(422.306641 0)"/>
      <use xlink:href="#DejaVuSans-28" transform="translate(454.09375 0)"/>
      <use xlink:href="#DejaVuSans-70" transform="translate(493.107422 0)"/>
      <use xlink:href="#DejaVuSans-72" transform="translate(556.583984 0)"/>
      <use xlink:href="#DejaVuSans-65" transform="translate(595.447266 0)"/>
      <use xlink:href="#DejaVuSans-64" transform="translate(656.970703 0)"/>
      <use xlink:href="#DejaVuSans-69" transform="translate(720.447266 0)"/>
      <use xlink:href="#DejaVuSans-63" transform="translate(748.230469 0)"/>
      <use xlink:href="#DejaVuSans-74" transform="translate(803.210938 0)"/>
      <use xlink:href="#DejaVuSans-65" transform="translate(842.419922 0)"/>
      <use xlink:href="#DejaVuSans-64" transform="translate(903.943359 0)"/>
      <use xlink:href="#DejaVuSans-20" transform="translate(967.419922 0)"/>
      <use xlink:href="#DejaVuSans-2d" transform="translate(999.207031 0)"/>
      <use xlink:href="#DejaVuSans-20" transform="translate(1035.291016 0)"/>
      <use xlink:href="#DejaVuSans-6f" transform="translate(1067.078125 0)"/>
      <use xlink:href="#DejaVuSans-62" transform="translate(1128.259766 0)"/>
      <use xlink:href="#DejaVuSans-73" transform="translate(1191.736328 0)"/>
      <use xlink:href="#DejaVuSans-65" transform="translate(1243.835938 0)"/>
      <use xlink:href="#DejaVuSans-72" transform="translate(1305.359375 0)"/>
      <use xlink:href="#DejaVuSans-76" transform="translate(1346.472656 0)"/>
      <use xlink:href="#DejaVuSans-65" transform="translate(1405.652344 0)"/>
      <use xlink:href="#DejaVuSans-64" transform="translate(1467.175781 0)"/>
      <use xlink:href="#DejaVuSans-29" transform="translate(1530.652344 0)"/>
     </g>
    </g>
   </g>
   <g id="matplotlib.axis_2">
    <g id="ytick_1">
     <g id="line2d_6">
      <defs>
       <path id="m856ef71b7f" d="M 0 0 
L -3.5 0 
" style="stroke: #000000; stroke-width: 0.8"/>
      </defs>
      <g>
       <use xlink:href="#m856ef71b7f" x="42.190938" y="314.606125" style="stroke: #000000; stroke-width: 0.8"/>
      </g>
     </g>
     <g id="text_7">
      <!-- 0.0 -->
      <g transform="translate(20.878125 318.025422) scale(0.09 -0.09)">
       <defs>
        <path id="DejaVuSans-2e" d="M 684 794 
L 1344 794 
L 1344 0 
L 684 0 
L 684 794 
z
" transform="scale(0.015625)"/>
       </defs>
       <use xlink:href="#DejaVuSans-30"/>
       <use xlink:href="#DejaVuSans-2e" transform="translate(63.623047 0)"/>
       <use xlink:href="#DejaVuSans-30" transform="translate(95.410156 0)"/>
      </g>
     </g>
    </g>
    <g id="ytick_2">
     <g id="line2d_7">
      <g>
       <use xlink:href="#m856ef71b7f" x="42.190938" y="271.575099" style="stroke: #000000; stroke-width: 0.8"/>
      </g>
     </g>
     <g id="text_8">
      <!-- 0.1 -->
      <g transform="translate(20.878125 274.994396) scale(0.09 -0.09)">
       <defs>
        <path id="DejaVuSans-31" d="M 794 531 
L 1825 531 
L 1825 4091 
L 703 3866 
L 703 4441 
L 1819 4666 
L 2450 4666 
L 2450 531 
L 3481 531 
L 3481 0 
L 794 0 
L 794 531 
z
" transform="scale(0.015625)"/>
       </defs>
       <use xlink:href="#DejaVuSans-30"/>
       <use xlink:href="#DejaVuSans-2e" transform="translate(63.623047 0)"/>
       <use xlink:href="#DejaVuSans-31" transform="translate(95.410156 0)"/>
      </g>
     </g>
    </g>
    <g id="ytick_3">
     <g id="line2d_8">
      <g>
       <use xlink:href="#m856ef71b7f" x="42.190938" y="228.544074" style="stroke: #000000; stroke-width: 0.8"/>
      </g>
     </g>
     <g id="text_9">
      <!-- 0.2 -->
      <g transform="translate(20.878125 231.96337) scale(0.09 -0.09)">
       <use xlink:href="#DejaVuSans-30"/>
       <use xlink:href="#DejaVuSans-2e" transform="translate(63.623047 0)"/>
       <use xlink:href="#DejaVuSans-32" transform="translate(95.410156 0)"/>
      </g>
     </g>
    </g>
    <g id="ytick_4">
     <g id="line2d_9">
      <g>
       <use xlink:href="#m856ef71b7f" x="42.190938" y="185.513048" style="stroke: #000000; stroke-width: 0.8"/>
      </g>
     </g>
     <g id="text_10">
      <!-- 0.3 -->
      <g transform="translate(20.878125 188.932345) scale(0.09 -0.09)">
       <defs>
        <path id="DejaVuSans-33" d="M 2597 2516 
Q 3050 2419 3304 2112 
Q 3559 1806 3559 1356 
Q 3559 666 3084 287 
Q 2609 -91 1734 -91 
Q 1441 -91 1130 -33 
Q 819 25 488 141 
L 488 750 
Q 750 597 1062 519 
Q 1375 441 1716 441 
Q 2309 441 2620 675 
Q 2931 909 2931 1356 
Q 2931 1769 2642 2001 
Q 2353 2234 1838 2234 
L 1294 2234 
L 1294 2753 
L 1863 2753 
Q 2328 2753 2575 2939 
Q 2822 3125 2822 3475 
Q 2822 3834 2567 4026 
Q 2313 4219 1838 4219 
Q 1578 4219 1281 4162 
Q 984 4106 628 3988 
L 628 4550 
Q 988 4650 1302 4700 
Q 1616 4750 1894 4750 
Q 2613 4750 3031 4423 
Q 3450 4097 3450 3541 
Q 3450 3153 3228 2886 
Q 3006 2619 2597 2516 
z
" transform="scale(0.015625)"/>
       </defs>
       <use xlink:href="#DejaVuSans-30"/>
       <use xlink:href="#DejaVuSans-2e" transform="translate(63.623047 0)"/>
       <use xlink:href="#DejaVuSans-33" transform="translate(95.410156 0)"/>
      </g>
     </g>
    </g>
    <g id="ytick_5">
     <g id="line2d_10">
      <g>
       <use xlink:href="#m856ef71b7f" x="42.190938" y="142.482022" style="stroke: #000000; stroke-width: 0.8"/>
      </g>
     </g>
     <g id="text_11">
      <!-- 0.4 -->
      <g transform="translate(20.878125 145.901319) scale(0.09 -0.09)">
       <use xlink:href="#DejaVuSans-30"/>
       <use xlink:href="#DejaVuSans-2e" transform="translate(63.623047 0)"/>
       <use xlink:href="#DejaVuSans-34" transform="translate(95.410156 0)"/>
      </g>
     </g>
    </g>
    <g id="ytick_6">
     <g id="line2d_11">
      <g>
       <use xlink:href="#m856ef71b7f" x="42.190938" y="99.450996" style="stroke: #000000; stroke-width: 0.8"/>
      </g>
     </g>
     <g id="text_12">
      <!-- 0.5 -->
      <g transform="translate(20.878125 102.870293) scale(0.09 -0.09)">
       <defs>
        <path id="DejaVuSans-35" d="M 691 4666 
L 3169 4666 
L 3169 4134 
L 1269 4134 
L 1269 2991 
Q 1406 3038 1543 3061 
Q 1681 3084 1819 3084 
Q 2600 3084 3056 2656 
Q 3513 2228 3513 1497 
Q 3513 744 3044 326 
Q 2575 -91 1722 -91 
Q 1428 -91 1123 -41 
Q 819 9 494 109 
L 494 744 
Q 775 591 1075 516 
Q 1375 441 1709 441 
Q 2250 441 2565 725 
Q 2881 1009 2881 1497 
Q 2881 1984 2565 2268 
Q 2250 2553 1709 2553 
Q 1456 2553 1204 2497 
Q 953 2441 691 2322 
L 691 4666 
z
" transform="scale(0.015625)"/>
       </defs>
       <use xlink:href="#DejaVuSans-30"/>
       <use xlink:href="#DejaVuSans-2e" transform="translate(63.623047 0)"/>
       <use xlink:href="#DejaVuSans-35" transform="translate(95.410156 0)"/>
      </g>
     </g>
    </g>
    <g id="ytick_7">
     <g id="line2d_12">
      <g>
       <use xlink:href="#m856ef71b7f" x="42.190938" y="56.419971" style="stroke: #000000; stroke-width: 0.8"/>
      </g>
     </g>
     <g id="text_13">
      <!-- 0.6 -->
      <g transform="translate(20.878125 59.839267) scale(0.09 -0.09)">
       <defs>
        <path id="DejaVuSans-36" d="M 2113 2584 
Q 1688 2584 1439 2293 
Q 1191 2003 1191 1497 
Q 1191 994 1439 701 
Q 1688 409 2113 409 
Q 2538 409 2786 701 
Q 3034 994 3034 1497 
Q 3034 2003 2786 2293 
Q 2538 2584 2113 2584 
z
M 3366 4563 
L 3366 3988 
Q 3128 4100 2886 4159 
Q 2644 4219 2406 4219 
Q 1781 4219 1451 3797 
Q 1122 3375 1075 2522 
Q 1259 2794 1537 2939 
Q 1816 3084 2150 3084 
Q 2853 3084 3261 2657 
Q 3669 2231 3669 1497 
Q 3669 778 3244 343 
Q 2819 -91 2113 -91 
Q 1303 -91 875 529 
Q 447 1150 447 2328 
Q 447 3434 972 4092 
Q 1497 4750 2381 4750 
Q 2619 4750 2861 4703 
Q 3103 4656 3366 4563 
z
" transform="scale(0.015625)"/>
       </defs>
       <use xlink:href="#DejaVuSans-30"/>
       <use xlink:href="#DejaVuSans-2e" transform="translate(63.623047 0)"/>
       <use xlink:href="#DejaVuSans-36" transform="translate(95.410156 0)"/>
      </g>
     </g>
    </g>
    <g id="text_14">
     <!-- Density -->
     <g transform="translate(14.798438 189.470719) rotate(-90) scale(0.1 -0.1)">
      <defs>
       <path id="DejaVuSans-44" d="M 1259 4147 
L 1259 519 
L 2022 519 
Q 2988 519 3436 956 
Q 3884 1394 3884 2338 
Q 3884 3275 3436 3711 
Q 2988 4147 2022 4147 
L 1259 4147 
z
M 628 4666 
L 1925 4666 
Q 3281 4666 3915 4102 
Q 4550 3538 4550 2338 
Q 4550 1131 3912 565 
Q 3275 0 1925 0 
L 628 0 
L 628 4666 
z
" transform="scale(0.015625)"/>
       <path id="DejaVuSans-6e" d="M 3513 2113 
L 3513 0 
L 2938 0 
L 2938 2094 
Q 2938 2591 2744 2837 
Q 2550 3084 2163 3084 
Q 1697 3084 1428 2787 
Q 1159 2491 1159 1978 
L 1159 0 
L 581 0 
L 581 3500 
L 1159 3500 
L 1159 2956 
Q 1366 3272 1645 3428 
Q 1925 3584 2291 3584 
Q 2894 3584 3203 3211 
Q 3513 2838 3513 2113 
z
" transform="scale(0.015625)"/>
       <path id="DejaVuSans-79" d="M 2059 -325 
Q 1816 -950 1584 -1140 
Q 1353 -1331 966 -1331 
L 506 -1331 
L 506 -850 
L 844 -850 
Q 1081 -850 1212 -737 
Q 1344 -625 1503 -206 
L 1606 56 
L 191 3500 
L 800 3500 
L 1894 763 
L 2988 3500 
L 3597 3500 
L 2059 -325 
z
" transform="scale(0.015625)"/>
      </defs>
      <use xlink:href="#DejaVuSans-44"/>
      <use xlink:href="#DejaVuSans-65" transform="translate(77.001953 0)"/>
      <use xlink:href="#DejaVuSans-6e" transform="translate(138.525391 0)"/>
      <use xlink:href="#DejaVuSans-73" transform="translate(201.904297 0)"/>
      <use xlink:href="#DejaVuSans-69" transform="translate(254.003906 0)"/>
      <use xlink:href="#DejaVuSans-74" transform="translate(281.787109 0)"/>
      <use xlink:href="#DejaVuSans-79" transform="translate(320.996094 0)"/>
     </g>
    </g>
   </g>
   <g id="line2d_13">
    <path d="M 252.28352 314.606125 
L 252.28352 26.318125 
" clip-path="url(#p36b949a49d)" style="fill: none; stroke-dasharray: 3.7,1.6; stroke-dashoffset: 0; stroke: #0d0d0d"/>
   </g>
   <g id="line2d_14">
    <path d="M 252.336073 314.606125 
L 252.336073 26.318125 
" clip-path="url(#p36b949a49d)" style="fill: none; stroke-dasharray: 0.9,1.485; stroke-dashoffset: 0; stroke: #595959; stroke-width: 0.9"/>
   </g>
   <g id="patch_83">
    <path d="M 42.190938 314.606125 
L 42.190938 26.318125 
" style="fill: none; stroke: #333333; stroke-width: 0.8; stroke-linejoin: miter; stroke-linecap: square"/>
   </g>
   <g id="patch_84">
    <path d="M 42.190937 314.606125 
L 466.270937 314.606125 
" style="fill: none; stroke: #333333; stroke-width: 0.8; stroke-linejoin: miter; stroke-linecap: square"/>
   </g>
   <g id="text_15">
    <!-- Residual distribution -->
    <g transform="translate(42.190938 16.318125) scale(0.12 -0.12)">
     <defs>
      <path id="DejaVuSans-Bold-52" d="M 2297 2597 
Q 2675 2597 2839 2737 
Q 3003 2878 3003 3200 
Q 3003 3519 2839 3656 
Q 2675 3794 2297 3794 
L 1791 3794 
L 1791 2597 
L 2297 2597 
z
M 1791 1766 
L 1791 0 
L 588 0 
L 588 4666 
L 2425 4666 
Q 3347 4666 3776 4356 
Q 4206 4047 4206 3378 
Q 4206 2916 3982 2619 
Q 3759 2322 3309 2181 
Q 3556 2125 3751 1926 
Q 3947 1728 4147 1325 
L 4800 0 
L 3519 0 
L 2950 1159 
Q 2778 1509 2601 1637 
Q 2425 1766 2131 1766 
L 1791 1766 
z
" transform="scale(0.015625)"/>
      <path id="DejaVuSans-Bold-65" d="M 4031 1759 
L 4031 1441 
L 1416 1441 
Q 1456 1047 1700 850 
Q 1944 653 2381 653 
Q 2734 653 3104 758 
Q 3475 863 3866 1075 
L 3866 213 
Q 3469 63 3072 -14 
Q 2675 -91 2278 -91 
Q 1328 -91 801 392 
Q 275 875 275 1747 
Q 275 2603 792 3093 
Q 1309 3584 2216 3584 
Q 3041 3584 3536 3087 
Q 4031 2591 4031 1759 
z
M 2881 2131 
Q 2881 2450 2695 2645 
Q 2509 2841 2209 2841 
Q 1884 2841 1681 2658 
Q 1478 2475 1428 2131 
L 2881 2131 
z
" transform="scale(0.015625)"/>
      <path id="DejaVuSans-Bold-73" d="M 3272 3391 
L 3272 2541 
Q 2913 2691 2578 2766 
Q 2244 2841 1947 2841 
Q 1628 2841 1473 2761 
Q 1319 2681 1319 2516 
Q 1319 2381 1436 2309 
Q 1553 2238 1856 2203 
L 2053 2175 
Q 2913 2066 3209 1816 
Q 3506 1566 3506 1031 
Q 3506 472 3093 190 
Q 2681 -91 1863 -91 
Q 1516 -91 1145 -36 
Q 775 19 384 128 
L 384 978 
Q 719 816 1070 734 
Q 1422 653 1784 653 
Q 2113 653 2278 743 
Q 2444 834 2444 1013 
Q 2444 1163 2330 1236 
Q 2216 1309 1875 1350 
L 1678 1375 
Q 931 1469 631 1722 
Q 331 1975 331 2491 
Q 331 3047 712 3315 
Q 1094 3584 1881 3584 
Q 2191 3584 2531 3537 
Q 2872 3491 3272 3391 
z
" transform="scale(0.015625)"/>
      <path id="DejaVuSans-Bold-69" d="M 538 3500 
L 1656 3500 
L 1656 0 
L 538 0 
L 538 3500 
z
M 538 4863 
L 1656 4863 
L 1656 3950 
L 538 3950 
L 538 4863 
z
" transform="scale(0.015625)"/>
      <path id="DejaVuSans-Bold-64" d="M 2919 2988 
L 2919 4863 
L 4044 4863 
L 4044 0 
L 2919 0 
L 2919 506 
Q 2688 197 2409 53 
Q 2131 -91 1766 -91 
Q 1119 -91 703 423 
Q 288 938 288 1747 
Q 288 2556 703 3070 
Q 1119 3584 1766 3584 
Q 2128 3584 2408 3439 
Q 2688 3294 2919 2988 
z
M 2181 722 
Q 2541 722 2730 984 
Q 2919 1247 2919 1747 
Q 2919 2247 2730 2509 
Q 2541 2772 2181 2772 
Q 1825 2772 1636 2509 
Q 1447 2247 1447 1747 
Q 1447 1247 1636 984 
Q 1825 722 2181 722 
z
" transform="scale(0.015625)"/>
      <path id="DejaVuSans-Bold-75" d="M 500 1363 
L 500 3500 
L 1625 3500 
L 1625 3150 
Q 1625 2866 1622 2436 
Q 1619 2006 1619 1863 
Q 1619 1441 1641 1255 
Q 1663 1069 1716 984 
Q 1784 875 1895 815 
Q 2006 756 2150 756 
Q 2500 756 2700 1025 
Q 2900 1294 2900 1772 
L 2900 3500 
L 4019 3500 
L 4019 0 
L 2900 0 
L 2900 506 
Q 2647 200 2364 54 
Q 2081 -91 1741 -91 
Q 1134 -91 817 281 
Q 500 653 500 1363 
z
" transform="scale(0.015625)"/>
      <path id="DejaVuSans-Bold-61" d="M 2106 1575 
Q 1756 1575 1579 1456 
Q 1403 1338 1403 1106 
Q 1403 894 1545 773 
Q 1688 653 1941 653 
Q 2256 653 2472 879 
Q 2688 1106 2688 1447 
L 2688 1575 
L 2106 1575 
z
M 3816 1997 
L 3816 0 
L 2688 0 
L 2688 519 
Q 2463 200 2181 54 
Q 1900 -91 1497 -91 
Q 953 -91 614 226 
Q 275 544 275 1050 
Q 275 1666 698 1953 
Q 1122 2241 2028 2241 
L 2688 2241 
L 2688 2328 
Q 2688 2594 2478 2717 
Q 2269 2841 1825 2841 
Q 1466 2841 1156 2769 
Q 847 2697 581 2553 
L 581 3406 
Q 941 3494 1303 3539 
Q 1666 3584 2028 3584 
Q 2975 3584 3395 3211 
Q 3816 2838 3816 1997 
z
" transform="scale(0.015625)"/>
      <path id="DejaVuSans-Bold-6c" d="M 538 4863 
L 1656 4863 
L 1656 0 
L 538 0 
L 538 4863 
z
" transform="scale(0.015625)"/>
      <path id="DejaVuSans-Bold-20" transform="scale(0.015625)"/>
      <path id="DejaVuSans-Bold-74" d="M 1759 4494 
L 1759 3500 
L 2913 3500 
L 2913 2700 
L 1759 2700 
L 1759 1216 
Q 1759 972 1856 886 
Q 1953 800 2241 800 
L 2816 800 
L 2816 0 
L 1856 0 
Q 1194 0 917 276 
Q 641 553 641 1216 
L 641 2700 
L 84 2700 
L 84 3500 
L 641 3500 
L 641 4494 
L 1759 4494 
z
" transform="scale(0.015625)"/>
      <path id="DejaVuSans-Bold-72" d="M 3138 2547 
Q 2991 2616 2845 2648 
Q 2700 2681 2553 2681 
Q 2122 2681 1889 2404 
Q 1656 2128 1656 1613 
L 1656 0 
L 538 0 
L 538 3500 
L 1656 3500 
L 1656 2925 
Q 1872 3269 2151 3426 
Q 2431 3584 2822 3584 
Q 2878 3584 2943 3579 
Q 3009 3575 3134 3559 
L 3138 2547 
z
" transform="scale(0.015625)"/>
      <path id="DejaVuSans-Bold-62" d="M 2400 722 
Q 2759 722 2948 984 
Q 3138 1247 3138 1747 
Q 3138 2247 2948 2509 
Q 2759 2772 2400 2772 
Q 2041 2772 1848 2508 
Q 1656 2244 1656 1747 
Q 1656 1250 1848 986 
Q 2041 722 2400 722 
z
M 1656 2988 
Q 1888 3294 2169 3439 
Q 2450 3584 2816 3584 
Q 3463 3584 3878 3070 
Q 4294 2556 4294 1747 
Q 4294 938 3878 423 
Q 3463 -91 2816 -91 
Q 2450 -91 2169 54 
Q 1888 200 1656 506 
L 1656 0 
L 538 0 
L 538 4863 
L 1656 4863 
L 1656 2988 
z
" transform="scale(0.015625)"/>
      <path id="DejaVuSans-Bold-6f" d="M 2203 2784 
Q 1831 2784 1636 2517 
Q 1441 2250 1441 1747 
Q 1441 1244 1636 976 
Q 1831 709 2203 709 
Q 2569 709 2762 976 
Q 2956 1244 2956 1747 
Q 2956 2250 2762 2517 
Q 2569 2784 2203 2784 
z
M 2203 3584 
Q 3106 3584 3614 3096 
Q 4122 2609 4122 1747 
Q 4122 884 3614 396 
Q 3106 -91 2203 -91 
Q 1297 -91 786 396 
Q 275 884 275 1747 
Q 275 2609 786 3096 
Q 1297 3584 2203 3584 
z
" transform="scale(0.015625)"/>
      <path id="DejaVuSans-Bold-6e" d="M 4056 2131 
L 4056 0 
L 2931 0 
L 2931 347 
L 2931 1631 
Q 2931 2084 2911 2256 
Q 2891 2428 2841 2509 
Q 2775 2619 2662 2680 
Q 2550 2741 2406 2741 
Q 2056 2741 1856 2470 
Q 1656 2200 1656 1722 
L 1656 0 
L 538 0 
L 538 3500 
L 1656 3500 
L 1656 2988 
Q 1909 3294 2193 3439 
Q 2478 3584 2822 3584 
Q 3428 3584 3742 3212 
Q 4056 2841 4056 2131 
z
" transform="scale(0.015625)"/>
     </defs>
     <use xlink:href="#DejaVuSans-Bold-52"/>
     <use xlink:href="#DejaVuSans-Bold-65" transform="translate(77.001953 0)"/>
     <use xlink:href="#DejaVuSans-Bold-73" transform="translate(144.824219 0)"/>
     <use xlink:href="#DejaVuSans-Bold-69" transform="translate(204.345703 0)"/>
     <use xlink:href="#DejaVuSans-Bold-64" transform="translate(238.623047 0)"/>
     <use xlink:href="#DejaVuSans-Bold-75" transform="translate(310.205078 0)"/>
     <use xlink:href="#DejaVuSans-Bold-61" transform="translate(381.396484 0)"/>
     <use xlink:href="#DejaVuSans-Bold-6c" transform="translate(448.876953 0)"/>
     <use xlink:href="#DejaVuSans-Bold-20" transform="translate(483.154297 0)"/>
     <use xlink:href="#DejaVuSans-Bold-64" transform="translate(517.96875 0)"/>
     <use xlink:href="#DejaVuSans-Bold-69" transform="translate(589.550781 0)"/>
     <use xlink:href="#DejaVuSans-Bold-73" transform="translate(623.828125 0)"/>
     <use xlink:href="#DejaVuSans-Bold-74" transform="translate(683.349609 0)"/>
     <use xlink:href="#DejaVuSans-Bold-72" transform="translate(731.152344 0)"/>
     <use xlink:href="#DejaVuSans-Bold-69" transform="translate(780.46875 0)"/>
     <use xlink:href="#DejaVuSans-Bold-62" transform="translate(814.746094 0)"/>
     <use xlink:href="#DejaVuSans-Bold-75" transform="translate(886.328125 0)"/>
     <use xlink:href="#DejaVuSans-Bold-74" transform="translate(957.519531 0)"/>
     <use xlink:href="#DejaVuSans-Bold-69" transform="translate(1005.322266 0)"/>
     <use xlink:href="#DejaVuSans-Bold-6f" transform="translate(1039.599609 0)"/>
     <use xlink:href="#DejaVuSans-Bold-6e" transform="translate(1108.300781 0)"/>
    </g>
   </g>
   <g id="legend_1">
    <g id="line2d_15">
     <path d="M 402.024062 39.416562 
L 412.024062 39.416562 
L 422.024062 39.416562 
" style="fill: none; stroke-dasharray: 3.7,1.6; stroke-dashoffset: 0; stroke: #0d0d0d"/>
    </g>
    <g id="text_16">
     <!-- Zero -->
     <g transform="translate(430.024062 42.916562) scale(0.1 -0.1)">
      <defs>
       <path id="DejaVuSans-5a" d="M 359 4666 
L 4025 4666 
L 4025 4184 
L 1075 531 
L 4097 531 
L 4097 0 
L 288 0 
L 288 481 
L 3238 4134 
L 359 4134 
L 359 4666 
z
" transform="scale(0.015625)"/>
      </defs>
      <use xlink:href="#DejaVuSans-5a"/>
      <use xlink:href="#DejaVuSans-65" transform="translate(68.505859 0)"/>
      <use xlink:href="#DejaVuSans-72" transform="translate(130.029297 0)"/>
      <use xlink:href="#DejaVuSans-6f" transform="translate(168.892578 0)"/>
     </g>
    </g>
    <g id="line2d_16">
     <path d="M 402.024062 54.094687 
L 412.024062 54.094687 
L 422.024062 54.094687 
" style="fill: none; stroke-dasharray: 0.9,1.485; stroke-dashoffset: 0; stroke: #595959; stroke-width: 0.9"/>
    </g>
    <g id="text_17">
     <!-- Mean -->
     <g transform="translate(430.024062 57.594687) scale(0.1 -0.1)">
      <defs>
       <path id="DejaVuSans-4d" d="M 628 4666 
L 1569 4666 
L 2759 1491 
L 3956 4666 
L 4897 4666 
L 4897 0 
L 4281 0 
L 4281 4097 
L 3078 897 
L 2444 897 
L 1241 4097 
L 1241 0 
L 628 0 
L 628 4666 
z
" transform="scale(0.015625)"/>
      </defs>
      <use xlink:href="#DejaVuSans-4d"/>
      <use xlink:href="#DejaVuSans-65" transform="translate(86.279297 0)"/>
      <use xlink:href="#DejaVuSans-61" transform="translate(147.802734 0)"/>
      <use xlink:href="#DejaVuSans-6e" transform="translate(209.082031 0)"/>
     </g>
    </g>
   </g>
  </g>
 </g>
 <defs>
  <clipPath id="p36b949a49d">
   <rect x="42.190938" y="26.318125" width="424.08" height="288.288"/>
  </clipPath>
 </defs>
</svg>
