<?xml version="1.0" encoding="utf-8" standalone="no"?>
<!DOCTYPE svg PUBLIC "-//W3C//DTD SVG 1.1//EN"
  "http://www.w3.org/Graphics/SVG/1.1/DTD/svg11.dtd">
<svg xmlns:xlink="http://www.w3.org/1999/xlink" width="575.714375pt" height="351.194562pt" viewBox="0 0 575.714375 351.194562" xmlns="http://www.w3.org/2000/svg" version="1.1">
 <metadata>
  <rdf:RDF xmlns:dc="http://purl.org/dc/elements/1.1/" xmlns:cc="http://creativecommons.org/ns#" xmlns:rdf="http://www.w3.org/1999/02/22-rdf-syntax-ns#">
   <cc:Work>
    <dc:type rdf:resource="http://purl.org/dc/dcmitype/StillImage"/>
    <dc:date>2026-04-27T15:29:36.794702</dc:date>
    <dc:format>image/svg+xml</dc:format>
    <dc:creator>
     <cc:Agent>
      <dc:title>Matplotlib v3.10.8, https://matplotlib.org/</dc:title>
     </cc:Agent>
    </dc:creator>
   </cc:Work>
  </rdf:RDF>
 </metadata>
 <defs>
  <style type="text/css">*{stroke-linejoin: round; stroke-linecap: butt}</style>
 </defs>
 <g id="figure_1">
  <g id="patch_1">
   <path d="M 0 351.194562 
L 575.714375 351.194562 
L 575.714375 0 
L 0 0 
z
" style="fill: #ffffff"/>
  </g>
  <g id="axes_1">
   <g id="patch_2">
    <path d="M 47.917187 314.606125 
L 527.797187 314.606125 
L 527.797187 26.318125 
L 47.917187 26.318125 
z
" style="fill: #ffffff"/>
   </g>
   <g id="matplotlib.axis_1">
    <g id="xtick_1">
     <g id="line2d_1">
      <defs>
       <path id="m36732f8ae4" d="M 0 0 
L 0 3.5 
" style="stroke: #333333; stroke-width: 0.8"/>
      </defs>
      <g>
       <use xlink:href="#m36732f8ae4" x="55.804048" y="314.606125" style="fill: #333333; stroke: #333333; stroke-width: 0.8"/>
      </g>
     </g>
     <g id="text_1">
      <!-- 0 -->
      <g style="fill: #333333" transform="translate(52.940923 328.444719) scale(0.09 -0.09)">
       <defs>
        <path id="DejaVuSans-30" d="M 2034 4250 
Q 1547 4250 1301 3770 
Q 1056 3291 1056 2328 
Q 1056 1369 1301 889 
Q 1547 409 2034 409 
Q 2525 409 2770 889 
Q 3016 1369 3016 2328 
Q 3016 3291 2770 3770 
Q 2525 4250 2034 4250 
z
M 2034 4750 
Q 2819 4750 3233 4129 
Q 3647 3509 3647 2328 
Q 3647 1150 3233 529 
Q 2819 -91 2034 -91 
Q 1250 -91 836 529 
Q 422 1150 422 2328 
Q 422 3509 836 4129 
Q 1250 4750 2034 4750 
z
" transform="scale(0.015625)"/>
       </defs>
       <use xlink:href="#DejaVuSans-30"/>
      </g>
     </g>
    </g>
    <g id="xtick_2">
     <g id="line2d_2">
      <g>
       <use xlink:href="#m36732f8ae4" x="145.072423" y="314.606125" style="fill: #333333; stroke: #333333; stroke-width: 0.8"/>
      </g>
     </g>
     <g id="text_2">
      <!-- 2,000 -->
      <g style="fill: #333333" transform="translate(132.189766 328.444719) scale(0.09 -0.09)">
       <defs>
        <path id="DejaVuSans-32" d="M 1228 531 
L 3431 531 
L 3431 0 
L 469 0 
L 469 531 
Q 828 903 1448 1529 
Q 2069 2156 2228 2338 
Q 2531 2678 2651 2914 
Q 2772 3150 2772 3378 
Q 2772 3750 2511 3984 
Q 2250 4219 1831 4219 
Q 1534 4219 1204 4116 
Q 875 4013 500 3803 
L 500 4441 
Q 881 4594 1212 4672 
Q 1544 4750 1819 4750 
Q 2544 4750 2975 4387 
Q 3406 4025 3406 3419 
Q 3406 3131 3298 2873 
Q 3191 2616 2906 2266 
Q 2828 2175 2409 1742 
Q 1991 1309 1228 531 
z
" transform="scale(0.015625)"/>
        <path id="DejaVuSans-2c" d="M 750 794 
L 1409 794 
L 1409 256 
L 897 -744 
L 494 -744 
L 750 256 
L 750 794 
z
" transform="scale(0.015625)"/>
       </defs>
       <use xlink:href="#DejaVuSans-32"/>
       <use xlink:href="#DejaVuSans-2c" transform="translate(63.623047 0)"/>
       <use xlink:href="#DejaVuSans-30" transform="translate(95.410156 0)"/>
       <use xlink:href="#DejaVuSans-30" transform="translate(159.033203 0)"/>
       <use xlink:href="#DejaVuSans-30" transform="translate(222.65625 0)"/>
      </g>
     </g>
    </g>
    <g id="xtick_3">
     <g id="line2d_3">
      <g>
       <use xlink:href="#m36732f8ae4" x="234.340797" y="314.606125" style="fill: #333333; stroke: #333333; stroke-width: 0.8"/>
      </g>
     </g>
     <g id="text_3">
      <!-- 4,000 -->
      <g style="fill: #333333" transform="translate(221.458141 328.444719) scale(0.09 -0.09)">
       <defs>
        <path id="DejaVuSans-34" d="M 2419 4116 
L 825 1625 
L 2419 1625 
L 2419 4116 
z
M 2253 4666 
L 3047 4666 
L 3047 1625 
L 3713 1625 
L 3713 1100 
L 3047 1100 
L 3047 0 
L 2419 0 
L 2419 1100 
L 313 1100 
L 313 1709 
L 2253 4666 
z
" transform="scale(0.015625)"/>
       </defs>
       <use xlink:href="#DejaVuSans-34"/>
       <use xlink:href="#DejaVuSans-2c" transform="translate(63.623047 0)"/>
       <use xlink:href="#DejaVuSans-30" transform="translate(95.410156 0)"/>
       <use xlink:href="#DejaVuSans-30" transform="translate(159.033203 0)"/>
       <use xlink:href="#DejaVuSans-30" transform="translate(222.65625 0)"/>
      </g>
     </g>
    </g>
    <g id="xtick_4">
     <g id="line2d_4">
      <g>
       <use xlink:href="#m36732f8ae4" x="323.609171" y="314.606125" style="fill: #333333; stroke: #333333; stroke-width: 0.8"/>
      </g>
     </g>
     <g id="text_4">
      <!-- 6,000 -->
      <g style="fill: #333333" transform="translate(310.726515 328.444719) scale(0.09 -0.09)">
       <defs>
        <path id="DejaVuSans-36" d="M 2113 2584 
Q 1688 2584 1439 2293 
Q 1191 2003 1191 1497 
Q 1191 994 1439 701 
Q 1688 409 2113 409 
Q 2538 409 2786 701 
Q 3034 994 3034 1497 
Q 3034 2003 2786 2293 
Q 2538 2584 2113 2584 
z
M 3366 4563 
L 3366 3988 
Q 3128 4100 2886 4159 
Q 2644 4219 2406 4219 
Q 1781 4219 1451 3797 
Q 1122 3375 1075 2522 
Q 1259 2794 1537 2939 
Q 1816 3084 2150 3084 
Q 2853 3084 3261 2657 
Q 3669 2231 3669 1497 
Q 3669 778 3244 343 
Q 2819 -91 2113 -91 
Q 1303 -91 875 529 
Q 447 1150 447 2328 
Q 447 3434 972 4092 
Q 1497 4750 2381 4750 
Q 2619 4750 2861 4703 
Q 3103 4656 3366 4563 
z
" transform="scale(0.015625)"/>
       </defs>
       <use xlink:href="#DejaVuSans-36"/>
       <use xlink:href="#DejaVuSans-2c" transform="translate(63.623047 0)"/>
       <use xlink:href="#DejaVuSans-30" transform="translate(95.410156 0)"/>
       <use xlink:href="#DejaVuSans-30" transform="translate(159.033203 0)"/>
       <use xlink:href="#DejaVuSans-30" transform="translate(222.65625 0)"/>
      </g>
     </g>
    </g>
    <g id="xtick_5">
     <g id="line2d_5">
      <g>
       <use xlink:href="#m36732f8ae4" x="412.877546" y="314.606125" style="fill: #333333; stroke: #333333; stroke-width: 0.8"/>
      </g>
     </g>
     <g id="text_5">
      <!-- 8,000 -->
      <g style="fill: #333333" transform="translate(399.99489 328.444719) scale(0.09 -0.09)">
       <defs>
        <path id="DejaVuSans-38" d="M 2034 2216 
Q 1584 2216 1326 1975 
Q 1069 1734 1069 1313 
Q 1069 891 1326 650 
Q 1584 409 2034 409 
Q 2484 409 2743 651 
Q 3003 894 3003 1313 
Q 3003 1734 2745 1975 
Q 2488 2216 2034 2216 
z
M 1403 2484 
Q 997 2584 770 2862 
Q 544 3141 544 3541 
Q 544 4100 942 4425 
Q 1341 4750 2034 4750 
Q 2731 4750 3128 4425 
Q 3525 4100 3525 3541 
Q 3525 3141 3298 2862 
Q 3072 2584 2669 2484 
Q 3125 2378 3379 2068 
Q 3634 1759 3634 1313 
Q 3634 634 3220 271 
Q 2806 -91 2034 -91 
Q 1263 -91 848 271 
Q 434 634 434 1313 
Q 434 1759 690 2068 
Q 947 2378 1403 2484 
z
M 1172 3481 
Q 1172 3119 1398 2916 
Q 1625 2713 2034 2713 
Q 2441 2713 2670 2916 
Q 2900 3119 2900 3481 
Q 2900 3844 2670 4047 
Q 2441 4250 2034 4250 
Q 1625 4250 1398 4047 
Q 1172 3844 1172 3481 
z
" transform="scale(0.015625)"/>
       </defs>
       <use xlink:href="#DejaVuSans-38"/>
       <use xlink:href="#DejaVuSans-2c" transform="translate(63.623047 0)"/>
       <use xlink:href="#DejaVuSans-30" transform="translate(95.410156 0)"/>
       <use xlink:href="#DejaVuSans-30" transform="translate(159.033203 0)"/>
       <use xlink:href="#DejaVuSans-30" transform="translate(222.65625 0)"/>
      </g>
     </g>
    </g>
    <g id="xtick_6">
     <g id="line2d_6">
      <g>
       <use xlink:href="#m36732f8ae4" x="502.14592" y="314.606125" style="fill: #333333; stroke: #333333; stroke-width: 0.8"/>
      </g>
     </g>
     <g id="text_6">
      <!-- 10,000 -->
      <g style="fill: #333333" transform="translate(486.400139 328.444719) scale(0.09 -0.09)">
       <defs>
        <path id="DejaVuSans-31" d="M 794 531 
L 1825 531 
L 1825 4091 
L 703 3866 
L 703 4441 
L 1819 4666 
L 2450 4666 
L 2450 531 
L 3481 531 
L 3481 0 
L 794 0 
L 794 531 
z
" transform="scale(0.015625)"/>
       </defs>
       <use xlink:href="#DejaVuSans-31"/>
       <use xlink:href="#DejaVuSans-30" transform="translate(63.623047 0)"/>
       <use xlink:href="#DejaVuSans-2c" transform="translate(127.246094 0)"/>
       <use xlink:href="#DejaVuSans-30" transform="translate(159.033203 0)"/>
       <use xlink:href="#DejaVuSans-30" transform="translate(222.65625 0)"/>
       <use xlink:href="#DejaVuSans-30" transform="translate(286.279297 0)"/>
      </g>
     </g>
    </g>
    <g id="text_7">
     <!-- Observations -->
     <g transform="translate(254.804844 341.914875) scale(0.1 -0.1)">
      <defs>
       <path id="DejaVuSans-4f" d="M 2522 4238 
Q 1834 4238 1429 3725 
Q 1025 3213 1025 2328 
Q 1025 1447 1429 934 
Q 1834 422 2522 422 
Q 3209 422 3611 934 
Q 4013 1447 4013 2328 
Q 4013 3213 3611 3725 
Q 3209 4238 2522 4238 
z
M 2522 4750 
Q 3503 4750 4090 4092 
Q 4678 3434 4678 2328 
Q 4678 1225 4090 567 
Q 3503 -91 2522 -91 
Q 1538 -91 948 565 
Q 359 1222 359 2328 
Q 359 3434 948 4092 
Q 1538 4750 2522 4750 
z
" transform="scale(0.015625)"/>
       <path id="DejaVuSans-62" d="M 3116 1747 
Q 3116 2381 2855 2742 
Q 2594 3103 2138 3103 
Q 1681 3103 1420 2742 
Q 1159 2381 1159 1747 
Q 1159 1113 1420 752 
Q 1681 391 2138 391 
Q 2594 391 2855 752 
Q 3116 1113 3116 1747 
z
M 1159 2969 
Q 1341 3281 1617 3432 
Q 1894 3584 2278 3584 
Q 2916 3584 3314 3078 
Q 3713 2572 3713 1747 
Q 3713 922 3314 415 
Q 2916 -91 2278 -91 
Q 1894 -91 1617 61 
Q 1341 213 1159 525 
L 1159 0 
L 581 0 
L 581 4863 
L 1159 4863 
L 1159 2969 
z
" transform="scale(0.015625)"/>
       <path id="DejaVuSans-73" d="M 2834 3397 
L 2834 2853 
Q 2591 2978 2328 3040 
Q 2066 3103 1784 3103 
Q 1356 3103 1142 2972 
Q 928 2841 928 2578 
Q 928 2378 1081 2264 
Q 1234 2150 1697 2047 
L 1894 2003 
Q 2506 1872 2764 1633 
Q 3022 1394 3022 966 
Q 3022 478 2636 193 
Q 2250 -91 1575 -91 
Q 1294 -91 989 -36 
Q 684 19 347 128 
L 347 722 
Q 666 556 975 473 
Q 1284 391 1588 391 
Q 1994 391 2212 530 
Q 2431 669 2431 922 
Q 2431 1156 2273 1281 
Q 2116 1406 1581 1522 
L 1381 1569 
Q 847 1681 609 1914 
Q 372 2147 372 2553 
Q 372 3047 722 3315 
Q 1072 3584 1716 3584 
Q 2034 3584 2315 3537 
Q 2597 3491 2834 3397 
z
" transform="scale(0.015625)"/>
       <path id="DejaVuSans-65" d="M 3597 1894 
L 3597 1613 
L 953 1613 
Q 991 1019 1311 708 
Q 1631 397 2203 397 
Q 2534 397 2845 478 
Q 3156 559 3463 722 
L 3463 178 
Q 3153 47 2828 -22 
Q 2503 -91 2169 -91 
Q 1331 -91 842 396 
Q 353 884 353 1716 
Q 353 2575 817 3079 
Q 1281 3584 2069 3584 
Q 2775 3584 3186 3129 
Q 3597 2675 3597 1894 
z
M 3022 2063 
Q 3016 2534 2758 2815 
Q 2500 3097 2075 3097 
Q 1594 3097 1305 2825 
Q 1016 2553 972 2059 
L 3022 2063 
z
" transform="scale(0.015625)"/>
       <path id="DejaVuSans-72" d="M 2631 2963 
Q 2534 3019 2420 3045 
Q 2306 3072 2169 3072 
Q 1681 3072 1420 2755 
Q 1159 2438 1159 1844 
L 1159 0 
L 581 0 
L 581 3500 
L 1159 3500 
L 1159 2956 
Q 1341 3275 1631 3429 
Q 1922 3584 2338 3584 
Q 2397 3584 2469 3576 
Q 2541 3569 2628 3553 
L 2631 2963 
z
" transform="scale(0.015625)"/>
       <path id="DejaVuSans-76" d="M 191 3500 
L 800 3500 
L 1894 563 
L 2988 3500 
L 3597 3500 
L 2284 0 
L 1503 0 
L 191 3500 
z
" transform="scale(0.015625)"/>
       <path id="DejaVuSans-61" d="M 2194 1759 
Q 1497 1759 1228 1600 
Q 959 1441 959 1056 
Q 959 750 1161 570 
Q 1363 391 1709 391 
Q 2188 391 2477 730 
Q 2766 1069 2766 1631 
L 2766 1759 
L 2194 1759 
z
M 3341 1997 
L 3341 0 
L 2766 0 
L 2766 531 
Q 2569 213 2275 61 
Q 1981 -91 1556 -91 
Q 1019 -91 701 211 
Q 384 513 384 1019 
Q 384 1609 779 1909 
Q 1175 2209 1959 2209 
L 2766 2209 
L 2766 2266 
Q 2766 2663 2505 2880 
Q 2244 3097 1772 3097 
Q 1472 3097 1187 3025 
Q 903 2953 641 2809 
L 641 3341 
Q 956 3463 1253 3523 
Q 1550 3584 1831 3584 
Q 2591 3584 2966 3190 
Q 3341 2797 3341 1997 
z
" transform="scale(0.015625)"/>
       <path id="DejaVuSans-74" d="M 1172 4494 
L 1172 3500 
L 2356 3500 
L 2356 3053 
L 1172 3053 
L 1172 1153 
Q 1172 725 1289 603 
Q 1406 481 1766 481 
L 2356 481 
L 2356 0 
L 1766 0 
Q 1100 0 847 248 
Q 594 497 594 1153 
L 594 3053 
L 172 3053 
L 172 3500 
L 594 3500 
L 594 4494 
L 1172 4494 
z
" transform="scale(0.015625)"/>
       <path id="DejaVuSans-69" d="M 603 3500 
L 1178 3500 
L 1178 0 
L 603 0 
L 603 3500 
z
M 603 4863 
L 1178 4863 
L 1178 4134 
L 603 4134 
L 603 4863 
z
" transform="scale(0.015625)"/>
       <path id="DejaVuSans-6f" d="M 1959 3097 
Q 1497 3097 1228 2736 
Q 959 2375 959 1747 
Q 959 1119 1226 758 
Q 1494 397 1959 397 
Q 2419 397 2687 759 
Q 2956 1122 2956 1747 
Q 2956 2369 2687 2733 
Q 2419 3097 1959 3097 
z
M 1959 3584 
Q 2709 3584 3137 3096 
Q 3566 2609 3566 1747 
Q 3566 888 3137 398 
Q 2709 -91 1959 -91 
Q 1206 -91 779 398 
Q 353 888 353 1747 
Q 353 2609 779 3096 
Q 1206 3584 1959 3584 
z
" transform="scale(0.015625)"/>
       <path id="DejaVuSans-6e" d="M 3513 2113 
L 3513 0 
L 2938 0 
L 2938 2094 
Q 2938 2591 2744 2837 
Q 2550 3084 2163 3084 
Q 1697 3084 1428 2787 
Q 1159 2491 1159 1978 
L 1159 0 
L 581 0 
L 581 3500 
L 1159 3500 
L 1159 2956 
Q 1366 3272 1645 3428 
Q 1925 3584 2291 3584 
Q 2894 3584 3203 3211 
Q 3513 2838 3513 2113 
z
" transform="scale(0.015625)"/>
      </defs>
      <use xlink:href="#DejaVuSans-4f"/>
      <use xlink:href="#DejaVuSans-62" transform="translate(78.710938 0)"/>
      <use xlink:href="#DejaVuSans-73" transform="translate(142.1875 0)"/>
      <use xlink:href="#DejaVuSans-65" transform="translate(194.287109 0)"/>
      <use xlink:href="#DejaVuSans-72" transform="translate(255.810547 0)"/>
      <use xlink:href="#DejaVuSans-76" transform="translate(296.923828 0)"/>
      <use xlink:href="#DejaVuSans-61" transform="translate(356.103516 0)"/>
      <use xlink:href="#DejaVuSans-74" transform="translate(417.382812 0)"/>
      <use xlink:href="#DejaVuSans-69" transform="translate(456.591797 0)"/>
      <use xlink:href="#DejaVuSans-6f" transform="translate(484.375 0)"/>
      <use xlink:href="#DejaVuSans-6e" transform="translate(545.556641 0)"/>
      <use xlink:href="#DejaVuSans-73" transform="translate(608.935547 0)"/>
     </g>
    </g>
   </g>
   <g id="matplotlib.axis_2">
    <g id="ytick_1">
     <g id="line2d_7">
      <defs>
       <path id="m144781de62" d="M 0 0 
L -3.5 0 
" style="stroke: #141414; stroke-width: 0.8"/>
      </defs>
      <g>
       <use xlink:href="#m144781de62" x="47.917187" y="306.725072" style="fill: #141414; stroke: #141414; stroke-width: 0.8"/>
      </g>
     </g>
     <g id="text_8">
      <!-- 0.00 -->
      <g style="fill: #141414" transform="translate(20.878125 310.144368) scale(0.09 -0.09)">
       <defs>
        <path id="DejaVuSans-2e" d="M 684 794 
L 1344 794 
L 1344 0 
L 684 0 
L 684 794 
z
" transform="scale(0.015625)"/>
       </defs>
       <use xlink:href="#DejaVuSans-30"/>
       <use xlink:href="#DejaVuSans-2e" transform="translate(63.623047 0)"/>
       <use xlink:href="#DejaVuSans-30" transform="translate(95.410156 0)"/>
       <use xlink:href="#DejaVuSans-30" transform="translate(159.033203 0)"/>
      </g>
     </g>
    </g>
    <g id="ytick_2">
     <g id="line2d_8">
      <g>
       <use xlink:href="#m144781de62" x="47.917187" y="269.41831" style="fill: #141414; stroke: #141414; stroke-width: 0.8"/>
      </g>
     </g>
     <g id="text_9">
      <!-- 0.10 -->
      <g style="fill: #141414" transform="translate(20.878125 272.837607) scale(0.09 -0.09)">
       <use xlink:href="#DejaVuSans-30"/>
       <use xlink:href="#DejaVuSans-2e" transform="translate(63.623047 0)"/>
       <use xlink:href="#DejaVuSans-31" transform="translate(95.410156 0)"/>
       <use xlink:href="#DejaVuSans-30" transform="translate(159.033203 0)"/>
      </g>
     </g>
    </g>
    <g id="ytick_3">
     <g id="line2d_9">
      <g>
       <use xlink:href="#m144781de62" x="47.917187" y="232.111548" style="fill: #141414; stroke: #141414; stroke-width: 0.8"/>
      </g>
     </g>
     <g id="text_10">
      <!-- 0.20 -->
      <g style="fill: #141414" transform="translate(20.878125 235.530845) scale(0.09 -0.09)">
       <use xlink:href="#DejaVuSans-30"/>
       <use xlink:href="#DejaVuSans-2e" transform="translate(63.623047 0)"/>
       <use xlink:href="#DejaVuSans-32" transform="translate(95.410156 0)"/>
       <use xlink:href="#DejaVuSans-30" transform="translate(159.033203 0)"/>
      </g>
     </g>
    </g>
    <g id="ytick_4">
     <g id="line2d_10">
      <g>
       <use xlink:href="#m144781de62" x="47.917187" y="194.804787" style="fill: #141414; stroke: #141414; stroke-width: 0.8"/>
      </g>
     </g>
     <g id="text_11">
      <!-- 0.30 -->
      <g style="fill: #141414" transform="translate(20.878125 198.224084) scale(0.09 -0.09)">
       <defs>
        <path id="DejaVuSans-33" d="M 2597 2516 
Q 3050 2419 3304 2112 
Q 3559 1806 3559 1356 
Q 3559 666 3084 287 
Q 2609 -91 1734 -91 
Q 1441 -91 1130 -33 
Q 819 25 488 141 
L 488 750 
Q 750 597 1062 519 
Q 1375 441 1716 441 
Q 2309 441 2620 675 
Q 2931 909 2931 1356 
Q 2931 1769 2642 2001 
Q 2353 2234 1838 2234 
L 1294 2234 
L 1294 2753 
L 1863 2753 
Q 2328 2753 2575 2939 
Q 2822 3125 2822 3475 
Q 2822 3834 2567 4026 
Q 2313 4219 1838 4219 
Q 1578 4219 1281 4162 
Q 984 4106 628 3988 
L 628 4550 
Q 988 4650 1302 4700 
Q 1616 4750 1894 4750 
Q 2613 4750 3031 4423 
Q 3450 4097 3450 3541 
Q 3450 3153 3228 2886 
Q 3006 2619 2597 2516 
z
" transform="scale(0.015625)"/>
       </defs>
       <use xlink:href="#DejaVuSans-30"/>
       <use xlink:href="#DejaVuSans-2e" transform="translate(63.623047 0)"/>
       <use xlink:href="#DejaVuSans-33" transform="translate(95.410156 0)"/>
       <use xlink:href="#DejaVuSans-30" transform="translate(159.033203 0)"/>
      </g>
     </g>
    </g>
    <g id="ytick_5">
     <g id="line2d_11">
      <g>
       <use xlink:href="#m144781de62" x="47.917187" y="157.498025" style="fill: #141414; stroke: #141414; stroke-width: 0.8"/>
      </g>
     </g>
     <g id="text_12">
      <!-- 0.40 -->
      <g style="fill: #141414" transform="translate(20.878125 160.917322) scale(0.09 -0.09)">
       <use xlink:href="#DejaVuSans-30"/>
       <use xlink:href="#DejaVuSans-2e" transform="translate(63.623047 0)"/>
       <use xlink:href="#DejaVuSans-34" transform="translate(95.410156 0)"/>
       <use xlink:href="#DejaVuSans-30" transform="translate(159.033203 0)"/>
      </g>
     </g>
    </g>
    <g id="ytick_6">
     <g id="line2d_12">
      <g>
       <use xlink:href="#m144781de62" x="47.917187" y="120.191264" style="fill: #141414; stroke: #141414; stroke-width: 0.8"/>
      </g>
     </g>
     <g id="text_13">
      <!-- 0.50 -->
      <g style="fill: #141414" transform="translate(20.878125 123.610561) scale(0.09 -0.09)">
       <defs>
        <path id="DejaVuSans-35" d="M 691 4666 
L 3169 4666 
L 3169 4134 
L 1269 4134 
L 1269 2991 
Q 1406 3038 1543 3061 
Q 1681 3084 1819 3084 
Q 2600 3084 3056 2656 
Q 3513 2228 3513 1497 
Q 3513 744 3044 326 
Q 2575 -91 1722 -91 
Q 1428 -91 1123 -41 
Q 819 9 494 109 
L 494 744 
Q 775 591 1075 516 
Q 1375 441 1709 441 
Q 2250 441 2565 725 
Q 2881 1009 2881 1497 
Q 2881 1984 2565 2268 
Q 2250 2553 1709 2553 
Q 1456 2553 1204 2497 
Q 953 2441 691 2322 
L 691 4666 
z
" transform="scale(0.015625)"/>
       </defs>
       <use xlink:href="#DejaVuSans-30"/>
       <use xlink:href="#DejaVuSans-2e" transform="translate(63.623047 0)"/>
       <use xlink:href="#DejaVuSans-35" transform="translate(95.410156 0)"/>
       <use xlink:href="#DejaVuSans-30" transform="translate(159.033203 0)"/>
      </g>
     </g>
    </g>
    <g id="ytick_7">
     <g id="line2d_13">
      <g>
       <use xlink:href="#m144781de62" x="47.917187" y="82.884502" style="fill: #141414; stroke: #141414; stroke-width: 0.8"/>
      </g>
     </g>
     <g id="text_14">
      <!-- 0.60 -->
      <g style="fill: #141414" transform="translate(20.878125 86.303799) scale(0.09 -0.09)">
       <use xlink:href="#DejaVuSans-30"/>
       <use xlink:href="#DejaVuSans-2e" transform="translate(63.623047 0)"/>
       <use xlink:href="#DejaVuSans-36" transform="translate(95.410156 0)"/>
       <use xlink:href="#DejaVuSans-30" transform="translate(159.033203 0)"/>
      </g>
     </g>
    </g>
    <g id="ytick_8">
     <g id="line2d_14">
      <g>
       <use xlink:href="#m144781de62" x="47.917187" y="45.577741" style="fill: #141414; stroke: #141414; stroke-width: 0.8"/>
      </g>
     </g>
     <g id="text_15">
      <!-- 0.70 -->
      <g style="fill: #141414" transform="translate(20.878125 48.997038) scale(0.09 -0.09)">
       <defs>
        <path id="DejaVuSans-37" d="M 525 4666 
L 3525 4666 
L 3525 4397 
L 1831 0 
L 1172 0 
L 2766 4134 
L 525 4134 
L 525 4666 
z
" transform="scale(0.015625)"/>
       </defs>
       <use xlink:href="#DejaVuSans-30"/>
       <use xlink:href="#DejaVuSans-2e" transform="translate(63.623047 0)"/>
       <use xlink:href="#DejaVuSans-37" transform="translate(95.410156 0)"/>
       <use xlink:href="#DejaVuSans-30" transform="translate(159.033203 0)"/>
      </g>
     </g>
    </g>
    <g id="text_16">
     <!-- Mean error -->
     <g style="fill: #141414" transform="translate(14.798437 197.776969) rotate(-90) scale(0.1 -0.1)">
      <defs>
       <path id="DejaVuSans-4d" d="M 628 4666 
L 1569 4666 
L 2759 1491 
L 3956 4666 
L 4897 4666 
L 4897 0 
L 4281 0 
L 4281 4097 
L 3078 897 
L 2444 897 
L 1241 4097 
L 1241 0 
L 628 0 
L 628 4666 
z
" transform="scale(0.015625)"/>
       <path id="DejaVuSans-20" transform="scale(0.015625)"/>
      </defs>
      <use xlink:href="#DejaVuSans-4d"/>
      <use xlink:href="#DejaVuSans-65" transform="translate(86.279297 0)"/>
      <use xlink:href="#DejaVuSans-61" transform="translate(147.802734 0)"/>
      <use xlink:href="#DejaVuSans-6e" transform="translate(209.082031 0)"/>
      <use xlink:href="#DejaVuSans-20" transform="translate(272.460938 0)"/>
      <use xlink:href="#DejaVuSans-65" transform="translate(304.248047 0)"/>
      <use xlink:href="#DejaVuSans-72" transform="translate(365.771484 0)"/>
      <use xlink:href="#DejaVuSans-72" transform="translate(405.134766 0)"/>
      <use xlink:href="#DejaVuSans-6f" transform="translate(443.998047 0)"/>
      <use xlink:href="#DejaVuSans-72" transform="translate(505.179688 0)"/>
     </g>
    </g>
   </g>
   <g id="patch_3">
    <path d="M 47.917187 314.606125 
L 47.917187 26.318125 
" style="fill: none; stroke: #333333; stroke-width: 0.8; stroke-linejoin: miter; stroke-linecap: square"/>
   </g>
   <g id="patch_4">
    <path d="M 47.917187 314.606125 
L 527.797187 314.606125 
" style="fill: none; stroke: #333333; stroke-width: 0.8; stroke-linejoin: miter; stroke-linecap: square"/>
   </g>
   <g id="text_17">
    <!-- Performance by sample size -->
    <g transform="translate(47.917187 16.318125) scale(0.12 -0.12)">
     <defs>
      <path id="DejaVuSans-Bold-50" d="M 588 4666 
L 2584 4666 
Q 3475 4666 3951 4270 
Q 4428 3875 4428 3144 
Q 4428 2409 3951 2014 
Q 3475 1619 2584 1619 
L 1791 1619 
L 1791 0 
L 588 0 
L 588 4666 
z
M 1791 3794 
L 1791 2491 
L 2456 2491 
Q 2806 2491 2997 2661 
Q 3188 2831 3188 3144 
Q 3188 3456 2997 3625 
Q 2806 3794 2456 3794 
L 1791 3794 
z
" transform="scale(0.015625)"/>
      <path id="DejaVuSans-Bold-65" d="M 4031 1759 
L 4031 1441 
L 1416 1441 
Q 1456 1047 1700 850 
Q 1944 653 2381 653 
Q 2734 653 3104 758 
Q 3475 863 3866 1075 
L 3866 213 
Q 3469 63 3072 -14 
Q 2675 -91 2278 -91 
Q 1328 -91 801 392 
Q 275 875 275 1747 
Q 275 2603 792 3093 
Q 1309 3584 2216 3584 
Q 3041 3584 3536 3087 
Q 4031 2591 4031 1759 
z
M 2881 2131 
Q 2881 2450 2695 2645 
Q 2509 2841 2209 2841 
Q 1884 2841 1681 2658 
Q 1478 2475 1428 2131 
L 2881 2131 
z
" transform="scale(0.015625)"/>
      <path id="DejaVuSans-Bold-72" d="M 3138 2547 
Q 2991 2616 2845 2648 
Q 2700 2681 2553 2681 
Q 2122 2681 1889 2404 
Q 1656 2128 1656 1613 
L 1656 0 
L 538 0 
L 538 3500 
L 1656 3500 
L 1656 2925 
Q 1872 3269 2151 3426 
Q 2431 3584 2822 3584 
Q 2878 3584 2943 3579 
Q 3009 3575 3134 3559 
L 3138 2547 
z
" transform="scale(0.015625)"/>
      <path id="DejaVuSans-Bold-66" d="M 2841 4863 
L 2841 4128 
L 2222 4128 
Q 1984 4128 1890 4042 
Q 1797 3956 1797 3744 
L 1797 3500 
L 2753 3500 
L 2753 2700 
L 1797 2700 
L 1797 0 
L 678 0 
L 678 2700 
L 122 2700 
L 122 3500 
L 678 3500 
L 678 3744 
Q 678 4316 997 4589 
Q 1316 4863 1984 4863 
L 2841 4863 
z
" transform="scale(0.015625)"/>
      <path id="DejaVuSans-Bold-6f" d="M 2203 2784 
Q 1831 2784 1636 2517 
Q 1441 2250 1441 1747 
Q 1441 1244 1636 976 
Q 1831 709 2203 709 
Q 2569 709 2762 976 
Q 2956 1244 2956 1747 
Q 2956 2250 2762 2517 
Q 2569 2784 2203 2784 
z
M 2203 3584 
Q 3106 3584 3614 3096 
Q 4122 2609 4122 1747 
Q 4122 884 3614 396 
Q 3106 -91 2203 -91 
Q 1297 -91 786 396 
Q 275 884 275 1747 
Q 275 2609 786 3096 
Q 1297 3584 2203 3584 
z
" transform="scale(0.015625)"/>
      <path id="DejaVuSans-Bold-6d" d="M 3781 2919 
Q 3994 3244 4286 3414 
Q 4578 3584 4928 3584 
Q 5531 3584 5847 3212 
Q 6163 2841 6163 2131 
L 6163 0 
L 5038 0 
L 5038 1825 
Q 5041 1866 5042 1909 
Q 5044 1953 5044 2034 
Q 5044 2406 4934 2573 
Q 4825 2741 4581 2741 
Q 4263 2741 4089 2478 
Q 3916 2216 3909 1719 
L 3909 0 
L 2784 0 
L 2784 1825 
Q 2784 2406 2684 2573 
Q 2584 2741 2328 2741 
Q 2006 2741 1831 2477 
Q 1656 2213 1656 1722 
L 1656 0 
L 531 0 
L 531 3500 
L 1656 3500 
L 1656 2988 
Q 1863 3284 2130 3434 
Q 2397 3584 2719 3584 
Q 3081 3584 3359 3409 
Q 3638 3234 3781 2919 
z
" transform="scale(0.015625)"/>
      <path id="DejaVuSans-Bold-61" d="M 2106 1575 
Q 1756 1575 1579 1456 
Q 1403 1338 1403 1106 
Q 1403 894 1545 773 
Q 1688 653 1941 653 
Q 2256 653 2472 879 
Q 2688 1106 2688 1447 
L 2688 1575 
L 2106 1575 
z
M 3816 1997 
L 3816 0 
L 2688 0 
L 2688 519 
Q 2463 200 2181 54 
Q 1900 -91 1497 -91 
Q 953 -91 614 226 
Q 275 544 275 1050 
Q 275 1666 698 1953 
Q 1122 2241 2028 2241 
L 2688 2241 
L 2688 2328 
Q 2688 2594 2478 2717 
Q 2269 2841 1825 2841 
Q 1466 2841 1156 2769 
Q 847 2697 581 2553 
L 581 3406 
Q 941 3494 1303 3539 
Q 1666 3584 2028 3584 
Q 2975 3584 3395 3211 
Q 3816 2838 3816 1997 
z
" transform="scale(0.015625)"/>
      <path id="DejaVuSans-Bold-6e" d="M 4056 2131 
L 4056 0 
L 2931 0 
L 2931 347 
L 2931 1631 
Q 2931 2084 2911 2256 
Q 2891 2428 2841 2509 
Q 2775 2619 2662 2680 
Q 2550 2741 2406 2741 
Q 2056 2741 1856 2470 
Q 1656 2200 1656 1722 
L 1656 0 
L 538 0 
L 538 3500 
L 1656 3500 
L 1656 2988 
Q 1909 3294 2193 3439 
Q 2478 3584 2822 3584 
Q 3428 3584 3742 3212 
Q 4056 2841 4056 2131 
z
" transform="scale(0.015625)"/>
      <path id="DejaVuSans-Bold-63" d="M 3366 3391 
L 3366 2478 
Q 3138 2634 2908 2709 
Q 2678 2784 2431 2784 
Q 1963 2784 1702 2511 
Q 1441 2238 1441 1747 
Q 1441 1256 1702 982 
Q 1963 709 2431 709 
Q 2694 709 2930 787 
Q 3166 866 3366 1019 
L 3366 103 
Q 3103 6 2833 -42 
Q 2563 -91 2291 -91 
Q 1344 -91 809 395 
Q 275 881 275 1747 
Q 275 2613 809 3098 
Q 1344 3584 2291 3584 
Q 2566 3584 2833 3536 
Q 3100 3488 3366 3391 
z
" transform="scale(0.015625)"/>
      <path id="DejaVuSans-Bold-20" transform="scale(0.015625)"/>
      <path id="DejaVuSans-Bold-62" d="M 2400 722 
Q 2759 722 2948 984 
Q 3138 1247 3138 1747 
Q 3138 2247 2948 2509 
Q 2759 2772 2400 2772 
Q 2041 2772 1848 2508 
Q 1656 2244 1656 1747 
Q 1656 1250 1848 986 
Q 2041 722 2400 722 
z
M 1656 2988 
Q 1888 3294 2169 3439 
Q 2450 3584 2816 3584 
Q 3463 3584 3878 3070 
Q 4294 2556 4294 1747 
Q 4294 938 3878 423 
Q 3463 -91 2816 -91 
Q 2450 -91 2169 54 
Q 1888 200 1656 506 
L 1656 0 
L 538 0 
L 538 4863 
L 1656 4863 
L 1656 2988 
z
" transform="scale(0.015625)"/>
      <path id="DejaVuSans-Bold-79" d="M 78 3500 
L 1197 3500 
L 2138 1125 
L 2938 3500 
L 4056 3500 
L 2584 -331 
Q 2363 -916 2067 -1148 
Q 1772 -1381 1288 -1381 
L 641 -1381 
L 641 -647 
L 991 -647 
Q 1275 -647 1404 -556 
Q 1534 -466 1606 -231 
L 1638 -134 
L 78 3500 
z
" transform="scale(0.015625)"/>
      <path id="DejaVuSans-Bold-73" d="M 3272 3391 
L 3272 2541 
Q 2913 2691 2578 2766 
Q 2244 2841 1947 2841 
Q 1628 2841 1473 2761 
Q 1319 2681 1319 2516 
Q 1319 2381 1436 2309 
Q 1553 2238 1856 2203 
L 2053 2175 
Q 2913 2066 3209 1816 
Q 3506 1566 3506 1031 
Q 3506 472 3093 190 
Q 2681 -91 1863 -91 
Q 1516 -91 1145 -36 
Q 775 19 384 128 
L 384 978 
Q 719 816 1070 734 
Q 1422 653 1784 653 
Q 2113 653 2278 743 
Q 2444 834 2444 1013 
Q 2444 1163 2330 1236 
Q 2216 1309 1875 1350 
L 1678 1375 
Q 931 1469 631 1722 
Q 331 1975 331 2491 
Q 331 3047 712 3315 
Q 1094 3584 1881 3584 
Q 2191 3584 2531 3537 
Q 2872 3491 3272 3391 
z
" transform="scale(0.015625)"/>
      <path id="DejaVuSans-Bold-70" d="M 1656 506 
L 1656 -1331 
L 538 -1331 
L 538 3500 
L 1656 3500 
L 1656 2988 
Q 1888 3294 2169 3439 
Q 2450 3584 2816 3584 
Q 3463 3584 3878 3070 
Q 4294 2556 4294 1747 
Q 4294 938 3878 423 
Q 3463 -91 2816 -91 
Q 2450 -91 2169 54 
Q 1888 200 1656 506 
z
M 2400 2772 
Q 2041 2772 1848 2508 
Q 1656 2244 1656 1747 
Q 1656 1250 1848 986 
Q 2041 722 2400 722 
Q 2759 722 2948 984 
Q 3138 1247 3138 1747 
Q 3138 2247 2948 2509 
Q 2759 2772 2400 2772 
z
" transform="scale(0.015625)"/>
      <path id="DejaVuSans-Bold-6c" d="M 538 4863 
L 1656 4863 
L 1656 0 
L 538 0 
L 538 4863 
z
" transform="scale(0.015625)"/>
      <path id="DejaVuSans-Bold-69" d="M 538 3500 
L 1656 3500 
L 1656 0 
L 538 0 
L 538 3500 
z
M 538 4863 
L 1656 4863 
L 1656 3950 
L 538 3950 
L 538 4863 
z
" transform="scale(0.015625)"/>
      <path id="DejaVuSans-Bold-7a" d="M 366 3500 
L 3419 3500 
L 3419 2719 
L 1575 800 
L 3419 800 
L 3419 0 
L 288 0 
L 288 781 
L 2131 2700 
L 366 2700 
L 366 3500 
z
" transform="scale(0.015625)"/>
     </defs>
     <use xlink:href="#DejaVuSans-Bold-50"/>
     <use xlink:href="#DejaVuSans-Bold-65" transform="translate(73.291016 0)"/>
     <use xlink:href="#DejaVuSans-Bold-72" transform="translate(141.113281 0)"/>
     <use xlink:href="#DejaVuSans-Bold-66" transform="translate(190.429688 0)"/>
     <use xlink:href="#DejaVuSans-Bold-6f" transform="translate(233.935547 0)"/>
     <use xlink:href="#DejaVuSans-Bold-72" transform="translate(302.636719 0)"/>
     <use xlink:href="#DejaVuSans-Bold-6d" transform="translate(351.953125 0)"/>
     <use xlink:href="#DejaVuSans-Bold-61" transform="translate(456.152344 0)"/>
     <use xlink:href="#DejaVuSans-Bold-6e" transform="translate(523.632812 0)"/>
     <use xlink:href="#DejaVuSans-Bold-63" transform="translate(594.824219 0)"/>
     <use xlink:href="#DejaVuSans-Bold-65" transform="translate(654.101562 0)"/>
     <use xlink:href="#DejaVuSans-Bold-20" transform="translate(721.923828 0)"/>
     <use xlink:href="#DejaVuSans-Bold-62" transform="translate(756.738281 0)"/>
     <use xlink:href="#DejaVuSans-Bold-79" transform="translate(828.320312 0)"/>
     <use xlink:href="#DejaVuSans-Bold-20" transform="translate(893.505859 0)"/>
     <use xlink:href="#DejaVuSans-Bold-73" transform="translate(928.320312 0)"/>
     <use xlink:href="#DejaVuSans-Bold-61" transform="translate(987.841797 0)"/>
     <use xlink:href="#DejaVuSans-Bold-6d" transform="translate(1055.322266 0)"/>
     <use xlink:href="#DejaVuSans-Bold-70" transform="translate(1159.521484 0)"/>
     <use xlink:href="#DejaVuSans-Bold-6c" transform="translate(1231.103516 0)"/>
     <use xlink:href="#DejaVuSans-Bold-65" transform="translate(1265.380859 0)"/>
     <use xlink:href="#DejaVuSans-Bold-20" transform="translate(1333.203125 0)"/>
     <use xlink:href="#DejaVuSans-Bold-73" transform="translate(1368.017578 0)"/>
     <use xlink:href="#DejaVuSans-Bold-69" transform="translate(1427.539062 0)"/>
     <use xlink:href="#DejaVuSans-Bold-7a" transform="translate(1461.816406 0)"/>
     <use xlink:href="#DejaVuSans-Bold-65" transform="translate(1520.019531 0)"/>
    </g>
   </g>
   <g id="PathCollection_1">
    <defs>
     <path id="m904ed1c412" d="M 0 3 
C 0.795609 3 1.55874 2.683901 2.12132 2.12132 
C 2.683901 1.55874 3 0.795609 3 0 
C 3 -0.795609 2.683901 -1.55874 2.12132 -2.12132 
C 1.55874 -2.683901 0.795609 -3 0 -3 
C -0.795609 -3 -1.55874 -2.683901 -2.12132 -2.12132 
C -2.683901 -1.55874 -3 -0.795609 -3 0 
C -3 0.795609 -2.683901 1.55874 -2.12132 2.12132 
C -1.55874 2.683901 -0.795609 3 0 3 
z
" style="stroke: #ffffff; stroke-width: 0.4"/>
    </defs>
    <g clip-path="url(#pe7664debde)">
     <use xlink:href="#m904ed1c412" x="69.729915" y="102.433245" style="fill: #141414; stroke: #ffffff; stroke-width: 0.4"/>
     <use xlink:href="#m904ed1c412" x="72.407966" y="301.502125" style="fill: #141414; stroke: #ffffff; stroke-width: 0.4"/>
     <use xlink:href="#m904ed1c412" x="87.449687" y="293.816932" style="fill: #141414; stroke: #ffffff; stroke-width: 0.4"/>
     <use xlink:href="#m904ed1c412" x="87.717492" y="71.767087" style="fill: #141414; stroke: #ffffff; stroke-width: 0.4"/>
     <use xlink:href="#m904ed1c412" x="89.636762" y="189.768374" style="fill: #141414; stroke: #ffffff; stroke-width: 0.4"/>
     <use xlink:href="#m904ed1c412" x="103.7858" y="175.890259" style="fill: #141414; stroke: #ffffff; stroke-width: 0.4"/>
     <use xlink:href="#m904ed1c412" x="105.169459" y="156.789197" style="fill: #141414; stroke: #ffffff; stroke-width: 0.4"/>
     <use xlink:href="#m904ed1c412" x="105.571167" y="91.688898" style="fill: #141414; stroke: #ffffff; stroke-width: 0.4"/>
     <use xlink:href="#m904ed1c412" x="107.490437" y="123.511566" style="fill: #141414; stroke: #ffffff; stroke-width: 0.4"/>
     <use xlink:href="#m904ed1c412" x="109.23117" y="69.043694" style="fill: #141414; stroke: #ffffff; stroke-width: 0.4"/>
     <use xlink:href="#m904ed1c412" x="110.570196" y="128.809126" style="fill: #141414; stroke: #ffffff; stroke-width: 0.4"/>
     <use xlink:href="#m904ed1c412" x="113.783858" y="122.54159" style="fill: #141414; stroke: #ffffff; stroke-width: 0.4"/>
     <use xlink:href="#m904ed1c412" x="115.658493" y="117.430563" style="fill: #141414; stroke: #ffffff; stroke-width: 0.4"/>
     <use xlink:href="#m904ed1c412" x="117.176056" y="184.433507" style="fill: #141414; stroke: #ffffff; stroke-width: 0.4"/>
     <use xlink:href="#m904ed1c412" x="119.318497" y="60.985433" style="fill: #141414; stroke: #ffffff; stroke-width: 0.4"/>
     <use xlink:href="#m904ed1c412" x="120.434351" y="187.716502" style="fill: #141414; stroke: #ffffff; stroke-width: 0.4"/>
     <use xlink:href="#m904ed1c412" x="124.89777" y="106.201228" style="fill: #141414; stroke: #ffffff; stroke-width: 0.4"/>
     <use xlink:href="#m904ed1c412" x="126.236796" y="133.472471" style="fill: #141414; stroke: #ffffff; stroke-width: 0.4"/>
     <use xlink:href="#m904ed1c412" x="127.66509" y="131.495213" style="fill: #141414; stroke: #ffffff; stroke-width: 0.4"/>
     <use xlink:href="#m904ed1c412" x="129.807531" y="88.592437" style="fill: #141414; stroke: #ffffff; stroke-width: 0.4"/>
     <use xlink:href="#m904ed1c412" x="133.467534" y="84.339466" style="fill: #141414; stroke: #ffffff; stroke-width: 0.4"/>
     <use xlink:href="#m904ed1c412" x="133.913876" y="223.232539" style="fill: #141414; stroke: #ffffff; stroke-width: 0.4"/>
     <use xlink:href="#m904ed1c412" x="139.359247" y="66.767981" style="fill: #141414; stroke: #ffffff; stroke-width: 0.4"/>
     <use xlink:href="#m904ed1c412" x="142.751445" y="166.414341" style="fill: #141414; stroke: #ffffff; stroke-width: 0.4"/>
     <use xlink:href="#m904ed1c412" x="147.973645" y="46.920784" style="fill: #141414; stroke: #ffffff; stroke-width: 0.4"/>
     <use xlink:href="#m904ed1c412" x="149.982183" y="94.710746" style="fill: #141414; stroke: #ffffff; stroke-width: 0.4"/>
     <use xlink:href="#m904ed1c412" x="153.820723" y="183.239691" style="fill: #141414; stroke: #ffffff; stroke-width: 0.4"/>
     <use xlink:href="#m904ed1c412" x="155.650725" y="92.248499" style="fill: #141414; stroke: #ffffff; stroke-width: 0.4"/>
     <use xlink:href="#m904ed1c412" x="157.123653" y="119.258595" style="fill: #141414; stroke: #ffffff; stroke-width: 0.4"/>
     <use xlink:href="#m904ed1c412" x="158.551947" y="62.552317" style="fill: #141414; stroke: #ffffff; stroke-width: 0.4"/>
     <use xlink:href="#m904ed1c412" x="161.98878" y="139.628087" style="fill: #141414; stroke: #ffffff; stroke-width: 0.4"/>
     <use xlink:href="#m904ed1c412" x="171.317325" y="64.865336" style="fill: #141414; stroke: #ffffff; stroke-width: 0.4"/>
     <use xlink:href="#m904ed1c412" x="171.763667" y="204.691079" style="fill: #141414; stroke: #ffffff; stroke-width: 0.4"/>
     <use xlink:href="#m904ed1c412" x="173.281229" y="159.363363" style="fill: #141414; stroke: #ffffff; stroke-width: 0.4"/>
     <use xlink:href="#m904ed1c412" x="177.476843" y="67.47681" style="fill: #141414; stroke: #ffffff; stroke-width: 0.4"/>
     <use xlink:href="#m904ed1c412" x="182.431237" y="57.590518" style="fill: #141414; stroke: #ffffff; stroke-width: 0.4"/>
     <use xlink:href="#m904ed1c412" x="199.749302" y="141.456118" style="fill: #141414; stroke: #ffffff; stroke-width: 0.4"/>
     <use xlink:href="#m904ed1c412" x="199.927839" y="156.453436" style="fill: #141414; stroke: #ffffff; stroke-width: 0.4"/>
     <use xlink:href="#m904ed1c412" x="202.516622" y="128.547978" style="fill: #141414; stroke: #ffffff; stroke-width: 0.4"/>
     <use xlink:href="#m904ed1c412" x="204.034184" y="92.845408" style="fill: #141414; stroke: #ffffff; stroke-width: 0.4"/>
     <use xlink:href="#m904ed1c412" x="211.845167" y="101.948257" style="fill: #141414; stroke: #ffffff; stroke-width: 0.4"/>
     <use xlink:href="#m904ed1c412" x="267.905706" y="140.224995" style="fill: #141414; stroke: #ffffff; stroke-width: 0.4"/>
     <use xlink:href="#m904ed1c412" x="273.484979" y="39.422125" style="fill: #141414; stroke: #ffffff; stroke-width: 0.4"/>
     <use xlink:href="#m904ed1c412" x="275.761323" y="60.612366" style="fill: #141414; stroke: #ffffff; stroke-width: 0.4"/>
     <use xlink:href="#m904ed1c412" x="281.028157" y="112.543378" style="fill: #141414; stroke: #ffffff; stroke-width: 0.4"/>
     <use xlink:href="#m904ed1c412" x="285.313039" y="120.228571" style="fill: #141414; stroke: #ffffff; stroke-width: 0.4"/>
     <use xlink:href="#m904ed1c412" x="291.963533" y="198.162395" style="fill: #141414; stroke: #ffffff; stroke-width: 0.4"/>
     <use xlink:href="#m904ed1c412" x="304.282568" y="185.067722" style="fill: #141414; stroke: #ffffff; stroke-width: 0.4"/>
     <use xlink:href="#m904ed1c412" x="324.23405" y="238.901379" style="fill: #141414; stroke: #ffffff; stroke-width: 0.4"/>
     <use xlink:href="#m904ed1c412" x="505.98446" y="179.546321" style="fill: #141414; stroke: #ffffff; stroke-width: 0.4"/>
    </g>
   </g>
   <g id="legend_1">
    <g id="PathCollection_2">
     <g>
      <use xlink:href="#m904ed1c412" x="446.1675" y="40.291562" style="fill: #141414; stroke: #ffffff; stroke-width: 0.4"/>
     </g>
    </g>
    <g id="text_18">
     <!-- R2 -->
     <g transform="translate(464.1675 42.916562) scale(0.1 -0.1)">
      <defs>
       <path id="DejaVuSans-52" d="M 2841 2188 
Q 3044 2119 3236 1894 
Q 3428 1669 3622 1275 
L 4263 0 
L 3584 0 
L 2988 1197 
Q 2756 1666 2539 1819 
Q 2322 1972 1947 1972 
L 1259 1972 
L 1259 0 
L 628 0 
L 628 4666 
L 2053 4666 
Q 2853 4666 3247 4331 
Q 3641 3997 3641 3322 
Q 3641 2881 3436 2590 
Q 3231 2300 2841 2188 
z
M 1259 4147 
L 1259 2491 
L 2053 2491 
Q 2509 2491 2742 2702 
Q 2975 2913 2975 3322 
Q 2975 3731 2742 3939 
Q 2509 4147 2053 4147 
L 1259 4147 
z
" transform="scale(0.015625)"/>
      </defs>
      <use xlink:href="#DejaVuSans-52"/>
      <use xlink:href="#DejaVuSans-32" transform="translate(69.482422 0)"/>
     </g>
    </g>
    <g id="PathCollection_3">
     <defs>
      <path id="m4f2dc56142" d="M -3.535534 3.535534 
L 3.535534 -3.535534 
M -3.535534 -3.535534 
L 3.535534 3.535534 
" style="stroke: #474747"/>
     </defs>
     <g>
      <use xlink:href="#m4f2dc56142" x="446.1675" y="54.969687" style="fill: #474747; stroke: #474747"/>
     </g>
    </g>
    <g id="text_19">
     <!-- Mean error -->
     <g transform="translate(464.1675 57.594687) scale(0.1 -0.1)">
      <use xlink:href="#DejaVuSans-4d"/>
      <use xlink:href="#DejaVuSans-65" transform="translate(86.279297 0)"/>
      <use xlink:href="#DejaVuSans-61" transform="translate(147.802734 0)"/>
      <use xlink:href="#DejaVuSans-6e" transform="translate(209.082031 0)"/>
      <use xlink:href="#DejaVuSans-20" transform="translate(272.460938 0)"/>
      <use xlink:href="#DejaVuSans-65" transform="translate(304.248047 0)"/>
      <use xlink:href="#DejaVuSans-72" transform="translate(365.771484 0)"/>
      <use xlink:href="#DejaVuSans-72" transform="translate(405.134766 0)"/>
      <use xlink:href="#DejaVuSans-6f" transform="translate(443.998047 0)"/>
      <use xlink:href="#DejaVuSans-72" transform="translate(505.179688 0)"/>
     </g>
    </g>
   </g>
  </g>
  <g id="axes_2">
   <g id="matplotlib.axis_3">
    <g id="ytick_9">
     <g id="line2d_15">
      <defs>
       <path id="m6147ad3c6e" d="M 0 0 
L 3.5 0 
" style="stroke: #474747; stroke-width: 0.8"/>
      </defs>
      <g>
       <use xlink:href="#m6147ad3c6e" x="527.797187" y="312.563778" style="fill: #474747; stroke: #474747; stroke-width: 0.8"/>
      </g>
     </g>
     <g id="text_20">
      <!-- 0.20 -->
      <g style="fill: #474747" transform="translate(534.797187 315.983075) scale(0.09 -0.09)">
       <use xlink:href="#DejaVuSans-30"/>
       <use xlink:href="#DejaVuSans-2e" transform="translate(63.623047 0)"/>
       <use xlink:href="#DejaVuSans-32" transform="translate(95.410156 0)"/>
       <use xlink:href="#DejaVuSans-30" transform="translate(159.033203 0)"/>
      </g>
     </g>
    </g>
    <g id="ytick_10">
     <g id="line2d_16">
      <g>
       <use xlink:href="#m6147ad3c6e" x="527.797187" y="261.822249" style="fill: #474747; stroke: #474747; stroke-width: 0.8"/>
      </g>
     </g>
     <g id="text_21">
      <!-- 0.30 -->
      <g style="fill: #474747" transform="translate(534.797187 265.241546) scale(0.09 -0.09)">
       <use xlink:href="#DejaVuSans-30"/>
       <use xlink:href="#DejaVuSans-2e" transform="translate(63.623047 0)"/>
       <use xlink:href="#DejaVuSans-33" transform="translate(95.410156 0)"/>
       <use xlink:href="#DejaVuSans-30" transform="translate(159.033203 0)"/>
      </g>
     </g>
    </g>
    <g id="ytick_11">
     <g id="line2d_17">
      <g>
       <use xlink:href="#m6147ad3c6e" x="527.797187" y="211.080719" style="fill: #474747; stroke: #474747; stroke-width: 0.8"/>
      </g>
     </g>
     <g id="text_22">
      <!-- 0.40 -->
      <g style="fill: #474747" transform="translate(534.797187 214.500016) scale(0.09 -0.09)">
       <use xlink:href="#DejaVuSans-30"/>
       <use xlink:href="#DejaVuSans-2e" transform="translate(63.623047 0)"/>
       <use xlink:href="#DejaVuSans-34" transform="translate(95.410156 0)"/>
       <use xlink:href="#DejaVuSans-30" transform="translate(159.033203 0)"/>
      </g>
     </g>
    </g>
    <g id="ytick_12">
     <g id="line2d_18">
      <g>
       <use xlink:href="#m6147ad3c6e" x="527.797187" y="160.33919" style="fill: #474747; stroke: #474747; stroke-width: 0.8"/>
      </g>
     </g>
     <g id="text_23">
      <!-- 0.50 -->
      <g style="fill: #474747" transform="translate(534.797187 163.758487) scale(0.09 -0.09)">
       <use xlink:href="#DejaVuSans-30"/>
       <use xlink:href="#DejaVuSans-2e" transform="translate(63.623047 0)"/>
       <use xlink:href="#DejaVuSans-35" transform="translate(95.410156 0)"/>
       <use xlink:href="#DejaVuSans-30" transform="translate(159.033203 0)"/>
      </g>
     </g>
    </g>
    <g id="ytick_13">
     <g id="line2d_19">
      <g>
       <use xlink:href="#m6147ad3c6e" x="527.797187" y="109.59766" style="fill: #474747; stroke: #474747; stroke-width: 0.8"/>
      </g>
     </g>
     <g id="text_24">
      <!-- 0.60 -->
      <g style="fill: #474747" transform="translate(534.797187 113.016957) scale(0.09 -0.09)">
       <use xlink:href="#DejaVuSans-30"/>
       <use xlink:href="#DejaVuSans-2e" transform="translate(63.623047 0)"/>
       <use xlink:href="#DejaVuSans-36" transform="translate(95.410156 0)"/>
       <use xlink:href="#DejaVuSans-30" transform="translate(159.033203 0)"/>
      </g>
     </g>
    </g>
    <g id="ytick_14">
     <g id="line2d_20">
      <g>
       <use xlink:href="#m6147ad3c6e" x="527.797187" y="58.856131" style="fill: #474747; stroke: #474747; stroke-width: 0.8"/>
      </g>
     </g>
     <g id="text_25">
      <!-- 0.70 -->
      <g style="fill: #474747" transform="translate(534.797187 62.275428) scale(0.09 -0.09)">
       <use xlink:href="#DejaVuSans-30"/>
       <use xlink:href="#DejaVuSans-2e" transform="translate(63.623047 0)"/>
       <use xlink:href="#DejaVuSans-37" transform="translate(95.410156 0)"/>
       <use xlink:href="#DejaVuSans-30" transform="translate(159.033203 0)"/>
      </g>
     </g>
    </g>
    <g id="text_26">
     <!-- R2 -->
     <g style="fill: #474747" transform="translate(566.434687 177.117594) rotate(-90) scale(0.1 -0.1)">
      <use xlink:href="#DejaVuSans-52"/>
      <use xlink:href="#DejaVuSans-32" transform="translate(69.482422 0)"/>
     </g>
    </g>
   </g>
   <g id="patch_5">
    <path d="M 527.797187 314.606125 
L 527.797187 26.318125 
" style="fill: none; stroke: #333333; stroke-width: 0.8; stroke-linejoin: miter; stroke-linecap: square"/>
   </g>
   <g id="patch_6">
    <path d="M 47.917187 314.606125 
L 527.797187 314.606125 
" style="fill: none; stroke: #333333; stroke-width: 0.8; stroke-linejoin: miter; stroke-linecap: square"/>
   </g>
   <g id="PathCollection_4">
    <g clip-path="url(#pe7664debde)">
     <use xlink:href="#m4f2dc56142" x="69.729915" y="178.91059" style="fill: #474747; stroke: #474747"/>
     <use xlink:href="#m4f2dc56142" x="72.407966" y="301.502125" style="fill: #474747; stroke: #474747"/>
     <use xlink:href="#m4f2dc56142" x="87.449687" y="251.318752" style="fill: #474747; stroke: #474747"/>
     <use xlink:href="#m4f2dc56142" x="87.717492" y="184.289192" style="fill: #474747; stroke: #474747"/>
     <use xlink:href="#m4f2dc56142" x="89.636762" y="62.509521" style="fill: #474747; stroke: #474747"/>
     <use xlink:href="#m4f2dc56142" x="103.7858" y="152.981668" style="fill: #474747; stroke: #474747"/>
     <use xlink:href="#m4f2dc56142" x="105.169459" y="86.053591" style="fill: #474747; stroke: #474747"/>
     <use xlink:href="#m4f2dc56142" x="105.571167" y="146.537494" style="fill: #474747; stroke: #474747"/>
     <use xlink:href="#m4f2dc56142" x="107.490437" y="54.086427" style="fill: #474747; stroke: #474747"/>
     <use xlink:href="#m4f2dc56142" x="109.23117" y="199.765358" style="fill: #474747; stroke: #474747"/>
     <use xlink:href="#m4f2dc56142" x="110.570196" y="56.268313" style="fill: #474747; stroke: #474747"/>
     <use xlink:href="#m4f2dc56142" x="113.783858" y="108.379864" style="fill: #474747; stroke: #474747"/>
     <use xlink:href="#m4f2dc56142" x="115.658493" y="135.831031" style="fill: #474747; stroke: #474747"/>
     <use xlink:href="#m4f2dc56142" x="117.176056" y="87.474353" style="fill: #474747; stroke: #474747"/>
     <use xlink:href="#m4f2dc56142" x="119.318497" y="162.977749" style="fill: #474747; stroke: #474747"/>
     <use xlink:href="#m4f2dc56142" x="120.434351" y="54.898292" style="fill: #474747; stroke: #474747"/>
     <use xlink:href="#m4f2dc56142" x="124.89777" y="96.760053" style="fill: #474747; stroke: #474747"/>
     <use xlink:href="#m4f2dc56142" x="126.236796" y="132.076158" style="fill: #474747; stroke: #474747"/>
     <use xlink:href="#m4f2dc56142" x="127.66509" y="59.465029" style="fill: #474747; stroke: #474747"/>
     <use xlink:href="#m4f2dc56142" x="129.807531" y="180.889509" style="fill: #474747; stroke: #474747"/>
     <use xlink:href="#m4f2dc56142" x="133.467534" y="113.606241" style="fill: #474747; stroke: #474747"/>
     <use xlink:href="#m4f2dc56142" x="133.913876" y="70.831132" style="fill: #474747; stroke: #474747"/>
     <use xlink:href="#m4f2dc56142" x="139.359247" y="186.471078" style="fill: #474747; stroke: #474747"/>
     <use xlink:href="#m4f2dc56142" x="142.751445" y="126.240882" style="fill: #474747; stroke: #474747"/>
     <use xlink:href="#m4f2dc56142" x="147.973645" y="194.488239" style="fill: #474747; stroke: #474747"/>
     <use xlink:href="#m4f2dc56142" x="149.982183" y="211.182202" style="fill: #474747; stroke: #474747"/>
     <use xlink:href="#m4f2dc56142" x="153.820723" y="77.376789" style="fill: #474747; stroke: #474747"/>
     <use xlink:href="#m4f2dc56142" x="155.650725" y="150.495333" style="fill: #474747; stroke: #474747"/>
     <use xlink:href="#m4f2dc56142" x="157.123653" y="154.300948" style="fill: #474747; stroke: #474747"/>
     <use xlink:href="#m4f2dc56142" x="158.551947" y="165.768534" style="fill: #474747; stroke: #474747"/>
     <use xlink:href="#m4f2dc56142" x="161.98878" y="72.607085" style="fill: #474747; stroke: #474747"/>
     <use xlink:href="#m4f2dc56142" x="171.317325" y="187.384425" style="fill: #474747; stroke: #474747"/>
     <use xlink:href="#m4f2dc56142" x="171.763667" y="69.055178" style="fill: #474747; stroke: #474747"/>
     <use xlink:href="#m4f2dc56142" x="173.281229" y="94.121494" style="fill: #474747; stroke: #474747"/>
     <use xlink:href="#m4f2dc56142" x="177.476843" y="175.815356" style="fill: #474747; stroke: #474747"/>
     <use xlink:href="#m4f2dc56142" x="182.431237" y="111.779546" style="fill: #474747; stroke: #474747"/>
     <use xlink:href="#m4f2dc56142" x="199.749302" y="134.917684" style="fill: #474747; stroke: #474747"/>
     <use xlink:href="#m4f2dc56142" x="199.927839" y="63.676576" style="fill: #474747; stroke: #474747"/>
     <use xlink:href="#m4f2dc56142" x="202.516622" y="140.245544" style="fill: #474747; stroke: #474747"/>
     <use xlink:href="#m4f2dc56142" x="204.034184" y="187.282942" style="fill: #474747; stroke: #474747"/>
     <use xlink:href="#m4f2dc56142" x="211.845167" y="147.958257" style="fill: #474747; stroke: #474747"/>
     <use xlink:href="#m4f2dc56142" x="267.905706" y="52.158249" style="fill: #474747; stroke: #474747"/>
     <use xlink:href="#m4f2dc56142" x="273.484979" y="140.549993" style="fill: #474747; stroke: #474747"/>
     <use xlink:href="#m4f2dc56142" x="275.761323" y="175.561649" style="fill: #474747; stroke: #474747"/>
     <use xlink:href="#m4f2dc56142" x="281.028157" y="117.513339" style="fill: #474747; stroke: #474747"/>
     <use xlink:href="#m4f2dc56142" x="285.313039" y="135.526582" style="fill: #474747; stroke: #474747"/>
     <use xlink:href="#m4f2dc56142" x="291.963533" y="77.529014" style="fill: #474747; stroke: #474747"/>
     <use xlink:href="#m4f2dc56142" x="304.282568" y="139.484421" style="fill: #474747; stroke: #474747"/>
     <use xlink:href="#m4f2dc56142" x="324.23405" y="39.422125" style="fill: #474747; stroke: #474747"/>
     <use xlink:href="#m4f2dc56142" x="505.98446" y="202.251693" style="fill: #474747; stroke: #474747"/>
    </g>
   </g>
  </g>
 </g>
 <defs>
  <clipPath id="pe7664debde">
   <rect x="47.917187" y="26.318125" width="479.88" height="288.288"/>
  </clipPath>
 </defs>
</svg>
